<?xml version="1.0" encoding="utf-8"?>
<!-- Generator: Adobe Illustrator 17.0.0, SVG Export Plug-In . SVG Version: 6.00 Build 0)  -->
<!DOCTYPE svg PUBLIC "-//W3C//DTD SVG 1.1//EN" "http://www.w3.org/Graphics/SVG/1.1/DTD/svg11.dtd">
<svg version="1.1" id="Layer_1" xmlns="http://www.w3.org/2000/svg" xmlns:xlink="http://www.w3.org/1999/xlink" x="0px" y="0px"
	 width="600.371px" height="150px" viewBox="0 75 600.371 150" enable-background="new 0 75 600.371 150" xml:space="preserve">
<g>
	<path fill="#FFFFFF" d="M226.827,166.379c0,5.76,3.42,10.8,11.514,10.8c9.12,0,16.53-7.68,16.872-18.119l0.228-5.28
		c-2.736-0.36-5.586-0.48-8.094-0.48C231.387,153.3,226.827,159.779,226.827,166.379z"/>
	<path fill="#FFFFFF" d="M-49.815-47.727v395.455h700V-47.727H-49.815z M206.992,162.06v12.24c-5.928,4.08-13.794,8.04-26.334,8.04
		c-24.168,0-41.268-19.679-41.268-43.198c0-25.199,17.556-45.238,42.294-45.238c9.006,0,17.784,3.12,23.826,7.32l-1.596,5.04
		c-5.7-4.32-14.25-7.32-22.8-7.32c-21.546,0-36.366,17.639-36.366,39.479c0,22.199,15.276,38.878,36.594,38.878
		c9.12,0,15.39-2.4,20.52-5.64V150.3c0-1.92,0-5.88-0.228-8.28c-6.156-0.12-4.218-0.12-10.602-0.12c-5.7,0-9.006,0-15.618,0.12
		c0.114-1.68,0.114-3.72,0.114-5.16c6.156,0.24,10.374,0.24,15.504,0.24c6.84,0,10.944,0,16.302-0.36
		C206.992,141.66,206.992,155.22,206.992,162.06z M267.753,179.459c-1.368,0.96-3.192,1.68-5.358,1.68
		c-3.762,0-7.296-2.16-6.84-11.999c-2.736,7.2-9.918,12.479-18.24,12.479c-10.146,0-15.504-6.6-15.504-14.879
		c0-9.24,6.84-17.279,25.65-17.279c3.078,0,5.586,0.24,8.094,0.48l0.114-2.88c0.228-11.52-4.332-17.159-13.452-17.159
		c-5.472,0-10.944,2.4-15.048,5.28l-1.254-4.8c5.358-3.24,10.83-5.16,16.872-5.16c11.058,0,18.126,6.84,17.784,20.759l-0.684,23.759
		c-0.114,5.64,1.254,7.2,3.876,7.2c1.482,0,3.078-0.72,4.332-1.44L267.753,179.459z M285.651,180.299h-5.586
		c0.342-5.16,0.456-13.199,0.456-20.159v-44.518c0-9.36-0.114-14.639-0.456-20.639c1.71-0.12,3.99-0.36,5.586-0.6
		c-0.114,0.96-0.228,8.88-0.228,14.639v59.158C285.423,172.379,285.537,177.179,285.651,180.299z M309.818,180.299h-5.586
		c0.342-5.16,0.456-13.199,0.456-20.159v-44.518c0-9.36-0.114-14.639-0.456-20.639c1.71-0.12,3.99-0.36,5.586-0.6
		c-0.114,0.96-0.228,8.88-0.228,14.639v59.158C309.59,172.379,309.704,177.179,309.818,180.299z M349.945,177.299
		c8.094,0,13.908-3.48,18.924-7.92l-0.228,5.64c-4.902,3.84-10.716,7.08-19.494,7.08c-14.934,0-24.396-11.76-24.396-26.999
		c0-16.799,10.146-29.879,25.308-29.879c13.794,0,20.748,11.039,20.748,25.319l-3.534,2.4l-37.506,0.96
		C329.653,168.899,337.861,177.299,349.945,177.299z M408.427,131.221c-9.918-0.36-17.67,9.72-17.67,18.599v18.119
		c0,4.2,0.114,8.4,0.228,12.36h-5.586c0.342-5.16,0.456-13.439,0.456-20.399V146.22c0-6.96-0.342-14.279-0.912-19.319
		c1.596-0.12,3.534-0.6,5.016-0.96l0.684,14.039c2.736-6.6,8.55-13.919,18.468-14.759L408.427,131.221z M435.558,190.498
		c-0.456,1.32-5.244,13.559-5.814,15.359c-1.14,0-4.56,0.12-5.586,0.24l11.628-29.039c-0.912-2.4-1.71-4.68-4.56-11.4l-9.006-21.719
		c-2.85-6.96-5.016-12.12-7.524-17.279l5.586-0.96l18.012,45.118l7.296-18.479c2.622-6.84,7.182-18.599,9.69-25.919
		c2.166,0,3.876,0,5.7-0.24L435.558,190.498z"/>
	<path fill="#FFFFFF" d="M349.489,129.781c-10.716,0-18.012,9.12-19.494,19.919l36.024-0.96
		C365.221,136.86,359.521,129.781,349.489,129.781z"/>
</g>
</svg>
