<?xml version="1.0" encoding="utf-8"?>
<!-- Generator: Adobe Illustrator 17.0.0, SVG Export Plug-In . SVG Version: 6.00 Build 0)  -->
<!DOCTYPE svg PUBLIC "-//W3C//DTD SVG 1.1//EN" "http://www.w3.org/Graphics/SVG/1.1/DTD/svg11.dtd">
<svg version="1.1" id="Layer_1" xmlns="http://www.w3.org/2000/svg" xmlns:xlink="http://www.w3.org/1999/xlink" x="0px" y="0px"
	 width="600.371px" height="300px" viewBox="0 0 600.371 300" enable-background="new 0 0 600.371 300" xml:space="preserve">
<path fill="#FFFFFF" d="M-49.815-47.727v395.455h700V-47.727H-49.815z M244.782,192.718l-2.166-18.719l-6.726-52.078
	c-5.928,14.519-28.158,69.837-28.614,71.277l-1.71,0.36c-0.684-1.44-23.142-57.958-28.728-71.877l-6.612,53.398
	c-0.684,5.52-1.596,12.599-2.052,17.159h-5.586c1.368-8.16,2.736-18.479,3.99-27.479l4.218-32.879
	c1.254-9.36,2.508-19.079,3.078-25.559l1.71-0.48c2.736,7.44,4.674,11.88,7.41,18.599l23.484,58.798l23.37-58.318
	c2.508-6.12,5.7-14.039,7.524-19.079h1.596l2.964,23.519l4.332,34.079c1.026,8.04,3.192,22.559,4.104,28.679L244.782,192.718z
	 M305.089,192.238l-0.798-12.24c-3.192,5.88-11.742,14.159-21.432,14.159c-9.234,0-16.302-5.64-16.302-19.679V157.68
	c0-6.24-0.114-13.44-0.342-19.319c2.052,0,3.876-0.12,5.586-0.36c-0.228,3.36-0.228,9.12-0.228,13.68v21.119
	c0,12.12,4.902,16.559,12.768,16.559c9.234,0,19.836-11.28,19.836-17.039V157.68c0-6.24-0.114-13.44-0.456-19.319
	c2.052,0,3.99-0.12,5.7-0.36c-0.228,3.36-0.228,9.12-0.228,13.68v19.919c0,6.96,0.228,15.359,0.57,20.639H305.089z M340.087,193.918
	c-6.042,0-12.198-1.8-16.188-4.32l0.456-5.76c4.218,3,9.69,5.28,15.96,5.28c6.954,0,13.224-3.84,13.224-10.92
	c0-13.079-27.816-9.84-27.816-26.519c0-8.4,7.296-14.519,16.872-14.519c6.27,0,10.944,2.04,14.022,3.96l-1.71,4.92
	c-3.306-2.4-7.296-4.08-12.426-4.08c-6.498,0-11.742,3.6-11.742,9.48c0,12.479,27.93,9.72,27.93,26.159
	C358.669,188.038,349.663,193.918,340.087,193.918z M379.188,192.238h-5.586c0.342-5.16,0.456-13.199,0.456-20.159V159.24
	c0-6.96-0.228-15.719-0.57-20.879c1.824,0,3.99-0.12,5.7-0.36c-0.114,0.96-0.228,13.32-0.228,14.52v27.599
	C378.96,184.319,379.074,189.118,379.188,192.238z M376.452,124.081c-2.394,0-3.99-2.04-3.99-4.2c0-2.4,1.71-4.32,4.218-4.32
	c2.394,0,3.876,1.92,3.876,4.08C380.556,122.041,378.96,124.081,376.452,124.081z M437.554,188.038c-5.13,3.84-10.26,6-17.556,6
	c-15.618,0-25.878-11.64-25.878-27.359c0-16.079,10.488-29.519,26.904-29.519c7.068,0,12.996,2.52,16.416,5.4l-1.596,4.92
	c-3.306-2.88-8.664-5.52-15.048-5.52c-13.452,0-21.774,11.28-21.774,23.999c0,14.519,9.234,23.279,21.546,23.279
	c7.068,0,12.54-2.76,17.214-7.08L437.554,188.038z"/>
</svg>
