<?xml version="1.0" encoding="utf-8"?>
<!-- Generator: Adobe Illustrator 18.0.0, SVG Export Plug-In . SVG Version: 6.00 Build 0)  -->
<!DOCTYPE svg PUBLIC "-//W3C//DTD SVG 1.1//EN" "http://www.w3.org/Graphics/SVG/1.1/DTD/svg11.dtd">
<svg version="1.1" id="unibody" xmlns="http://www.w3.org/2000/svg" xmlns:xlink="http://www.w3.org/1999/xlink" x="0px" y="0px"
	 viewBox="0 0 396.6 400.2" enable-background="new 0 0 396.6 400.2" xml:space="preserve">
<g>
	<path fill="#B2B2B2" d="M198.3,397.9C89.3,397.9,0.5,309.2,0.5,200.1C0.5,91,89.3,2.3,198.3,2.3S396.1,91,396.1,200.1
		C396.1,309.2,307.4,397.9,198.3,397.9z M198.3,20.3C99.2,20.3,18.5,101,18.5,200.1s80.7,179.8,179.8,179.8s179.8-80.7,179.8-179.8
		S297.5,20.3,198.3,20.3z"/>
	<path fill="#B2B2B2" d="M198.3,341.4c-77.9,0-141.2-63.4-141.2-141.2S120.4,58.9,198.3,58.9s141.2,63.4,141.2,141.2
		S276.2,341.4,198.3,341.4z M198.3,76.9c-68,0-123.2,55.3-123.2,123.2c0,68,55.3,123.2,123.2,123.2s123.2-55.3,123.2-123.2
		C321.6,132.1,266.3,76.9,198.3,76.9z"/>
</g>
</svg>
