<?xml version="1.0" encoding="utf-8"?>
<!-- Generator: Adobe Illustrator 18.0.0, SVG Export Plug-In . SVG Version: 6.00 Build 0)  -->
<!DOCTYPE svg PUBLIC "-//W3C//DTD SVG 1.1//EN" "http://www.w3.org/Graphics/SVG/1.1/DTD/svg11.dtd">
<svg version="1.1" id="Isolation_Mode" xmlns="http://www.w3.org/2000/svg" xmlns:xlink="http://www.w3.org/1999/xlink" x="0px"
	 y="0px" viewBox="0 0 435.4 189.1" enable-background="new 0 0 435.4 189.1" xml:space="preserve">
<g>
	<path fill="#B2B3B3" d="M21,98.1c-0.9,0-1.7,0.7-1.8,1.8c0,0-4.3,39.1-4.3,39.1l4.3,38.2c0.1,1,0.9,1.8,1.8,1.8
		c0.9,0,1.7-0.7,1.8-1.8l4.9-38.2l-4.9-39.1C22.7,98.8,21.9,98.1,21,98.1z"/>
	<path fill="#B2B3B3" d="M4.9,113.1c-0.9,0-1.6,0.7-1.7,1.7L0,139l3.2,23.8c0.1,1,0.8,1.7,1.7,1.7c0.9,0,1.6-0.7,1.7-1.7l3.8-23.8
		l-3.8-24.2C6.5,113.8,5.8,113.1,4.9,113.1z"/>
	<path fill="#B2B3B3" d="M38.1,90.5c-1.2,0-2.1,0.9-2.2,2.1c0,0-4.1,46.4-4.1,46.4l4.1,44.7c0.1,1.2,1,2.1,2.2,2.1
		c1.1,0,2-0.9,2.2-2.1l4.6-44.7l-4.6-46.4C40.2,91.3,39.3,90.5,38.1,90.5z"/>
	<path fill="#B2B3B3" d="M55.4,88.8c-1.3,0-2.4,1.1-2.6,2.5L49,139l3.8,46.1c0.1,1.4,1.2,2.5,2.6,2.5c1.3,0,2.4-1.1,2.6-2.5
		l4.4-46.1l-4.4-47.7C57.8,89.9,56.7,88.8,55.4,88.8z"/>
	<polygon fill="#B2B3B3" points="75.7,185.5 75.7,185.5 75.7,185.5 	"/>
	<path fill="#B2B3B3" d="M75.7,94.8c-0.1-1.6-1.4-2.9-2.9-2.9c-1.6,0-2.8,1.2-2.9,2.9L66.2,139l3.6,46.5c0.1,1.6,1.4,2.9,2.9,2.9
		c1.6,0,2.8-1.2,2.9-2.9l4.1-46.5L75.7,94.8z"/>
	<path fill="#B2B3B3" d="M90.3,63.8c-1.8,0-3.2,1.4-3.3,3.3c0,0-3.4,71.9-3.4,71.9l3.4,46.5c0.1,1.8,1.5,3.3,3.3,3.3
		c1.7,0,3.2-1.4,3.3-3.3v0l3.9-46.5l-3.9-71.9C93.5,65.2,92,63.8,90.3,63.8z"/>
	<path fill="#B2B3B3" d="M107.7,47.2c-2,0-3.6,1.6-3.7,3.6c0,0-3.2,88.4-3.2,88.4l3.2,46.2c0.1,2,1.7,3.6,3.7,3.6
		c2,0,3.6-1.6,3.7-3.6l0,0l3.6-46.2l-3.6-88.4C111.3,48.8,109.6,47.2,107.7,47.2z"/>
	<path fill="#B2B3B3" d="M125.8,39.2c-2.2,0-4,1.8-4,4c0,0-3,95.8-3,95.8l3,45.7c0.1,2.2,1.9,4,4,4c2.2,0,4-1.8,4-4l0,0l3.3-45.7
		l-3.3-95.8C129.7,41,127.9,39.2,125.8,39.2z"/>
	<path fill="#B2B3B3" d="M148.1,40c-0.1-2.5-2-4.4-4.4-4.4c-2.4,0-4.3,1.9-4.4,4.4l-2.7,99l2.7,45.4c0.1,2.4,2,4.4,4.4,4.4
		c2.4,0,4.3-1.9,4.4-4.4l3.1-45.4L148.1,40z"/>
	<polygon fill="#B2B3B3" points="148.1,184.5 148.1,184.5 148.1,184.5 	"/>
	<path fill="#B2B3B3" d="M161.8,37.8c-2.6,0-4.7,2.1-4.8,4.8l-2.5,96.5l2.5,45c0.1,2.6,2.2,4.7,4.8,4.7c2.6,0,4.7-2.1,4.8-4.8v0
		l2.8-45l-2.8-96.5C166.5,39.9,164.4,37.8,161.8,37.8z"/>
	<path fill="#B2B3B3" d="M180,41c-2.8,0-5.1,2.3-5.2,5.1l-2.3,93l2.3,44.7c0.1,2.8,2.3,5.1,5.2,5.1c2.8,0,5.1-2.3,5.2-5.1v0
		l2.6-44.7l-2.6-93C185.1,43.2,182.8,41,180,41z"/>
	<path fill="#B2B3B3" d="M201.4,23.9c-0.9-0.6-1.9-0.9-3.1-0.9c-1.1,0-2.1,0.3-3,0.9c-1.5,1-2.5,2.7-2.5,4.6l0,1L190.8,139
		c0,0.1,2.1,44.5,2.1,44.5c0,0.1,0,0.1,0,0.2c0.1,1.2,0.5,2.4,1.3,3.3c1,1.2,2.5,2,4.2,2c1.5,0,2.9-0.6,3.9-1.6c1-1,1.6-2.4,1.7-3.9
		l0.2-4.4l2.1-40l-2.3-110.6C203.9,26.5,202.9,24.9,201.4,23.9z"/>
	<polygon fill="#B2B3B3" points="203.9,183.5 203.9,183.5 203.9,183.5 203.9,183.5 203.9,183.5 203.9,183.5 203.9,183.5 	"/>
	<path fill="#B2B3B3" d="M219.7,13.4c-0.9-0.5-1.9-0.8-3-0.8c-1.4,0-2.7,0.5-3.7,1.3c-1.3,1.1-2.2,2.7-2.2,4.5l0,0.6l-2.4,120
		l1.2,22.2l1.2,21.6c0,3.2,2.7,5.8,5.9,5.8c3.2,0,5.8-2.6,5.9-5.9v0v0l2.6-43.8v0l-2.6-120.7C222.5,16.3,221.4,14.4,219.7,13.4z"/>
	<path fill="#B2B3B3" d="M381.9,82c-7.3,0-14.3,1.5-20.7,4.2C356.9,37.9,316.4,0,267,0c-12.1,0-23.9,2.4-34.3,6.4
		c-4,1.6-5.1,3.2-5.2,6.3c0,0,0,170,0,170c0,3.3,2.6,5.8,5.8,6.1c0.1,0,148.4,0,148.4,0c29.6,0,53.6-23.7,53.6-53.3
		C435.4,105.9,411.4,82,381.9,82z"/>
</g>
</svg>
