<?xml version="1.0" encoding="utf-8"?>
<!-- Generator: Adobe Illustrator 18.0.0, SVG Export Plug-In . SVG Version: 6.00 Build 0)  -->
<!DOCTYPE svg PUBLIC "-//W3C//DTD SVG 1.1//EN" "http://www.w3.org/Graphics/SVG/1.1/DTD/svg11.dtd">
<svg version="1.1" id="Calque_2" xmlns="http://www.w3.org/2000/svg" xmlns:xlink="http://www.w3.org/1999/xlink" x="0px" y="0px"
	 viewBox="190.5 -79.4 210.1 223.6" enable-background="new 190.5 -79.4 210.1 223.6" xml:space="preserve">
<path fill="#FFFFFF" d="M349.7,71.5c0.2-0.2,0.5-0.6,0.8-1c21.8-26.3,28-55.8,17.4-88.2c-14.6-44.7-61.5-70.1-107.8-59.2
	C209.8-65,179.5-12.6,194.2,36.8c16.4,55.1,79.1,81.3,130.2,54.4c1.2-0.6,1.8-0.5,2.7,0.4c17.2,17.2,34.4,34.3,51.7,51.4
	c0.4,0.4,0.8,0.8,1.3,1.2c7-7.1,13.9-14.1,20.6-21C383.8,106.2,366.8,88.9,349.7,71.5z M281.5,71.7c-33.6-0.1-60.8-27.2-60.7-60.6
	c0-33.6,27.4-60.6,61.2-60.5c33.4,0.1,60.7,27.3,60.6,60.6C342.5,44.7,315.2,71.8,281.5,71.7z"/>
</svg>
