<?xml version="1.0" encoding="utf-8"?>
<!-- Generator: Adobe Illustrator 17.0.0, SVG Export Plug-In . SVG Version: 6.00 Build 0)  -->
<!DOCTYPE svg PUBLIC "-//W3C//DTD SVG 1.1//EN" "http://www.w3.org/Graphics/SVG/1.1/DTD/svg11.dtd">
<svg version="1.1" id="Layer_1" xmlns="http://www.w3.org/2000/svg" xmlns:xlink="http://www.w3.org/1999/xlink" x="0px" y="0px"
	 width="600.371px" height="300px" viewBox="0 0 600.371 300" enable-background="new 0 0 600.371 300" xml:space="preserve">
<g>
	<path fill="#FFFFFF" d="M266.443,141.72c-12.426,0-20.862,10.92-20.862,24.119c0,14.519,8.436,23.279,20.292,23.279
		c12.654,0,20.976-10.8,20.976-24.239C286.849,150.12,277.843,141.72,266.443,141.72z"/>
	<path fill="#FFFFFF" d="M-49.815-47.727v395.455h700V-47.727H-49.815z M167.833,194.278c-7.98,0-16.416-2.88-22.002-6.72l0.456-6
		c5.13,4.08,13.566,7.68,21.774,7.68c12.768,0,19.722-8.4,19.722-17.999c0-20.399-38.76-19.679-38.76-42.718
		c0-12.359,9.12-22.799,23.94-22.799c6.954,0,12.882,2.16,18.012,5.52l-1.71,5.04c-4.902-3.36-10.374-5.52-16.416-5.52
		c-11.856,0-18.696,7.68-18.696,17.159c0,19.679,38.874,18.719,38.874,42.598C193.027,182.879,183.907,194.278,167.833,194.278z
		 M230.988,190.918c-2.052,1.56-5.016,2.76-8.892,2.76c-7.866,0-11.742-4.8-11.742-12.96V142.8h-8.664l1.482-4.56h7.296l0.684-12.24
		l4.218-1.08v13.319h14.82c-0.228,1.44-0.342,2.52-0.342,4.56H215.37v37.078c0,6.36,2.964,9,7.866,9c3.306,0,5.928-1.32,7.98-2.64
		L230.988,190.918z M265.417,193.918c-14.82,0-24.738-11.76-24.738-27.119c0-16.799,10.26-29.759,26.22-29.759
		c14.934,0,24.852,11.64,24.852,26.999C291.751,180.839,281.491,193.918,265.417,193.918z M329.826,143.04
		c-9.918-0.36-17.67,9.72-17.67,18.599v18.119c0,4.2,0.114,8.4,0.228,12.36h-5.586c0.342-5.16,0.456-13.439,0.456-20.399V158.04
		c0-6.96-0.342-14.279-0.912-19.319c1.596-0.12,3.534-0.6,5.016-0.96l0.684,14.039c2.736-6.6,8.55-13.919,18.468-14.759
		L329.826,143.04z M348.635,192.118h-5.586c0.342-5.16,0.456-13.199,0.456-20.159V159.12c0-6.96-0.228-15.719-0.57-20.879
		c1.824,0,3.99-0.12,5.7-0.36c-0.114,0.96-0.228,13.32-0.228,14.519v27.599C348.407,184.199,348.521,188.998,348.635,192.118z
		 M345.899,123.961c-2.394,0-3.99-2.04-3.99-4.2c0-2.4,1.71-4.32,4.218-4.32c2.394,0,3.876,1.92,3.876,4.08
		C350.003,121.921,348.407,123.961,345.899,123.961z M388.762,189.118c8.094,0,13.908-3.48,18.924-7.92l-0.228,5.64
		c-4.902,3.84-10.716,7.08-19.494,7.08c-14.934,0-24.396-11.76-24.396-26.999c0-16.799,10.146-29.879,25.308-29.879
		c13.794,0,20.748,11.039,20.748,25.319l-3.534,2.4l-37.506,0.96C368.47,180.719,376.678,189.118,388.762,189.118z M435.958,193.798
		c-6.042,0-12.198-1.8-16.188-4.32l0.456-5.76c4.218,3,9.69,5.28,15.96,5.28c6.954,0,13.224-3.84,13.224-10.92
		c0-13.079-27.816-9.84-27.816-26.519c0-8.4,7.296-14.519,16.872-14.519c6.27,0,10.944,2.04,14.022,3.96l-1.71,4.92
		c-3.306-2.4-7.296-4.08-12.426-4.08c-6.498,0-11.742,3.6-11.742,9.48c0,12.479,27.93,9.72,27.93,26.159
		C454.54,187.918,445.534,193.798,435.958,193.798z"/>
	<path fill="#FFFFFF" d="M388.306,141.6c-10.716,0-18.012,9.12-19.494,19.919l36.024-0.96
		C404.038,148.68,398.338,141.6,388.306,141.6z"/>
</g>
</svg>
