<?xml version="1.0" encoding="UTF-8" standalone="no"?>
<svg width="62px" height="18px" viewBox="0 0 62 18" version="1.1" xmlns="http://www.w3.org/2000/svg" xmlns:xlink="http://www.w3.org/1999/xlink" xmlns:sketch="http://www.bohemiancoding.com/sketch/ns">
    <!-- Generator: Sketch 3.2.2 (9983) - http://www.bohemiancoding.com/sketch -->
    <title>WJP</title>
    <desc>Created with Sketch.</desc>
    <defs></defs>
    <g id="Page-1" stroke="none" stroke-width="1" fill="none" fill-rule="evenodd" sketch:type="MSPage">
        <path d="M20.1359524,16.874 C20.2410754,16.412 20.2410754,16.391 20.8192515,14.795 L24.9978878,3.308 C25.4183795,2.132 25.6286254,1.628 26.0228363,0.914 L23.3947632,0.914 C23.3422017,1.523 23.1582366,2.279 22.8954293,3.098 L19.7943029,12.17 L19.0847232,14.585 C18.5591085,12.947 18.4539856,12.632 18.2963012,12.17 L14.7746832,2.972 C14.4593144,2.174 14.2753493,1.544 14.1439456,0.914 L12.1728907,0.914 C12.0940485,1.397 11.8575219,2.216 11.5684339,2.972 L8.04681585,12.191 C7.83657,12.758 7.52120122,13.745 7.2583939,14.585 C6.89046366,13.304 6.73277927,12.716 6.54881415,12.212 L3.4476878,3.098 C3.15859976,2.237 3.00091537,1.544 2.9483539,0.914 L0.294,0.914 C0.714491707,1.607 0.951018293,2.153 1.37151,3.308 L5.52386561,14.795 C6.15460317,16.496 6.15460317,16.496 6.23344536,16.874 L8.25706171,16.874 C8.38846536,16.349 8.49358829,15.992 8.94036073,14.858 L12.3831366,5.786 C12.540821,5.366 12.8824705,4.274 13.0664356,3.728 C13.0664356,3.644 13.1189971,3.518 13.1715585,3.371 C13.3555237,4.169 13.5920502,4.883 13.9336998,5.786 L17.4027563,14.858 C17.7444059,15.698 17.9809324,16.454 18.0860554,16.874 L20.1359524,16.874 Z M37.0231995,0.914 C37.1808839,1.649 37.2334454,2.258 37.2334454,3.266 L37.2334454,12.632 C37.2334454,14.732 36.2347776,15.656 34.0009154,15.656 C32.8708439,15.656 31.9510183,15.383 31.3202807,14.837 C30.9523505,14.522 30.7421046,14.228 30.4004551,13.577 L28.3242773,14.27 C28.849892,15.11 29.13898,15.467 29.6383139,15.866 C30.6369817,16.685 32.1349834,17.126 33.9746346,17.126 C35.893128,17.126 37.3385683,16.685 38.2058324,15.803 C38.9416929,15.047 39.2833424,14.06 39.2833424,12.632 L39.2833424,3.266 C39.2833424,2.216 39.3359039,1.691 39.4935883,0.914 L37.0231995,0.914 Z M49.3901607,16.874 C49.2324763,16.16 49.1799149,15.509 49.1799149,14.501 L49.1799149,10.364 L55.040518,10.364 C59.1403122,10.364 61.505578,8.579 61.505578,5.492 C61.505578,2.573 59.2191544,0.914 55.1719217,0.914 L49.8106524,0.914 C48.6017388,0.914 47.8658783,0.893 46.919772,0.851 C47.0774563,1.733 47.1300178,2.384 47.1300178,3.245 L47.1300178,14.522 C47.1300178,15.509 47.0774563,16.118 46.919772,16.874 L49.3901607,16.874 Z M49.1799149,8.915 L49.1799149,2.363 L55.040518,2.363 C57.8788371,2.363 59.4031195,3.476 59.4031195,5.576 C59.4031195,7.718 57.8262756,8.915 55.040518,8.915 L49.1799149,8.915 Z" id="WJP" fill="#F8DDF1" sketch:type="MSShapeGroup"></path>
    </g>
</svg>