<?xml version="1.0" encoding="utf-8"?>
<!-- Generator: Adobe Illustrator 18.0.0, SVG Export Plug-In . SVG Version: 6.00 Build 0)  -->
<!DOCTYPE svg PUBLIC "-//W3C//DTD SVG 1.1//EN" "http://www.w3.org/Graphics/SVG/1.1/DTD/svg11.dtd">
<svg version="1.1" id="unibody" xmlns="http://www.w3.org/2000/svg" xmlns:xlink="http://www.w3.org/1999/xlink" x="0px" y="0px"
	 viewBox="0 0 396.6 400.2" enable-background="new 0 0 396.6 400.2" xml:space="preserve">
<path fill="#B2B2B2" d="M346.6,0H50C22.4,0,0,22.4,0,50v300.2c0,27.6,22.4,50,50,50h296.6c27.6,0,50-22.4,50-50V50
	C396.6,22.4,374.2,0,346.6,0z M279.9,200.1c0,45-36.6,81.6-81.6,81.6c-45,0-81.6-36.6-81.6-81.6c0-13.5,3.4-26.3,9.2-37.5
	c13.6-26.2,40.9-44.1,72.4-44.1c31.5,0,58.8,17.9,72.4,44.1C276.6,173.8,279.9,186.6,279.9,200.1z M352,335
	c0,11.3-9.2,20.5-20.5,20.5H67c-11.3,0-20.5-9.2-20.5-20.5V162.6h33.8c-3.8,11.8-5.8,24.4-5.8,37.5C74.4,268.4,130,324,198.3,324
	c68.3,0,123.9-55.6,123.9-123.9c0-13.1-2.1-25.7-5.8-37.5H352V335z M352,98c0,11.3-9.2,20.5-20.5,20.5h-31.1
	c-11.3,0-20.5-9.2-20.5-20.5V64.1c0-9,5.8-16.5,13.9-19.3h37.7c11.3,0,20.5,9.2,20.5,20.5V98z"/>
</svg>
