<?xml version="1.0" standalone="no"?>
<!DOCTYPE svg PUBLIC "-//W3C//DTD SVG 1.1//EN" "http://www.w3.org/Graphics/SVG/1.1/DTD/svg11.dtd" >
<svg>
<metadata>
Created by FontForge 20110222 at Fri Jan 16 21:12:51 2015
 By deploy user
Copyright (C) 1990, 2011 Hoefler &#38; Frere-Jones. http://www.typography.com
</metadata>
<defs>
<font id="IdealSans-Thin" horiz-adv-x="374" >
  <font-face 
    font-family="Ideal Sans Thin"
    font-weight="250"
    font-stretch="normal"
    units-per-em="1000"
    panose-1="0 0 0 0 0 0 0 0 0 0"
    ascent="800"
    descent="-200"
    x-height="445"
    cap-height="706"
    bbox="-183 -244 1125 1131"
    underline-thickness="50"
    underline-position="-50"
    unicode-range="U+0020-FB04"
  />
<missing-glyph horiz-adv-x="500" 
d="M0 -200v1000h500v-1000h-500zM71 750l179 -390l179 390h-358zM50 -76l172 376l-172 376v-752zM450 676l-172 -376l172 -376v752zM250 240l-179 -390h358z" />
    <glyph glyph-name="f_f" unicode="ff" horiz-adv-x="556" 
d="M274 714l3 -24q-22 10 -43 10q-102 0 -102 -166v-91h139q-3 -9 -3 -20h-136v-320q0 -77 1 -103h-26q2 43 2 170v253h-73l8 20h65v89q0 92 32 141t94 49q23 0 39 -8zM552 714l3 -24q-22 10 -43 10q-102 0 -102 -166v-91h139q-3 -9 -3 -20h-136v-320q0 -77 1 -103h-26
q2 43 2 170v253h-73l8 20h65v89q0 92 32 141t94 49q23 0 39 -8z" />
    <glyph glyph-name="fi" unicode="fi" horiz-adv-x="479" 
d="M274 714l3 -24q-22 10 -43 10q-102 0 -102 -166v-91h139q-3 -9 -3 -20h-136v-320q0 -77 1 -103h-26q2 43 2 170v253h-73l8 20h65v89q0 92 32 141t94 49q23 0 39 -8zM393 0h-26q2 43 2 170v99q0 89 -4 175q10 0 28 2l-1 -127v-216q0 -19 0.5 -55t0.5 -48zM404 594
q0 -11 -7 -18t-19 -7q-10 0 -17 7t-7 17t7 17t19 7q11 0 17.5 -7t6.5 -16z" />
    <glyph glyph-name="fl" unicode="fl" horiz-adv-x="479" 
d="M274 714l3 -24q-22 10 -43 10q-102 0 -102 -166v-91h139q-3 -9 -3 -20h-136v-320q0 -77 1 -103h-26q2 43 2 170v253h-73l8 20h65v89q0 92 32 141t94 49q23 0 39 -8zM393 0h-26q2 43 2 170v366q0 122 -2 175q10 0 26 2q-1 -73 -1 -127v-483q0 -77 1 -103z" />
    <glyph glyph-name="f_f_i" unicode="ffi" horiz-adv-x="757" 
d="M274 714l3 -24q-22 10 -43 10q-102 0 -102 -166v-91h139q-3 -9 -3 -20h-136v-320q0 -77 1 -103h-26q2 43 2 170v253h-73l8 20h65v89q0 92 32 141t94 49q23 0 39 -8zM552 714l3 -24q-22 10 -43 10q-102 0 -102 -166v-91h139q-3 -9 -3 -20h-136v-320q0 -77 1 -103h-26
q2 43 2 170v253h-73l8 20h65v89q0 92 32 141t94 49q23 0 39 -8zM671 0h-26q2 43 2 170v99q0 89 -4 175q10 0 28 2l-1 -127v-216q0 -19 0.5 -55t0.5 -48zM682 594q0 -11 -7 -18t-19 -7q-10 0 -17 7t-7 17t7 17t19 7q11 0 17.5 -7t6.5 -16z" />
    <glyph glyph-name="f_f_l" unicode="ffl" horiz-adv-x="757" 
d="M274 714l3 -24q-22 10 -43 10q-102 0 -102 -166v-91h139q-3 -9 -3 -20h-136v-320q0 -77 1 -103h-26q2 43 2 170v253h-73l8 20h65v89q0 92 32 141t94 49q23 0 39 -8zM552 714l3 -24q-22 10 -43 10q-102 0 -102 -166v-91h139q-3 -9 -3 -20h-136v-320q0 -77 1 -103h-26
q2 43 2 170v253h-73l8 20h65v89q0 92 32 141t94 49q23 0 39 -8zM671 0h-26q2 43 2 170v366q0 122 -2 175q10 0 26 2q-1 -73 -1 -127v-483q0 -77 1 -103z" />
    <glyph glyph-name="f_f_b" unicode="ffb" horiz-adv-x="1089" 
d="M274 714l3 -24q-22 10 -43 10q-102 0 -102 -166v-91h139q-3 -9 -3 -20h-136v-320q0 -77 1 -103h-26q2 43 2 170v253h-73l8 20h65v89q0 92 32 141t94 49q23 0 39 -8zM552 714l3 -24q-22 10 -43 10q-102 0 -102 -166v-91h139q-3 -9 -3 -20h-136v-320q0 -77 1 -103h-26
q2 43 2 170v253h-73l8 20h65v89q0 92 32 141t94 49q23 0 39 -8zM1035 233q0 -106 -66 -176t-167 -70q-81 0 -135 50l-10 -48l-15 2q5 64 5 151v394q0 122 -2 175q10 0 26 2q-1 -73 -1 -127v-216q86 83 177 83q84 0 136 -61.5t52 -158.5zM1012 227q0 92 -46 148t-122 56
q-90 0 -174 -90v-277q53 -55 134 -55q90 0 149 63.5t59 154.5z" />
    <glyph glyph-name="f_f_h" unicode="ffh" horiz-adv-x="1095" 
d="M274 714l3 -24q-22 10 -43 10q-102 0 -102 -166v-91h139q-3 -9 -3 -20h-136v-320q0 -77 1 -103h-26q2 43 2 170v253h-73l8 20h65v89q0 92 32 141t94 49q23 0 39 -8zM552 714l3 -24q-22 10 -43 10q-102 0 -102 -166v-91h139q-3 -9 -3 -20h-136v-320q0 -77 1 -103h-26
q2 43 2 170v253h-73l8 20h65v89q0 92 32 141t94 49q23 0 39 -8zM1010 0h-26q2 86 2 170v123q0 138 -124 138q-65 0 -128.5 -59t-63.5 -97v-172q0 -67 1 -103h-26q2 86 2 170v366q0 122 -2 175q10 0 26 2q-1 -73 -1 -127v-260q26 44 79 85.5t121 41.5q59 0 99 -36t40 -112
v-202q0 -19 0.5 -55t0.5 -48z" />
    <glyph glyph-name="f_f_j" unicode="ffj" horiz-adv-x="757" 
d="M274 714l3 -24q-22 10 -43 10q-102 0 -102 -166v-91h139q-3 -9 -3 -20h-136v-320q0 -77 1 -103h-26q2 43 2 170v253h-73l8 20h65v89q0 92 32 141t94 49q23 0 39 -8zM552 714l3 -24q-22 10 -43 10q-102 0 -102 -166v-91h139q-3 -9 -3 -20h-136v-320q0 -77 1 -103h-26
q2 43 2 170v253h-73l8 20h65v89q0 92 32 141t94 49q23 0 39 -8zM671 446l-1 -127v-412q0 -120 -77 -120q-17 0 -31 4l-3 21q18 -4 30 -4q28 1 43 22.5t15 74.5v364q0 89 -4 175q10 0 28 2zM682 594q0 -11 -7 -18t-19 -7q-10 0 -17 7t-7 17t7 17t19 7q11 0 17.5 -7t6.5 -16z
" />
    <glyph glyph-name="f_f_k" unicode="ffk" horiz-adv-x="998" 
d="M956 -10l-286 249v-136q0 -77 1 -103h-26q2 43 2 170v366q0 122 -2 175q10 0 26 2q-1 -73 -1 -127v-337l251 194q28 0 37 1l-261 -200l70 -60l216 -186zM552 714l3 -24q-22 10 -43 10q-102 0 -102 -166v-91h139q-3 -9 -3 -20h-136v-320q0 -77 1 -103h-26q2 43 2 170v253
h-73l8 20h65v89q0 92 32 141t94 49q23 0 39 -8zM274 714l3 -24q-22 10 -43 10q-102 0 -102 -166v-91h139q-3 -9 -3 -20h-136v-320q0 -77 1 -103h-26q2 43 2 170v253h-73l8 20h65v89q0 92 32 141t94 49q23 0 39 -8z" />
    <glyph glyph-name="f_b" unicode="fb" horiz-adv-x="811" 
d="M274 714l3 -24q-22 10 -43 10q-102 0 -102 -166v-91h139q-3 -9 -3 -20h-136v-320q0 -77 1 -103h-26q2 43 2 170v253h-73l8 20h65v89q0 92 32 141t94 49q23 0 39 -8zM757 233q0 -106 -66 -176t-167 -70q-81 0 -135 50l-10 -48l-15 2q5 64 5 151v394q0 122 -2 175
q10 0 26 2q-1 -73 -1 -127v-216q86 83 177 83q84 0 136 -61.5t52 -158.5zM734 227q0 92 -46 148t-122 56q-90 0 -174 -90v-277q53 -55 134 -55q90 0 149 63.5t59 154.5z" />
    <glyph glyph-name="f_h" unicode="fh" horiz-adv-x="817" 
d="M274 714l3 -24q-22 10 -43 10q-102 0 -102 -166v-91h139q-3 -9 -3 -20h-136v-320q0 -77 1 -103h-26q2 43 2 170v253h-73l8 20h65v89q0 92 32 141t94 49q23 0 39 -8zM732 0h-26q2 86 2 170v123q0 138 -124 138q-65 0 -128.5 -59t-63.5 -97v-172q0 -67 1 -103h-26
q2 86 2 170v366q0 122 -2 175q10 0 26 2q-1 -73 -1 -127v-260q26 44 79 85.5t121 41.5q59 0 99 -36t40 -112v-202q0 -19 0.5 -55t0.5 -48z" />
    <glyph glyph-name="f_j" unicode="fj" horiz-adv-x="479" 
d="M274 714l3 -24q-22 10 -43 10q-102 0 -102 -166v-91h139q-3 -9 -3 -20h-136v-320q0 -77 1 -103h-26q2 43 2 170v253h-73l8 20h65v89q0 92 32 141t94 49q23 0 39 -8zM393 446l-1 -127v-412q0 -120 -77 -120q-17 0 -31 4l-3 21q18 -4 30 -4q28 1 43 22.5t15 74.5v364
q0 89 -4 175q10 0 28 2zM404 594q0 -11 -7 -18t-19 -7q-10 0 -17 7t-7 17t7 17t19 7q11 0 17.5 -7t6.5 -16z" />
    <glyph glyph-name="f_k" unicode="fk" horiz-adv-x="720" 
d="M678 -10l-286 249v-136q0 -77 1 -103h-26q2 43 2 170v366q0 122 -2 175q10 0 26 2q-1 -73 -1 -127v-337l251 194q28 0 37 1l-261 -200l70 -60l216 -186zM274 714l3 -24q-22 10 -43 10q-102 0 -102 -166v-91h139q-3 -9 -3 -20h-136v-320q0 -77 1 -103h-26q2 43 2 170v253
h-73l8 20h65v89q0 92 32 141t94 49q23 0 39 -8z" />
    <glyph glyph-name=".notdef" horiz-adv-x="500" 
d="M0 -200v1000h500v-1000h-500zM71 750l179 -390l179 390h-358zM50 -76l172 376l-172 376v-752zM450 676l-172 -376l172 -376v752zM250 240l-179 -390h358z" />
    <glyph glyph-name=".null" horiz-adv-x="0" 
 />
    <glyph glyph-name="nonmarkingreturn" horiz-adv-x="333" 
 />
    <glyph glyph-name="space" unicode=" " horiz-adv-x="190" 
 />
    <glyph glyph-name="exclam" unicode="!" horiz-adv-x="148" 
d="M88 706q-2 -60 -2 -102l-2 -309v-114l-18 -1q0 28 -0.5 90t-0.5 85l-2 204q0 53 -2 145q13 0 27 2zM99 12q0 -11 -7 -18t-19 -7q-10 0 -17 7t-7 17t7 17t19 7q11 0 17.5 -7t6.5 -16z" />
    <glyph glyph-name="quotedbl" unicode="&#x22;" horiz-adv-x="248" 
d="M180 499l-15 -4q17 162 20 206q3 0 38 5q-7 -40 -43 -207zM50 499l-15 -4q17 162 20 206q3 0 38 5q-7 -40 -43 -207z" />
    <glyph glyph-name="numbersign" unicode="#" horiz-adv-x="686" 
d="M503 437h-27l-28 -220h22q138 0 161 1q-4 -13 -5 -23q-4 0 -59.5 0.5t-93.5 0.5h-28l-4 -37l-17 -159h-25l25 196l-200 1l-5 -38q-2 -13 -9.5 -77.5t-9.5 -81.5h-25q3 17 27 197h-20q-36 0 -93.5 -0.5t-63.5 -0.5l3 22q23 -1 151 -1h25l28 221h-20q-36 0 -93.5 -0.5
t-63.5 -0.5l3 22q23 -1 151 -1h26q19 149 24 200q14 0 24 1q-1 -8 -9.5 -71t-11.5 -89l-5 -41h200l24 200q14 0 24 1q-10 -66 -21 -160l-5 -41h21q138 0 161 1q-4 -13 -5 -23q-4 0 -59.5 0.5t-93.5 0.5zM254 438l-28 -221h200l28 220z" />
    <glyph glyph-name="dollar" unicode="$" horiz-adv-x="488" 
d="M219 -112h-24q2 23 10 97q-96 9 -175 65l2 24q75 -60 174 -69l7 70l21 252q-40 19 -63.5 32.5t-51 35t-40.5 47.5t-13 58q0 68 51 115t140 47h6q3 31 5 84q7 0 25 2q-3 -17 -10 -87q85 -7 155 -60l-8 -21q-60 52 -148 60q-12 -126 -27 -300q44 -21 67.5 -34t54.5 -36
t45 -51t14 -63q0 -70 -53 -121.5t-150 -51.5h-7q-6 -65 -7 -95zM414 154q0 29 -12 53.5t-38.5 44.5t-48.5 33t-61 32q-4 -42 -12 -146.5t-14 -166.5h5q85 0 133 45.5t48 104.5zM88 503q0 -53 38 -86.5t110 -67.5l18 204l7 88h-4q-79 0 -124 -40.5t-45 -97.5z" />
    <glyph glyph-name="percent" unicode="%" horiz-adv-x="675" 
d="M328 545q0 -84 -56 -159.5t-125 -75.5q-46 0 -70.5 32t-24.5 82q0 84 55.5 160.5t125.5 76.5q46 0 70.5 -32.5t24.5 -83.5zM305 545q0 41 -19.5 67.5t-54.5 26.5q-58 0 -107 -70.5t-49 -144.5q0 -41 19 -66.5t55 -25.5q60 0 108 69t48 144zM623 220q0 -84 -56 -159.5
t-125 -75.5q-46 0 -70.5 32t-24.5 82q0 84 55.5 160.5t125.5 76.5q46 0 70.5 -32.5t24.5 -83.5zM600 220q0 41 -19.5 67.5t-54.5 26.5q-58 0 -107 -70.5t-49 -144.5q0 -41 19 -66.5t55 -25.5q60 0 108 69t48 144zM92 -17l-17 14q97 124 122 157l271 355q86 113 115 155
l21 -11q-18 -22 -89 -117l-349 -457q-10 -14 -21.5 -28.5t-26.5 -34t-26 -33.5z" />
    <glyph glyph-name="ampersand" unicode="&#x26;" horiz-adv-x="673" 
d="M229 -13q-79 0 -129 50.5t-50 117.5q0 126 194 200q-71 87 -71 170q0 63 41.5 105.5t105.5 42.5q62 0 98.5 -38.5t36.5 -90.5q0 -59 -41.5 -106t-135.5 -90q100 -112 202 -210q55 56 118 138l16 -12q-76 -96 -120 -141q82 -76 149 -132l-14 -16q-104 88 -150 133
q-123 -121 -250 -121zM230 9q115 0 234 113q-81 78 -206 217q-185 -67 -185 -183q0 -59 43.5 -103t113.5 -44zM196 526q0 -78 69 -162q92 40 129.5 83.5t37.5 96.5q0 43 -30 75t-82 32q-56 0 -90 -35.5t-34 -89.5z" />
    <glyph glyph-name="quotesingle" unicode="'" horiz-adv-x="113" 
d="M50 499l-15 -4q17 162 20 206q3 0 38 5q-7 -40 -43 -207z" />
    <glyph glyph-name="parenleft" unicode="(" horiz-adv-x="359" 
d="M370 -226q-125 62 -212.5 190.5t-87.5 279.5q0 153 86.5 283t213.5 193l11 -18q-122 -60 -204.5 -184.5t-82.5 -272.5q0 -146 83.5 -270.5t203.5 -182.5z" />
    <glyph glyph-name="parenright" unicode=")" horiz-adv-x="359" 
d="M-9 -226l-11 18q120 58 203.5 182.5t83.5 270.5q0 148 -82.5 272.5t-204.5 184.5l11 18q127 -63 213.5 -193t86.5 -283q0 -151 -87.5 -279.5t-212.5 -190.5z" />
    <glyph glyph-name="asterisk" unicode="*" horiz-adv-x="364" 
d="M355 588q-1 -10 2 -24l-154 -7q39 -100 58 -145q-10 -2 -22 -9q-28 84 -53 149l-125 -101q-7 12 -15 19q78 54 128 95q-14 10 -38.5 26t-53 35l-37.5 25q8 8 14 20q72 -55 125 -92q12 41 41 151q11 -4 24 -6l-47 -150q54 4 153 14z" />
    <glyph glyph-name="plus" unicode="+" horiz-adv-x="515" 
d="M437 274q-2 -6 -4 -24q-26 0 -77.5 0.5t-75.5 0.5h-11v-19q0 -31 0.5 -80t0.5 -70h-24q2 90 2 169h-18q-31 0 -81 -0.5t-71 -0.5q2 12 2 24q90 -2 168 -2q0 112 -2 167q16 0 24 1q0 -26 -0.5 -80t-0.5 -78v-10q112 0 168 2z" />
    <glyph glyph-name="comma" unicode="," horiz-adv-x="150" 
d="M35 -161l-12 11l20 20q45 45 45 91q0 26 -34 36l-11 3q8 34 33 34q16 0 25.5 -16.5t9.5 -39.5q0 -71 -76 -139z" />
    <glyph glyph-name="hyphen" unicode="-" horiz-adv-x="351" 
d="M316 294q-2 -6 -4 -24q-20 0 -58 0.5t-56 0.5h-50q-22 0 -57 -0.5t-50 -0.5q2 12 2 24q72 -2 136 -2q91 0 137 2z" />
    <glyph glyph-name="period" unicode="." horiz-adv-x="150" 
d="M102 14q0 -12 -8 -19.5t-20 -7.5q-11 0 -18.5 7.5t-7.5 18.5t8 18.5t20 7.5t19 -7.5t7 -17.5z" />
    <glyph glyph-name="slash" unicode="/" horiz-adv-x="295" 
d="M285 738q-22 -73 -38 -127l-203 -708l-39 -143l-27 -2q14 42 72 242l161 561q35 121 48 175q8 0 26 2z" />
    <glyph glyph-name="zero" unicode="0" horiz-adv-x="546" 
d="M496 245q0 -111 -63.5 -184.5t-166.5 -73.5q-98 0 -157 67.5t-59 165.5q0 111 63.5 184.5t166.5 73.5q98 0 157 -67.5t59 -165.5zM473 242q0 92 -52.5 153t-142.5 61q-92 0 -148.5 -67t-56.5 -166q0 -92 52.5 -153t142.5 -61q92 0 148.5 67t56.5 166z" />
    <glyph glyph-name="one" unicode="1" horiz-adv-x="265" 
d="M160 0h-26q2 43 2 170v273l-101 -28l-5 22q14 4 49 13.5t38 10.5l37 10l6 -2l-1 -132v-234q0 -19 0.5 -55t0.5 -48z" />
    <glyph glyph-name="two" unicode="2" horiz-adv-x="443" 
d="M398 25q-5 -17 -5 -26q-77 3 -165 3q-112 0 -187 -4l-6 17q192 134 253.5 199.5t61.5 125.5q0 54 -36.5 85.5t-95.5 31.5q-77 0 -142 -56l-9 22q72 56 153 56q67 0 110 -37t43 -100q0 -78 -89 -161q-65 -60 -201 -159q233 0 315 3z" />
    <glyph glyph-name="three" unicode="3" horiz-adv-x="427" 
d="M372 18q0 -80 -65 -128.5t-172 -48.5q-47 0 -109 13l-1 24q62 -15 109 -15q99 0 157 42t58 113q0 65 -66 102.5t-174 33.5l-3 18q107 14 168 56.5t61 108.5q0 50 -37 84.5t-98 34.5q-74 0 -143 -54l-11 21q75 55 156 55q71 0 113.5 -39t42.5 -100q0 -67 -46.5 -108
t-119.5 -61q86 -12 133 -52.5t47 -99.5z" />
    <glyph glyph-name="four" unicode="4" horiz-adv-x="443" 
d="M309 -159q2 46 2 180v26q-31 1 -98 1q-118 0 -197 -4l-6 17l241 337l64 90l18 -3l-1 -132v-283q31 0 101 2q-5 -17 -5 -27q-64 2 -96 2v-103q0 -19 0.5 -55.5t0.5 -47.5h-24zM41 70q57 -1 205 -1q11 0 33 0.5t32 0.5v378z" />
    <glyph glyph-name="five" unicode="5" horiz-adv-x="430" 
d="M46 -152l-1 24q37 -7 74 -7q104 0 171 47.5t67 128.5q0 142 -185 142q-50 0 -96 -8l-3 3q4 45 7 94l4 80q4 72 4 109l3 3h145q56 0 132 2q-4 -13 -4 -24q-39 1 -126 1h-127l-13 -243q30 5 74 5q102 0 155 -41t53 -120q0 -90 -73.5 -145.5t-190.5 -55.5q-32 0 -70 5z" />
    <glyph glyph-name="six" unicode="6" horiz-adv-x="507" 
d="M406 638q-123 -26 -209.5 -115t-110.5 -213q79 79 183 79q81 0 134.5 -54.5t53.5 -134.5q0 -87 -57.5 -150t-145.5 -63q-89 0 -144 64.5t-55 170.5q0 161 97.5 283t248.5 154zM266 367q-101 0 -185 -89q-3 -28 -3 -56q0 -95 49 -154t129 -59q78 0 128 56t50 133
q0 72 -47.5 120.5t-120.5 48.5z" />
    <glyph glyph-name="seven" unicode="7" horiz-adv-x="436" 
d="M391 466l10 -12q-14 -26 -41 -83l-203 -420q-48 -99 -54 -115l-25 13q25 41 84 164l207 429q-21 1 -157 1q-140 0 -187 -1q4 12 4 24q77 -3 185 -3q100 0 177 3z" />
    <glyph glyph-name="eight" unicode="8" horiz-adv-x="466" 
d="M39 152q0 132 165 185q-142 56 -142 163q0 66 49.5 113.5t125.5 47.5q74 0 122.5 -46.5t48.5 -113.5q0 -112 -146 -162q75 -25 120 -71.5t45 -104.5q0 -75 -56.5 -126t-142.5 -51q-81 0 -135 47.5t-54 118.5zM404 162q0 56 -46 99.5t-125 64.5q-171 -44 -171 -173
q0 -62 47.5 -103.5t119.5 -41.5q77 0 126 44t49 110zM85 501q0 -58 38.5 -93t111.5 -60q150 45 150 152q0 58 -42 98.5t-107 40.5q-67 0 -109 -40t-42 -98z" />
    <glyph glyph-name="nine" unicode="9" horiz-adv-x="507" 
d="M101 -146q120 24 206 104t112 193q-82 -75 -181 -75q-82 0 -135 55.5t-53 133.5q0 88 58 150.5t145 62.5q94 0 146.5 -66.5t52.5 -170.5q0 -152 -97.5 -264.5t-248.5 -143.5zM241 98q47 0 97.5 23.5t87.5 62.5q4 24 4 57q0 90 -45.5 152.5t-133.5 62.5
q-77 0 -127.5 -55.5t-50.5 -133.5q0 -71 47 -120t121 -49z" />
    <glyph glyph-name="colon" unicode=":" horiz-adv-x="146" 
d="M100 14q0 -12 -8 -19.5t-20 -7.5q-11 0 -18.5 7.5t-7.5 18.5t8 18.5t20 7.5t19 -7.5t7 -17.5zM100 328q0 -12 -8 -19.5t-20 -7.5q-11 0 -18.5 7.5t-7.5 18.5t8 18.5t20 7.5t19 -7.5t7 -17.5z" />
    <glyph glyph-name="semicolon" unicode=";" horiz-adv-x="164" 
d="M118 328q0 -12 -8 -19.5t-20 -7.5q-11 0 -18.5 7.5t-7.5 18.5t8 18.5t20 7.5t19 -7.5t7 -17.5zM47 -161l-12 11l20 20q45 45 45 91q0 26 -34 36l-11 3q8 34 33 34q16 0 25.5 -16.5t9.5 -39.5q0 -71 -76 -139z" />
    <glyph glyph-name="less" unicode="&#x3c;" horiz-adv-x="525" 
d="M368 68q-140 110 -245 189v4q151 115 243 190l15 -19q-64 -46 -127 -96l-97 -77l104 -80q77 -60 121 -91z" />
    <glyph glyph-name="equal" unicode="=" horiz-adv-x="515" 
d="M425 352q-2 -6 -4 -24q-24 0 -72.5 0.5t-71.5 0.5h-50q-29 0 -73 -0.5t-64 -0.5q2 12 2 24q90 -2 166 -2q112 0 167 2zM425 195q-2 -6 -4 -24q-24 0 -72.5 0.5t-71.5 0.5h-50q-29 0 -73 -0.5t-64 -0.5q2 12 2 24q90 -2 166 -2q112 0 167 2z" />
    <glyph glyph-name="greater" unicode="&#x3e;" horiz-adv-x="525" 
d="M157 451q140 -110 245 -189v-4q-151 -115 -243 -190l-15 19q64 46 127 96l96 77l-103 80q-77 60 -121 91z" />
    <glyph glyph-name="question" unicode="?" horiz-adv-x="360" 
d="M340 587q0 -33 -17.5 -64t-43.5 -53t-56 -45.5t-56 -43.5t-43.5 -45.5t-17.5 -51.5q0 -36 23 -55t58 -19q25 0 58 11l5 -19q-29 -13 -61 -13q-46 0 -76 25t-30 70q0 35 24 67.5t58.5 58t68.5 50.5t58 57.5t24 68.5q0 49 -37 80t-96 31q-37 0 -80.5 -15.5t-67.5 -36.5v28
q25 19 68.5 33t81.5 14q67 0 111 -36.5t44 -96.5zM189 12q0 -11 -7 -18t-19 -7q-10 0 -17 7t-7 17t7 17t19 7q11 0 17.5 -7t6.5 -16z" />
    <glyph glyph-name="at" unicode="@" horiz-adv-x="859" 
d="M771 350q0 112 -77 191t-215 79q-72 0 -140 -28.5t-121.5 -79t-86.5 -127.5t-33 -167q0 -139 92 -233.5t239 -94.5q150 0 276 75l11 -18q-132 -79 -291 -79q-153 0 -251.5 101t-98.5 244q0 96 35 178t92.5 136t130.5 84.5t150 30.5q144 0 227.5 -85.5t83.5 -202.5
q0 -116 -63 -206.5t-146 -90.5q-91 0 -51 168q-28 -71 -81.5 -119.5t-98.5 -48.5q-43 0 -65 33t-22 87q0 98 65.5 185t152.5 87q49 0 79 -24l18 27l7 -3l-41 -264q-17 -108 42 -108q70 0 125.5 83.5t55.5 189.5zM559 401q-30 26 -76 26q-79 0 -136 -79t-57 -166
q0 -103 68 -103q52 0 113 70.5t76 171.5z" />
    <glyph glyph-name="A" unicode="A" horiz-adv-x="683" 
d="M26 0l212 493q88 208 94 224l10 2l241 -557l73 -162l-26 -5l-121 278h-341l-39 -92l-74 -181h-29zM338 672l-161 -377h322z" />
    <glyph glyph-name="B" unicode="B" horiz-adv-x="572" 
d="M272 0h-155q2 48 2 241v221q0 193 -2 241q72 3 135 3q230 0 230 -165q0 -64 -39 -110.5t-111 -60.5q92 -13 138.5 -60.5t46.5 -116.5q0 -91 -66.5 -142t-178.5 -51zM143 26q52 -3 130 -3q103 0 162.5 44t59.5 122t-63 123.5t-189 45.5q-47 0 -101 -2v-212q0 -90 1 -118z
M142 380h110q102 0 154.5 44.5t52.5 112.5q0 146 -210 146q-59 0 -107 -2v-301z" />
    <glyph glyph-name="C" unicode="C" horiz-adv-x="679" 
d="M629 83l-1 -29q-92 -72 -220 -72q-154 0 -248.5 105.5t-94.5 255.5q0 160 101 268.5t259 108.5q110 0 196 -56l-8 -21q-82 55 -190 55q-146 0 -240 -102t-94 -247t87 -245t233 -100q133 0 220 79z" />
    <glyph glyph-name="D" unicode="D" horiz-adv-x="744" 
d="M679 366q0 -162 -105 -264t-287 -102h-169q2 96 2 241v221q0 169 -3 241q148 4 179 4q176 0 279.5 -95.5t103.5 -245.5zM655 363q0 143 -97 232.5t-265 89.5q-46 0 -150 -4v-537q0 -91 1 -119q34 -3 145 -3q171 0 268.5 95.5t97.5 245.5z" />
    <glyph glyph-name="E" unicode="E" horiz-adv-x="542" 
d="M497 25q-5 -17 -5 -27q-86 3 -193 3q-111 0 -182 -4q2 48 2 244v221q0 173 -3 245q80 -3 180 -3q104 0 189 3q-4 -13 -4 -25q-27 0 -88.5 0.5t-96.5 0.5q-127 0 -153 -1q-1 -36 -1 -122v-181h296q-3 -11 -3 -22h-293v-213q0 -85 1 -121q39 -1 149 -1q108 0 205 3z" />
    <glyph glyph-name="F" unicode="F" horiz-adv-x="515" 
d="M485 707q-4 -13 -4 -25q-27 0 -88.5 0.5t-96.5 0.5q-127 0 -153 -1q-1 -36 -1 -122v-191h286q-3 -11 -3 -22h-283v-203q0 -116 1 -144h-27q3 72 3 241v221q0 173 -3 245q80 -3 180 -3q104 0 189 3z" />
    <glyph glyph-name="G" unicode="G" horiz-adv-x="742" 
d="M650 48q-97 -64 -222 -64q-158 0 -260.5 105.5t-102.5 253.5q0 160 103 268.5t264 108.5q116 0 203 -60l-8 -22q-86 60 -198 60q-147 0 -243.5 -102t-96.5 -247q0 -144 96 -243.5t246 -99.5q108 0 196 54v200q0 52 -1 73q-65 1 -110 1q-80 0 -138 -1q1 6 1 23
q52 -1 137 -1q94 0 136 2q-2 -41 -2 -197v-112z" />
    <glyph glyph-name="H" unicode="H" horiz-adv-x="756" 
d="M640 0h-26q2 48 2 241v114h-474v-211q0 -116 1 -144h-26q2 48 2 241v221q0 193 -2 241q15 0 26 3q-1 -29 -1 -146v-183h474v85q0 193 -2 241q16 0 26 3q-1 -29 -1 -146v-416q0 -116 1 -144z" />
    <glyph glyph-name="I" unicode="I" horiz-adv-x="271" 
d="M149 0h-27q3 72 3 241v221q0 169 -3 241q16 0 27 3q-1 -29 -1 -146v-416q0 -116 1 -144z" />
    <glyph glyph-name="J" unicode="J" horiz-adv-x="359" 
d="M225 462q0 169 -3 241q16 0 27 3q-1 -29 -1 -146v-420q0 -81 -32 -119.5t-106 -38.5q-49 0 -95 18l2 24q48 -20 94 -20q62 0 88 33t26 101v324z" />
    <glyph glyph-name="K" unicode="K" horiz-adv-x="609" 
d="M547 -4l-404 362v-214q0 -116 1 -144h-27q3 72 3 241v221q0 169 -3 241q17 0 27 3q-1 -29 -1 -146v-192l169 146q105 90 216 189h34l-392 -339l186 -165q18 -16 67.5 -60.5t90 -81.5t63.5 -56z" />
    <glyph glyph-name="L" unicode="L" horiz-adv-x="527" 
d="M502 23q-3 -12 -3 -25q-90 3 -192 3q-106 0 -190 -3q3 72 3 243v221q0 169 -3 241q17 0 27 3q-1 -29 -1 -146v-416q0 -93 1 -121q28 -1 163 -1q37 0 102 0.5t93 0.5z" />
    <glyph glyph-name="M" unicode="M" horiz-adv-x="911" 
d="M70 0q13 79 33 224l40 296q4 30 10 72.5t10 72t6 53.5l11 2q15 -40 63 -158l212 -522l212 517q54 132 65 163h10l23 -170l42 -311q20 -148 34 -238l-27 -3q-4 41 -20 157l-67 488l-266 -650l-10 -2l-269 656l-66 -505q-2 -14 -9 -66t-9 -76h-28z" />
    <glyph glyph-name="N" unicode="N" horiz-adv-x="787" 
d="M118 0q2 48 2 241v221q0 208 -3 256l11 2l519 -686v428q0 193 -2 241q16 0 25 3q-1 -29 -1 -146v-416q0 -131 1 -159l-10 -3l-518 684v-522q0 -20 0.5 -75.5t0.5 -68.5h-25z" />
    <glyph glyph-name="O" unicode="O" horiz-adv-x="825" 
d="M403 4q146 0 239.5 104.5t93.5 257.5q0 138 -87.5 235t-225.5 97q-146 0 -240 -104.5t-94 -257.5q0 -137 88 -234.5t226 -97.5zM403 -18q-147 0 -242.5 103.5t-95.5 247.5q0 164 101 275.5t257 111.5q147 0 242 -103t95 -248q0 -164 -100.5 -275.5t-256.5 -111.5z" />
    <glyph glyph-name="P" unicode="P" horiz-adv-x="519" 
d="M142 313v-169q0 -116 1 -144h-26q2 48 2 241v221q0 195 -2 243q96 3 119 3q118 0 180.5 -50.5t62.5 -141.5q0 -94 -69 -149t-213 -55q-37 0 -55 1zM456 511q0 174 -226 174q-34 0 -88 -2v-347q36 -2 59 -2q130 0 192.5 48.5t62.5 128.5z" />
    <glyph glyph-name="Q" unicode="Q" horiz-adv-x="825" 
d="M807 -112l-20 -18l-386 112q-146 1 -241 104t-95 247q0 164 101 275.5t257 111.5q147 0 242 -103t95 -248q0 -149 -84.5 -256.5t-218.5 -126.5l131 -37q18 -5 106 -29.5t113 -31.5zM403 4q146 0 239.5 104.5t93.5 257.5q0 138 -87.5 235t-225.5 97q-146 0 -240 -104.5
t-94 -257.5q0 -137 88 -234.5t226 -97.5z" />
    <glyph glyph-name="R" unicode="R" horiz-adv-x="596" 
d="M559 -1l-26 -7l-219 336q-14 -1 -37 -1h-135v-183q0 -116 1 -144h-26q2 48 2 241v221q0 195 -2 243q150 3 160 3q105 0 161.5 -51t56.5 -129q0 -74 -43 -125.5t-113 -69.5l119 -182q57 -89 101 -152zM142 349h142q85 0 136.5 51.5t51.5 123.5q0 74 -51.5 117.5
t-150.5 43.5q-93 0 -128 -2v-334z" />
    <glyph glyph-name="S" unicode="S" horiz-adv-x="507" 
d="M452 172q0 -76 -58 -133t-158 -57q-105 0 -191 54l3 27q84 -59 188 -59q91 0 142 49.5t51 116.5q0 43 -26.5 77t-66 55.5t-85.5 45.5t-85.5 46.5t-66 59t-26.5 82.5q0 77 55.5 130.5t149.5 53.5q82 0 156 -44l-8 -22q-74 44 -148 44q-84 0 -133 -46t-49 -114
q0 -42 26.5 -76t66 -55t85.5 -45t85.5 -46.5t66 -60t26.5 -83.5z" />
    <glyph glyph-name="T" unicode="T" horiz-adv-x="586" 
d="M571 707q-4 -13 -4 -25q-37 1 -261 1v-123v-416q0 -116 1 -144h-26q2 48 2 241v221q0 197 -1 221q-203 0 -267 -1q4 12 4 25q117 -3 275 -3q160 0 277 3z" />
    <glyph glyph-name="U" unicode="U" horiz-adv-x="723" 
d="M623 706q-1 -29 -1 -146v-305q0 -134 -74 -206q-70 -67 -187 -67t-188 66.5t-71 189.5v224q0 193 -2 241q14 0 26 3q-1 -29 -1 -146v-311q0 -121 63.5 -183t177.5 -62q106 0 169.5 64t63.5 179v215q0 193 -2 241q14 0 26 3z" />
    <glyph glyph-name="V" unicode="V" horiz-adv-x="634" 
d="M26 700l27 4l267 -672l193 488l67 184h29l-197 -500q-73 -183 -85 -220l-11 -5l-223 559z" />
    <glyph glyph-name="W" unicode="W" horiz-adv-x="990" 
d="M961 704l-165 -500q-18 -56 -41.5 -125t-31.5 -95l-12 -4l-212 669l-149 -453q-68 -205 -70 -214h-11l-183 555l-56 163l27 4l218 -662l161 486l57 177l13 4l212 -669l157 483l58 181h28z" />
    <glyph glyph-name="X" unicode="X" horiz-adv-x="643" 
d="M71 0h-31l265 355l-108 145l-150 200l27 5l246 -334l101 142l137 191h30l-255 -349l114 -152l150 -201l-27 -5l-251 342l-93 -127z" />
    <glyph glyph-name="Y" unicode="Y" horiz-adv-x="584" 
d="M20 701l27 5l246 -378l103 159l139 217h29l-261 -400v-160q0 -116 1 -144h-27q3 72 3 231v73l-110 170z" />
    <glyph glyph-name="Z" unicode="Z" horiz-adv-x="590" 
d="M555 706l6 -7l-483 -676q61 -1 208 -1q135 0 255 3q-5 -17 -5 -27q-112 3 -253 3q-147 0 -242 -4l-6 7l484 677q-31 0 -95.5 0.5t-107.5 0.5q-187 0 -247 -1q4 12 4 25q103 -3 245 -3q134 0 237 3z" />
    <glyph glyph-name="bracketleft" unicode="[" horiz-adv-x="329" 
d="M319 -200q-4 -13 -4 -25q-30 1 -96 1h-115l-3 3q3 54 3 182v561q0 138 -3 195l3 3h113q44 0 102 2q-4 -13 -4 -25q-30 1 -96 1h-92v-764q0 -106 1 -136h89q44 0 102 2z" />
    <glyph glyph-name="backslash" unicode="\" horiz-adv-x="306" 
d="M304 -244q-32 119 -68 244l-161 561q-32 114 -51 175q10 0 24 2q19 -73 35 -127l203 -708q22 -81 42 -143z" />
    <glyph glyph-name="bracketright" unicode="]" horiz-adv-x="329" 
d="M10 697q4 13 4 25q30 -1 96 -1h115l3 -3q-3 -54 -3 -182v-561q0 -138 3 -195l-3 -3h-113q-44 0 -102 -2q4 13 4 25q30 -1 96 -1h92v764q0 106 -1 136h-89q-44 0 -102 -2z" />
    <glyph glyph-name="asciicircum" unicode="^" horiz-adv-x="568" 
d="M361 538l-77 96l-80 -103q-41 -53 -81 -109l-20 14q86 110 179 233h4q119 -156 180 -231l-19 -15q-54 74 -86 115z" />
    <glyph glyph-name="underscore" unicode="_" horiz-adv-x="595" 
d="M565 23q-2 -6 -4 -24q-30 0 -92.5 0.5t-91.5 0.5h-170q-37 0 -94.5 -0.5t-82.5 -0.5q2 12 2 24q150 -2 266 -2q182 0 267 2z" />
    <glyph glyph-name="grave" unicode="`" horiz-adv-x="300" 
d="M89 679l34 2l97 -140l-18 -2z" />
    <glyph glyph-name="a" unicode="a" horiz-adv-x="469" 
d="M182 -9q-64 0 -98 33.5t-34 84.5q0 60 51 100t166 40q34 0 84 -6l1 29q4 159 -126 159q-67 0 -135 -43l-7 22q73 43 142 43t110 -42.5t39 -128.5l-6 -199q-1 -38 8 -53t28 -15q18 0 38 14l-1 -20q-18 -14 -41 -14q-28 0 -42.5 22.5t-9.5 86.5q-17 -49 -64 -81t-103 -32z
M186 12q66 0 113.5 47.5t49.5 119.5l1 44q-43 5 -84 5q-105 0 -148.5 -33t-43.5 -84q0 -42 28.5 -70.5t83.5 -28.5z" />
    <glyph glyph-name="b" unicode="b" horiz-adv-x="533" 
d="M479 233q0 -106 -66 -176t-167 -70q-81 0 -135 50l-10 -48l-15 2q5 64 5 151v394q0 122 -2 175q10 0 26 2q-1 -73 -1 -127v-216q86 83 177 83q84 0 136 -61.5t52 -158.5zM456 227q0 92 -46 148t-122 56q-90 0 -174 -90v-277q53 -55 134 -55q90 0 149 63.5t59 154.5z" />
    <glyph glyph-name="c" unicode="c" horiz-adv-x="482" 
d="M427 408l-8 -24q-56 47 -134 47q-94 0 -151 -64t-57 -153q0 -94 56 -149.5t146 -55.5q86 0 154 59l-2 -29q-67 -52 -154 -52q-101 0 -162 62.5t-61 162.5q0 101 63.5 171t169.5 70q86 0 140 -45z" />
    <glyph glyph-name="d" unicode="d" horiz-adv-x="531" 
d="M282 453q81 0 137 -47v130q0 122 -2 175q10 0 26 2q-1 -73 -1 -127v-481q0 -74 3 -103h-21l-5 70q-72 -85 -166 -85q-90 0 -144.5 62.5t-54.5 159.5q0 107 63 175.5t165 68.5zM280 431q-91 0 -147 -62t-56 -154t48.5 -149t130.5 -57q89 0 163 92v275q-55 55 -139 55z" />
    <glyph glyph-name="e" unicode="e" horiz-adv-x="500" 
d="M449 248l-18 -13l-354 -8q-3 -101 50.5 -159.5t141.5 -58.5q89 0 166 65l-2 -27q-75 -60 -170 -60q-91 0 -150 62t-59 159q0 105 60.5 175t156.5 70q84 0 131 -57t47 -148zM79 248l347 8q-4 82 -46 128.5t-114 46.5q-74 0 -125.5 -53t-61.5 -130z" />
    <glyph glyph-name="f" unicode="f" horiz-adv-x="278" 
d="M274 714l3 -24q-22 10 -43 10q-102 0 -102 -166v-91h139q-3 -9 -3 -20h-136v-320q0 -77 1 -103h-26q2 43 2 170v253h-73l8 20h65v89q0 92 32 141t94 49q23 0 39 -8z" />
    <glyph glyph-name="g" unicode="g" horiz-adv-x="452" 
d="M390 294q0 -66 -49.5 -111t-119.5 -45q-37 0 -67 12q-70 -36 -70 -70q0 -20 26.5 -34.5t78.5 -15.5l90 -3q147 -5 147 -96q0 -58 -71.5 -102t-165.5 -44q-81 0 -128 30.5t-47 77.5q0 36 28.5 64.5t90.5 56.5q-34 8 -52.5 25t-18.5 40q0 43 71 81q-75 43 -75 127
q0 66 50 113.5t120 47.5q52 0 94 -28q34 102 105 84l-4 -22q-32 8 -51 -11t-33 -64q51 -45 51 -113zM367 292q0 61 -41.5 97.5t-99.5 36.5q-59 0 -102 -41t-43 -96q0 -59 41 -94t101 -35t102 39t42 93zM203 7q-14 0 -36 2q-69 -29 -99.5 -56t-30.5 -58q0 -38 42 -63t114 -25
q83 0 146.5 38t63.5 85q0 70 -117 74z" />
    <glyph glyph-name="h" unicode="h" horiz-adv-x="539" 
d="M454 0h-26q2 86 2 170v123q0 138 -124 138q-65 0 -128.5 -59t-63.5 -97v-172q0 -67 1 -103h-26q2 86 2 170v366q0 122 -2 175q10 0 26 2q-1 -73 -1 -127v-260q26 44 79 85.5t121 41.5q59 0 99 -36t40 -112v-202q0 -19 0.5 -55t0.5 -48z" />
    <glyph glyph-name="i" unicode="i" horiz-adv-x="201" 
d="M115 0h-26q2 43 2 170v99q0 89 -4 175q10 0 28 2l-1 -127v-216q0 -19 0.5 -55t0.5 -48zM126 594q0 -11 -7 -18t-19 -7q-10 0 -17 7t-7 17t7 17t19 7q11 0 17.5 -7t6.5 -16z" />
    <glyph glyph-name="j" unicode="j" horiz-adv-x="201" 
d="M115 446l-1 -127v-412q0 -120 -77 -120q-17 0 -31 4l-3 21q18 -4 30 -4q28 1 43 22.5t15 74.5v364q0 89 -4 175q10 0 28 2zM126 594q0 -11 -7 -18t-19 -7q-10 0 -17 7t-7 17t7 17t19 7q11 0 17.5 -7t6.5 -16z" />
    <glyph glyph-name="k" unicode="k" horiz-adv-x="442" 
d="M400 -10l-286 249v-136q0 -77 1 -103h-26q2 43 2 170v366q0 122 -2 175q10 0 26 2q-1 -73 -1 -127v-337l251 194q28 0 37 1l-261 -200l70 -60l216 -186z" />
    <glyph glyph-name="l" unicode="l" horiz-adv-x="201" 
d="M115 0h-26q2 43 2 170v366q0 122 -2 175q10 0 26 2q-1 -73 -1 -127v-483q0 -77 1 -103z" />
    <glyph glyph-name="m" unicode="m" horiz-adv-x="839" 
d="M753 0h-26q2 86 2 170v123q0 138 -114 138q-62 0 -122 -59t-60 -97v-172q0 -19 0.5 -55t0.5 -48h-26q2 86 2 170v123q0 138 -114 138q-62 0 -122 -59t-60 -97v-172q0 -67 1 -103h-26q2 86 2 170v102q0 114 -4 171q6 0 24 2l2 -121q15 26 38 52.5t65.5 51.5t87.5 25
q51 0 87 -31t41 -98q27 46 77 87.5t114 41.5q55 0 92 -36t37 -112v-202q0 -19 0.5 -55t0.5 -48z" />
    <glyph glyph-name="n" unicode="n" horiz-adv-x="540" 
d="M454 0h-26q2 86 2 170v123q0 138 -124 138q-65 0 -128.5 -59t-63.5 -97v-172q0 -67 1 -103h-26q2 86 2 170v102q0 114 -4 171q6 0 24 2l2 -121q26 45 79.5 87t121.5 42q59 0 99 -36t40 -112v-202q0 -19 0.5 -55t0.5 -48z" />
    <glyph glyph-name="o" unicode="o" horiz-adv-x="552" 
d="M498 231q0 -106 -63 -175t-166 -69q-95 0 -155 62.5t-60 159.5q0 105 63 174.5t165 69.5q96 0 156 -62.5t60 -159.5zM475 227q0 95 -55.5 149.5t-141.5 54.5q-88 0 -144.5 -63.5t-56.5 -153.5q0 -93 54.5 -149t141.5 -56q89 0 145.5 63t56.5 155z" />
    <glyph glyph-name="p" unicode="p" horiz-adv-x="533" 
d="M479 233q0 -106 -66 -176t-167 -70q-80 0 -132 47v-145q0 -69 4 -104q-10 0 -28 -2q1 107 1 127v358q0 108 -6 173q14 0 24 2l5 -75q88 85 177 85q84 0 136 -61.5t52 -158.5zM456 227q0 92 -46 148t-122 56q-88 0 -174 -92v-275q53 -55 134 -55q90 0 149 63.5t59 154.5z
" />
    <glyph glyph-name="q" unicode="q" horiz-adv-x="532" 
d="M419 97v279q-53 55 -134 55q-90 0 -149 -63.5t-59 -154.5q0 -92 49 -148t129 -56q86 0 164 88zM432 451l15 -2q-5 -64 -5 -151v-398q0 -80 2 -115q-10 0 -26 -2q1 109 1 187v99q-74 -82 -167 -82q-88 0 -143 61.5t-55 158.5q0 106 66 176t167 70q81 0 135 -50z" />
    <glyph glyph-name="r" unicode="r" horiz-adv-x="308" 
d="M274 453l-3 -26q-67 -1 -112 -60t-45 -122v-142q0 -67 1 -103h-26q2 86 2 170v103q0 108 -7 168l24 6l4 -128q17 48 58.5 89t103.5 45z" />
    <glyph glyph-name="s" unicode="s" horiz-adv-x="389" 
d="M201 452q59 0 115 -30l-9 -24q-50 32 -107 32q-49 0 -81.5 -25t-32.5 -64q0 -32 25.5 -55t62 -37t73 -29t62 -40.5t25.5 -62.5q0 -60 -46 -94.5t-109 -34.5q-77 0 -134 33l3 28q62 -39 134 -39q52 0 89.5 28t37.5 77q0 32 -25.5 54.5t-62 37l-73 29t-62 41t-25.5 63.5
q0 49 40.5 80.5t99.5 31.5z" />
    <glyph glyph-name="t" unicode="t" horiz-adv-x="315" 
d="M277 31l-1 -22q-34 -22 -73 -22q-45 0 -69.5 25.5t-24.5 71.5v339h-73l8 20h66l4 103l18 4v-107h133q-3 -12 -3 -20h-130v-332q0 -41 20 -61.5t56 -20.5q35 0 69 22z" />
    <glyph glyph-name="u" unicode="u" horiz-adv-x="542" 
d="M455 0h-22l-5 115q-26 -45 -81.5 -87.5t-123.5 -42.5q-59 0 -97 38.5t-38 119.5v144q0 106 -2 157q10 0 26 2q-1 -28 -1 -116v-175q0 -148 120 -148q65 0 130.5 59t65.5 97v124q0 106 -2 157q10 0 26 2q-1 -28 -1 -116v-155q0 -67 5 -175z" />
    <glyph glyph-name="v" unicode="v" horiz-adv-x="450" 
d="M221 -21q-19 53 -43 105l-94 222q-43 107 -58 138l24 5l177 -424l75 184q7 18 45 108t51 127q10 -1 26 1l-193 -463z" />
    <glyph glyph-name="w" unicode="w" horiz-adv-x="682" 
d="M187 -20q-9 31 -35 106l-76 219q-34 98 -51 139l25 5l143 -415l59 176q59 166 80 234l15 2l138 -412l62 173q66 185 82 237q16 -1 27 1l-166 -463l-11 -3q-1 6 -47 140l-92 278l-143 -414z" />
    <glyph glyph-name="x" unicode="x" horiz-adv-x="435" 
d="M70 447l148 -199l156 197q11 -1 28 -1l-171 -211l63 -82l112 -149l-23 -8l-166 224l-172 -218h-30l189 232l-35 47l-124 163z" />
    <glyph glyph-name="y" unicode="y" horiz-adv-x="439" 
d="M115 -216l97 233q-7 19 -39 90l-88 204q-26 62 -60 133l25 5l174 -403l68 164q5 12 42.5 104t50.5 130q23 0 28 1l-223 -540l-48 -120z" />
    <glyph glyph-name="z" unicode="z" horiz-adv-x="426" 
d="M390 445l6 -7l-335 -416q243 0 329 3q-5 -17 -5 -26q-81 3 -175 3q-109 0 -184 -4l-6 7l335 417q-255 0 -307 -1q4 12 4 24q72 -3 166 -3q91 0 172 3z" />
    <glyph glyph-name="braceleft" unicode="{" horiz-adv-x="323" 
d="M67 241v15q84 23 111.5 39t27.5 41q0 15 -34 85.5t-34 117.5q0 140 197 183l6 -19q-97 -21 -139 -64.5t-42 -96.5q0 -42 34 -113.5t34 -91.5q0 -31 -25 -49.5t-95 -38.5q70 -21 95 -39.5t25 -49.5q0 -20 -34 -91.5t-34 -113.5q0 -53 42 -96.5t139 -64.5l-6 -19
q-197 43 -197 183q0 47 34 117.5t34 85.5q0 25 -27.5 41t-111.5 39z" />
    <glyph glyph-name="bar" unicode="|" horiz-adv-x="225" 
d="M125 -240h-25q2 64 2 240v561q0 122 -2 175q9 0 25 2q-1 -73 -1 -127v-708q0 -105 1 -143z" />
    <glyph glyph-name="braceright" unicode="}" horiz-adv-x="323" 
d="M256 256v-15q-84 -23 -111.5 -39t-27.5 -41q0 -15 34 -85.5t34 -117.5q0 -140 -197 -183l-6 19q97 21 139 64.5t42 96.5q0 42 -34 113.5t-34 91.5q0 31 24.5 49t95.5 39q-70 20 -95 39t-25 50q0 20 34 91.5t34 113.5q0 53 -42 96.5t-139 64.5l6 19q197 -43 197 -183
q0 -47 -34 -117.5t-34 -85.5q0 -25 27.5 -41t111.5 -39z" />
    <glyph glyph-name="asciitilde" unicode="~" horiz-adv-x="500" 
d="M95 256q19 76 74 76q25 0 82.5 -27t80.5 -27q35 0 54 59l19 -4q-19 -76 -74 -76q-25 0 -82.5 27t-80.5 27q-35 0 -54 -59z" />
    <glyph glyph-name="uni00A0" unicode="&#xa0;" horiz-adv-x="190" 
 />
    <glyph glyph-name="exclamdown" unicode="&#xa1;" horiz-adv-x="148" 
d="M60 -4q2 60 2 102l2 309v114l18 1q0 -28 0.5 -90t0.5 -85l2 -204q0 -53 2 -145q-13 0 -27 -2zM49 691q0 10 7 17t19 7q11 0 17.5 -7t6.5 -16q0 -11 -7 -18t-19 -7q-10 0 -17 7t-7 17z" />
    <glyph glyph-name="cent" unicode="&#xa2;" horiz-adv-x="482" 
d="M283 362l-25 -302q-2 -16 -4 -50q8 -1 27 -1q84 0 152 59l-2 -29q-67 -52 -155 -52q-5 0 -13 0.5t-12 0.5q-6 -73 -7 -103h-24q1 12 2.5 29t4.5 40t4 37q-81 14 -129 74t-48 145q0 102 57.5 169.5t157.5 72.5q1 8 4.5 47t4.5 58q6 0 24 2q-6 -55 -11 -106q81 -3 136 -45
l-8 -24q-53 44 -130 47q-2 -14 -3.5 -38t-2.5 -31zM77 216q0 -81 42 -135t113 -68l6 62l23 270q1 19 4 51.5t3 34.5q-87 -5 -139 -66.5t-52 -148.5z" />
    <glyph glyph-name="sterling" unicode="&#xa3;" horiz-adv-x="495" 
d="M45 312q2 12 2 22h99q-39 86 -39 157q0 78 51 129.5t132 51.5q76 0 137 -41l-6 -21q-61 41 -131 41q-71 0 -116 -45.5t-45 -112.5q0 -71 39 -157q100 1 223 4l-3 -22q-37 0 -209 -2h-2q31 -69 31 -119q0 -101 -109 -177q267 0 356 3q-5 -17 -5 -26q-90 3 -195 3
q-124 0 -207 -4l-3 17q66 31 103.5 79t37.5 104q0 47 -31 119z" />
    <glyph glyph-name="yen" unicode="&#xa5;" horiz-adv-x="560" 
d="M266 0q1 19 1.5 79.5t0.5 87.5h-13q-41 0 -105 -0.5t-92 -0.5q2 12 2 23q112 -2 195 -2h13v28v92l-4 5h-9q-41 0 -105 -0.5t-92 -0.5q2 12 2 23q114 -2 190 -2l-82 118l-142 203l23 5l231 -331l64 95l162 235h28l-226 -325q129 0 195 2q-2 -7 -4 -23q-32 0 -98 0.5
t-96 0.5h-11l-3 -5v-120h15q133 0 197 2q-2 -7 -4 -23q-32 0 -98 0.5t-96 0.5h-14v-32q0 -109 1 -135h-26z" />
    <glyph glyph-name="section" unicode="&#xa7;" horiz-adv-x="438" 
d="M54 258q0 48 40 85.5t112 53.5q-65 26 -99.5 55t-34.5 80q0 55 47.5 92t122.5 37q76 0 138 -41l-8 -23q-54 42 -133 42q-64 0 -104.5 -31t-40.5 -76q0 -39 31 -67t75.5 -45t89 -35t75.5 -50t31 -78t-35 -83t-98 -57q59 -25 92 -55t33 -79q0 -59 -52.5 -100.5
t-132.5 -41.5q-85 0 -163 44l3 27q72 -49 161 -49q72 0 116.5 34.5t44.5 83.5q0 41 -32 70t-77.5 47t-91.5 36.5t-78 49t-32 74.5zM76 260q0 -20 10 -38t21 -29t38 -25t39.5 -19.5t48.5 -19.5q65 15 103 49.5t38 76.5q0 26 -10 46t-33 36t-41.5 25t-52.5 23
q-73 -12 -117 -47.5t-44 -77.5z" />
    <glyph glyph-name="dieresis" unicode="&#xa8;" horiz-adv-x="356" 
d="M129 594q0 -11 -7 -18t-19 -7q-10 0 -17 7t-7 17t7 17t19 7q11 0 17.5 -7t6.5 -16zM277 594q0 -11 -7 -18t-19 -7q-10 0 -17 7t-7 17t7 17t19 7q11 0 17.5 -7t6.5 -16z" />
    <glyph glyph-name="copyright" unicode="&#xa9;" horiz-adv-x="858" 
d="M798 351q0 -153 -108 -261t-261 -108t-261 108t-108 261t108 261t261 108t261 -108t108 -261zM774 351q0 143 -101 245t-244 102t-244 -102t-101 -245t101 -245t244 -102t244 102t101 245zM568 204q-56 -43 -129 -43q-85 0 -135.5 52t-50.5 134q0 89 52 145.5t143 56.5
q71 0 117 -37l-7 -23q-46 39 -115 39q-76 0 -122 -51.5t-46 -126.5q0 -77 46 -122.5t122 -45.5q69 0 127 49z" />
    <glyph glyph-name="ordfeminine" unicode="&#xaa;" horiz-adv-x="346" 
d="M167 700q-47 0 -99 -30l-5 19q54 31 105 31q110 0 107 -122l-4 -144q-1 -43 25 -43q13 0 28 10l-1 -18q-13 -10 -32 -10q-44 0 -39 73q-14 -35 -44.5 -55.5t-70.5 -20.5q-47 0 -73 25t-26 61q0 43 37.5 71t120.5 28q30 0 57 -3l1 19q1 57 -20 83t-67 26zM140 409
q47 0 79 33.5t33 84.5l1 26q-27 3 -56 3q-137 0 -137 -78q0 -30 20.5 -49.5t59.5 -19.5z" />
    <glyph glyph-name="guillemotleft" unicode="&#xab;" horiz-adv-x="470" 
d="M221 447q20 0 28 2q-5 -6 -178 -227q44 -61 179 -224l-21 -10q-138 170 -184 233l1 4q22 29 87 110.5t88 111.5zM383 447q20 0 28 2q-5 -6 -178 -227q56 -77 184 -230l-21 -10q-115 138 -189 239l1 4q22 29 87 110.5t88 111.5z" />
    <glyph glyph-name="registered" unicode="&#xae;" horiz-adv-x="454" 
d="M414 533q0 -77 -55 -132t-132 -55t-132 55t-55 132t55 132t132 55t132 -55t55 -132zM393 533q0 70 -48 119t-118 49t-118 -48.5t-48 -119.5q0 -70 48 -119t118 -49t118 49t48 119zM173 628q12 1 50 1q32 0 49 -14t17 -37q0 -18 -11 -33t-30 -20l32 -44l29 -41l-23 -1
l-58 83h-34v-81h-21q1 12 1 62v63q0 51 -1 62zM194 539h32q21 0 32 10.5t11 27.5q0 35 -49 35q-18 0 -26 -1v-72z" />
    <glyph glyph-name="macron" unicode="&#xaf;" horiz-adv-x="379" 
d="M327 624q-2 -6 -4 -24q-20 0 -58 0.5t-56 0.5h-50q-22 0 -57 -0.5t-50 -0.5q2 12 2 24q72 -2 136 -2q91 0 137 2z" />
    <glyph glyph-name="degree" unicode="&#xb0;" horiz-adv-x="361" 
d="M307 574q0 -60 -36.5 -101.5t-94.5 -41.5q-55 0 -88.5 37.5t-33.5 90.5q0 60 36.5 100.5t93.5 40.5q55 0 89 -36.5t34 -89.5zM286 572q0 46 -28 77t-75 31q-48 0 -78 -34.5t-30 -84.5q0 -47 27.5 -78.5t74.5 -31.5q49 0 79 35t30 86z" />
    <glyph glyph-name="plusminus" unicode="&#xb1;" horiz-adv-x="515" 
d="M437 329q-2 -6 -4 -24q-26 0 -77.5 0.5t-75.5 0.5h-11v-19q0 -29 0.5 -75t0.5 -65h-24q2 84 2 159h-18q-31 0 -81 -0.5t-71 -0.5q2 10 2 24q90 -2 168 -2q0 105 -2 157q16 0 24 1q0 -24 -0.5 -74.5t-0.5 -73.5v-10q112 0 168 2zM433 49q-2 -6 -4 -24q-26 0 -78 0.5
t-76 0.5h-50q-31 0 -78.5 -0.5t-68.5 -0.5q2 10 2 24q96 -2 176 -2q119 0 177 2z" />
    <glyph glyph-name="two.sup" unicode="&#xb2;" 
d="M73 762l-12 17q59 54 129 54q52 0 84 -26.5t32 -71.5q0 -34 -19.5 -62.5t-72.5 -78.5q-30 -26 -133 -113q161 0 236 2q0 -1 -1.5 -10t-1.5 -13q-80 2 -133 2q-50 0 -130 -2l-5 15q145 124 157 135q44 41 62 68.5t18 55.5q0 36 -25 57.5t-69 21.5q-59 0 -116 -51z" />
    <glyph glyph-name="three.sup" unicode="&#xb3;" 
d="M57 471l-3 23q53 -21 110 -21q56 0 91.5 23t35.5 59q0 79 -165 84l-4 16q160 21 160 94q0 28 -25 45.5t-69 17.5q-61 0 -117 -33l-9 17q61 36 125 36q54 0 86 -23t32 -60q0 -71 -131 -98q68 -5 104 -30t36 -66q0 -44 -42.5 -73t-107.5 -29q-54 0 -107 18z" />
    <glyph glyph-name="acute" unicode="&#xb4;" horiz-adv-x="300" 
d="M173 678l38 4l-114 -142l-21 -1z" />
    <glyph glyph-name="paragraph" unicode="&#xb6;" horiz-adv-x="582" 
d="M297 660h55q-1 -74 -1 -128v-379q0 -112 1 -153h-26q2 58 2 220v43q-139 -4 -206 52.5t-67 151.5q0 80 61.5 136.5t180.5 56.5zM482 0h-26q2 58 2 220v266q0 120 -2 173q18 0 26 1q-1 -70 -1 -124v-383q0 -112 1 -153z" />
    <glyph glyph-name="periodcentered" unicode="&#xb7;" horiz-adv-x="146" 
d="M98 330q0 -11 -7 -18t-19 -7q-10 0 -17 7t-7 17t7 17t19 7q11 0 17.5 -7t6.5 -16z" />
    <glyph glyph-name="cedilla" unicode="&#xb8;" horiz-adv-x="290" 
d="M140 -2l-21 -70q94 -23 94 -72q0 -24 -19 -39.5t-53 -15.5q-35 0 -78 18l4 21q41 -18 76 -18q49 0 49 33q0 20 -21 33.5t-75 23.5l-3 4q2 7 12.5 39t13.5 48z" />
    <glyph glyph-name="one.sup" unicode="&#xb9;" horiz-adv-x="280" 
d="M150 805l-82 -26l-5 20q19 5 77 24l29 9l4 -2q0 -2 -0.5 -33t-0.5 -33v-234q0 -56 1 -70h-24q1 23 1 116v229z" />
    <glyph glyph-name="ordmasculine" unicode="&#xba;" horiz-adv-x="381" 
d="M341 562q0 -74 -43 -123.5t-112 -49.5q-65 0 -105.5 46t-40.5 112q0 74 43 123.5t112 49.5q65 0 105.5 -46t40.5 -112zM320 559q0 60 -34.5 100.5t-91.5 40.5q-59 0 -96 -43t-37 -107q0 -60 34.5 -100.5t91.5 -40.5q59 0 96 43t37 107z" />
    <glyph glyph-name="guillemotright" unicode="&#xbb;" horiz-adv-x="469" 
d="M86 -12q-19 0 -29 -2l179 230q-40 54 -183 227l20 10q153 -186 189 -236l-1 -4q-23 -30 -88 -112.5t-87 -112.5zM248 -12q-19 0 -29 -2l179 230q-32 44 -179 221l21 10q18 -23 61.5 -75.5t71 -87t51.5 -67.5l-1 -4q-23 -30 -88 -112.5t-87 -112.5z" />
    <glyph glyph-name="onequarter" unicode="&#xbc;" horiz-adv-x="840" 
d="M689 0q2 19 2 79v19h-53q-101 0 -144 -2l-6 15l163 209l41 52l20 -2q0 -1 -0.5 -36.5t-0.5 -37.5v-179q14 0 39 0.5t38 0.5q-3 -11 -4 -21q-11 0 -35.5 0.5t-37.5 0.5v-37q0 -10 0.5 -32.5t0.5 -28.5h-23zM691 341l-175 -224h175v224zM148 -10l-16 14q97 124 122 157
l294 384q86 113 115 155l20 -11q-18 -22 -89 -117l-372 -486q-10 -14 -21.5 -28.5t-26.5 -34t-26 -33.5zM167 672l-82 -26l-5 20q19 5 77 24l29 9l4 -2q0 -2 -0.5 -33t-0.5 -33v-234q0 -56 1 -70h-24q1 23 1 116v229z" />
    <glyph glyph-name="onehalf" unicode="&#xbd;" horiz-adv-x="840" 
d="M167 672l-82 -26l-5 20q19 5 77 24l29 9l4 -2q0 -2 -0.5 -33t-0.5 -33v-234q0 -56 1 -70h-24q1 23 1 116v229zM100 -10l-16 14q97 124 122 157l294 384q86 113 115 155l20 -11q-18 -22 -89 -117l-372 -486q-10 -14 -21.5 -28.5t-26.5 -34t-26 -33.5zM518 302l-12 17
q59 54 129 54q52 0 84 -26.5t32 -71.5q0 -34 -19.5 -62.5t-72.5 -78.5q-30 -26 -133 -113q161 0 236 2q0 -1 -1.5 -10t-1.5 -13q-80 2 -133 2q-50 0 -130 -2l-5 15q145 124 157 135q44 41 62 68.5t18 55.5q0 36 -25 57.5t-69 21.5q-59 0 -116 -51z" />
    <glyph glyph-name="threequarters" unicode="&#xbe;" horiz-adv-x="934" 
d="M783 0q2 19 2 79v19h-53q-101 0 -144 -2l-6 15l163 209l41 52l20 -2q0 -1 -0.5 -36.5t-0.5 -37.5v-179q14 0 39 0.5t38 0.5q-3 -11 -4 -21q-11 0 -35.5 0.5t-37.5 0.5v-37q0 -10 0.5 -32.5t0.5 -28.5h-23zM785 341l-175 -224h175v224zM89 338l-3 23q53 -21 110 -21
q56 0 91.5 23t35.5 59q0 79 -165 84l-4 16q160 21 160 94q0 28 -25 45.5t-69 17.5q-61 0 -117 -33l-9 17q61 36 125 36q54 0 86 -23t32 -60q0 -71 -131 -98q68 -5 104 -30t36 -66q0 -44 -42.5 -73t-107.5 -29q-54 0 -107 18zM238 -10l-16 14q97 124 122 157l294 384
q86 113 115 155l20 -11q-18 -22 -89 -117l-372 -486q-10 -14 -21.5 -28.5t-26.5 -34t-26 -33.5z" />
    <glyph glyph-name="questiondown" unicode="&#xbf;" horiz-adv-x="360" 
d="M20 115q0 33 17.5 64t43.5 53t56 45.5t56 43.5t43.5 45.5t17.5 51.5q0 36 -23 55t-58 19q-25 0 -58 -11l-5 19q29 13 61 13q46 0 76 -25t30 -70q0 -35 -24 -67.5t-58.5 -58t-68.5 -50.5t-58 -57.5t-24 -68.5q0 -49 37 -80t96 -31q37 0 80.5 15.5t67.5 36.5v-28
q-25 -19 -68.5 -33t-81.5 -14q-67 0 -111 36.5t-44 96.5zM171 690q0 11 7 18t19 7q10 0 17 -7t7 -17t-7 -17t-19 -7q-11 0 -17.5 7t-6.5 16z" />
    <glyph glyph-name="Agrave" unicode="&#xc0;" horiz-adv-x="683" 
d="M26 0l212 493q88 208 94 224l10 2l241 -557l73 -162l-26 -5l-121 278h-341l-39 -92l-74 -181h-29zM338 672l-161 -377h322zM234 924l34 2l97 -140l-18 -2z" />
    <glyph glyph-name="Aacute" unicode="&#xc1;" horiz-adv-x="683" 
d="M26 0l212 493q88 208 94 224l10 2l241 -557l73 -162l-26 -5l-121 278h-341l-39 -92l-74 -181h-29zM338 672l-161 -377h322zM403 923l38 4l-114 -142l-21 -1z" />
    <glyph glyph-name="Acircumflex" unicode="&#xc2;" horiz-adv-x="683" 
d="M26 0l212 493q88 208 94 224l10 2l241 -557l73 -162l-26 -5l-121 278h-341l-39 -92l-74 -181h-29zM338 672l-161 -377h322zM334 927h11l116 -136l-19 -4l-104 110l-103 -105h-23z" />
    <glyph glyph-name="Atilde" unicode="&#xc3;" horiz-adv-x="683" 
d="M26 0l212 493q88 208 94 224l10 2l241 -557l73 -162l-26 -5l-121 278h-341l-39 -92l-74 -181h-29zM338 672l-161 -377h322zM199 817q19 86 74 86q26 0 75 -32t68 -32q35 0 54 69l19 -4q-19 -86 -74 -86q-26 0 -75 32t-68 32q-35 0 -54 -69z" />
    <glyph glyph-name="Adieresis" unicode="&#xc4;" horiz-adv-x="683" 
d="M26 0l212 493q88 208 94 224l10 2l241 -557l73 -162l-26 -5l-121 278h-341l-39 -92l-74 -181h-29zM338 672l-161 -377h322zM290 839q0 -11 -7 -18t-19 -7q-10 0 -17 7t-7 17t7 17t19 7q11 0 17.5 -7t6.5 -16zM438 839q0 -11 -7 -18t-19 -7q-10 0 -17 7t-7 17t7 17t19 7
q11 0 17.5 -7t6.5 -16z" />
    <glyph glyph-name="Aring" unicode="&#xc5;" horiz-adv-x="683" 
d="M437 808q0 -40 -25 -70t-64 -34l235 -542l73 -162l-26 -5l-121 278h-341l-39 -92l-74 -181h-29l212 493q18 42 37.5 88t31.5 74t20 48q-38 4 -62.5 31t-24.5 64q0 45 28 74.5t73 29.5q42 0 69 -27.5t27 -66.5zM338 672l-161 -377h322zM416 807q0 32 -20.5 53.5
t-54.5 21.5q-36 0 -58 -23.5t-22 -59.5q0 -31 20.5 -53.5t55.5 -22.5t57 24t22 60z" />
    <glyph glyph-name="AE" unicode="&#xc6;" horiz-adv-x="892" 
d="M0 0l325 493q108 164 139 214q80 -3 182 -3q104 0 189 3q-4 -13 -4 -25q-27 0 -88.5 0.5t-96.5 0.5q-127 0 -153 -1q-1 -36 -1 -122v-181h296q-3 -11 -3 -22h-293v-213q0 -85 1 -121q39 -1 149 -1q108 0 205 3q-5 -17 -5 -27q-86 3 -193 3q-111 0 -182 -4q2 48 2 244v32
h-263l-60 -92l-114 -181h-32zM469 462q0 96 -2 204l-246 -371h248v167z" />
    <glyph glyph-name="Ccedilla" unicode="&#xc7;" horiz-adv-x="679" 
d="M629 83l-1 -29q-92 -72 -220 -72q-2 0 -4 0.5t-4 0.5l-16 -55q94 -23 94 -72q0 -24 -19 -39.5t-53 -15.5q-35 0 -78 18l4 21q41 -18 76 -18q49 0 49 33q0 20 -21 33.5t-75 23.5l-3 4q3 12 11 36t10 31q-142 11 -228 114.5t-86 245.5q0 160 101 268.5t259 108.5
q110 0 196 -56l-8 -21q-82 55 -190 55q-146 0 -240 -102t-94 -247t87 -245t233 -100q133 0 220 79z" />
    <glyph glyph-name="Egrave" unicode="&#xc8;" horiz-adv-x="542" 
d="M497 25q-5 -17 -5 -27q-86 3 -193 3q-111 0 -182 -4q2 48 2 244v221q0 173 -3 245q80 -3 180 -3q104 0 189 3q-4 -13 -4 -25q-27 0 -88.5 0.5t-96.5 0.5q-127 0 -153 -1q-1 -36 -1 -122v-181h296q-3 -11 -3 -22h-293v-213q0 -85 1 -121q39 -1 149 -1q108 0 205 3z
M195 919l34 2l97 -140l-18 -2z" />
    <glyph glyph-name="Eacute" unicode="&#xc9;" horiz-adv-x="542" 
d="M497 25q-5 -17 -5 -27q-86 3 -193 3q-111 0 -182 -4q2 48 2 244v221q0 173 -3 245q80 -3 180 -3q104 0 189 3q-4 -13 -4 -25q-27 0 -88.5 0.5t-96.5 0.5q-127 0 -153 -1q-1 -36 -1 -122v-181h296q-3 -11 -3 -22h-293v-213q0 -85 1 -121q39 -1 149 -1q108 0 205 3z
M364 918l38 4l-114 -142l-21 -1z" />
    <glyph glyph-name="Ecircumflex" unicode="&#xca;" horiz-adv-x="542" 
d="M497 25q-5 -17 -5 -27q-86 3 -193 3q-111 0 -182 -4q2 48 2 244v221q0 173 -3 245q80 -3 180 -3q104 0 189 3q-4 -13 -4 -25q-27 0 -88.5 0.5t-96.5 0.5q-127 0 -153 -1q-1 -36 -1 -122v-181h296q-3 -11 -3 -22h-293v-213q0 -85 1 -121q39 -1 149 -1q108 0 205 3z
M295 922h11l116 -136l-19 -4l-104 110l-103 -105h-23z" />
    <glyph glyph-name="Edieresis" unicode="&#xcb;" horiz-adv-x="542" 
d="M497 25q-5 -17 -5 -27q-86 3 -193 3q-111 0 -182 -4q2 48 2 244v221q0 173 -3 245q80 -3 180 -3q104 0 189 3q-4 -13 -4 -25q-27 0 -88.5 0.5t-96.5 0.5q-127 0 -153 -1q-1 -36 -1 -122v-181h296q-3 -11 -3 -22h-293v-213q0 -85 1 -121q39 -1 149 -1q108 0 205 3z
M251 834q0 -11 -7 -18t-19 -7q-10 0 -17 7t-7 17t7 17t19 7q11 0 17.5 -7t6.5 -16zM399 834q0 -11 -7 -18t-19 -7q-10 0 -17 7t-7 17t7 17t19 7q11 0 17.5 -7t6.5 -16z" />
    <glyph glyph-name="Igrave" unicode="&#xcc;" horiz-adv-x="271" 
d="M149 0h-27q3 72 3 241v221q0 169 -3 241q16 0 27 3q-1 -29 -1 -146v-416q0 -116 1 -144zM30 919l34 2l97 -140l-18 -2z" />
    <glyph glyph-name="Iacute" unicode="&#xcd;" horiz-adv-x="271" 
d="M149 0h-27q3 72 3 241v221q0 169 -3 241q16 0 27 3q-1 -29 -1 -146v-416q0 -116 1 -144zM199 918l38 4l-114 -142l-21 -1z" />
    <glyph glyph-name="Icircumflex" unicode="&#xce;" horiz-adv-x="271" 
d="M149 0h-27q3 72 3 241v221q0 169 -3 241q16 0 27 3q-1 -29 -1 -146v-416q0 -116 1 -144zM130 922h11l116 -136l-19 -4l-104 110l-103 -105h-23z" />
    <glyph glyph-name="Idieresis" unicode="&#xcf;" horiz-adv-x="271" 
d="M149 0h-27q3 72 3 241v221q0 169 -3 241q16 0 27 3q-1 -29 -1 -146v-416q0 -116 1 -144zM86 834q0 -11 -7 -18t-19 -7q-10 0 -17 7t-7 17t7 17t19 7q11 0 17.5 -7t6.5 -16zM234 834q0 -11 -7 -18t-19 -7q-10 0 -17 7t-7 17t7 17t19 7q11 0 17.5 -7t6.5 -16z" />
    <glyph glyph-name="Eth" unicode="&#xd0;" horiz-adv-x="744" 
d="M679 366q0 -162 -105 -264t-287 -102h-169q2 96 2 241v107q-15 0 -40 -0.5t-36 -0.5q2 12 2 24q38 -2 74 -2v93q0 169 -3 241q148 4 179 4q176 0 279.5 -95.5t103.5 -245.5zM655 363q0 143 -97 232.5t-265 89.5q-46 0 -150 -4v-312q118 0 176 2q-2 -6 -4 -24
q-24 0 -72.5 0.5t-71.5 0.5h-28v-204q0 -91 1 -119q34 -3 145 -3q171 0 268.5 95.5t97.5 245.5z" />
    <glyph glyph-name="Ntilde" unicode="&#xd1;" horiz-adv-x="787" 
d="M118 0q2 48 2 241v221q0 208 -3 256l11 2l519 -686v428q0 193 -2 241q16 0 25 3q-1 -29 -1 -146v-416q0 -131 1 -159l-10 -3l-518 684v-522q0 -20 0.5 -75.5t0.5 -68.5h-25zM256 812q19 86 74 86q26 0 75 -32t68 -32q35 0 54 69l19 -4q-19 -86 -74 -86q-26 0 -75 32
t-68 32q-35 0 -54 -69z" />
    <glyph glyph-name="Ograve" unicode="&#xd2;" horiz-adv-x="825" 
d="M403 4q146 0 239.5 104.5t93.5 257.5q0 138 -87.5 235t-225.5 97q-146 0 -240 -104.5t-94 -257.5q0 -137 88 -234.5t226 -97.5zM403 -18q-147 0 -242.5 103.5t-95.5 247.5q0 164 101 275.5t257 111.5q147 0 242 -103t95 -248q0 -164 -100.5 -275.5t-256.5 -111.5z
M307 924l34 2l97 -140l-18 -2z" />
    <glyph glyph-name="Oacute" unicode="&#xd3;" horiz-adv-x="825" 
d="M403 4q146 0 239.5 104.5t93.5 257.5q0 138 -87.5 235t-225.5 97q-146 0 -240 -104.5t-94 -257.5q0 -137 88 -234.5t226 -97.5zM403 -18q-147 0 -242.5 103.5t-95.5 247.5q0 164 101 275.5t257 111.5q147 0 242 -103t95 -248q0 -164 -100.5 -275.5t-256.5 -111.5z
M476 923l38 4l-114 -142l-21 -1z" />
    <glyph glyph-name="Ocircumflex" unicode="&#xd4;" horiz-adv-x="825" 
d="M403 4q146 0 239.5 104.5t93.5 257.5q0 138 -87.5 235t-225.5 97q-146 0 -240 -104.5t-94 -257.5q0 -137 88 -234.5t226 -97.5zM403 -18q-147 0 -242.5 103.5t-95.5 247.5q0 164 101 275.5t257 111.5q147 0 242 -103t95 -248q0 -164 -100.5 -275.5t-256.5 -111.5z
M407 927h11l116 -136l-19 -4l-104 110l-103 -105h-23z" />
    <glyph glyph-name="Otilde" unicode="&#xd5;" horiz-adv-x="825" 
d="M403 4q146 0 239.5 104.5t93.5 257.5q0 138 -87.5 235t-225.5 97q-146 0 -240 -104.5t-94 -257.5q0 -137 88 -234.5t226 -97.5zM403 -18q-147 0 -242.5 103.5t-95.5 247.5q0 164 101 275.5t257 111.5q147 0 242 -103t95 -248q0 -164 -100.5 -275.5t-256.5 -111.5z
M272 817q19 86 74 86q26 0 75 -32t68 -32q35 0 54 69l19 -4q-19 -86 -74 -86q-26 0 -75 32t-68 32q-35 0 -54 -69z" />
    <glyph glyph-name="Odieresis" unicode="&#xd6;" horiz-adv-x="825" 
d="M403 4q146 0 239.5 104.5t93.5 257.5q0 138 -87.5 235t-225.5 97q-146 0 -240 -104.5t-94 -257.5q0 -137 88 -234.5t226 -97.5zM403 -18q-147 0 -242.5 103.5t-95.5 247.5q0 164 101 275.5t257 111.5q147 0 242 -103t95 -248q0 -164 -100.5 -275.5t-256.5 -111.5z
M363 839q0 -11 -7 -18t-19 -7q-10 0 -17 7t-7 17t7 17t19 7q11 0 17.5 -7t6.5 -16zM511 839q0 -11 -7 -18t-19 -7q-10 0 -17 7t-7 17t7 17t19 7q11 0 17.5 -7t6.5 -16z" />
    <glyph glyph-name="multiply" unicode="&#xd7;" horiz-adv-x="515" 
d="M413 121l-17 -16q-16 17 -139 142l-141 -142q-6 10 -15 17q78 76 141 139q-110 110 -141 139q11 9 17 17l139 -141q5 5 58.5 59.5t79.5 81.5q2 -3 4.5 -6t5.5 -6.5t5 -5.5l-139 -137z" />
    <glyph glyph-name="Oslash" unicode="&#xd8;" horiz-adv-x="825" 
d="M730 708q-40 -44 -72 -84q102 -104 102 -255q0 -164 -100.5 -275.5t-256.5 -111.5q-129 0 -221 82l-78 -89l-20 12q74 82 82 92q-101 103 -101 254q0 164 101 275.5t257 111.5q127 0 219 -81q45 52 68 82zM403 4q146 0 239.5 104.5t93.5 257.5q0 145 -94 241l-446 -525
q84 -78 207 -78zM89 336q0 -142 92 -239l446 525q-86 76 -204 76q-146 0 -240 -104.5t-94 -257.5z" />
    <glyph glyph-name="Ugrave" unicode="&#xd9;" horiz-adv-x="723" 
d="M623 706q-1 -29 -1 -146v-305q0 -134 -74 -206q-70 -67 -187 -67t-188 66.5t-71 189.5v224q0 193 -2 241q14 0 26 3q-1 -29 -1 -146v-311q0 -121 63.5 -183t177.5 -62q106 0 169.5 64t63.5 179v215q0 193 -2 241q14 0 26 3zM256 919l34 2l97 -140l-18 -2z" />
    <glyph glyph-name="Uacute" unicode="&#xda;" horiz-adv-x="723" 
d="M623 706q-1 -29 -1 -146v-305q0 -134 -74 -206q-70 -67 -187 -67t-188 66.5t-71 189.5v224q0 193 -2 241q14 0 26 3q-1 -29 -1 -146v-311q0 -121 63.5 -183t177.5 -62q106 0 169.5 64t63.5 179v215q0 193 -2 241q14 0 26 3zM425 918l38 4l-114 -142l-21 -1z" />
    <glyph glyph-name="Ucircumflex" unicode="&#xdb;" horiz-adv-x="723" 
d="M623 706q-1 -29 -1 -146v-305q0 -134 -74 -206q-70 -67 -187 -67t-188 66.5t-71 189.5v224q0 193 -2 241q14 0 26 3q-1 -29 -1 -146v-311q0 -121 63.5 -183t177.5 -62q106 0 169.5 64t63.5 179v215q0 193 -2 241q14 0 26 3zM356 922h11l116 -136l-19 -4l-104 110
l-103 -105h-23z" />
    <glyph glyph-name="Udieresis" unicode="&#xdc;" horiz-adv-x="723" 
d="M623 706q-1 -29 -1 -146v-305q0 -134 -74 -206q-70 -67 -187 -67t-188 66.5t-71 189.5v224q0 193 -2 241q14 0 26 3q-1 -29 -1 -146v-311q0 -121 63.5 -183t177.5 -62q106 0 169.5 64t63.5 179v215q0 193 -2 241q14 0 26 3zM312 834q0 -11 -7 -18t-19 -7q-10 0 -17 7
t-7 17t7 17t19 7q11 0 17.5 -7t6.5 -16zM460 834q0 -11 -7 -18t-19 -7q-10 0 -17 7t-7 17t7 17t19 7q11 0 17.5 -7t6.5 -16z" />
    <glyph glyph-name="Yacute" unicode="&#xdd;" horiz-adv-x="584" 
d="M20 701l27 5l246 -378l103 159l139 217h29l-261 -400v-160q0 -116 1 -144h-27q3 72 3 231v73l-110 170zM356 918l38 4l-114 -142l-21 -1z" />
    <glyph glyph-name="Thorn" unicode="&#xde;" horiz-adv-x="525" 
d="M120 462q0 169 -3 241q17 0 27 3q-1 -31 -1 -156q78 3 94 3q118 0 180.5 -50.5t62.5 -141.5q0 -94 -69 -149t-213 -55q-37 0 -55 1q0 -126 1 -158h-26q2 48 2 241v221zM143 181q36 -2 59 -2q130 0 192.5 48.5t62.5 128.5q0 174 -226 174q-7 0 -88 -3v-346z" />
    <glyph glyph-name="germandbls" unicode="&#xdf;" horiz-adv-x="490" 
d="M89 0q2 43 2 170v358q0 93 45 144t118 51q60 0 102.5 -42t42.5 -104q0 -33 -12 -62t-29 -48.5t-34 -36t-29 -31t-12 -25.5q0 -13 10 -25t40 -38q29 -25 42.5 -38t33 -36t28 -46.5t8.5 -50.5q0 -58 -45 -101t-120 -43q-47 0 -93 10l-2 25q52 -13 93 -13q67 0 104.5 36.5
t37.5 83.5q0 33 -16.5 63t-40.5 51.5t-48 41t-40.5 39t-16.5 37.5q0 19 18.5 41.5t40 41.5t40 51t18.5 68q0 55 -35.5 92t-85.5 37q-65 0 -102.5 -44t-37.5 -127v-427q0 -77 1 -103h-26z" />
    <glyph glyph-name="agrave" unicode="&#xe0;" horiz-adv-x="469" 
d="M182 -9q-64 0 -98 33.5t-34 84.5q0 60 51 100t166 40q34 0 84 -6l1 29q4 159 -126 159q-67 0 -135 -43l-7 22q73 43 142 43t110 -42.5t39 -128.5l-6 -199q-1 -38 8 -53t28 -15q18 0 38 14l-1 -20q-18 -14 -41 -14q-28 0 -42.5 22.5t-9.5 86.5q-17 -49 -64 -81t-103 -32z
M186 12q66 0 113.5 47.5t49.5 119.5l1 44q-43 5 -84 5q-105 0 -148.5 -33t-43.5 -84q0 -42 28.5 -70.5t83.5 -28.5zM123 679l34 2l97 -140l-18 -2z" />
    <glyph glyph-name="aacute" unicode="&#xe1;" horiz-adv-x="469" 
d="M182 -9q-64 0 -98 33.5t-34 84.5q0 60 51 100t166 40q34 0 84 -6l1 29q4 159 -126 159q-67 0 -135 -43l-7 22q73 43 142 43t110 -42.5t39 -128.5l-6 -199q-1 -38 8 -53t28 -15q18 0 38 14l-1 -20q-18 -14 -41 -14q-28 0 -42.5 22.5t-9.5 86.5q-17 -49 -64 -81t-103 -32z
M186 12q66 0 113.5 47.5t49.5 119.5l1 44q-43 5 -84 5q-105 0 -148.5 -33t-43.5 -84q0 -42 28.5 -70.5t83.5 -28.5zM292 678l38 4l-114 -142l-21 -1z" />
    <glyph glyph-name="acircumflex" unicode="&#xe2;" horiz-adv-x="469" 
d="M182 -9q-64 0 -98 33.5t-34 84.5q0 60 51 100t166 40q34 0 84 -6l1 29q4 159 -126 159q-67 0 -135 -43l-7 22q73 43 142 43t110 -42.5t39 -128.5l-6 -199q-1 -38 8 -53t28 -15q18 0 38 14l-1 -20q-18 -14 -41 -14q-28 0 -42.5 22.5t-9.5 86.5q-17 -49 -64 -81t-103 -32z
M186 12q66 0 113.5 47.5t49.5 119.5l1 44q-43 5 -84 5q-105 0 -148.5 -33t-43.5 -84q0 -42 28.5 -70.5t83.5 -28.5zM223 682h11l116 -136l-19 -4l-104 110l-103 -105h-23z" />
    <glyph glyph-name="atilde" unicode="&#xe3;" horiz-adv-x="469" 
d="M182 -9q-64 0 -98 33.5t-34 84.5q0 60 51 100t166 40q34 0 84 -6l1 29q4 159 -126 159q-67 0 -135 -43l-7 22q73 43 142 43t110 -42.5t39 -128.5l-6 -199q-1 -38 8 -53t28 -15q18 0 38 14l-1 -20q-18 -14 -41 -14q-28 0 -42.5 22.5t-9.5 86.5q-17 -49 -64 -81t-103 -32z
M186 12q66 0 113.5 47.5t49.5 119.5l1 44q-43 5 -84 5q-105 0 -148.5 -33t-43.5 -84q0 -42 28.5 -70.5t83.5 -28.5zM88 572q19 86 74 86q26 0 75 -32t68 -32q35 0 54 69l19 -4q-19 -86 -74 -86q-26 0 -75 32t-68 32q-35 0 -54 -69z" />
    <glyph glyph-name="adieresis" unicode="&#xe4;" horiz-adv-x="469" 
d="M182 -9q-64 0 -98 33.5t-34 84.5q0 60 51 100t166 40q34 0 84 -6l1 29q4 159 -126 159q-67 0 -135 -43l-7 22q73 43 142 43t110 -42.5t39 -128.5l-6 -199q-1 -38 8 -53t28 -15q18 0 38 14l-1 -20q-18 -14 -41 -14q-28 0 -42.5 22.5t-9.5 86.5q-17 -49 -64 -81t-103 -32z
M186 12q66 0 113.5 47.5t49.5 119.5l1 44q-43 5 -84 5q-105 0 -148.5 -33t-43.5 -84q0 -42 28.5 -70.5t83.5 -28.5zM179 594q0 -11 -7 -18t-19 -7q-10 0 -17 7t-7 17t7 17t19 7q11 0 17.5 -7t6.5 -16zM327 594q0 -11 -7 -18t-19 -7q-10 0 -17 7t-7 17t7 17t19 7
q11 0 17.5 -7t6.5 -16z" />
    <glyph glyph-name="aring" unicode="&#xe5;" horiz-adv-x="469" 
d="M182 -9q-64 0 -98 33.5t-34 84.5q0 60 51 100t166 40q34 0 84 -6l1 29q4 159 -126 159q-67 0 -135 -43l-7 22q73 43 142 43t110 -42.5t39 -128.5l-6 -199q-1 -38 8 -53t28 -15q18 0 38 14l-1 -20q-18 -14 -41 -14q-28 0 -42.5 22.5t-9.5 86.5q-17 -49 -64 -81t-103 -32z
M186 12q66 0 113.5 47.5t49.5 119.5l1 44q-43 5 -84 5q-105 0 -148.5 -33t-43.5 -84q0 -42 28.5 -70.5t83.5 -28.5zM327 643q0 -44 -28.5 -74.5t-72.5 -30.5q-42 0 -69 28t-27 67q0 45 28 74.5t73 29.5q42 0 69 -27.5t27 -66.5zM306 642q0 32 -20.5 53.5t-54.5 21.5
q-36 0 -58 -23.5t-22 -59.5q0 -31 20.5 -53.5t55.5 -22.5t57 24t22 60z" />
    <glyph glyph-name="ae" unicode="&#xe6;" horiz-adv-x="795" 
d="M744 248l-18 -13l-348 -8q-3 -102 49.5 -160t139.5 -58q86 0 163 65l-2 -27q-75 -60 -167 -60q-71 0 -124 43t-70 113q-14 -67 -63.5 -109.5t-116.5 -42.5q-63 0 -100 33.5t-37 84.5q0 60 51 100t166 40q13 0 44.5 -0.5t45.5 -0.5l1 24q2 78 -33 118.5t-99 40.5
q-67 0 -135 -43l-7 22q73 43 142 43q63 0 104 -35t47 -105q24 64 74 102t117 38q82 0 129 -57.5t47 -147.5zM190 12q68 0 115.5 50.5t49.5 123.5l1 42h-90q-105 0 -148.5 -33t-43.5 -84q0 -43 30 -71t86 -28zM380 248l341 8q-4 82 -46 128.5t-112 46.5q-72 0 -122.5 -53.5
t-60.5 -129.5z" />
    <glyph glyph-name="ccedilla" unicode="&#xe7;" horiz-adv-x="482" 
d="M427 408l-8 -24q-56 47 -134 47q-94 0 -151 -64t-57 -153q0 -94 56 -149.5t146 -55.5q86 0 154 59l-2 -29q-67 -52 -154 -52h-11l-17 -59q94 -23 94 -72q0 -24 -19 -39.5t-53 -15.5q-35 0 -78 18l4 21q41 -18 76 -18q49 0 49 33q0 20 -21 33.5t-75 23.5l-3 4
q2 6 10.5 32.5t11.5 40.5q-88 10 -139.5 71t-51.5 152q0 101 63.5 171t169.5 70q86 0 140 -45z" />
    <glyph glyph-name="egrave" unicode="&#xe8;" horiz-adv-x="500" 
d="M449 248l-18 -13l-354 -8q-3 -101 50.5 -159.5t141.5 -58.5q89 0 166 65l-2 -27q-75 -60 -170 -60q-91 0 -150 62t-59 159q0 105 60.5 175t156.5 70q84 0 131 -57t47 -148zM79 248l347 8q-4 82 -46 128.5t-114 46.5q-74 0 -125.5 -53t-61.5 -130zM159 679l34 2l97 -140
l-18 -2z" />
    <glyph glyph-name="eacute" unicode="&#xe9;" horiz-adv-x="500" 
d="M449 248l-18 -13l-354 -8q-3 -101 50.5 -159.5t141.5 -58.5q89 0 166 65l-2 -27q-75 -60 -170 -60q-91 0 -150 62t-59 159q0 105 60.5 175t156.5 70q84 0 131 -57t47 -148zM79 248l347 8q-4 82 -46 128.5t-114 46.5q-74 0 -125.5 -53t-61.5 -130zM328 678l38 4l-114 -142
l-21 -1z" />
    <glyph glyph-name="ecircumflex" unicode="&#xea;" horiz-adv-x="500" 
d="M449 248l-18 -13l-354 -8q-3 -101 50.5 -159.5t141.5 -58.5q89 0 166 65l-2 -27q-75 -60 -170 -60q-91 0 -150 62t-59 159q0 105 60.5 175t156.5 70q84 0 131 -57t47 -148zM79 248l347 8q-4 82 -46 128.5t-114 46.5q-74 0 -125.5 -53t-61.5 -130zM259 682h11l116 -136
l-19 -4l-104 110l-103 -105h-23z" />
    <glyph glyph-name="edieresis" unicode="&#xeb;" horiz-adv-x="500" 
d="M449 248l-18 -13l-354 -8q-3 -101 50.5 -159.5t141.5 -58.5q89 0 166 65l-2 -27q-75 -60 -170 -60q-91 0 -150 62t-59 159q0 105 60.5 175t156.5 70q84 0 131 -57t47 -148zM79 248l347 8q-4 82 -46 128.5t-114 46.5q-74 0 -125.5 -53t-61.5 -130zM215 594q0 -11 -7 -18
t-19 -7q-10 0 -17 7t-7 17t7 17t19 7q11 0 17.5 -7t6.5 -16zM363 594q0 -11 -7 -18t-19 -7q-10 0 -17 7t-7 17t7 17t19 7q11 0 17.5 -7t6.5 -16z" />
    <glyph glyph-name="igrave" unicode="&#xec;" horiz-adv-x="201" 
d="M115 0h-26q2 43 2 170v99q0 89 -4 175q10 0 28 2l-1 -127v-216q0 -19 0.5 -55t0.5 -48zM-4 679l34 2l97 -140l-18 -2z" />
    <glyph glyph-name="iacute" unicode="&#xed;" horiz-adv-x="201" 
d="M115 0h-26q2 43 2 170v99q0 89 -4 175q10 0 28 2l-1 -127v-216q0 -19 0.5 -55t0.5 -48zM165 678l38 4l-114 -142l-21 -1z" />
    <glyph glyph-name="icircumflex" unicode="&#xee;" horiz-adv-x="201" 
d="M115 0h-26q2 43 2 170v99q0 89 -4 175q10 0 28 2l-1 -127v-216q0 -19 0.5 -55t0.5 -48zM96 682h11l116 -136l-19 -4l-104 110l-103 -105h-23z" />
    <glyph glyph-name="idieresis" unicode="&#xef;" horiz-adv-x="201" 
d="M115 0h-26q2 43 2 170v99q0 89 -4 175q10 0 28 2l-1 -127v-216q0 -19 0.5 -55t0.5 -48zM52 594q0 -11 -7 -18t-19 -7q-10 0 -17 7t-7 17t7 17t19 7q11 0 17.5 -7t6.5 -16zM200 594q0 -11 -7 -18t-19 -7q-10 0 -17 7t-7 17t7 17t19 7q11 0 17.5 -7t6.5 -16z" />
    <glyph glyph-name="eth" unicode="&#xf0;" horiz-adv-x="552" 
d="M266 -13q-95 0 -153.5 64t-58.5 157q0 107 64 176t162 69q70 0 120.5 -37t72.5 -98q-23 164 -148 279l-32 -19l-104 -60q-10 12 -15 17l130 73l5 3q-65 57 -152 96l20 12q87 -39 153 -96q22 13 65.5 39.5t50.5 30.5l16 -18l-116 -67q152 -143 152 -342
q0 -128 -64.5 -203.5t-167.5 -75.5zM468 228q0 87 -51.5 145t-137.5 58q-88 0 -145 -62t-57 -158q0 -87 52 -144.5t139 -57.5q89 0 144.5 62.5t55.5 156.5z" />
    <glyph glyph-name="ntilde" unicode="&#xf1;" horiz-adv-x="540" 
d="M454 0h-26q2 86 2 170v123q0 138 -124 138q-65 0 -128.5 -59t-63.5 -97v-172q0 -67 1 -103h-26q2 86 2 170v102q0 114 -4 171q6 0 24 2l2 -121q26 45 79.5 87t121.5 42q59 0 99 -36t40 -112v-202q0 -19 0.5 -55t0.5 -48zM135 572q19 86 74 86q26 0 75 -32t68 -32
q35 0 54 69l19 -4q-19 -86 -74 -86q-26 0 -75 32t-68 32q-35 0 -54 -69z" />
    <glyph glyph-name="ograve" unicode="&#xf2;" horiz-adv-x="552" 
d="M498 231q0 -106 -63 -175t-166 -69q-95 0 -155 62.5t-60 159.5q0 105 63 174.5t165 69.5q96 0 156 -62.5t60 -159.5zM475 227q0 95 -55.5 149.5t-141.5 54.5q-88 0 -144.5 -63.5t-56.5 -153.5q0 -93 54.5 -149t141.5 -56q89 0 145.5 63t56.5 155zM171 679l34 2l97 -140
l-18 -2z" />
    <glyph glyph-name="oacute" unicode="&#xf3;" horiz-adv-x="552" 
d="M498 231q0 -106 -63 -175t-166 -69q-95 0 -155 62.5t-60 159.5q0 105 63 174.5t165 69.5q96 0 156 -62.5t60 -159.5zM475 227q0 95 -55.5 149.5t-141.5 54.5q-88 0 -144.5 -63.5t-56.5 -153.5q0 -93 54.5 -149t141.5 -56q89 0 145.5 63t56.5 155zM340 678l38 4l-114 -142
l-21 -1z" />
    <glyph glyph-name="ocircumflex" unicode="&#xf4;" horiz-adv-x="552" 
d="M498 231q0 -106 -63 -175t-166 -69q-95 0 -155 62.5t-60 159.5q0 105 63 174.5t165 69.5q96 0 156 -62.5t60 -159.5zM475 227q0 95 -55.5 149.5t-141.5 54.5q-88 0 -144.5 -63.5t-56.5 -153.5q0 -93 54.5 -149t141.5 -56q89 0 145.5 63t56.5 155zM271 682h11l116 -136
l-19 -4l-104 110l-103 -105h-23z" />
    <glyph glyph-name="otilde" unicode="&#xf5;" horiz-adv-x="552" 
d="M498 231q0 -106 -63 -175t-166 -69q-95 0 -155 62.5t-60 159.5q0 105 63 174.5t165 69.5q96 0 156 -62.5t60 -159.5zM475 227q0 95 -55.5 149.5t-141.5 54.5q-88 0 -144.5 -63.5t-56.5 -153.5q0 -93 54.5 -149t141.5 -56q89 0 145.5 63t56.5 155zM136 572q19 86 74 86
q26 0 75 -32t68 -32q35 0 54 69l19 -4q-19 -86 -74 -86q-26 0 -75 32t-68 32q-35 0 -54 -69z" />
    <glyph glyph-name="odieresis" unicode="&#xf6;" horiz-adv-x="552" 
d="M498 231q0 -106 -63 -175t-166 -69q-95 0 -155 62.5t-60 159.5q0 105 63 174.5t165 69.5q96 0 156 -62.5t60 -159.5zM475 227q0 95 -55.5 149.5t-141.5 54.5q-88 0 -144.5 -63.5t-56.5 -153.5q0 -93 54.5 -149t141.5 -56q89 0 145.5 63t56.5 155zM227 594q0 -11 -7 -18
t-19 -7q-10 0 -17 7t-7 17t7 17t19 7q11 0 17.5 -7t6.5 -16zM375 594q0 -11 -7 -18t-19 -7q-10 0 -17 7t-7 17t7 17t19 7q11 0 17.5 -7t6.5 -16z" />
    <glyph glyph-name="divide" unicode="&#xf7;" horiz-adv-x="515" 
d="M437 274q-2 -6 -4 -24q-26 0 -77.5 0.5t-75.5 0.5h-50q-31 0 -81 -0.5t-71 -0.5q2 12 2 24q96 -2 181 -2q118 0 176 2zM284 425q0 -11 -7 -18t-19 -7q-10 0 -17 7t-7 17t7 17t19 7q11 0 17.5 -7t6.5 -16zM284 100q0 -11 -7 -18t-19 -7q-10 0 -17 7t-7 17t7 17t19 7
q11 0 17.5 -7t6.5 -16z" />
    <glyph glyph-name="oslash" unicode="&#xf8;" horiz-adv-x="552" 
d="M498 459q-8 -8 -32.5 -35t-29.5 -32q62 -64 62 -161q0 -106 -63 -175t-166 -69q-88 0 -146 53q-35 -36 -67 -75l-18 13q3 4 30 33t40 44q-54 62 -54 154q0 105 63 174.5t165 69.5q81 0 139 -47q15 18 35.5 41t24.5 28q13 -13 17 -16zM475 227q0 93 -54 147l-283 -316
q54 -49 135 -49q89 0 145.5 63t56.5 155zM77 214q0 -86 47 -141l281 316q-53 42 -127 42q-88 0 -144.5 -63.5t-56.5 -153.5z" />
    <glyph glyph-name="ugrave" unicode="&#xf9;" horiz-adv-x="542" 
d="M455 0h-22l-5 115q-26 -45 -81.5 -87.5t-123.5 -42.5q-59 0 -97 38.5t-38 119.5v144q0 106 -2 157q10 0 26 2q-1 -28 -1 -116v-175q0 -148 120 -148q65 0 130.5 59t65.5 97v124q0 106 -2 157q10 0 26 2q-1 -28 -1 -116v-155q0 -67 5 -175zM165 679l34 2l97 -140l-18 -2z
" />
    <glyph glyph-name="uacute" unicode="&#xfa;" horiz-adv-x="542" 
d="M455 0h-22l-5 115q-26 -45 -81.5 -87.5t-123.5 -42.5q-59 0 -97 38.5t-38 119.5v144q0 106 -2 157q10 0 26 2q-1 -28 -1 -116v-175q0 -148 120 -148q65 0 130.5 59t65.5 97v124q0 106 -2 157q10 0 26 2q-1 -28 -1 -116v-155q0 -67 5 -175zM334 678l38 4l-114 -142l-21 -1
z" />
    <glyph glyph-name="ucircumflex" unicode="&#xfb;" horiz-adv-x="542" 
d="M455 0h-22l-5 115q-26 -45 -81.5 -87.5t-123.5 -42.5q-59 0 -97 38.5t-38 119.5v144q0 106 -2 157q10 0 26 2q-1 -28 -1 -116v-175q0 -148 120 -148q65 0 130.5 59t65.5 97v124q0 106 -2 157q10 0 26 2q-1 -28 -1 -116v-155q0 -67 5 -175zM265 682h11l116 -136l-19 -4
l-104 110l-103 -105h-23z" />
    <glyph glyph-name="udieresis" unicode="&#xfc;" horiz-adv-x="542" 
d="M455 0h-22l-5 115q-26 -45 -81.5 -87.5t-123.5 -42.5q-59 0 -97 38.5t-38 119.5v144q0 106 -2 157q10 0 26 2q-1 -28 -1 -116v-175q0 -148 120 -148q65 0 130.5 59t65.5 97v124q0 106 -2 157q10 0 26 2q-1 -28 -1 -116v-155q0 -67 5 -175zM221 594q0 -11 -7 -18t-19 -7
q-10 0 -17 7t-7 17t7 17t19 7q11 0 17.5 -7t6.5 -16zM369 594q0 -11 -7 -18t-19 -7q-10 0 -17 7t-7 17t7 17t19 7q11 0 17.5 -7t6.5 -16z" />
    <glyph glyph-name="yacute" unicode="&#xfd;" horiz-adv-x="439" 
d="M115 -216l97 233q-7 19 -39 90l-88 204q-26 62 -60 133l25 5l174 -403l68 164q5 12 42.5 104t50.5 130q23 0 28 1l-223 -540l-48 -120zM288 678l38 4l-114 -142l-21 -1z" />
    <glyph glyph-name="thorn" unicode="&#xfe;" horiz-adv-x="530" 
d="M111 341v-277q53 -55 134 -55q90 0 149 63.5t59 154.5q0 92 -46 148t-122 56q-90 0 -174 -90zM88 -90v626q0 122 -2 175q10 0 26 2q-1 -73 -1 -127v-216q86 83 177 83q84 0 136 -61.5t52 -158.5q0 -106 -66 -176t-167 -70q-78 0 -132 47v-145q0 -69 4 -104q-10 0 -28 -2
q1 107 1 127z" />
    <glyph glyph-name="ydieresis" unicode="&#xff;" horiz-adv-x="439" 
d="M115 -216l97 233q-7 19 -39 90l-88 204q-26 62 -60 133l25 5l174 -403l68 164q5 12 42.5 104t50.5 130q23 0 28 1l-223 -540l-48 -120zM323 594q0 -11 -7 -18t-19 -7q-10 0 -17 7t-7 17t7 17t19 7q11 0 17.5 -7t6.5 -16zM175 594q0 -11 -7 -18t-19 -7q-10 0 -17 7t-7 17
t7 17t19 7q11 0 17.5 -7t6.5 -16z" />
    <glyph glyph-name="Amacron" unicode="&#x100;" horiz-adv-x="683" 
d="M26 0l212 493q88 208 94 224l10 2l241 -557l73 -162l-26 -5l-121 278h-341l-39 -92l-74 -181h-29zM338 672l-161 -377h322zM477 869q-2 -6 -4 -24q-20 0 -58 0.5t-56 0.5h-50q-22 0 -57 -0.5t-50 -0.5q2 12 2 24q72 -2 136 -2q91 0 137 2z" />
    <glyph glyph-name="amacron" unicode="&#x101;" horiz-adv-x="469" 
d="M182 -9q-64 0 -98 33.5t-34 84.5q0 60 51 100t166 40q34 0 84 -6l1 29q4 159 -126 159q-67 0 -135 -43l-7 22q73 43 142 43t110 -42.5t39 -128.5l-6 -199q-1 -38 8 -53t28 -15q18 0 38 14l-1 -20q-18 -14 -41 -14q-28 0 -42.5 22.5t-9.5 86.5q-17 -49 -64 -81t-103 -32z
M186 12q66 0 113.5 47.5t49.5 119.5l1 44q-43 5 -84 5q-105 0 -148.5 -33t-43.5 -84q0 -42 28.5 -70.5t83.5 -28.5zM366 624q-2 -6 -4 -24q-20 0 -58 0.5t-56 0.5h-50q-22 0 -57 -0.5t-50 -0.5q2 12 2 24q72 -2 136 -2q91 0 137 2z" />
    <glyph glyph-name="Abreve" unicode="&#x102;" horiz-adv-x="683" 
d="M26 0l212 493q88 208 94 224l10 2l241 -557l73 -162l-26 -5l-121 278h-341l-39 -92l-74 -181h-29zM338 672l-161 -377h322zM449 924l21 2q2 -61 -33.5 -96.5t-100.5 -35.5q-56 0 -92.5 35.5t-36.5 87.5l21 3q0 -46 31.5 -76t78.5 -30q52 0 82.5 30.5t28.5 79.5z" />
    <glyph glyph-name="abreve" unicode="&#x103;" horiz-adv-x="469" 
d="M182 -9q-64 0 -98 33.5t-34 84.5q0 60 51 100t166 40q34 0 84 -6l1 29q4 159 -126 159q-67 0 -135 -43l-7 22q73 43 142 43t110 -42.5t39 -128.5l-6 -199q-1 -38 8 -53t28 -15q18 0 38 14l-1 -20q-18 -14 -41 -14q-28 0 -42.5 22.5t-9.5 86.5q-17 -49 -64 -81t-103 -32z
M186 12q66 0 113.5 47.5t49.5 119.5l1 44q-43 5 -84 5q-105 0 -148.5 -33t-43.5 -84q0 -42 28.5 -70.5t83.5 -28.5zM338 679l21 2q2 -61 -33.5 -96.5t-100.5 -35.5q-56 0 -92.5 35.5t-36.5 87.5l21 3q0 -46 31.5 -76t78.5 -30q52 0 82.5 30.5t28.5 79.5z" />
    <glyph glyph-name="Aogonek" unicode="&#x104;" horiz-adv-x="683" 
d="M26 0l212 493q88 208 94 224l10 2l241 -557l73 -162q-103 -76 -103 -130q0 -12 8.5 -21t23.5 -9q36 0 67 27l-2 -24q-30 -24 -68 -24q-25 0 -39 14t-14 35q0 56 99 131l-119 274h-341l-39 -92l-74 -181h-29zM338 672l-161 -377h322z" />
    <glyph glyph-name="aogonek" unicode="&#x105;" horiz-adv-x="469" 
d="M182 -9q-64 0 -98 33.5t-34 84.5q0 60 51 100t166 40q43 0 84 -6l1 29q4 159 -126 159q-67 0 -135 -43l-7 22q73 43 142 43t110 -42.5t39 -128.5l-6 -199q-1 -38 8 -53t28 -15q18 0 38 14l-1 -20q-110 -79 -110 -139q0 -12 8 -21t23 -9q36 0 67 27l-2 -24
q-30 -24 -68 -24q-25 0 -38.5 14t-13.5 35q0 57 91 128q-27 1 -41 23t-9 85q-17 -49 -64 -81t-103 -32zM186 12q66 0 113.5 47.5t49.5 119.5l1 44q-43 5 -84 5q-105 0 -148.5 -33t-43.5 -84q0 -42 28.5 -70.5t83.5 -28.5z" />
    <glyph glyph-name="Cacute" unicode="&#x106;" horiz-adv-x="679" 
d="M629 83l-1 -29q-92 -72 -220 -72q-154 0 -248.5 105.5t-94.5 255.5q0 160 101 268.5t259 108.5q110 0 196 -56l-8 -21q-82 55 -190 55q-146 0 -240 -102t-94 -247t87 -245t233 -100q133 0 220 79zM468 923l38 4l-114 -142l-21 -1z" />
    <glyph glyph-name="cacute" unicode="&#x107;" horiz-adv-x="482" 
d="M427 408l-8 -24q-56 47 -134 47q-94 0 -151 -64t-57 -153q0 -94 56 -149.5t146 -55.5q86 0 154 59l-2 -29q-67 -52 -154 -52q-101 0 -162 62.5t-61 162.5q0 101 63.5 171t169.5 70q86 0 140 -45zM343 678l38 4l-114 -142l-21 -1z" />
    <glyph glyph-name="Cdotaccent" unicode="&#x10a;" horiz-adv-x="679" 
d="M629 83l-1 -29q-92 -72 -220 -72q-154 0 -248.5 105.5t-94.5 255.5q0 160 101 268.5t259 108.5q110 0 196 -56l-8 -21q-82 55 -190 55q-146 0 -240 -102t-94 -247t87 -245t233 -100q133 0 220 79zM429 839q0 -11 -7 -18t-19 -7q-10 0 -17 7t-7 17t7 17t19 7q11 0 17.5 -7
t6.5 -16z" />
    <glyph glyph-name="cdotaccent" unicode="&#x10b;" horiz-adv-x="482" 
d="M427 408l-8 -24q-56 47 -134 47q-94 0 -151 -64t-57 -153q0 -94 56 -149.5t146 -55.5q86 0 154 59l-2 -29q-67 -52 -154 -52q-101 0 -162 62.5t-61 162.5q0 101 63.5 171t169.5 70q86 0 140 -45zM304 594q0 -11 -7 -18t-19 -7q-10 0 -17 7t-7 17t7 17t19 7q11 0 17.5 -7
t6.5 -16z" />
    <glyph glyph-name="Ccaron" unicode="&#x10c;" horiz-adv-x="679" 
d="M629 83l-1 -29q-92 -72 -220 -72q-154 0 -248.5 105.5t-94.5 255.5q0 160 101 268.5t259 108.5q110 0 196 -56l-8 -21q-82 55 -190 55q-146 0 -240 -102t-94 -247t87 -245t233 -100q133 0 220 79zM407 787h-11l-116 136l19 4l104 -110l103 105h23z" />
    <glyph glyph-name="ccaron" unicode="&#x10d;" horiz-adv-x="482" 
d="M427 408l-8 -24q-56 47 -134 47q-94 0 -151 -64t-57 -153q0 -94 56 -149.5t146 -55.5q86 0 154 59l-2 -29q-67 -52 -154 -52q-101 0 -162 62.5t-61 162.5q0 101 63.5 171t169.5 70q86 0 140 -45zM282 542h-11l-116 136l19 4l104 -110l103 105h23z" />
    <glyph glyph-name="Dcaron" unicode="&#x10e;" horiz-adv-x="744" 
d="M679 366q0 -162 -105 -264t-287 -102h-169q2 96 2 241v221q0 169 -3 241q148 4 179 4q176 0 279.5 -95.5t103.5 -245.5zM655 363q0 143 -97 232.5t-265 89.5q-46 0 -150 -4v-537q0 -91 1 -119q34 -3 145 -3q171 0 268.5 95.5t97.5 245.5zM367 782h-11l-116 136l19 4
l104 -110l103 105h23z" />
    <glyph glyph-name="dcaron" unicode="&#x10f;" horiz-adv-x="531" 
d="M282 453q81 0 137 -47v130q0 122 -2 175q10 0 26 2q-1 -73 -1 -127v-481q0 -74 3 -103h-21l-5 70q-72 -85 -166 -85q-90 0 -144.5 62.5t-54.5 159.5q0 107 63 175.5t165 68.5zM280 431q-91 0 -147 -62t-56 -154t48.5 -149t130.5 -57q89 0 163 92v275q-55 55 -139 55z
M512 593l-13 -3q7 76 9 117l28 4q-19 -96 -24 -118z" />
    <glyph glyph-name="Dcroat" unicode="&#x110;" horiz-adv-x="744" 
d="M679 366q0 -162 -105 -264t-287 -102h-169q2 96 2 241v107q-15 0 -40 -0.5t-36 -0.5q2 12 2 24q38 -2 74 -2v93q0 169 -3 241q148 4 179 4q176 0 279.5 -95.5t103.5 -245.5zM655 363q0 143 -97 232.5t-265 89.5q-46 0 -150 -4v-312q118 0 176 2q-2 -6 -4 -24
q-24 0 -72.5 0.5t-71.5 0.5h-28v-204q0 -91 1 -119q34 -3 145 -3q171 0 268.5 95.5t97.5 245.5z" />
    <glyph glyph-name="dcroat" unicode="&#x111;" horiz-adv-x="531" 
d="M282 453q81 0 137 -47v130v26h-38q-31 0 -78.5 -0.5t-68.5 -0.5q2 12 2 23q96 -2 176 -2h7q0 47 -2 129q10 0 26 2q-1 -73 -1 -127v-4q44 0 67 2q-2 -7 -4 -23q-11 0 -32 0.5t-31 0.5v-457q0 -74 3 -103h-21l-5 70q-72 -85 -166 -85q-90 0 -144.5 62.5t-54.5 159.5
q0 107 63 175.5t165 68.5zM280 431q-91 0 -147 -62t-56 -154t48.5 -149t130.5 -57q89 0 163 92v275q-55 55 -139 55z" />
    <glyph glyph-name="Emacron" unicode="&#x112;" horiz-adv-x="542" 
d="M497 25q-5 -17 -5 -27q-86 3 -193 3q-111 0 -182 -4q2 48 2 244v221q0 173 -3 245q80 -3 180 -3q104 0 189 3q-4 -13 -4 -25q-27 0 -88.5 0.5t-96.5 0.5q-127 0 -153 -1q-1 -36 -1 -122v-181h296q-3 -11 -3 -22h-293v-213q0 -85 1 -121q39 -1 149 -1q108 0 205 3z
M438 864q-2 -6 -4 -24q-20 0 -58 0.5t-56 0.5h-50q-22 0 -57 -0.5t-50 -0.5q2 12 2 24q72 -2 136 -2q91 0 137 2z" />
    <glyph glyph-name="emacron" unicode="&#x113;" horiz-adv-x="500" 
d="M449 248l-18 -13l-354 -8q-3 -101 50.5 -159.5t141.5 -58.5q89 0 166 65l-2 -27q-75 -60 -170 -60q-91 0 -150 62t-59 159q0 105 60.5 175t156.5 70q84 0 131 -57t47 -148zM79 248l347 8q-4 82 -46 128.5t-114 46.5q-74 0 -125.5 -53t-61.5 -130zM402 624q-2 -6 -4 -24
q-20 0 -58 0.5t-56 0.5h-50q-22 0 -57 -0.5t-50 -0.5q2 12 2 24q72 -2 136 -2q91 0 137 2z" />
    <glyph glyph-name="Ebreve" unicode="&#x114;" horiz-adv-x="542" 
d="M497 25q-5 -17 -5 -27q-86 3 -193 3q-111 0 -182 -4q2 48 2 244v221q0 173 -3 245q80 -3 180 -3q104 0 189 3q-4 -13 -4 -25q-27 0 -88.5 0.5t-96.5 0.5q-127 0 -153 -1q-1 -36 -1 -122v-181h296q-3 -11 -3 -22h-293v-213q0 -85 1 -121q39 -1 149 -1q108 0 205 3z
M410 919l21 2q2 -61 -33.5 -96.5t-100.5 -35.5q-56 0 -92.5 35.5t-36.5 87.5l21 3q0 -46 31.5 -76t78.5 -30q52 0 82.5 30.5t28.5 79.5z" />
    <glyph glyph-name="ebreve" unicode="&#x115;" horiz-adv-x="500" 
d="M449 248l-18 -13l-354 -8q-3 -101 50.5 -159.5t141.5 -58.5q89 0 166 65l-2 -27q-75 -60 -170 -60q-91 0 -150 62t-59 159q0 105 60.5 175t156.5 70q84 0 131 -57t47 -148zM79 248l347 8q-4 82 -46 128.5t-114 46.5q-74 0 -125.5 -53t-61.5 -130zM374 679l21 2
q2 -61 -33.5 -96.5t-100.5 -35.5q-56 0 -92.5 35.5t-36.5 87.5l21 3q0 -46 31.5 -76t78.5 -30q52 0 82.5 30.5t28.5 79.5z" />
    <glyph glyph-name="Edotaccent" unicode="&#x116;" horiz-adv-x="542" 
d="M497 25q-5 -17 -5 -27q-86 3 -193 3q-111 0 -182 -4q2 48 2 244v221q0 173 -3 245q80 -3 180 -3q104 0 189 3q-4 -13 -4 -25q-27 0 -88.5 0.5t-96.5 0.5q-127 0 -153 -1q-1 -36 -1 -122v-181h296q-3 -11 -3 -22h-293v-213q0 -85 1 -121q39 -1 149 -1q108 0 205 3z
M325 834q0 -11 -7 -18t-19 -7q-10 0 -17 7t-7 17t7 17t19 7q11 0 17.5 -7t6.5 -16z" />
    <glyph glyph-name="edotaccent" unicode="&#x117;" horiz-adv-x="500" 
d="M449 248l-18 -13l-354 -8q-3 -101 50.5 -159.5t141.5 -58.5q89 0 166 65l-2 -27q-75 -60 -170 -60q-91 0 -150 62t-59 159q0 105 60.5 175t156.5 70q84 0 131 -57t47 -148zM79 248l347 8q-4 82 -46 128.5t-114 46.5q-74 0 -125.5 -53t-61.5 -130zM289 594q0 -11 -7 -18
t-19 -7q-10 0 -17 7t-7 17t7 17t19 7q11 0 17.5 -7t6.5 -16z" />
    <glyph glyph-name="Eogonek" unicode="&#x118;" horiz-adv-x="542" 
d="M497 25q-5 -17 -5 -27q-103 -76 -103 -128q0 -12 8.5 -21t23.5 -9q36 0 67 27l-2 -24q-30 -24 -68 -24q-25 0 -39 14t-14 35q0 56 102 131q-102 2 -168 2q-111 0 -182 -4q2 48 2 244v221q0 173 -3 245q80 -3 180 -3q104 0 189 3q-4 -13 -4 -25q-27 0 -88.5 0.5t-96.5 0.5
q-127 0 -153 -1q-1 -36 -1 -122v-181h296q-3 -11 -3 -22h-293v-213q0 -85 1 -121q39 -1 149 -1q108 0 205 3z" />
    <glyph glyph-name="eogonek" unicode="&#x119;" horiz-adv-x="500" 
d="M435 74l-2 -26q-149 -110 -149 -178q0 -12 8 -21t24 -9q36 0 67 27l-2 -24q-30 -24 -68 -24q-25 0 -39 14t-14 35q0 61 88 132q-35 -13 -85 -13q-91 0 -150 62t-59 159q0 105 60.5 175t156.5 70q84 0 131 -57t47 -148l-18 -13l-354 -8q-3 -101 50.5 -159.5t141.5 -58.5
q89 0 166 65zM79 248l347 8q-4 82 -46 128.5t-114 46.5q-74 0 -125.5 -53t-61.5 -130z" />
    <glyph glyph-name="Ecaron" unicode="&#x11a;" horiz-adv-x="542" 
d="M497 25q-5 -17 -5 -27q-86 3 -193 3q-111 0 -182 -4q2 48 2 244v221q0 173 -3 245q80 -3 180 -3q104 0 189 3q-4 -13 -4 -25q-27 0 -88.5 0.5t-96.5 0.5q-127 0 -153 -1q-1 -36 -1 -122v-181h296q-3 -11 -3 -22h-293v-213q0 -85 1 -121q39 -1 149 -1q108 0 205 3z
M303 782h-11l-116 136l19 4l104 -110l103 105h23z" />
    <glyph glyph-name="ecaron" unicode="&#x11b;" horiz-adv-x="500" 
d="M449 248l-18 -13l-354 -8q-3 -101 50.5 -159.5t141.5 -58.5q89 0 166 65l-2 -27q-75 -60 -170 -60q-91 0 -150 62t-59 159q0 105 60.5 175t156.5 70q84 0 131 -57t47 -148zM79 248l347 8q-4 82 -46 128.5t-114 46.5q-74 0 -125.5 -53t-61.5 -130zM267 542h-11l-116 136
l19 4l104 -110l103 105h23z" />
    <glyph glyph-name="Gbreve" unicode="&#x11e;" horiz-adv-x="742" 
d="M650 48q-97 -64 -222 -64q-158 0 -260.5 105.5t-102.5 253.5q0 160 103 268.5t264 108.5q116 0 203 -60l-8 -22q-86 60 -198 60q-147 0 -243.5 -102t-96.5 -247q0 -144 96 -243.5t246 -99.5q108 0 196 54v200q0 52 -1 73q-65 1 -110 1q-80 0 -138 -1q1 6 1 23
q52 -1 137 -1q94 0 136 2q-2 -41 -2 -197v-112zM518 924l21 2q2 -61 -33.5 -96.5t-100.5 -35.5q-56 0 -92.5 35.5t-36.5 87.5l21 3q0 -46 31.5 -76t78.5 -30q52 0 82.5 30.5t28.5 79.5z" />
    <glyph glyph-name="gbreve" unicode="&#x11f;" horiz-adv-x="452" 
d="M390 294q0 -66 -49.5 -111t-119.5 -45q-37 0 -67 12q-70 -36 -70 -70q0 -20 26.5 -34.5t78.5 -15.5l90 -3q147 -5 147 -96q0 -58 -71.5 -102t-165.5 -44q-81 0 -128 30.5t-47 77.5q0 36 28.5 64.5t90.5 56.5q-34 8 -52.5 25t-18.5 40q0 43 71 81q-75 43 -75 127
q0 66 50 113.5t120 47.5q52 0 94 -28q34 102 105 84l-4 -22q-32 8 -51 -11t-33 -64q51 -45 51 -113zM367 292q0 61 -41.5 97.5t-99.5 36.5q-59 0 -102 -41t-43 -96q0 -59 41 -94t101 -35t102 39t42 93zM203 7q-14 0 -36 2q-69 -29 -99.5 -56t-30.5 -58q0 -38 42 -63t114 -25
q83 0 146.5 38t63.5 85q0 70 -117 74zM335 679l21 2q2 -61 -33.5 -96.5t-100.5 -35.5q-56 0 -92.5 35.5t-36.5 87.5l21 3q0 -46 31.5 -76t78.5 -30q52 0 82.5 30.5t28.5 79.5z" />
    <glyph glyph-name="Gdotaccent" unicode="&#x120;" horiz-adv-x="742" 
d="M650 48q-97 -64 -222 -64q-158 0 -260.5 105.5t-102.5 253.5q0 160 103 268.5t264 108.5q116 0 203 -60l-8 -22q-86 60 -198 60q-147 0 -243.5 -102t-96.5 -247q0 -144 96 -243.5t246 -99.5q108 0 196 54v200q0 52 -1 73q-65 1 -110 1q-80 0 -138 -1q1 6 1 23
q52 -1 137 -1q94 0 136 2q-2 -41 -2 -197v-112zM433 839q0 -11 -7 -18t-19 -7q-10 0 -17 7t-7 17t7 17t19 7q11 0 17.5 -7t6.5 -16z" />
    <glyph glyph-name="gdotaccent" unicode="&#x121;" horiz-adv-x="452" 
d="M390 294q0 -66 -49.5 -111t-119.5 -45q-37 0 -67 12q-70 -36 -70 -70q0 -20 26.5 -34.5t78.5 -15.5l90 -3q147 -5 147 -96q0 -58 -71.5 -102t-165.5 -44q-81 0 -128 30.5t-47 77.5q0 36 28.5 64.5t90.5 56.5q-34 8 -52.5 25t-18.5 40q0 43 71 81q-75 43 -75 127
q0 66 50 113.5t120 47.5q52 0 94 -28q34 102 105 84l-4 -22q-32 8 -51 -11t-33 -64q51 -45 51 -113zM367 292q0 61 -41.5 97.5t-99.5 36.5q-59 0 -102 -41t-43 -96q0 -59 41 -94t101 -35t102 39t42 93zM203 7q-14 0 -36 2q-69 -29 -99.5 -56t-30.5 -58q0 -38 42 -63t114 -25
q83 0 146.5 38t63.5 85q0 70 -117 74zM247 594q0 -11 -7 -18t-19 -7q-10 0 -17 7t-7 17t7 17t19 7q11 0 17.5 -7t6.5 -16z" />
    <glyph glyph-name="Gcommaaccent" unicode="&#x122;" horiz-adv-x="742" 
d="M650 48q-97 -64 -222 -64q-158 0 -260.5 105.5t-102.5 253.5q0 160 103 268.5t264 108.5q116 0 203 -60l-8 -22q-86 60 -198 60q-147 0 -243.5 -102t-96.5 -247q0 -144 96 -243.5t246 -99.5q108 0 196 54v200q0 52 -1 73q-65 1 -110 1q-80 0 -138 -1q1 6 1 23
q52 -1 137 -1q94 0 136 2q-2 -41 -2 -197v-112zM375 -213l9 11q29 36 29 62q0 23 -26 31l-10 3q3 30 29 30q30 0 30 -46q0 -45 -50 -101z" />
    <glyph glyph-name="gcommaaccent" unicode="&#x123;" horiz-adv-x="452" 
d="M390 294q0 -66 -49.5 -111t-119.5 -45q-37 0 -67 12q-70 -36 -70 -70q0 -20 26.5 -34.5t78.5 -15.5l90 -3q147 -5 147 -96q0 -58 -71.5 -102t-165.5 -44q-81 0 -128 30.5t-47 77.5q0 36 28.5 64.5t90.5 56.5q-34 8 -52.5 25t-18.5 40q0 43 71 81q-75 43 -75 127
q0 66 50 113.5t120 47.5q52 0 94 -28q34 102 105 84l-4 -22q-32 8 -51 -11t-33 -64q51 -45 51 -113zM367 292q0 61 -41.5 97.5t-99.5 36.5q-59 0 -102 -41t-43 -96q0 -59 41 -94t101 -35t102 39t42 93zM203 7q-14 0 -36 2q-69 -29 -99.5 -56t-30.5 -58q0 -38 42 -63t114 -25
q83 0 146.5 38t63.5 85q0 70 -117 74zM255 706l-9 -11q-29 -36 -29 -62q0 -23 26 -31l10 -3q-3 -30 -29 -30q-30 0 -30 46q0 45 50 101z" />
    <glyph glyph-name="Hbar" unicode="&#x126;" horiz-adv-x="756" 
d="M640 0h-26q2 48 2 241v114h-474v-211q0 -116 1 -144h-26q2 48 2 241v221v62h-75q2 12 2 24q12 0 36 -0.5t37 -0.5q0 92 -2 156q15 0 26 3q-1 -29 -1 -146v-13q69 -1 240 -1h234q0 93 -2 157q16 0 26 3q-1 -29 -1 -146v-14l75 2q-2 -6 -4 -24h-71v-380q0 -116 1 -144z
M261 525q-24 0 -63.5 -0.5t-55.5 -0.5v-147h474v85v62q-21 0 -63 0.5t-62 0.5h-230z" />
    <glyph glyph-name="hbar" unicode="&#x127;" horiz-adv-x="539" 
d="M454 0h-26q2 86 2 170v123q0 138 -124 138q-65 0 -128.5 -59t-63.5 -97v-172q0 -67 1 -103h-26q2 86 2 170v366v26q-13 0 -34.5 -0.5t-31.5 -0.5q2 12 2 23q36 -2 64 -2q0 47 -2 129q10 0 26 2q-1 -73 -1 -127v-4h19q105 0 167 2q-2 -7 -4 -23q-28 0 -75 0.5t-69 0.5h-38
v-236q26 44 79 85.5t121 41.5q59 0 99 -36t40 -112v-202q0 -19 0.5 -55t0.5 -48z" />
    <glyph glyph-name="Imacron" unicode="&#x12a;" horiz-adv-x="271" 
d="M149 0h-27q3 72 3 241v221q0 169 -3 241q16 0 27 3q-1 -29 -1 -146v-416q0 -116 1 -144zM273 864q-2 -6 -4 -24q-20 0 -58 0.5t-56 0.5h-50q-22 0 -57 -0.5t-50 -0.5q2 12 2 24q72 -2 136 -2q91 0 137 2z" />
    <glyph glyph-name="imacron" unicode="&#x12b;" horiz-adv-x="201" 
d="M115 0h-26q2 43 2 170v99q0 89 -4 175q10 0 28 2l-1 -127v-216q0 -19 0.5 -55t0.5 -48zM239 624q-2 -6 -4 -24q-20 0 -58 0.5t-56 0.5h-50q-22 0 -57 -0.5t-50 -0.5q2 12 2 24q72 -2 136 -2q91 0 137 2z" />
    <glyph glyph-name="Ibreve" unicode="&#x12c;" horiz-adv-x="271" 
d="M149 0h-27q3 72 3 241v221q0 169 -3 241q16 0 27 3q-1 -29 -1 -146v-416q0 -116 1 -144zM245 919l21 2q2 -61 -33.5 -96.5t-100.5 -35.5q-56 0 -92.5 35.5t-36.5 87.5l21 3q0 -46 31.5 -76t78.5 -30q52 0 82.5 30.5t28.5 79.5z" />
    <glyph glyph-name="ibreve" unicode="&#x12d;" horiz-adv-x="201" 
d="M115 0h-26q2 43 2 170v99q0 89 -4 175q10 0 28 2l-1 -127v-216q0 -19 0.5 -55t0.5 -48zM211 679l21 2q2 -61 -33.5 -96.5t-100.5 -35.5q-56 0 -92.5 35.5t-36.5 87.5l21 3q0 -46 31.5 -76t78.5 -30q52 0 82.5 30.5t28.5 79.5z" />
    <glyph glyph-name="Iogonek" unicode="&#x12e;" horiz-adv-x="271" 
d="M149 0q-62 -68 -62 -122q0 -16 8.5 -27t24.5 -11q35 0 66 27l-2 -24q-30 -24 -67 -24q-26 0 -40 15t-14 41q0 55 63 125h-4q3 72 3 241v221q0 169 -3 241q16 0 27 3q-1 -29 -1 -146v-416q0 -116 1 -144z" />
    <glyph glyph-name="iogonek" unicode="&#x12f;" horiz-adv-x="201" 
d="M115 0q-62 -68 -62 -122q0 -16 8.5 -27t24.5 -11q35 0 66 27l-2 -24q-30 -24 -67 -24q-26 0 -40 15t-14 41q0 55 63 125h-3q2 43 2 170v99q0 89 -4 175q10 0 28 2l-1 -127v-216q0 -19 0.5 -55t0.5 -48zM126 594q0 -11 -7 -18t-19 -7q-10 0 -17 7t-7 17t7 17t19 7
q11 0 17.5 -7t6.5 -16z" />
    <glyph glyph-name="Idotaccent" unicode="&#x130;" horiz-adv-x="271" 
d="M149 0h-27q3 72 3 241v221q0 169 -3 241q16 0 27 3q-1 -29 -1 -146v-416q0 -116 1 -144zM160 834q0 -11 -7 -18t-19 -7q-10 0 -17 7t-7 17t7 17t19 7q11 0 17.5 -7t6.5 -16z" />
    <glyph glyph-name="dotlessi" unicode="&#x131;" horiz-adv-x="201" 
d="M115 0h-26q2 43 2 170v99q0 89 -4 175q10 0 28 2l-1 -127v-216q0 -19 0.5 -55t0.5 -48z" />
    <glyph glyph-name="Kcommaaccent" unicode="&#x136;" horiz-adv-x="609" 
d="M547 -4l-404 362v-214q0 -116 1 -144h-27q3 72 3 241v221q0 169 -3 241q17 0 27 3q-1 -29 -1 -146v-192l169 146q105 90 216 189h34l-392 -339l186 -165q18 -16 67.5 -60.5t90 -81.5t63.5 -56zM282 -208l9 11q29 36 29 62q0 23 -26 31l-10 3q3 30 29 30q30 0 30 -46
q0 -45 -50 -101z" />
    <glyph glyph-name="kcommaaccent" unicode="&#x137;" horiz-adv-x="442" 
d="M400 -10l-286 249v-136q0 -77 1 -103h-26q2 43 2 170v366q0 122 -2 175q10 0 26 2q-1 -73 -1 -127v-337l251 194q28 0 37 1l-261 -200l70 -60l216 -186zM201 -208l9 11q29 36 29 62q0 23 -26 31l-10 3q3 30 29 30q30 0 30 -46q0 -45 -50 -101z" />
    <glyph glyph-name="Lacute" unicode="&#x139;" horiz-adv-x="527" 
d="M502 23q-3 -12 -3 -25q-90 3 -192 3q-106 0 -190 -3q3 72 3 243v221q0 169 -3 241q17 0 27 3q-1 -29 -1 -146v-416q0 -93 1 -121q28 -1 163 -1q37 0 102 0.5t93 0.5zM231 908l38 4l-114 -142l-21 -1z" />
    <glyph glyph-name="lacute" unicode="&#x13a;" horiz-adv-x="201" 
d="M115 0h-26q2 43 2 170v366q0 122 -2 175q10 0 26 2q-1 -73 -1 -127v-483q0 -77 1 -103zM166 908l38 4l-114 -142l-21 -1z" />
    <glyph glyph-name="Lcommaaccent" unicode="&#x13b;" horiz-adv-x="527" 
d="M502 23q-3 -12 -3 -25q-90 3 -192 3q-106 0 -190 -3q3 72 3 243v221q0 169 -3 241q17 0 27 3q-1 -29 -1 -146v-416q0 -93 1 -121q28 -1 163 -1q37 0 102 0.5t93 0.5zM258 -208l9 11q29 36 29 62q0 23 -26 31l-10 3q3 30 29 30q30 0 30 -46q0 -45 -50 -101z" />
    <glyph glyph-name="lcommaaccent" unicode="&#x13c;" horiz-adv-x="201" 
d="M115 0h-26q2 43 2 170v366q0 122 -2 175q10 0 26 2q-1 -73 -1 -127v-483q0 -77 1 -103zM69 -208l9 11q29 36 29 62q0 23 -26 31l-10 3q3 30 29 30q30 0 30 -46q0 -45 -50 -101z" />
    <glyph glyph-name="Lcaron" unicode="&#x13d;" horiz-adv-x="527" 
d="M502 23q-3 -12 -3 -25q-90 3 -192 3q-106 0 -190 -3q3 72 3 243v221q0 169 -3 241q17 0 27 3q-1 -29 -1 -146v-416q0 -93 1 -121q28 -1 163 -1q37 0 102 0.5t93 0.5zM238 587l-13 -3q7 76 9 117l28 4q-19 -96 -24 -118z" />
    <glyph glyph-name="lcaron" unicode="&#x13e;" horiz-adv-x="201" 
d="M115 0h-26q2 43 2 170v366q0 122 -2 175q10 0 26 2q-1 -73 -1 -127v-483q0 -77 1 -103zM184 593l-13 -3q7 76 9 117l28 4q-19 -96 -24 -118z" />
    <glyph glyph-name="Ldot" unicode="&#x13f;" horiz-adv-x="527" 
d="M502 23q-3 -12 -3 -25q-90 3 -192 3q-106 0 -190 -3q3 72 3 243v221q0 169 -3 241q17 0 27 3q-1 -29 -1 -146v-416q0 -93 1 -121q28 -1 163 -1q37 0 102 0.5t93 0.5zM420 392q0 -11 -7 -18t-19 -7q-10 0 -17 7t-7 17t7 17t19 7q11 0 17.5 -7t6.5 -16z" />
    <glyph glyph-name="ldot" unicode="&#x140;" horiz-adv-x="293" 
d="M115 0h-26q2 43 2 170v366q0 122 -2 175q10 0 26 2q-1 -73 -1 -127v-483q0 -77 1 -103zM274 330q0 -11 -7 -18t-19 -7q-10 0 -17 7t-7 17t7 17t19 7q11 0 17.5 -7t6.5 -16z" />
    <glyph glyph-name="Lslash" unicode="&#x141;" horiz-adv-x="527" 
d="M502 17q-3 -12 -3 -25q-90 3 -192 3q-106 0 -190 -3q3 72 3 243v87l-70 -43q-5 14 -10 22q48 26 80 45v110q0 169 -3 241q17 0 27 3q-1 -29 -1 -146v-195q66 37 129 76q1 -4 4.5 -12.5t4.5 -10.5q-24 -14 -71.5 -40.5t-66.5 -37.5v-196q0 -93 1 -121q28 -1 163 -1
q37 0 102 0.5t93 0.5z" />
    <glyph glyph-name="lslash" unicode="&#x142;" horiz-adv-x="201" 
d="M115 0h-26q2 43 2 170v174q-49 -28 -71 -42q-1 1 -4.5 9t-5.5 12l81 45v168q0 122 -2 175q10 0 26 2q-1 -73 -1 -127v-205q29 17 72 43q1 -3 8 -22q-60 -33 -80 -45v-254q0 -77 1 -103z" />
    <glyph glyph-name="Nacute" unicode="&#x143;" horiz-adv-x="787" 
d="M118 0q2 48 2 241v221q0 208 -3 256l11 2l519 -686v428q0 193 -2 241q16 0 25 3q-1 -29 -1 -146v-416q0 -131 1 -159l-10 -3l-518 684v-522q0 -20 0.5 -75.5t0.5 -68.5h-25zM460 918l38 4l-114 -142l-21 -1z" />
    <glyph glyph-name="nacute" unicode="&#x144;" horiz-adv-x="540" 
d="M454 0h-26q2 86 2 170v123q0 138 -124 138q-65 0 -128.5 -59t-63.5 -97v-172q0 -67 1 -103h-26q2 86 2 170v102q0 114 -4 171q6 0 24 2l2 -121q26 45 79.5 87t121.5 42q59 0 99 -36t40 -112v-202q0 -19 0.5 -55t0.5 -48zM339 678l38 4l-114 -142l-21 -1z" />
    <glyph glyph-name="Ncommaaccent" unicode="&#x145;" horiz-adv-x="787" 
d="M118 0q2 48 2 241v221q0 208 -3 256l11 2l519 -686v428q0 193 -2 241q16 0 25 3q-1 -29 -1 -146v-416q0 -131 1 -159l-10 -3l-518 684v-522q0 -20 0.5 -75.5t0.5 -68.5h-25zM363 -208l9 11q29 36 29 62q0 23 -26 31l-10 3q3 30 29 30q30 0 30 -46q0 -45 -50 -101z" />
    <glyph glyph-name="ncommaaccent" unicode="&#x146;" horiz-adv-x="540" 
d="M454 0h-26q2 86 2 170v123q0 138 -124 138q-65 0 -128.5 -59t-63.5 -97v-172q0 -67 1 -103h-26q2 86 2 170v102q0 114 -4 171q6 0 24 2l2 -121q26 45 79.5 87t121.5 42q59 0 99 -36t40 -112v-202q0 -19 0.5 -55t0.5 -48zM242 -208l9 11q29 36 29 62q0 23 -26 31l-10 3
q3 30 29 30q30 0 30 -46q0 -45 -50 -101z" />
    <glyph glyph-name="Ncaron" unicode="&#x147;" horiz-adv-x="787" 
d="M118 0q2 48 2 241v221q0 208 -3 256l11 2l519 -686v428q0 193 -2 241q16 0 25 3q-1 -29 -1 -146v-416q0 -131 1 -159l-10 -3l-518 684v-522q0 -20 0.5 -75.5t0.5 -68.5h-25zM399 782h-11l-116 136l19 4l104 -110l103 105h23z" />
    <glyph glyph-name="ncaron" unicode="&#x148;" horiz-adv-x="540" 
d="M454 0h-26q2 86 2 170v123q0 138 -124 138q-65 0 -128.5 -59t-63.5 -97v-172q0 -67 1 -103h-26q2 86 2 170v102q0 114 -4 171q6 0 24 2l2 -121q26 45 79.5 87t121.5 42q59 0 99 -36t40 -112v-202q0 -19 0.5 -55t0.5 -48zM278 542h-11l-116 136l19 4l104 -110l103 105h23z
" />
    <glyph glyph-name="Omacron" unicode="&#x14c;" horiz-adv-x="825" 
d="M403 4q146 0 239.5 104.5t93.5 257.5q0 138 -87.5 235t-225.5 97q-146 0 -240 -104.5t-94 -257.5q0 -137 88 -234.5t226 -97.5zM403 -18q-147 0 -242.5 103.5t-95.5 247.5q0 164 101 275.5t257 111.5q147 0 242 -103t95 -248q0 -164 -100.5 -275.5t-256.5 -111.5z
M550 869q-2 -6 -4 -24q-20 0 -58 0.5t-56 0.5h-50q-22 0 -57 -0.5t-50 -0.5q2 12 2 24q72 -2 136 -2q91 0 137 2z" />
    <glyph glyph-name="omacron" unicode="&#x14d;" horiz-adv-x="552" 
d="M498 231q0 -106 -63 -175t-166 -69q-95 0 -155 62.5t-60 159.5q0 105 63 174.5t165 69.5q96 0 156 -62.5t60 -159.5zM475 227q0 95 -55.5 149.5t-141.5 54.5q-88 0 -144.5 -63.5t-56.5 -153.5q0 -93 54.5 -149t141.5 -56q89 0 145.5 63t56.5 155zM414 624q-2 -6 -4 -24
q-20 0 -58 0.5t-56 0.5h-50q-22 0 -57 -0.5t-50 -0.5q2 12 2 24q72 -2 136 -2q91 0 137 2z" />
    <glyph glyph-name="Obreve" unicode="&#x14e;" horiz-adv-x="825" 
d="M403 4q146 0 239.5 104.5t93.5 257.5q0 138 -87.5 235t-225.5 97q-146 0 -240 -104.5t-94 -257.5q0 -137 88 -234.5t226 -97.5zM403 -18q-147 0 -242.5 103.5t-95.5 247.5q0 164 101 275.5t257 111.5q147 0 242 -103t95 -248q0 -164 -100.5 -275.5t-256.5 -111.5z
M522 924l21 2q2 -61 -33.5 -96.5t-100.5 -35.5q-56 0 -92.5 35.5t-36.5 87.5l21 3q0 -46 31.5 -76t78.5 -30q52 0 82.5 30.5t28.5 79.5z" />
    <glyph glyph-name="obreve" unicode="&#x14f;" horiz-adv-x="552" 
d="M498 231q0 -106 -63 -175t-166 -69q-95 0 -155 62.5t-60 159.5q0 105 63 174.5t165 69.5q96 0 156 -62.5t60 -159.5zM475 227q0 95 -55.5 149.5t-141.5 54.5q-88 0 -144.5 -63.5t-56.5 -153.5q0 -93 54.5 -149t141.5 -56q89 0 145.5 63t56.5 155zM386 679l21 2
q2 -61 -33.5 -96.5t-100.5 -35.5q-56 0 -92.5 35.5t-36.5 87.5l21 3q0 -46 31.5 -76t78.5 -30q52 0 82.5 30.5t28.5 79.5z" />
    <glyph glyph-name="Ohungarumlaut" unicode="&#x150;" horiz-adv-x="825" 
d="M403 4q146 0 239.5 104.5t93.5 257.5q0 138 -87.5 235t-225.5 97q-146 0 -240 -104.5t-94 -257.5q0 -137 88 -234.5t226 -97.5zM403 -18q-147 0 -242.5 103.5t-95.5 247.5q0 164 101 275.5t257 111.5q147 0 242 -103t95 -248q0 -164 -100.5 -275.5t-256.5 -111.5z
M388 931l35 4l-73 -155l-18 -1zM516 931l35 4l-79 -152l-18 -1z" />
    <glyph glyph-name="ohungarumlaut" unicode="&#x151;" horiz-adv-x="552" 
d="M498 231q0 -106 -63 -175t-166 -69q-95 0 -155 62.5t-60 159.5q0 105 63 174.5t165 69.5q96 0 156 -62.5t60 -159.5zM475 227q0 95 -55.5 149.5t-141.5 54.5q-88 0 -144.5 -63.5t-56.5 -153.5q0 -93 54.5 -149t141.5 -56q89 0 145.5 63t56.5 155zM252 686l35 4l-73 -155
l-18 -1zM380 686l35 4l-79 -152l-18 -1z" />
    <glyph glyph-name="OE" unicode="&#x152;" horiz-adv-x="994" 
d="M448 -1q-175 0 -279 95.5t-104 246.5q0 162 105 264t287 102q32 0 141.5 -1.5t149.5 -1.5q104 0 189 3q-4 -13 -4 -25q-27 0 -88.5 0.5t-96.5 0.5q-127 0 -153 -1q-1 -36 -1 -122v-181h296q-3 -11 -3 -22h-293v-213q0 -85 1 -121q39 -1 149 -1q108 0 205 3q-5 -17 -5 -27
q-86 3 -193 3q-39 0 -156.5 -1t-146.5 -1zM451 21q30 0 120 3v539q0 91 -1 119q-28 3 -115 3q-171 0 -268.5 -95.5t-97.5 -245.5q0 -143 97 -233t265 -90z" />
    <glyph glyph-name="oe" unicode="&#x153;" horiz-adv-x="917" 
d="M866 248l-18 -13l-354 -8q-3 -101 50.5 -159.5t141.5 -58.5q89 0 166 65l-2 -27q-75 -60 -170 -60q-73 0 -127 42.5t-73 112.5q-22 -71 -78 -113t-135 -42q-95 0 -154 62.5t-59 159.5q0 106 62 175t164 69q77 0 132 -42t73 -113q22 70 76 112.5t127 42.5q84 0 131 -57
t47 -148zM471 227q0 95 -54.5 149.5t-140.5 54.5q-87 0 -143 -63t-56 -154q0 -94 54 -149.5t140 -55.5q88 0 144 62.5t56 155.5zM496 248l347 8q-4 82 -46 128.5t-114 46.5q-74 0 -125.5 -53t-61.5 -130z" />
    <glyph glyph-name="Racute" unicode="&#x154;" horiz-adv-x="596" 
d="M559 -1l-26 -7l-219 336q-14 -1 -37 -1h-135v-183q0 -116 1 -144h-26q2 48 2 241v221q0 195 -2 243q150 3 160 3q105 0 161.5 -51t56.5 -129q0 -74 -43 -125.5t-113 -69.5l119 -182q57 -89 101 -152zM142 349h142q85 0 136.5 51.5t51.5 123.5q0 74 -51.5 117.5
t-150.5 43.5q-93 0 -128 -2v-334zM354 918l38 4l-114 -142l-21 -1z" />
    <glyph glyph-name="racute" unicode="&#x155;" horiz-adv-x="308" 
d="M274 453l-3 -26q-67 -1 -112 -60t-45 -122v-142q0 -67 1 -103h-26q2 86 2 170v103q0 108 -7 168l24 6l4 -128q17 48 58.5 89t103.5 45zM237 678l38 4l-114 -142l-21 -1z" />
    <glyph glyph-name="Rcommaaccent" unicode="&#x156;" horiz-adv-x="596" 
d="M559 -1l-26 -7l-219 336q-14 -1 -37 -1h-135v-183q0 -116 1 -144h-26q2 48 2 241v221q0 195 -2 243q150 3 160 3q105 0 161.5 -51t56.5 -129q0 -74 -43 -125.5t-113 -69.5l119 -182q57 -89 101 -152zM142 349h142q85 0 136.5 51.5t51.5 123.5q0 74 -51.5 117.5
t-150.5 43.5q-93 0 -128 -2v-334zM289 -208l9 11q29 36 29 62q0 23 -26 31l-10 3q3 30 29 30q30 0 30 -46q0 -45 -50 -101z" />
    <glyph glyph-name="rcommaaccent" unicode="&#x157;" horiz-adv-x="308" 
d="M274 453l-3 -26q-67 -1 -112 -60t-45 -122v-142q0 -67 1 -103h-26q2 86 2 170v103q0 108 -7 168l24 6l4 -128q17 48 58.5 89t103.5 45zM74 -208l9 11q29 36 29 62q0 23 -26 31l-10 3q3 30 29 30q30 0 30 -46q0 -45 -50 -101z" />
    <glyph glyph-name="Rcaron" unicode="&#x158;" horiz-adv-x="596" 
d="M559 -1l-26 -7l-219 336q-14 -1 -37 -1h-135v-183q0 -116 1 -144h-26q2 48 2 241v221q0 195 -2 243q150 3 160 3q105 0 161.5 -51t56.5 -129q0 -74 -43 -125.5t-113 -69.5l119 -182q57 -89 101 -152zM142 349h142q85 0 136.5 51.5t51.5 123.5q0 74 -51.5 117.5
t-150.5 43.5q-93 0 -128 -2v-334zM293 782h-11l-116 136l19 4l104 -110l103 105h23z" />
    <glyph glyph-name="rcaron" unicode="&#x159;" horiz-adv-x="308" 
d="M274 453l-3 -26q-67 -1 -112 -60t-45 -122v-142q0 -67 1 -103h-26q2 86 2 170v103q0 108 -7 168l24 6l4 -128q17 48 58.5 89t103.5 45zM176 542h-11l-116 136l19 4l104 -110l103 105h23z" />
    <glyph glyph-name="Sacute" unicode="&#x15a;" horiz-adv-x="507" 
d="M452 172q0 -76 -58 -133t-158 -57q-105 0 -191 54l3 27q84 -59 188 -59q91 0 142 49.5t51 116.5q0 43 -26.5 77t-66 55.5t-85.5 45.5t-85.5 46.5t-66 59t-26.5 82.5q0 77 55.5 130.5t149.5 53.5q82 0 156 -44l-8 -22q-74 44 -148 44q-84 0 -133 -46t-49 -114
q0 -42 26.5 -76t66 -55t85.5 -45t85.5 -46.5t66 -60t26.5 -83.5zM333 923l38 4l-114 -142l-21 -1z" />
    <glyph glyph-name="sacute" unicode="&#x15b;" horiz-adv-x="389" 
d="M201 452q59 0 115 -30l-9 -24q-50 32 -107 32q-49 0 -81.5 -25t-32.5 -64q0 -32 25.5 -55t62 -37t73 -29t62 -40.5t25.5 -62.5q0 -60 -46 -94.5t-109 -34.5q-77 0 -134 33l3 28q62 -39 134 -39q52 0 89.5 28t37.5 77q0 32 -25.5 54.5t-62 37l-73 29t-62 41t-25.5 63.5
q0 49 40.5 80.5t99.5 31.5zM263 678l38 4l-114 -142l-21 -1z" />
    <glyph glyph-name="Scedilla" unicode="&#x15e;" horiz-adv-x="507" 
d="M452 172q0 -72 -52 -127.5t-143 -61.5l-16 -55q94 -23 94 -72q0 -24 -19 -39.5t-53 -15.5q-35 0 -78 18l4 21q41 -18 76 -18q49 0 49 33q0 20 -21 33.5t-75 23.5l-3 4q3 11 10.5 34t10.5 32q-105 0 -191 54l3 27q84 -59 188 -59q91 0 142 49.5t51 116.5q0 43 -26.5 77
t-66 55.5t-85.5 45.5t-85.5 46.5t-66 59t-26.5 82.5q0 77 55.5 130.5t149.5 53.5q82 0 156 -44l-8 -22q-74 44 -148 44q-84 0 -133 -46t-49 -114q0 -42 26.5 -76t66 -55t85.5 -45t85.5 -46.5t66 -60t26.5 -83.5z" />
    <glyph glyph-name="scedilla" unicode="&#x15f;" horiz-adv-x="389" 
d="M201 452q59 0 115 -30l-9 -24q-50 32 -107 32q-49 0 -81.5 -25t-32.5 -64q0 -32 25.5 -55t62 -37t73 -29t62 -40.5t25.5 -62.5q0 -56 -41 -90t-100 -38l-18 -61q94 -23 94 -72q0 -24 -19 -39.5t-53 -15.5q-35 0 -78 18l4 21q41 -18 76 -18q49 0 49 33q0 20 -21 33.5
t-75 23.5l-3 4q2 7 10.5 32.5t11.5 39.5q-72 1 -126 33l3 28q62 -39 134 -39q52 0 89.5 28t37.5 77q0 32 -25.5 54.5t-62 37l-73 29t-62 41t-25.5 63.5q0 49 40.5 80.5t99.5 31.5z" />
    <glyph glyph-name="Scaron" unicode="&#x160;" horiz-adv-x="507" 
d="M452 172q0 -76 -58 -133t-158 -57q-105 0 -191 54l3 27q84 -59 188 -59q91 0 142 49.5t51 116.5q0 43 -26.5 77t-66 55.5t-85.5 45.5t-85.5 46.5t-66 59t-26.5 82.5q0 77 55.5 130.5t149.5 53.5q82 0 156 -44l-8 -22q-74 44 -148 44q-84 0 -133 -46t-49 -114
q0 -42 26.5 -76t66 -55t85.5 -45t85.5 -46.5t66 -60t26.5 -83.5zM272 787h-11l-116 136l19 4l104 -110l103 105h23z" />
    <glyph glyph-name="scaron" unicode="&#x161;" horiz-adv-x="389" 
d="M201 452q59 0 115 -30l-9 -24q-50 32 -107 32q-49 0 -81.5 -25t-32.5 -64q0 -32 25.5 -55t62 -37t73 -29t62 -40.5t25.5 -62.5q0 -60 -46 -94.5t-109 -34.5q-77 0 -134 33l3 28q62 -39 134 -39q52 0 89.5 28t37.5 77q0 32 -25.5 54.5t-62 37l-73 29t-62 41t-25.5 63.5
q0 49 40.5 80.5t99.5 31.5zM202 542h-11l-116 136l19 4l104 -110l103 105h23z" />
    <glyph glyph-name="Tcommaaccent" unicode="&#x162;" horiz-adv-x="586" 
d="M571 707q-4 -13 -4 -25q-37 1 -261 1v-123v-416q0 -116 1 -144h-26q2 48 2 241v221q0 197 -1 221q-203 0 -267 -1q4 12 4 25q117 -3 275 -3q160 0 277 3zM260 -208l9 11q29 36 29 62q0 23 -26 31l-10 3q3 30 29 30q30 0 30 -46q0 -45 -50 -101z" />
    <glyph glyph-name="Tcommaaccent" unicode="&#x21a;" horiz-adv-x="586" 
d="M571 707q-4 -13 -4 -25q-37 1 -261 1v-123v-416q0 -116 1 -144h-26q2 48 2 241v221q0 197 -1 221q-203 0 -267 -1q4 12 4 25q117 -3 275 -3q160 0 277 3zM260 -208l9 11q29 36 29 62q0 23 -26 31l-10 3q3 30 29 30q30 0 30 -46q0 -45 -50 -101z" />
    <glyph glyph-name="tcommaaccent" unicode="&#x163;" horiz-adv-x="315" 
d="M277 31l-1 -22q-34 -22 -73 -22q-45 0 -69.5 25.5t-24.5 71.5v339h-73l8 20h66l4 103l18 4v-107h133q-3 -12 -3 -20h-130v-332q0 -41 20 -61.5t56 -20.5q35 0 69 22zM153 -213l9 11q29 36 29 62q0 23 -26 31l-10 3q3 30 29 30q30 0 30 -46q0 -45 -50 -101z" />
    <glyph glyph-name="tcommaaccent" unicode="&#x21b;" horiz-adv-x="315" 
d="M277 31l-1 -22q-34 -22 -73 -22q-45 0 -69.5 25.5t-24.5 71.5v339h-73l8 20h66l4 103l18 4v-107h133q-3 -12 -3 -20h-130v-332q0 -41 20 -61.5t56 -20.5q35 0 69 22zM153 -213l9 11q29 36 29 62q0 23 -26 31l-10 3q3 30 29 30q30 0 30 -46q0 -45 -50 -101z" />
    <glyph glyph-name="Tcaron" unicode="&#x164;" horiz-adv-x="586" 
d="M571 707q-4 -13 -4 -25q-37 1 -261 1v-123v-416q0 -116 1 -144h-26q2 48 2 241v221q0 197 -1 221q-203 0 -267 -1q4 12 4 25q117 -3 275 -3q160 0 277 3zM296 782h-11l-116 136l19 4l104 -110l103 105h23z" />
    <glyph glyph-name="tcaron" unicode="&#x165;" horiz-adv-x="315" 
d="M277 31l-1 -22q-34 -22 -73 -22q-45 0 -69.5 25.5t-24.5 71.5v339h-73l8 20h66l4 103l18 4v-107h133q-3 -12 -3 -20h-130v-332q0 -41 20 -61.5t56 -20.5q35 0 69 22zM210 537l-13 -3q7 76 9 117l28 4q-19 -96 -24 -118z" />
    <glyph glyph-name="Umacron" unicode="&#x16a;" horiz-adv-x="723" 
d="M623 706q-1 -29 -1 -146v-305q0 -134 -74 -206q-70 -67 -187 -67t-188 66.5t-71 189.5v224q0 193 -2 241q14 0 26 3q-1 -29 -1 -146v-311q0 -121 63.5 -183t177.5 -62q106 0 169.5 64t63.5 179v215q0 193 -2 241q14 0 26 3zM499 864q-2 -6 -4 -24q-20 0 -58 0.5t-56 0.5
h-50q-22 0 -57 -0.5t-50 -0.5q2 12 2 24q72 -2 136 -2q91 0 137 2z" />
    <glyph glyph-name="umacron" unicode="&#x16b;" horiz-adv-x="542" 
d="M455 0h-22l-5 115q-26 -45 -81.5 -87.5t-123.5 -42.5q-59 0 -97 38.5t-38 119.5v144q0 106 -2 157q10 0 26 2q-1 -28 -1 -116v-175q0 -148 120 -148q65 0 130.5 59t65.5 97v124q0 106 -2 157q10 0 26 2q-1 -28 -1 -116v-155q0 -67 5 -175zM408 624q-2 -6 -4 -24
q-20 0 -58 0.5t-56 0.5h-50q-22 0 -57 -0.5t-50 -0.5q2 12 2 24q72 -2 136 -2q91 0 137 2z" />
    <glyph glyph-name="Ubreve" unicode="&#x16c;" horiz-adv-x="723" 
d="M623 706q-1 -29 -1 -146v-305q0 -134 -74 -206q-70 -67 -187 -67t-188 66.5t-71 189.5v224q0 193 -2 241q14 0 26 3q-1 -29 -1 -146v-311q0 -121 63.5 -183t177.5 -62q106 0 169.5 64t63.5 179v215q0 193 -2 241q14 0 26 3zM471 919l21 2q2 -61 -33.5 -96.5t-100.5 -35.5
q-56 0 -92.5 35.5t-36.5 87.5l21 3q0 -46 31.5 -76t78.5 -30q52 0 82.5 30.5t28.5 79.5z" />
    <glyph glyph-name="ubreve" unicode="&#x16d;" horiz-adv-x="542" 
d="M455 0h-22l-5 115q-26 -45 -81.5 -87.5t-123.5 -42.5q-59 0 -97 38.5t-38 119.5v144q0 106 -2 157q10 0 26 2q-1 -28 -1 -116v-175q0 -148 120 -148q65 0 130.5 59t65.5 97v124q0 106 -2 157q10 0 26 2q-1 -28 -1 -116v-155q0 -67 5 -175zM380 679l21 2
q2 -61 -33.5 -96.5t-100.5 -35.5q-56 0 -92.5 35.5t-36.5 87.5l21 3q0 -46 31.5 -76t78.5 -30q52 0 82.5 30.5t28.5 79.5z" />
    <glyph glyph-name="Uring" unicode="&#x16e;" horiz-adv-x="723" 
d="M623 706q-1 -29 -1 -146v-305q0 -134 -74 -206q-70 -67 -187 -67t-188 66.5t-71 189.5v224q0 193 -2 241q14 0 26 3q-1 -29 -1 -146v-311q0 -121 63.5 -183t177.5 -62q106 0 169.5 64t63.5 179v215q0 193 -2 241q14 0 26 3zM460 857q0 -44 -28.5 -74.5t-72.5 -30.5
q-42 0 -69 28t-27 67q0 45 28 74.5t73 29.5q42 0 69 -27.5t27 -66.5zM439 856q0 32 -20.5 53.5t-54.5 21.5q-36 0 -58 -23.5t-22 -59.5q0 -31 20.5 -53.5t55.5 -22.5t57 24t22 60z" />
    <glyph glyph-name="uring" unicode="&#x16f;" horiz-adv-x="542" 
d="M455 0h-22l-5 115q-26 -45 -81.5 -87.5t-123.5 -42.5q-59 0 -97 38.5t-38 119.5v144q0 106 -2 157q10 0 26 2q-1 -28 -1 -116v-175q0 -148 120 -148q65 0 130.5 59t65.5 97v124q0 106 -2 157q10 0 26 2q-1 -28 -1 -116v-155q0 -67 5 -175zM369 643q0 -44 -28.5 -74.5
t-72.5 -30.5q-42 0 -69 28t-27 67q0 45 28 74.5t73 29.5q42 0 69 -27.5t27 -66.5zM348 642q0 32 -20.5 53.5t-54.5 21.5q-36 0 -58 -23.5t-22 -59.5q0 -31 20.5 -53.5t55.5 -22.5t57 24t22 60z" />
    <glyph glyph-name="Uhungarumlaut" unicode="&#x170;" horiz-adv-x="723" 
d="M623 706q-1 -29 -1 -146v-305q0 -134 -74 -206q-70 -67 -187 -67t-188 66.5t-71 189.5v224q0 193 -2 241q14 0 26 3q-1 -29 -1 -146v-311q0 -121 63.5 -183t177.5 -62q106 0 169.5 64t63.5 179v215q0 193 -2 241q14 0 26 3zM337 926l35 4l-73 -155l-18 -1zM465 926l35 4
l-79 -152l-18 -1z" />
    <glyph glyph-name="uhungarumlaut" unicode="&#x171;" horiz-adv-x="542" 
d="M455 0h-22l-5 115q-26 -45 -81.5 -87.5t-123.5 -42.5q-59 0 -97 38.5t-38 119.5v144q0 106 -2 157q10 0 26 2q-1 -28 -1 -116v-175q0 -148 120 -148q65 0 130.5 59t65.5 97v124q0 106 -2 157q10 0 26 2q-1 -28 -1 -116v-155q0 -67 5 -175zM246 686l35 4l-73 -155l-18 -1z
M374 686l35 4l-79 -152l-18 -1z" />
    <glyph glyph-name="Uogonek" unicode="&#x172;" horiz-adv-x="723" 
d="M362 -181q-25 0 -39 14t-14 35q0 29 24 61t68 56q-19 -3 -40 -3q-117 0 -188 66.5t-71 189.5v224q0 193 -2 241q14 0 26 3q-1 -29 -1 -146v-311q0 -121 63.5 -183t177.5 -62q106 0 169.5 64t63.5 179v215q0 193 -2 241q14 0 26 3q-1 -29 -1 -146v-305q0 -134 -74 -206
q-34 -33 -83 -50q-63 -23 -97.5 -59.5t-34.5 -69.5q0 -12 8.5 -21t23.5 -9q36 0 67 27l-2 -24q-30 -24 -68 -24z" />
    <glyph glyph-name="uogonek" unicode="&#x173;" horiz-adv-x="542" 
d="M455 0q-103 -76 -103 -130q0 -12 8 -21t24 -9q36 0 67 27l-2 -24q-30 -24 -68 -24q-25 0 -39 14t-14 35q0 58 105 135l-5 112q-26 -45 -81.5 -87.5t-123.5 -42.5q-59 0 -97 38.5t-38 119.5v144q0 106 -2 157q10 0 26 2q-1 -28 -1 -116v-175q0 -148 120 -148
q65 0 130.5 59t65.5 97v124q0 106 -2 157q10 0 26 2q-1 -28 -1 -116v-155q0 -67 5 -175z" />
    <glyph glyph-name="Wcircumflex" unicode="&#x174;" horiz-adv-x="990" 
d="M961 704l-165 -500q-18 -56 -41.5 -125t-31.5 -95l-12 -4l-212 669l-149 -453q-68 -205 -70 -214h-11l-183 555l-56 163l27 4l218 -662l161 486l57 177l13 4l212 -669l157 483l58 181h28zM496 922h11l116 -136l-19 -4l-104 110l-103 -105h-23z" />
    <glyph glyph-name="wcircumflex" unicode="&#x175;" horiz-adv-x="682" 
d="M187 -20q-9 31 -35 106l-76 219q-34 98 -51 139l25 5l143 -415l59 176q59 166 80 234l15 2l138 -412l62 173q66 185 82 237q16 -1 27 1l-166 -463l-11 -3q-1 6 -47 140l-92 278l-143 -414zM335 682h11l116 -136l-19 -4l-104 110l-103 -105h-23z" />
    <glyph glyph-name="Ycircumflex" unicode="&#x176;" horiz-adv-x="584" 
d="M20 701l27 5l246 -378l103 159l139 217h29l-261 -400v-160q0 -116 1 -144h-27q3 72 3 231v73l-110 170zM287 922h11l116 -136l-19 -4l-104 110l-103 -105h-23z" />
    <glyph glyph-name="ycircumflex" unicode="&#x177;" horiz-adv-x="439" 
d="M115 -216l97 233q-7 19 -39 90l-88 204q-26 62 -60 133l25 5l174 -403l68 164q5 12 42.5 104t50.5 130q23 0 28 1l-223 -540l-48 -120zM219 682h11l116 -136l-19 -4l-104 110l-103 -105h-23z" />
    <glyph glyph-name="Ydieresis" unicode="&#x178;" horiz-adv-x="584" 
d="M20 701l27 5l246 -378l103 159l139 217h29l-261 -400v-160q0 -116 1 -144h-27q3 72 3 231v73l-110 170zM391 834q0 -11 -7 -18t-19 -7q-10 0 -17 7t-7 17t7 17t19 7q11 0 17.5 -7t6.5 -16zM243 834q0 -11 -7 -18t-19 -7q-10 0 -17 7t-7 17t7 17t19 7q11 0 17.5 -7
t6.5 -16z" />
    <glyph glyph-name="Zacute" unicode="&#x179;" horiz-adv-x="590" 
d="M555 706l6 -7l-483 -676q61 -1 208 -1q135 0 255 3q-5 -17 -5 -27q-112 3 -253 3q-147 0 -242 -4l-6 7l484 677q-31 0 -95.5 0.5t-107.5 0.5q-187 0 -247 -1q4 12 4 25q103 -3 245 -3q134 0 237 3zM382 918l38 4l-114 -142l-21 -1z" />
    <glyph glyph-name="zacute" unicode="&#x17a;" horiz-adv-x="426" 
d="M390 445l6 -7l-335 -416q243 0 329 3q-5 -17 -5 -26q-81 3 -175 3q-109 0 -184 -4l-6 7l335 417q-255 0 -307 -1q4 12 4 24q72 -3 166 -3q91 0 172 3zM284 678l38 4l-114 -142l-21 -1z" />
    <glyph glyph-name="Zdotaccent" unicode="&#x17b;" horiz-adv-x="590" 
d="M555 706l6 -7l-483 -676q61 -1 208 -1q135 0 255 3q-5 -17 -5 -27q-112 3 -253 3q-147 0 -242 -4l-6 7l484 677q-31 0 -95.5 0.5t-107.5 0.5q-187 0 -247 -1q4 12 4 25q103 -3 245 -3q134 0 237 3zM343 834q0 -11 -7 -18t-19 -7q-10 0 -17 7t-7 17t7 17t19 7
q11 0 17.5 -7t6.5 -16z" />
    <glyph glyph-name="zdotaccent" unicode="&#x17c;" horiz-adv-x="426" 
d="M390 445l6 -7l-335 -416q243 0 329 3q-5 -17 -5 -26q-81 3 -175 3q-109 0 -184 -4l-6 7l335 417q-255 0 -307 -1q4 12 4 24q72 -3 166 -3q91 0 172 3zM245 594q0 -11 -7 -18t-19 -7q-10 0 -17 7t-7 17t7 17t19 7q11 0 17.5 -7t6.5 -16z" />
    <glyph glyph-name="Zcaron" unicode="&#x17d;" horiz-adv-x="590" 
d="M555 706l6 -7l-483 -676q61 -1 208 -1q135 0 255 3q-5 -17 -5 -27q-112 3 -253 3q-147 0 -242 -4l-6 7l484 677q-31 0 -95.5 0.5t-107.5 0.5q-187 0 -247 -1q4 12 4 25q103 -3 245 -3q134 0 237 3zM321 782h-11l-116 136l19 4l104 -110l103 105h23z" />
    <glyph glyph-name="zcaron" unicode="&#x17e;" horiz-adv-x="426" 
d="M390 445l6 -7l-335 -416q243 0 329 3q-5 -17 -5 -26q-81 3 -175 3q-109 0 -184 -4l-6 7l335 417q-255 0 -307 -1q4 12 4 24q72 -3 166 -3q91 0 172 3zM223 542h-11l-116 136l19 4l104 -110l103 105h23z" />
    <glyph glyph-name="florin" unicode="&#x192;" horiz-adv-x="366" 
d="M315 421h-150l-38 -277l-19 -144h-25q10 48 36 241l24 180h-93l11 20h85l12 87q5 39 12.5 65.5t23 53.5t43.5 40.5t67 13.5q29 0 56 -9l-8 -21q-22 8 -54 8q-57 0 -81.5 -36t-34.5 -104l-14 -98h153q-5 -14 -6 -20z" />
    <glyph glyph-name="Aringacute" unicode="&#x1fa;" horiz-adv-x="683" 
d="M437 808q0 -40 -25 -70t-64 -34l235 -542l73 -162l-26 -5l-121 278h-341l-39 -92l-74 -181h-29l212 493q18 42 37.5 88t31.5 74t20 48q-38 4 -62.5 31t-24.5 64q0 45 28 74.5t73 29.5q42 0 69 -27.5t27 -66.5zM338 672l-161 -377h322zM416 807q0 32 -20.5 53.5
t-54.5 21.5q-36 0 -58 -23.5t-22 -59.5q0 -31 20.5 -53.5t55.5 -22.5t57 24t22 60zM398 1127l38 4l-114 -142l-21 -1z" />
    <glyph glyph-name="aringacute" unicode="&#x1fb;" horiz-adv-x="469" 
d="M182 -9q-64 0 -98 33.5t-34 84.5q0 60 51 100t166 40q34 0 84 -6l1 29q4 159 -126 159q-67 0 -135 -43l-7 22q73 43 142 43t110 -42.5t39 -128.5l-6 -199q-1 -38 8 -53t28 -15q18 0 38 14l-1 -20q-18 -14 -41 -14q-28 0 -42.5 22.5t-9.5 86.5q-17 -49 -64 -81t-103 -32z
M186 12q66 0 113.5 47.5t49.5 119.5l1 44q-43 5 -84 5q-105 0 -148.5 -33t-43.5 -84q0 -42 28.5 -70.5t83.5 -28.5zM326 643q0 -44 -28.5 -74.5t-72.5 -30.5q-42 0 -69 28t-27 67q0 45 28 74.5t73 29.5q42 0 69 -27.5t27 -66.5zM305 642q0 32 -20.5 53.5t-54.5 21.5
q-36 0 -58 -23.5t-22 -59.5q0 -31 20.5 -53.5t55.5 -22.5t57 24t22 60zM287 962l38 4l-114 -142l-21 -1z" />
    <glyph glyph-name="AEacute" unicode="&#x1fc;" horiz-adv-x="892" 
d="M0 0l325 493q108 164 139 214q80 -3 182 -3q104 0 189 3q-4 -13 -4 -25q-27 0 -88.5 0.5t-96.5 0.5q-127 0 -153 -1q-1 -36 -1 -122v-181h296q-3 -11 -3 -22h-293v-213q0 -85 1 -121q39 -1 149 -1q108 0 205 3q-5 -17 -5 -27q-86 3 -193 3q-111 0 -182 -4q2 48 2 244v32
h-263l-60 -92l-114 -181h-32zM469 462q0 96 -2 204l-246 -371h248v167zM600 918l38 4l-114 -142l-21 -1z" />
    <glyph glyph-name="aeacute" unicode="&#x1fd;" horiz-adv-x="795" 
d="M744 248l-18 -13l-348 -8q-3 -102 49.5 -160t139.5 -58q86 0 163 65l-2 -27q-75 -60 -167 -60q-71 0 -124 43t-70 113q-14 -67 -63.5 -109.5t-116.5 -42.5q-63 0 -100 33.5t-37 84.5q0 60 51 100t166 40q13 0 44.5 -0.5t45.5 -0.5l1 24q2 78 -33 118.5t-99 40.5
q-67 0 -135 -43l-7 22q73 43 142 43q63 0 104 -35t47 -105q24 64 74 102t117 38q82 0 129 -57.5t47 -147.5zM190 12q68 0 115.5 50.5t49.5 123.5l1 42h-90q-105 0 -148.5 -33t-43.5 -84q0 -43 30 -71t86 -28zM380 248l341 8q-4 82 -46 128.5t-112 46.5q-72 0 -122.5 -53.5
t-60.5 -129.5zM457 678l38 4l-114 -142l-21 -1z" />
    <glyph glyph-name="Oslashacute" unicode="&#x1fe;" horiz-adv-x="825" 
d="M730 708q-40 -44 -72 -84q102 -104 102 -255q0 -164 -100.5 -275.5t-256.5 -111.5q-129 0 -221 82l-78 -89l-20 12q74 82 82 92q-101 103 -101 254q0 164 101 275.5t257 111.5q127 0 219 -81q45 52 68 82zM403 4q146 0 239.5 104.5t93.5 257.5q0 145 -94 241l-446 -525
q84 -78 207 -78zM89 336q0 -142 92 -239l446 525q-86 76 -204 76q-146 0 -240 -104.5t-94 -257.5zM477 923l38 4l-114 -142l-21 -1z" />
    <glyph glyph-name="oslashacute" unicode="&#x1ff;" horiz-adv-x="552" 
d="M498 459q-8 -8 -32.5 -35t-29.5 -32q62 -64 62 -161q0 -106 -63 -175t-166 -69q-88 0 -146 53q-35 -36 -67 -75l-18 13q3 4 30 33t40 44q-54 62 -54 154q0 105 63 174.5t165 69.5q81 0 139 -47q15 18 35.5 41t24.5 28q13 -13 17 -16zM475 227q0 93 -54 147l-283 -316
q54 -49 135 -49q89 0 145.5 63t56.5 155zM77 214q0 -86 47 -141l281 316q-53 42 -127 42q-88 0 -144.5 -63.5t-56.5 -153.5zM332 678l38 4l-114 -142l-21 -1z" />
    <glyph glyph-name="Scommaaccent" unicode="&#x218;" horiz-adv-x="507" 
d="M452 172q0 -76 -58 -133t-158 -57q-105 0 -191 54l3 27q84 -59 188 -59q91 0 142 49.5t51 116.5q0 43 -26.5 77t-66 55.5t-85.5 45.5t-85.5 46.5t-66 59t-26.5 82.5q0 77 55.5 130.5t149.5 53.5q82 0 156 -44l-8 -22q-74 44 -148 44q-84 0 -133 -46t-49 -114
q0 -42 26.5 -76t66 -55t85.5 -45t85.5 -46.5t66 -60t26.5 -83.5zM216 -208l9 11q29 36 29 62q0 23 -26 31l-10 3q3 30 29 30q30 0 30 -46q0 -45 -50 -101z" />
    <glyph glyph-name="scommaaccent" unicode="&#x219;" horiz-adv-x="389" 
d="M201 452q59 0 115 -30l-9 -24q-50 32 -107 32q-49 0 -81.5 -25t-32.5 -64q0 -32 25.5 -55t62 -37t73 -29t62 -40.5t25.5 -62.5q0 -60 -46 -94.5t-109 -34.5q-77 0 -134 33l3 28q62 -39 134 -39q52 0 89.5 28t37.5 77q0 32 -25.5 54.5t-62 37l-73 29t-62 41t-25.5 63.5
q0 49 40.5 80.5t99.5 31.5zM147 -208l9 11q29 36 29 62q0 23 -26 31l-10 3q3 30 29 30q30 0 30 -46q0 -45 -50 -101z" />
    <glyph glyph-name="schwa" unicode="&#x259;" horiz-adv-x="500" 
d="M51 192l18 13l354 8q3 101 -50.5 159.5t-141.5 58.5q-89 0 -166 -65l2 27q75 60 170 60q91 0 150 -62t59 -159q0 -105 -60.5 -175t-156.5 -70q-84 0 -131 57t-47 148zM421 192l-347 -8q4 -82 46 -128.5t114 -46.5q74 0 125.5 53t61.5 130z" />
    <glyph glyph-name="circumflex" unicode="&#x2c6;" horiz-adv-x="401" 
d="M198 682h11l116 -136l-19 -4l-104 110l-103 -105h-23z" />
    <glyph glyph-name="caron" unicode="&#x2c7;" horiz-adv-x="401" 
d="M203 542h-11l-116 136l19 4l104 -110l103 105h23z" />
    <glyph glyph-name="breve" unicode="&#x2d8;" horiz-adv-x="375" 
d="M298 679l21 2q2 -61 -33.5 -96.5t-100.5 -35.5q-56 0 -92.5 35.5t-36.5 87.5l21 3q0 -46 31.5 -76t78.5 -30q52 0 82.5 30.5t28.5 79.5z" />
    <glyph glyph-name="dotaccent" unicode="&#x2d9;" horiz-adv-x="196" 
d="M123 594q0 -11 -7 -18t-19 -7q-10 0 -17 7t-7 17t7 17t19 7q11 0 17.5 -7t6.5 -16z" />
    <glyph glyph-name="ring" unicode="&#x2da;" horiz-adv-x="299" 
d="M247 643q0 -44 -28.5 -74.5t-72.5 -30.5q-42 0 -69 28t-27 67q0 45 28 74.5t73 29.5q42 0 69 -27.5t27 -66.5zM226 642q0 32 -20.5 53.5t-54.5 21.5q-36 0 -58 -23.5t-22 -59.5q0 -31 20.5 -53.5t55.5 -22.5t57 24t22 60z" />
    <glyph glyph-name="ogonek" unicode="&#x2db;" horiz-adv-x="290" 
d="M191 12l10 -12q-103 -76 -103 -130q0 -12 8 -21t24 -9q36 0 67 27l-2 -24q-30 -24 -68 -24q-25 0 -39 14t-14 35q0 61 117 144z" />
    <glyph glyph-name="tilde" unicode="&#x2dc;" horiz-adv-x="400" 
d="M55 572q19 86 74 86q26 0 75 -32t68 -32q35 0 54 69l19 -4q-19 -86 -74 -86q-26 0 -75 32t-68 32q-35 0 -54 -69z" />
    <glyph glyph-name="hungarumlaut" unicode="&#x2dd;" horiz-adv-x="420" 
d="M141 686l35 4l-73 -155l-18 -1zM269 686l35 4l-79 -152l-18 -1z" />
    <glyph glyph-name="commaaccent" unicode="&#x326;" horiz-adv-x="223" 
d="M85 -208l9 11q29 36 29 62q0 23 -26 31l-10 3q3 30 29 30q30 0 30 -46q0 -45 -50 -101z" />
    <glyph glyph-name="baht" unicode="&#xe3f;" horiz-adv-x="572" 
d="M265 0h-70q-6 -24 -16 -68.5t-13 -57.5q-7 4 -22 7l30 119h-67q2 48 2 235v214q0 189 -2 235q75 3 139 3q40 0 82 -7q2 8 10.5 43.5t16.5 74.5q10 -5 22 -7q0 -1 -28 -115q124 -32 124 -149q0 -63 -37.5 -108t-109.5 -59q90 -12 135.5 -58.5t45.5 -113.5
q0 -89 -65.5 -138.5t-176.5 -49.5zM273 347q-5 -20 -31.5 -139.5t-41.5 -184.5h66q101 0 160 42.5t59 118.5q0 69 -53 112.5t-159 50.5zM132 370h117h9q57 257 64 287q-40 7 -79 7q-31 0 -67 -1t-44 -1v-292zM343 653q-28 -113 -65 -282q84 6 127.5 48.5t43.5 103.5
q0 102 -106 130zM133 26l47 -3q36 149 73 325h-13q-50 0 -108 -2v-206q0 -87 1 -114z" />
    <glyph glyph-name="Wgrave" unicode="&#x1e80;" horiz-adv-x="990" 
d="M961 704l-165 -500q-18 -56 -41.5 -125t-31.5 -95l-12 -4l-212 669l-149 -453q-68 -205 -70 -214h-11l-183 555l-56 163l27 4l218 -662l161 486l57 177l13 4l212 -669l157 483l58 181h28zM396 919l34 2l97 -140l-18 -2z" />
    <glyph glyph-name="wgrave" unicode="&#x1e81;" horiz-adv-x="682" 
d="M187 -20q-9 31 -35 106l-76 219q-34 98 -51 139l25 5l143 -415l59 176q59 166 80 234l15 2l138 -412l62 173q66 185 82 237q16 -1 27 1l-166 -463l-11 -3q-1 6 -47 140l-92 278l-143 -414zM235 679l34 2l97 -140l-18 -2z" />
    <glyph glyph-name="Wacute" unicode="&#x1e82;" horiz-adv-x="990" 
d="M961 704l-165 -500q-18 -56 -41.5 -125t-31.5 -95l-12 -4l-212 669l-149 -453q-68 -205 -70 -214h-11l-183 555l-56 163l27 4l218 -662l161 486l57 177l13 4l212 -669l157 483l58 181h28zM565 918l38 4l-114 -142l-21 -1z" />
    <glyph glyph-name="wacute" unicode="&#x1e83;" horiz-adv-x="682" 
d="M187 -20q-9 31 -35 106l-76 219q-34 98 -51 139l25 5l143 -415l59 176q59 166 80 234l15 2l138 -412l62 173q66 185 82 237q16 -1 27 1l-166 -463l-11 -3q-1 6 -47 140l-92 278l-143 -414zM404 678l38 4l-114 -142l-21 -1z" />
    <glyph glyph-name="Wdieresis" unicode="&#x1e84;" horiz-adv-x="990" 
d="M961 704l-165 -500q-18 -56 -41.5 -125t-31.5 -95l-12 -4l-212 669l-149 -453q-68 -205 -70 -214h-11l-183 555l-56 163l27 4l218 -662l161 486l57 177l13 4l212 -669l157 483l58 181h28zM600 834q0 -11 -7 -18t-19 -7q-10 0 -17 7t-7 17t7 17t19 7q11 0 17.5 -7t6.5 -16
zM452 834q0 -11 -7 -18t-19 -7q-10 0 -17 7t-7 17t7 17t19 7q11 0 17.5 -7t6.5 -16z" />
    <glyph glyph-name="wdieresis" unicode="&#x1e85;" horiz-adv-x="682" 
d="M187 -20q-9 31 -35 106l-76 219q-34 98 -51 139l25 5l143 -415l59 176q59 166 80 234l15 2l138 -412l62 173q66 185 82 237q16 -1 27 1l-166 -463l-11 -3q-1 6 -47 140l-92 278l-143 -414zM291 594q0 -11 -7 -18t-19 -7q-10 0 -17 7t-7 17t7 17t19 7q11 0 17.5 -7
t6.5 -16zM439 594q0 -11 -7 -18t-19 -7q-10 0 -17 7t-7 17t7 17t19 7q11 0 17.5 -7t6.5 -16z" />
    <glyph glyph-name="Ygrave" unicode="&#x1ef2;" horiz-adv-x="584" 
d="M20 701l27 5l246 -378l103 159l139 217h29l-261 -400v-160q0 -116 1 -144h-27q3 72 3 231v73l-110 170zM187 919l34 2l97 -140l-18 -2z" />
    <glyph glyph-name="ygrave" unicode="&#x1ef3;" horiz-adv-x="439" 
d="M115 -216l97 233q-7 19 -39 90l-88 204q-26 62 -60 133l25 5l174 -403l68 164q5 12 42.5 104t50.5 130q23 0 28 1l-223 -540l-48 -120zM119 679l34 2l97 -140l-18 -2z" />
    <glyph glyph-name="enspace" unicode="&#x2002;" horiz-adv-x="500" 
 />
    <glyph glyph-name="emspace" unicode="&#x2003;" horiz-adv-x="1000" 
 />
    <glyph glyph-name="threeperemspace" unicode="&#x2004;" horiz-adv-x="333" 
 />
    <glyph glyph-name="fourperemspace" unicode="&#x2005;" horiz-adv-x="250" 
 />
    <glyph glyph-name="figurespace" unicode="&#x2007;" horiz-adv-x="560" 
 />
    <glyph glyph-name="thinspace" unicode="&#x2009;" horiz-adv-x="133" 
 />
    <glyph glyph-name="hairspace" unicode="&#x200a;" horiz-adv-x="75" 
 />
    <glyph glyph-name="endash" unicode="&#x2013;" horiz-adv-x="471" 
d="M436 294q-2 -6 -4 -24q-24 0 -72.5 0.5t-71.5 0.5h-110q-28 0 -73 -0.5t-64 -0.5q2 12 2 24q108 -2 196 -2q133 0 197 2z" />
    <glyph glyph-name="emdash" unicode="&#x2014;" horiz-adv-x="877" 
d="M836 294q-2 -6 -4 -24q-41 0 -128 0.5t-126 0.5h-290q-52 0 -132 -0.5t-115 -0.5q2 12 2 24q228 -2 396 -2q273 0 397 2z" />
    <glyph glyph-name="quoteleft" unicode="&#x2018;" horiz-adv-x="148" 
d="M106 719l12 -11l-20 -20q-45 -45 -45 -91q0 -26 34 -36l11 -3q-8 -34 -33 -34q-16 0 -25.5 16.5t-9.5 39.5q0 71 76 139z" />
    <glyph glyph-name="quoteright" unicode="&#x2019;" horiz-adv-x="148" 
d="M42 514l-12 11l20 20q45 45 45 91q0 26 -34 36l-11 3q8 34 33 34q16 0 25.5 -16.5t9.5 -39.5q0 -71 -76 -139z" />
    <glyph glyph-name="quotesinglbase" unicode="&#x201a;" horiz-adv-x="148" 
d="M42 -161l-12 11l20 20q45 45 45 91q0 26 -34 36l-11 3q8 34 33 34q16 0 25.5 -16.5t9.5 -39.5q0 -71 -76 -139z" />
    <glyph glyph-name="quotedblleft" unicode="&#x201c;" horiz-adv-x="273" 
d="M231 719l12 -11l-20 -20q-45 -45 -45 -91q0 -26 34 -36l11 -3q-8 -34 -33 -34q-16 0 -25.5 16.5t-9.5 39.5q0 71 76 139zM106 719l12 -11l-20 -20q-45 -45 -45 -91q0 -26 34 -36l11 -3q-8 -34 -33 -34q-16 0 -25.5 16.5t-9.5 39.5q0 71 76 139z" />
    <glyph glyph-name="quotedblright" unicode="&#x201d;" horiz-adv-x="273" 
d="M42 514l-12 11l20 20q45 45 45 91q0 26 -34 36l-11 3q8 34 33 34q16 0 25.5 -16.5t9.5 -39.5q0 -71 -76 -139zM167 514l-12 11l20 20q45 45 45 91q0 26 -34 36l-11 3q8 34 33 34q16 0 25.5 -16.5t9.5 -39.5q0 -71 -76 -139z" />
    <glyph glyph-name="quotedblbase" unicode="&#x201e;" horiz-adv-x="273" 
d="M42 -161l-12 11l20 20q45 45 45 91q0 26 -34 36l-11 3q8 34 33 34q16 0 25.5 -16.5t9.5 -39.5q0 -71 -76 -139zM167 -161l-12 11l20 20q45 45 45 91q0 26 -34 36l-11 3q8 34 33 34q16 0 25.5 -16.5t9.5 -39.5q0 -71 -76 -139z" />
    <glyph glyph-name="dagger" unicode="&#x2020;" horiz-adv-x="508" 
d="M457 506l-3 -26q-36 2 -64 2l-63 1h-63l1 -358q0 -83 2 -145h-29q2 59 4 241l1 262h-76l-48 -1l-68 -2l4 27q7 -1 54 -3l87 -2h47q0 177 -4 225q12 1 29 5q-2 -57 -3 -147l-1 -83h51l96 2q22 0 46 2z" />
    <glyph glyph-name="daggerdbl" unicode="&#x2021;" horiz-adv-x="508" 
d="M265 585l-1 -83q33 0 147 2q22 0 46 2l-3 -26q-36 2 -64 2q-83 1 -126 1v-258q33 0 147 2q22 0 46 2l-3 -26q-36 2 -64 2q-83 1 -126 1v-61q0 -60 3 -165h-29q4 87 5 226q-41 0 -124 -1l-68 -2l4 27q7 -1 54 -3q70 -2 134 -2v258q-41 0 -124 -1l-68 -2l4 27q7 -1 54 -3
q70 -2 134 -2v74q0 91 -4 151q12 1 29 5q-2 -57 -3 -147z" />
    <glyph glyph-name="bullet" unicode="&#x2022;" horiz-adv-x="366" 
d="M276 347q0 -41 -27.5 -70.5t-67.5 -29.5q-38 0 -64.5 27.5t-26.5 65.5q0 41 28 70.5t67 29.5q38 0 64.5 -27.5t26.5 -65.5z" />
    <glyph glyph-name="ellipsis" unicode="&#x2026;" horiz-adv-x="450" 
d="M100 12q0 -11 -7 -18t-19 -7q-10 0 -17 7t-7 17t7 17t19 7q11 0 17.5 -7t6.5 -16zM250 12q0 -11 -7 -18t-19 -7q-10 0 -17 7t-7 17t7 17t19 7q11 0 17.5 -7t6.5 -16zM400 12q0 -11 -7 -18t-19 -7q-10 0 -17 7t-7 17t7 17t19 7q11 0 17.5 -7t6.5 -16z" />
    <glyph glyph-name="guilsinglleft" unicode="&#x2039;" horiz-adv-x="303" 
d="M221 447q20 0 28 2q-5 -6 -178 -227q44 -61 179 -224l-21 -10q-138 170 -184 233l1 4q22 29 87 110.5t88 111.5z" />
    <glyph glyph-name="guilsinglright" unicode="&#x203a;" horiz-adv-x="303" 
d="M81 -12q-18 0 -28 -2q45 59 179 230q-18 25 -41 54.5t-40.5 50.5t-49 58.5t-48.5 57.5l20 10q151 -183 185 -230v-4q-142 -179 -177 -225z" />
    <glyph glyph-name="fraction" unicode="&#x2044;" horiz-adv-x="186" 
d="M-167 -10l-16 14q97 124 122 157l294 384q86 113 115 155l20 -11q-18 -22 -89 -117l-372 -486q-10 -14 -21.5 -28.5t-26.5 -34t-26 -33.5z" />
    <glyph glyph-name="zero.sup" unicode="&#x2070;" 
d="M189 833q64 0 100 -53.5t36 -133.5q0 -86 -38 -141t-103 -55q-64 0 -100 53.5t-36 133.5q0 86 38 141t103 55zM186 470q52 0 84 49.5t32 123.5q0 75 -30.5 122.5t-84.5 47.5q-52 0 -84 -49.5t-32 -123.5q0 -75 30.5 -122.5t84.5 -47.5z" />
    <glyph glyph-name="four.sup" unicode="&#x2074;" 
d="M239 460q2 19 2 79v19h-53q-101 0 -144 -2l-6 15l163 209l41 52l20 -2q0 -1 -0.5 -36.5t-0.5 -37.5v-179q14 0 39 0.5t38 0.5q-3 -11 -4 -21q-11 0 -35.5 0.5t-37.5 0.5v-37q0 -10 0.5 -32.5t0.5 -28.5h-23zM241 801l-175 -224h175v224z" />
    <glyph glyph-name="five.sup" unicode="&#x2075;" 
d="M60 468l-3 23q47 -18 97 -18q58 0 94.5 25t36.5 66q0 87 -141 87q-24 0 -65 -6l-3 3q4 53 4 58l3 50q2 44 2 65l4 3h109q72 0 107 1q-1 -3 -4 -22q-37 1 -101 1q-68 0 -93 -1l-8 -136q24 3 51 3q74 0 116 -27.5t42 -78.5q0 -50 -42.5 -80.5t-110.5 -30.5q-50 0 -95 15z
" />
    <glyph glyph-name="six.sup" unicode="&#x2076;" 
d="M288 818q-93 -18 -150.5 -74t-65.5 -136q15 33 50 55t79 22q55 0 90 -31t35 -79q0 -51 -40 -87.5t-98 -36.5q-61 0 -98.5 37t-37.5 101q0 92 63.5 160.5t167.5 86.5zM303 575q0 40 -28.5 65.5t-76.5 25.5q-49 0 -84.5 -29.5t-35.5 -70.5q0 -39 31 -67.5t79 -28.5
q49 0 82 31t33 74z" />
    <glyph glyph-name="seven.sup" unicode="&#x2077;" 
d="M55 825q78 -2 127 -2q52 0 136 2l8 -11l-30 -52l-134 -235q-30 -50 -38 -68l-26 4q25 37 57 94l141 246h-117h-127q3 9 3 22z" />
    <glyph glyph-name="eight.sup" unicode="&#x2078;" 
d="M184 451q-58 0 -94.5 26.5t-36.5 69.5q0 69 107 104q-94 29 -94 91q0 38 34.5 65t89.5 27q53 0 87 -26t34 -64q0 -62 -98 -93q108 -35 108 -100q0 -43 -38.5 -71.5t-98.5 -28.5zM298 551q0 60 -114 90q-108 -29 -108 -93q0 -34 30.5 -55.5t78.5 -21.5q50 0 81.5 23
t31.5 57zM89 743q0 -30 24.5 -49.5t76.5 -33.5q98 25 98 83q0 31 -28 51t-71 20q-45 0 -72.5 -20.5t-27.5 -50.5z" />
    <glyph glyph-name="nine.sup" unicode="&#x2079;" 
d="M91 451l-5 18q93 17 150 73t65 136q-14 -33 -49.5 -55t-78.5 -22q-55 0 -90 31.5t-35 79.5q0 51 40 87.5t98 36.5q61 0 98.5 -37t37.5 -101q0 -92 -63.5 -160.5t-167.5 -86.5zM71 712q0 -40 28.5 -65.5t76.5 -25.5q49 0 84.5 29.5t35.5 70.5q0 39 -31 67t-79 28
q-50 0 -82.5 -30.5t-32.5 -73.5z" />
    <glyph glyph-name="zero.inf" unicode="&#x2080;" 
d="M189 166q64 0 100 -53.5t36 -133.5q0 -86 -38 -141t-103 -55q-64 0 -100 53.5t-36 133.5q0 86 38 141t103 55zM186 -197q52 0 84 49.5t32 123.5q0 75 -30.5 122.5t-84.5 47.5q-52 0 -84 -49.5t-32 -123.5q0 -75 30.5 -122.5t84.5 -47.5z" />
    <glyph glyph-name="one.inf" unicode="&#x2081;" horiz-adv-x="280" 
d="M150 138l-82 -26l-5 20q19 5 77 24l29 9l4 -2q0 -2 -0.5 -33t-0.5 -33v-234q0 -56 1 -70h-24q1 23 1 116v229z" />
    <glyph glyph-name="two.inf" unicode="&#x2082;" 
d="M73 95l-12 17q59 54 129 54q52 0 84 -26.5t32 -71.5q0 -34 -19.5 -62.5t-72.5 -78.5q-30 -26 -133 -113q161 0 236 2q0 -1 -1.5 -10t-1.5 -13q-80 2 -133 2q-50 0 -130 -2l-5 15q145 124 157 135q44 41 62 68.5t18 55.5q0 36 -25 57.5t-69 21.5q-59 0 -116 -51z" />
    <glyph glyph-name="three.inf" unicode="&#x2083;" 
d="M57 -196l-3 23q53 -21 110 -21q56 0 91.5 23t35.5 59q0 79 -165 84l-4 16q160 21 160 94q0 28 -25 45.5t-69 17.5q-61 0 -117 -33l-9 17q61 36 125 36q54 0 86 -23t32 -60q0 -71 -131 -98q68 -5 104 -30t36 -66q0 -44 -42.5 -73t-107.5 -29q-54 0 -107 18z" />
    <glyph glyph-name="four.inf" unicode="&#x2084;" 
d="M239 -207q2 19 2 79v19h-53q-101 0 -144 -2l-6 15l163 209l41 52l20 -2q0 -1 -0.5 -36.5t-0.5 -37.5v-179q14 0 39 0.5t38 0.5q-3 -11 -4 -21q-23 1 -73 1v-37q0 -10 0.5 -32.5t0.5 -28.5h-23zM241 134l-175 -224h175v224z" />
    <glyph glyph-name="five.inf" unicode="&#x2085;" 
d="M60 -199l-3 23q47 -18 97 -18q58 0 94.5 25t36.5 66q0 87 -141 87q-24 0 -65 -6l-3 3q4 53 4 58l3 50q2 44 2 65l4 3h109q72 0 107 1q-1 -3 -4 -22q-37 1 -101 1q-68 0 -93 -1l-8 -136q24 3 51 3q74 0 116 -27.5t42 -78.5q0 -50 -42.5 -80.5t-110.5 -30.5q-50 0 -95 15z
" />
    <glyph glyph-name="six.inf" unicode="&#x2086;" 
d="M288 151q-93 -18 -150.5 -74t-65.5 -135q15 33 50 54.5t79 21.5q55 0 90 -31t35 -79q0 -51 -40 -87.5t-98 -36.5q-61 0 -98.5 37t-37.5 101q0 92 63.5 160.5t167.5 86.5zM303 -92q0 40 -28.5 65.5t-76.5 25.5q-49 0 -84.5 -29.5t-35.5 -70.5q0 -39 31 -67.5t79 -28.5
q49 0 82 31t33 74z" />
    <glyph glyph-name="seven.inf" unicode="&#x2087;" 
d="M55 158q78 -2 127 -2q52 0 136 2l8 -11l-30 -52l-134 -235q-30 -50 -38 -68l-26 4q25 37 57 94l141 246h-117h-127q3 9 3 22z" />
    <glyph glyph-name="eight.inf" unicode="&#x2088;" 
d="M184 -216q-58 0 -94.5 26.5t-36.5 69.5q0 69 107 104q-94 29 -94 91q0 38 34.5 65t89.5 27q53 0 87 -26t34 -64q0 -62 -98 -93q108 -34 108 -100q0 -43 -38.5 -71.5t-98.5 -28.5zM298 -116q0 61 -114 91q-108 -31 -108 -94q0 -34 30.5 -55.5t78.5 -21.5q50 0 81.5 23
t31.5 57zM89 76q0 -30 24.5 -49.5t76.5 -33.5q98 25 98 83q0 31 -28 51t-71 20q-45 0 -72.5 -20.5t-27.5 -50.5z" />
    <glyph glyph-name="nine.inf" unicode="&#x2089;" 
d="M91 -216l-5 18q93 18 150 74t65 135q-14 -33 -49.5 -55t-78.5 -22q-55 0 -90 31.5t-35 79.5q0 51 40 87.5t98 36.5q61 0 98.5 -37t37.5 -101q0 -92 -63.5 -160.5t-167.5 -86.5zM71 45q0 -40 28.5 -65.5t76.5 -25.5q49 0 84.5 29.5t35.5 70.5q0 39 -31 67t-79 28
q-50 0 -82.5 -30.5t-32.5 -73.5z" />
    <glyph glyph-name="colonmonetary" unicode="&#x20a1;" horiz-adv-x="685" 
d="M136 -99q-6 4 -21 11q14 32 34 78t32 72q-115 103 -115 271q0 156 98.5 261.5t252.5 105.5q21 0 31 -1l45 106q14 -8 22 -10l-44 -99q72 -10 132 -47q12 28 50 119q17 -10 22 -11q-101 -224 -192 -448q-51 -125 -126 -302q21 -3 45 -3q129 0 214 77l-1 -29
q-90 -70 -214 -70q-19 0 -53 4l-52 -122q-6 4 -21 11l51 115q-71 15 -127 57q-5 -12 -28 -64t-35 -82zM90 339q0 -159 101 -254q11 26 31 72l185 442q18 46 32 78q-8 1 -23 1q-143 0 -234.5 -99t-91.5 -240zM208 70q57 -46 127 -60l47 110l184 443q14 31 27 65
q-58 37 -131 47q-72 -169 -138 -329q-95 -228 -116 -276z" />
    <glyph glyph-name="naira" unicode="&#x20a6;" horiz-adv-x="835" 
d="M790 451q-2 -7 -4 -23q-28 0 -58.5 0.5t-40.5 0.5v-174q10 0 40.5 0.5t58.5 0.5q2 -16 4 -23q-35 1 -103 1v-94q0 -128 1 -155l-11 -3l-192 253h-72q-174 0 -240 -1v-94q0 -20 0.5 -74t0.5 -66h-25q2 60 2 210v24q-17 0 -51 -0.5t-53 -0.5q0 11 -2 23q23 0 57 -0.5
t49 -0.5v174q-16 0 -49 -0.5t-57 -0.5q2 12 2 23q19 0 53 -0.5t51 -0.5q0 202 -3 249l11 3l191 -253h63q167 0 252 1v30q0 152 -2 204q16 0 25 3q-1 -28 -1 -142v-95q69 0 103 1zM497 255h168v174h-300zM173 255h297l-132 174h-165v-174zM665 234q-25 0 -76 0.5t-77 0.5
l153 -203v202zM173 450q43 -1 150 -1l-150 199v-198z" />
    <glyph glyph-name="rupee" unicode="&#x20a8;" horiz-adv-x="974" 
d="M546 -1l-26 -7l-213 325q-13 -1 -35 -1h-130v-176q0 -113 1 -140h-26q2 46 2 234v214q0 189 -2 236q147 3 155 3q103 0 158 -49.5t55 -125.5q0 -72 -42 -122t-111 -67l116 -177q38 -59 98 -147zM142 338h137q83 0 133 50.5t50 119.5q0 71 -50.5 113.5t-146.5 42.5
q-89 0 -123 -2v-324zM761 452q59 0 115 -30l-9 -24q-50 32 -107 32q-49 0 -81.5 -25t-32.5 -64q0 -32 25.5 -55t62 -37t73 -29t62 -40.5t25.5 -62.5q0 -60 -46 -94.5t-109 -34.5q-77 0 -134 33l3 28q62 -39 134 -39q52 0 89.5 28t37.5 77q0 32 -25.5 54.5t-62 37l-73 29
t-62 41t-25.5 63.5q0 49 40.5 80.5t99.5 31.5z" />
    <glyph glyph-name="won" unicode="&#x20a9;" horiz-adv-x="1077" 
d="M1026 452v-22h-118l-58 -174q32 0 93 0.5t84 0.5q-1 -8 -1 -22q-100 2 -182 2l-12 -36q-69 -211 -71 -217l-11 -4l-81 257h-259l-14 -44q-62 -186 -68 -211h-11l-84 254q-36 0 -97 -0.5t-84 -0.5q0 10 -2 22q23 0 83 -0.5t94 -0.5l-58 174h-119q2 12 2 22q15 0 52 -0.5
t58 -0.5l-24 74l-54 159l25 4l78 -237q83 -1 272 -1l22 66l55 173l12 4l77 -243q174 0 265 1l20 60l55 173h28l-78 -233q18 0 55 0.5t56 0.5zM453 431q-64 0 -148 -0.5t-111 -0.5l57 -174h144zM883 430q-31 0 -113 0.5t-139 0.5l55 -175h141zM475 431l-58 -175h246l-56 175
h-132zM258 236l65 -198l65 199q-23 0 -66 -0.5t-64 -0.5zM692 237l64 -201l65 201h-129zM543 635l-62 -185h120z" />
    <glyph glyph-name="sheqel" unicode="&#x20aa;" horiz-adv-x="662" 
d="M273 112l-59 180l26 -6l55 -168q29 -94 136 -94h127l-1 315q0 108 -1 140h26q-2 -78 -2 -204v-275h-150q-122 0 -157 112zM405 197q1 50 1 153q0 47 -29 76.5t-80 29.5h-192v-343q0 -77 1 -113h-26q2 86 2 180v299h216q65 0 98 -34.5t33 -93.5v-26q0 -19 0.5 -67.5
t0.5 -60.5h-25z" />
    <glyph glyph-name="Euro" unicode="&#x20ac;" horiz-adv-x="650" 
d="M295 254q133 0 197 2q-2 -7 -4 -23q-32 0 -98 0.5t-96 0.5h-146q24 -102 95.5 -166t175.5 -64q111 0 186 64l-1 -29q-79 -57 -186 -57q-113 0 -191.5 70.5t-102.5 181.5q-20 0 -55 -0.5t-52 -0.5q2 12 2 23q66 -2 101 -2q-5 35 -5 66q0 34 7 79q-17 0 -50.5 -0.5
t-48.5 -0.5q2 12 2 23q62 -2 101 -2q27 113 107.5 183.5t191.5 70.5q97 0 169 -52l-8 -21q-66 51 -163 51q-101 0 -175 -65t-99 -167h160q133 0 197 2q-2 -7 -4 -23q-32 0 -98 0.5t-96 0.5h-163q-7 -34 -7 -73q0 -38 6 -72h151z" />
    <glyph glyph-name="peso" unicode="&#x20b1;" horiz-adv-x="588" 
d="M22 503q30 0 61.5 -0.5t41.5 -0.5q0 110 -2 182q93 3 116 3q114 0 174 -49t62 -137q17 0 93 2q-2 -7 -4 -23q-23 0 -51.5 0.5t-38.5 0.5q-5 -88 -72.5 -138.5t-201.5 -50.5q-15 1 -52 1v-153q0 -113 1 -140h-26q2 47 2 234v209v38q-15 0 -47 -0.5t-58 -0.5q2 12 2 23z
M148 502q8 0 53 -0.5t89 -0.5h162q-7 163 -219 163q-33 0 -85 -2v-160zM452 481h-304v-164q18 -2 56 -2q122 0 183 45.5t65 120.5z" />
    <glyph glyph-name="numero" unicode="&#x2116;" horiz-adv-x="1172" 
d="M1101 489q0 -86 -50 -143.5t-130 -57.5q-75 0 -122.5 53.5t-47.5 129.5q0 86 50.5 143.5t130.5 57.5q76 0 122.5 -53t46.5 -130zM932 651q-71 0 -115 -51t-44 -128q0 -68 41 -115.5t107 -47.5q71 0 114.5 51t43.5 128q0 69 -40 116t-107 47zM118 -1q2 45 2 226v207
q0 195 -3 240l12 2l485 -639l2 397q0 136 -4 226q17 0 26 3q-1 -27 -1 -137v-390q0 -123 1 -149l-12 -3l-484 638v-486q0 -19 0.5 -71t0.5 -64h-25zM1107 208q-2 -7 -4 -23q-29 0 -88 0.5t-86 0.5q-37 0 -96 -0.5t-84 -0.5q2 12 2 23q96 -2 179 -2q119 0 177 2z" />
    <glyph glyph-name="published" unicode="&#x2117;" horiz-adv-x="858" 
d="M798 351q0 -153 -108 -261t-261 -108t-261 108t-108 261t108 261t261 108t261 -108t108 -261zM774 351q0 143 -101 245t-244 102t-244 -102t-101 -245t101 -245t244 -102t244 102t101 245zM374 520v-175q22 -2 33 -2q68 0 101 24.5t33 67.5q0 86 -121 86q-32 0 -46 -1z
M374 254q0 -68 1 -84h-25q2 24 2 121v126q0 99 -2 123q38 2 70 2q70 0 106.5 -28t36.5 -79t-39.5 -82t-116.5 -31q-11 0 -33 2v-70z" />
    <glyph glyph-name="servicemark" unicode="&#x2120;" horiz-adv-x="802" 
d="M742 355l-23 -3l-10 80l-30 224l-128 -306l-7 -1q-7 12 -129 307l-30 -229q-1 -10 -5 -35.5t-5 -36.5h-22q2 12 8 52.5t9 62.5l18 141q12 81 14 106l8 2q12 -33 33 -79l104 -251l104 250q4 9 11.5 26t13 31t9.5 23h6q14 -96 14 -97l19 -146zM279 445q0 -40 -30.5 -69.5
t-81.5 -29.5q-53 0 -97 28l2 23q42 -31 96 -31q42 0 65.5 22.5t23.5 54.5q0 29 -27 51.5t-59.5 35.5t-59.5 37.5t-27 57.5q0 40 29 67.5t77 27.5q46 0 80 -23l-7 -19q-30 22 -73 22q-40 0 -62 -20.5t-22 -53.5q0 -28 27 -49.5t59.5 -34.5t59.5 -38t27 -59z" />
    <glyph glyph-name="trademark" unicode="&#x2122;" horiz-adv-x="826" 
d="M766 355l-23 -3l-10 80l-30 224l-128 -306l-7 -1q-7 12 -129 307l-30 -229q-1 -10 -5 -35.5t-5 -36.5h-22q2 12 8 52.5t9 62.5l18 141q12 81 14 106l8 2q12 -33 33 -79l104 -251l104 250q4 9 11.5 26t13 31t9.5 23h6q14 -96 14 -97l19 -146zM334 713q-2 -16 -2 -21h-134
v-265q0 -58 1 -72h-24q2 24 2 122v111q0 79 -1 104h-136q2 6 2 21q88 -2 145 -2q59 0 147 2z" />
    <glyph glyph-name="onethird" unicode="&#x2153;" horiz-adv-x="840" 
d="M167 672l-82 -26l-5 20q19 5 77 24l29 9l4 -2q0 -2 -0.5 -33t-0.5 -33v-234q0 -56 1 -70h-24q1 23 1 116v229zM103 -10l-16 14q97 124 122 157l294 384q86 113 115 155l20 -11q-18 -22 -89 -117l-372 -486q-10 -14 -21.5 -28.5t-26.5 -34t-26 -33.5zM508 11l-3 23
q53 -21 110 -21q56 0 91.5 23t35.5 59q0 79 -165 84l-4 16q160 21 160 94q0 28 -25 45.5t-69 17.5q-61 0 -117 -33l-9 17q61 36 125 36q54 0 86 -23t32 -60q0 -71 -131 -98q68 -5 104 -30t36 -66q0 -44 -42.5 -73t-107.5 -29q-55 0 -107 18z" />
    <glyph glyph-name="twothirds" unicode="&#x2154;" horiz-adv-x="934" 
d="M106 629l-12 17q59 54 129 54q52 0 84 -26.5t32 -71.5q0 -34 -19.5 -62.5t-72.5 -78.5q-30 -26 -133 -113q161 0 236 2q0 -1 -1.5 -10t-1.5 -13q-80 2 -133 2q-50 0 -130 -2l-5 15q145 124 157 135q44 41 62 68.5t18 55.5q0 36 -25 57.5t-69 21.5q-59 0 -116 -51z
M228 -10l-16 14q97 124 122 157l294 384q86 113 115 155l20 -11q-18 -22 -89 -117l-372 -486q-10 -14 -21.5 -28.5t-26.5 -34t-26 -33.5zM602 11l-3 23q53 -21 110 -21q56 0 91.5 23t35.5 59q0 79 -165 84l-4 16q160 21 160 94q0 28 -25 45.5t-69 17.5q-61 0 -117 -33l-9 17
q61 36 125 36q54 0 86 -23t32 -60q0 -71 -131 -98q68 -5 104 -30t36 -66q0 -44 -42.5 -73t-107.5 -29q-55 0 -107 18z" />
    <glyph glyph-name="onefifth" unicode="&#x2155;" horiz-adv-x="840" 
d="M511 8l-3 23q46 -18 97 -18q58 0 94.5 25t36.5 66q0 87 -141 87q-25 0 -65 -6l-3 3q4 53 4 58l3 50q2 44 2 65l4 3h109q72 0 107 1q-1 -3 -4 -22q-37 1 -101 1q-68 0 -93 -1l-8 -136q24 3 51 3q74 0 116 -27.5t42 -78.5q0 -50 -42.5 -80.5t-110.5 -30.5q-50 0 -95 15z
M110 -10l-16 14q97 124 122 157l294 384q86 113 115 155l20 -11q-18 -22 -89 -117l-372 -486q-10 -14 -21.5 -28.5t-26.5 -34t-26 -33.5zM167 672l-82 -26l-5 20q19 5 77 24l29 9l4 -2q0 -2 -0.5 -33t-0.5 -33v-234q0 -56 1 -70h-24q1 23 1 116v229z" />
    <glyph glyph-name="twofifths" unicode="&#x2156;" horiz-adv-x="934" 
d="M605 8l-3 23q46 -18 97 -18q58 0 94.5 25t36.5 66q0 87 -141 87q-25 0 -65 -6l-3 3q4 53 4 58l3 50q2 44 2 65l4 3h109q72 0 107 1q-1 -3 -4 -22q-37 1 -101 1q-68 0 -93 -1l-8 -136q24 3 51 3q74 0 116 -27.5t42 -78.5q0 -50 -42.5 -80.5t-110.5 -30.5q-50 0 -95 15z
M106 629l-12 17q59 54 129 54q52 0 84 -26.5t32 -71.5q0 -34 -19.5 -62.5t-72.5 -78.5q-30 -26 -133 -113q161 0 236 2q0 -1 -1.5 -10t-1.5 -13q-80 2 -133 2q-50 0 -130 -2l-5 15q145 124 157 135q44 41 62 68.5t18 55.5q0 36 -25 57.5t-69 21.5q-59 0 -116 -51zM231 -10
l-16 14q97 124 122 157l294 384q86 113 115 155l20 -11q-18 -22 -89 -117l-372 -486q-10 -14 -21.5 -28.5t-26.5 -34t-26 -33.5z" />
    <glyph glyph-name="threefifths" unicode="&#x2157;" horiz-adv-x="934" 
d="M605 8l-3 23q46 -18 97 -18q58 0 94.5 25t36.5 66q0 87 -141 87q-25 0 -65 -6l-3 3q4 53 4 58l3 50q2 44 2 65l4 3h109q72 0 107 1q-1 -3 -4 -22q-37 1 -101 1q-68 0 -93 -1l-8 -136q24 3 51 3q74 0 116 -27.5t42 -78.5q0 -50 -42.5 -80.5t-110.5 -30.5q-50 0 -95 15z
M89 338l-3 23q53 -21 110 -21q56 0 91.5 23t35.5 59q0 79 -165 84l-4 16q160 21 160 94q0 28 -25 45.5t-69 17.5q-61 0 -117 -33l-9 17q61 36 125 36q54 0 86 -23t32 -60q0 -71 -131 -98q68 -5 104 -30t36 -66q0 -44 -42.5 -73t-107.5 -29q-54 0 -107 18zM213 -10l-16 14
q97 124 122 157l294 384q86 113 115 155l20 -11q-18 -22 -89 -117l-372 -486q-10 -14 -21.5 -28.5t-26.5 -34t-26 -33.5z" />
    <glyph glyph-name="fourfifths" unicode="&#x2158;" horiz-adv-x="934" 
d="M264 327q2 19 2 79v19h-53q-101 0 -144 -2l-6 15l163 209l41 52l20 -2q0 -1 -0.5 -36.5t-0.5 -37.5v-179q14 0 39 0.5t38 0.5q-3 -11 -4 -21q-11 0 -35.5 0.5t-37.5 0.5v-37q0 -10 0.5 -32.5t0.5 -28.5h-23zM266 668l-175 -224h175v224zM605 8l-3 23q46 -18 97 -18
q58 0 94.5 25t36.5 66q0 87 -141 87q-25 0 -65 -6l-3 3q4 53 4 58l3 50q2 44 2 65l4 3h109q72 0 107 1q-1 -3 -4 -22q-37 1 -101 1q-68 0 -93 -1l-8 -136q24 3 51 3q74 0 116 -27.5t42 -78.5q0 -50 -42.5 -80.5t-110.5 -30.5q-50 0 -95 15zM220 -10l-16 14q97 124 122 157
l294 384q86 113 115 155l20 -11q-18 -22 -89 -117l-372 -486q-10 -14 -21.5 -28.5t-26.5 -34t-26 -33.5z" />
    <glyph glyph-name="onesixth" unicode="&#x2159;" horiz-adv-x="840" 
d="M735 358q-93 -18 -150.5 -74t-65.5 -136q15 33 50 55t79 22q55 0 90 -31t35 -79q0 -51 -40 -87.5t-98 -36.5q-61 0 -98.5 37t-37.5 101q0 92 63.5 160.5t167.5 86.5zM750 115q0 40 -28.5 65.5t-76.5 25.5q-49 0 -84.5 -29.5t-35.5 -70.5q0 -39 31 -67.5t79 -28.5
q49 0 82 31t33 74zM129 -10l-16 14q97 124 122 157l294 384q86 113 115 155l20 -11q-18 -22 -89 -117l-372 -486q-10 -14 -21.5 -28.5t-26.5 -34t-26 -33.5zM167 672l-82 -26l-5 20q19 5 77 24l29 9l4 -2q0 -2 -0.5 -33t-0.5 -33v-234q0 -56 1 -70h-24q1 23 1 116v229z" />
    <glyph glyph-name="fivesixths" unicode="&#x215a;" horiz-adv-x="934" 
d="M829 358q-93 -18 -150.5 -74t-65.5 -136q15 33 50 55t79 22q55 0 90 -31t35 -79q0 -51 -40 -87.5t-98 -36.5q-61 0 -98.5 37t-37.5 101q0 92 63.5 160.5t167.5 86.5zM844 115q0 40 -28.5 65.5t-76.5 25.5q-49 0 -84.5 -29.5t-35.5 -70.5q0 -39 31 -67.5t79 -28.5
q49 0 82 31t33 74zM80 335l-3 23q47 -18 97 -18q58 0 94.5 25t36.5 66q0 87 -141 87q-24 0 -65 -6l-3 3q4 53 4 58l3 50q2 44 2 65l4 3h109q72 0 107 1q-1 -3 -4 -22q-37 1 -101 1q-68 0 -93 -1l-8 -136q24 3 51 3q74 0 116 -27.5t42 -78.5q0 -50 -42.5 -80.5t-110.5 -30.5
q-50 0 -95 15zM225 -10l-16 14q97 124 122 157l294 384q86 113 115 155l20 -11q-18 -22 -89 -117l-372 -486q-10 -14 -21.5 -28.5t-26.5 -34t-26 -33.5z" />
    <glyph glyph-name="oneeighth" unicode="&#x215b;" horiz-adv-x="840" 
d="M635 -9q-58 0 -94.5 26.5t-36.5 69.5q0 69 107 104q-94 29 -94 91q0 38 34.5 65t89.5 27q53 0 87 -26t34 -64q0 -62 -98 -93q108 -35 108 -100q0 -43 -38.5 -71.5t-98.5 -28.5zM749 91q0 60 -114 90q-108 -29 -108 -93q0 -34 30.5 -55.5t78.5 -21.5q50 0 81.5 23t31.5 57
zM540 283q0 -30 24.5 -49.5t76.5 -33.5q98 25 98 83q0 31 -28 51t-71 20q-45 0 -72.5 -20.5t-27.5 -50.5zM117 -10l-16 14q97 124 122 157l294 384q86 113 115 155l20 -11q-18 -22 -89 -117l-372 -486q-10 -14 -21.5 -28.5t-26.5 -34t-26 -33.5zM167 672l-82 -26l-5 20
q19 5 77 24l29 9l4 -2q0 -2 -0.5 -33t-0.5 -33v-234q0 -56 1 -70h-24q1 23 1 116v229z" />
    <glyph glyph-name="threeeighths" unicode="&#x215c;" horiz-adv-x="934" 
d="M729 -9q-58 0 -94.5 26.5t-36.5 69.5q0 69 107 104q-94 29 -94 91q0 38 34.5 65t89.5 27q53 0 87 -26t34 -64q0 -62 -98 -93q108 -35 108 -100q0 -43 -38.5 -71.5t-98.5 -28.5zM843 91q0 60 -114 90q-108 -29 -108 -93q0 -34 30.5 -55.5t78.5 -21.5q50 0 81.5 23t31.5 57
zM634 283q0 -30 24.5 -49.5t76.5 -33.5q98 25 98 83q0 31 -28 51t-71 20q-45 0 -72.5 -20.5t-27.5 -50.5zM89 338l-3 23q53 -21 110 -21q56 0 91.5 23t35.5 59q0 79 -165 84l-4 16q160 21 160 94q0 28 -25 45.5t-69 17.5q-61 0 -117 -33l-9 17q61 36 125 36q54 0 86 -23
t32 -60q0 -71 -131 -98q68 -5 104 -30t36 -66q0 -44 -42.5 -73t-107.5 -29q-54 0 -107 18zM215 -10l-16 14q97 124 122 157l294 384q86 113 115 155l20 -11q-18 -22 -89 -117l-372 -486q-10 -14 -21.5 -28.5t-26.5 -34t-26 -33.5z" />
    <glyph glyph-name="fiveeighths" unicode="&#x215d;" horiz-adv-x="934" 
d="M729 -9q-58 0 -94.5 26.5t-36.5 69.5q0 69 107 104q-94 29 -94 91q0 38 34.5 65t89.5 27q53 0 87 -26t34 -64q0 -62 -98 -93q108 -35 108 -100q0 -43 -38.5 -71.5t-98.5 -28.5zM843 91q0 60 -114 90q-108 -29 -108 -93q0 -34 30.5 -55.5t78.5 -21.5q50 0 81.5 23t31.5 57
zM634 283q0 -30 24.5 -49.5t76.5 -33.5q98 25 98 83q0 31 -28 51t-71 20q-45 0 -72.5 -20.5t-27.5 -50.5zM80 335l-3 23q47 -18 97 -18q58 0 94.5 25t36.5 66q0 87 -141 87q-24 0 -65 -6l-3 3q4 53 4 58l3 50q2 44 2 65l4 3h109q72 0 107 1q-1 -3 -4 -22q-37 1 -101 1
q-68 0 -93 -1l-8 -136q24 3 51 3q74 0 116 -27.5t42 -78.5q0 -50 -42.5 -80.5t-110.5 -30.5q-50 0 -95 15zM210 -10l-16 14q97 124 122 157l294 384q86 113 115 155l20 -11q-18 -22 -89 -117l-372 -486q-10 -14 -21.5 -28.5t-26.5 -34t-26 -33.5z" />
    <glyph glyph-name="seveneighths" unicode="&#x215e;" horiz-adv-x="934" 
d="M729 -9q-58 0 -94.5 26.5t-36.5 69.5q0 69 107 104q-94 29 -94 91q0 38 34.5 65t89.5 27q53 0 87 -26t34 -64q0 -62 -98 -93q108 -35 108 -100q0 -43 -38.5 -71.5t-98.5 -28.5zM843 91q0 60 -114 90q-108 -29 -108 -93q0 -34 30.5 -55.5t78.5 -21.5q50 0 81.5 23t31.5 57
zM634 283q0 -30 24.5 -49.5t76.5 -33.5q98 25 98 83q0 31 -28 51t-71 20q-45 0 -72.5 -20.5t-27.5 -50.5zM178 -10l-16 14q97 124 122 157l294 384q86 113 115 155l20 -11q-18 -22 -89 -117l-372 -486q-10 -14 -21.5 -28.5t-26.5 -34t-26 -33.5zM106 690q78 -2 127 -2
q52 0 136 2l8 -11l-30 -52l-134 -235q-30 -50 -38 -68l-26 4q25 37 57 94l141 246h-117h-127q3 9 3 22z" />
    <glyph glyph-name="minus" unicode="&#x2212;" horiz-adv-x="515" 
d="M415 274q-2 -6 -4 -24q-23 0 -68 0.5t-66 0.5h-50q-26 0 -67.5 -0.5t-59.5 -0.5q2 12 2 24q84 -2 156 -2q105 0 157 2z" />
    <glyph glyph-name="box.1" unicode="&#xe000;" horiz-adv-x="779" 
d="M702 13l-13 -13h-602l-13 6q6 48 6 201v246q0 144 -6 191l14 13h602l12 -6q-3 -36 -3 -123v-404q0 -75 3 -111z" />
    <glyph glyph-name="box.2" unicode="&#xe001;" horiz-adv-x="779" 
d="M700 3l-3 -3h-616l-3 3q2 40 2 167v311q0 120 -2 173l3 3h616l3 -3q-1 -73 -1 -127v-421q0 -77 1 -103zM104 22h570q2 37 2 148v310q0 108 -2 155h-570q-1 -58 -1 -104v-428q0 -61 1 -81z" />
    <glyph glyph-name="arrow.1_W" unicode="&#xe01d;" horiz-adv-x="782" 
d="M93 245v4q157 125 219 178l15 -17q-53 -41 -110 -87l-77 -63q23 0 78 -0.5t90 -0.5h230q30 0 97 0.5t99 0.5q-2 -6 -4 -24q-97 2 -301 2q-125 0 -289 -2l85 -68q63 -51 104 -82l-15 -18q-114 93 -221 177z" />
    <glyph glyph-name="arrow.1_E" unicode="&#xe01f;" horiz-adv-x="782" 
d="M48 235q2 6 4 24q97 -2 301 -2q125 0 289 2l-85 68q-63 51 -104 82l15 18q114 -93 221 -177v-4q-157 -125 -219 -178l-15 17q53 41 110 87l77 63q-23 0 -78 0.5t-90 0.5h-230q-30 0 -97 -0.5t-99 -0.5z" />
    <glyph glyph-name="G.alt" horiz-adv-x="742" 
d="M650 163v-115q-97 -64 -222 -64q-158 0 -260.5 105.5t-102.5 253.5q0 160 103 268.5t264 108.5q116 0 203 -60l-8 -22q-86 60 -198 60q-147 0 -243.5 -102t-96.5 -247q0 -144 96 -243.5t246 -99.5q108 0 196 54v171q0 79 -3 112q16 0 27 3q-1 -37 -1 -183z" />
    <glyph glyph-name="J.alt" horiz-adv-x="273" 
d="M139 -39v501q0 169 -3 241q16 0 27 3q-1 -29 -1 -146v-601q0 -165 -128 -165q-29 0 -51 5l-3 23q30 -6 52 -6q107 0 107 145z" />
    <glyph glyph-name="a.sc" horiz-adv-x="513" 
d="M32 0l150 344q54 124 67 158l10 2l171 -391l50 -111l-25 -5l-81 187h-238l-26 -61l-50 -123h-28zM255 459l-110 -254h220z" />
    <glyph glyph-name="b.sc" horiz-adv-x="447" 
d="M216 0h-120q1 34 1 168v155q0 135 -1 168q51 3 106 3q85 0 126.5 -31t41.5 -86q0 -43 -28 -75.5t-76 -42.5q62 -10 95.5 -43t33.5 -80q0 -63 -48.5 -99.5t-130.5 -36.5zM121 24q34 -2 95 -2q72 0 113.5 29.5t41.5 82.5q0 52 -43 83t-130 31q-40 0 -78 -2v-145
q0 -58 1 -77zM120 269h83q70 0 107 29t37 75q0 99 -147 99q-46 0 -80 -2v-201z" />
    <glyph glyph-name="c.sc" horiz-adv-x="500" 
d="M448 65l-1 -27q-65 -51 -155 -51q-107 0 -173.5 74t-66.5 178q0 112 71 188.5t181 76.5q78 0 139 -39l-8 -20q-57 38 -132 38q-99 0 -163 -70t-64 -169t59.5 -167.5t158.5 -68.5q92 0 154 57z" />
    <glyph glyph-name="d.sc" horiz-adv-x="542" 
d="M490 256q0 -113 -73 -184.5t-199 -71.5h-122q1 34 1 168v155q0 151 -1 168q75 3 126 3q124 0 196 -66.5t72 -171.5zM466 253q0 98 -66 158.5t-180 60.5q-46 0 -100 -3v-445q23 -2 98 -2q117 0 182.5 64.5t65.5 166.5z" />
    <glyph glyph-name="e.sc" horiz-adv-x="414" 
d="M369 23q-4 -12 -4 -25q-60 3 -138 3q-75 0 -131 -3q1 33 1 170v155q0 138 -2 171q76 -2 129 -2q55 0 135 2q-3 -12 -3 -23q-18 0 -62.5 0.5t-69.5 0.5q-84 0 -103 -1q-1 -23 -1 -79v-124h207q-2 -7 -2 -21h-205v-146q0 -56 1 -79q27 -1 101 -1q55 0 147 2z" />
    <glyph glyph-name="f.sc" horiz-adv-x="396" 
d="M359 494q-3 -12 -3 -23q-18 0 -62.5 0.5t-69.5 0.5q-84 0 -103 -1q-1 -23 -1 -79v-131h200q-2 -7 -2 -21h-198v-139q0 -14 0.5 -53t0.5 -48h-25q1 34 1 168v155q0 138 -2 171q76 -2 129 -2q55 0 135 2z" />
    <glyph glyph-name="g.sc" horiz-adv-x="541" 
d="M453 462l-8 -21q-58 41 -138 41q-100 0 -165.5 -69t-65.5 -169t65.5 -168t166.5 -68q72 0 132 34v187h-72q-55 0 -96 -1q1 8 1 23q37 -1 95 -1q66 0 97 1q-2 -29 -2 -144v-76q-70 -44 -157 -44q-110 0 -182 74t-72 178q0 112 72.5 188.5t185.5 76.5q83 0 143 -42z" />
    <glyph glyph-name="g.sc_alt" horiz-adv-x="541" 
d="M453 462l-8 -21q-58 41 -138 41q-100 0 -165.5 -69t-65.5 -169t65.5 -168t166.5 -68q72 0 132 34v119q0 67 -1 80q17 0 25 2q-1 -43 -1 -132v-80q-70 -44 -157 -44q-110 0 -182 74t-72 178q0 112 72.5 188.5t185.5 76.5q83 0 143 -42z" />
    <glyph glyph-name="h.sc" horiz-adv-x="560" 
d="M465 0h-26q2 34 2 168v77h-322v-144q0 -14 0.5 -53t0.5 -48h-25q1 34 1 168v155q0 135 -1 168q15 0 25 3q0 -10 -0.5 -49t-0.5 -54v-125h322v57q0 135 -2 168q15 0 26 3q-1 -21 -1 -103v-290q0 -81 1 -101z" />
    <glyph glyph-name="i.sc" horiz-adv-x="224" 
d="M125 0h-26q2 68 2 168v155q0 102 -2 168q14 0 26 3q-1 -21 -1 -103v-290q0 -81 1 -101z" />
    <glyph glyph-name="j.sc" horiz-adv-x="288" 
d="M173 323q0 135 -2 168q15 0 26 3q-1 -31 -1 -103v-288q0 -60 -23 -88t-77 -28q-33 0 -70 14l2 22q35 -15 68 -15q42 0 59.5 23t17.5 70v222z" />
    <glyph glyph-name="k.sc" horiz-adv-x="458" 
d="M422 1l-28 -4l-275 252v-148q0 -14 0.5 -53t0.5 -48h-25q1 34 1 168v155q0 135 -1 168q15 0 25 3q0 -10 -0.5 -49t-0.5 -54v-134l115 103q108 96 146 132h34l-268 -239l126 -114q24 -21 84 -76.5t66 -61.5z" />
    <glyph glyph-name="l.sc" horiz-adv-x="399" 
d="M95 -2q1 34 1 170v155q0 135 -1 168q15 0 25 3q-1 -21 -1 -103v-290q0 -61 1 -79q20 -1 108 -1q27 0 73 0.5t66 0.5q-3 -12 -3 -24q-63 3 -135 3q-75 0 -134 -3z" />
    <glyph glyph-name="m.sc" horiz-adv-x="666" 
d="M603 0l-26 -3q-2 28 -13 110l-44 328q-181 -436 -182 -441l-9 -2q-1 3 -183 444l-44 -337q-2 -14 -6.5 -49t-6.5 -50h-26q3 19 24 158l27 200q2 15 9 68t9 75l10 2q18 -46 45 -109l146 -354l145 351q35 81 46 112h9l17 -126l29 -210q14 -106 24 -167z" />
    <glyph glyph-name="n.sc" horiz-adv-x="581" 
d="M97 0q1 34 1 168v155q0 145 -1 178l9 2l357 -465v285q0 102 -2 168q15 0 25 3q-1 -21 -1 -103l-1 -291q0 -90 1 -110l-9 -2l-356 463v-350q0 -81 1 -101h-24z" />
    <glyph glyph-name="o.sc" horiz-adv-x="592" 
d="M303 504q103 0 170 -72t67 -174q0 -115 -70.5 -193t-180.5 -78q-103 0 -170 72t-67 174q0 115 70.5 193t180.5 78zM290 8q99 0 162.5 71.5t63.5 175.5q0 95 -60 161.5t-154 66.5q-99 0 -162.5 -71.5t-63.5 -175.5q0 -95 60 -161.5t154 -66.5z" />
    <glyph glyph-name="p.sc" horiz-adv-x="411" 
d="M95 493q46 2 95 2q90 0 136.5 -37t46.5 -102q0 -70 -52 -109.5t-154 -39.5q-35 0 -48 1v-107q0 -14 0.5 -53t0.5 -48h-25q1 34 1 168v155q0 136 -1 170zM350 351q0 122 -161 122q-50 0 -70 -1v-243q13 -1 49 -1q92 0 137 32.5t45 90.5z" />
    <glyph glyph-name="q.sc" horiz-adv-x="592" 
d="M303 504q103 0 170 -72t67 -174q0 -101 -55.5 -175t-145.5 -91l88 -25l150 -41l-20 -18l-271 79q-103 1 -168.5 73t-65.5 173q0 115 70.5 193t180.5 78zM302 483q-99 0 -162.5 -71.5t-63.5 -175.5q0 -95 60 -161.5t154 -66.5q99 0 162.5 71.5t63.5 175.5q0 95 -60 161.5
t-154 66.5z" />
    <glyph glyph-name="r.sc" horiz-adv-x="459" 
d="M421 0l-27 -6l-151 225q-14 -1 -28 -1h-96v-117q0 -14 0.5 -53t0.5 -48h-25q1 34 1 168v155q0 136 -1 170q17 0 60.5 1t60.5 1q77 0 119.5 -36.5t42.5 -94.5q0 -53 -30 -89t-81 -51l81 -119q35 -53 73 -105zM119 239h105q59 0 95 35.5t36 85.5q0 54 -36.5 83.5
t-107.5 29.5q-68 0 -92 -1v-233z" />
    <glyph glyph-name="s.sc" horiz-adv-x="395" 
d="M342 122q0 -55 -42.5 -95t-114.5 -40q-76 0 -138 38l3 26q60 -43 136 -43q62 0 97.5 33t35.5 79q0 35 -26 61.5t-63 43.5t-74 35t-63 46.5t-26 67.5q0 55 40.5 92.5t108.5 37.5q61 0 113 -31l-7 -22q-51 32 -107 32q-57 0 -91 -31t-34 -76q0 -35 26 -60.5t63 -42.5
t74 -35t63 -47t26 -69z" />
    <glyph glyph-name="t.sc" horiz-adv-x="437" 
d="M414 494q-3 -12 -3 -23q-52 1 -180 1v-371q0 -81 1 -101h-26q2 34 2 168v155q0 115 -2 149q-137 0 -183 -1q3 8 3 23q112 -2 193 -2q85 0 195 2z" />
    <glyph glyph-name="u.sc" horiz-adv-x="540" 
d="M455 494q-1 -21 -1 -103v-211q0 -96 -52 -145q-50 -48 -133 -48t-133 47t-50 135v154q0 135 -1 168q15 0 25 3q0 -10 -0.5 -49t-0.5 -54v-216q0 -83 43 -125t121 -42q71 0 114.5 43t43.5 122v150q0 135 -2 168q14 0 26 3z" />
    <glyph glyph-name="v.sc" horiz-adv-x="477" 
d="M32 489l26 4l183 -457l129 327q9 23 20.5 53t19 51t7.5 22h28l-140 -349q-51 -126 -59 -151l-9 -3l-156 386q-44 108 -49 117z" />
    <glyph glyph-name="w.sc" horiz-adv-x="723" 
d="M689 489l-118 -348q-14 -43 -30 -90t-21 -62l-10 -3l-146 456l-101 -306q-10 -29 -21 -61.5t-18 -52t-11 -35.5h-10l-128 385q-37 110 -41 117l26 4l148 -453l110 328q41 124 42 125l10 3l146 -455l106 324q7 22 17 52.5t16 50t7 21.5h27z" />
    <glyph glyph-name="x.sc" horiz-adv-x="487" 
d="M73 0h-30l185 248l-75 101l-105 141l26 4l168 -229l67 94l95 134h29l-177 -245l79 -106l105 -142l-27 -4l-171 235l-63 -87z" />
    <glyph glyph-name="y.sc" horiz-adv-x="443" 
d="M28 490l27 4l167 -258l68 104q5 7 50 78t47 75h28l-182 -280v-112q0 -81 1 -101h-27q3 51 3 162v50l-77 119q-3 6 -105 159z" />
    <glyph glyph-name="z.sc" horiz-adv-x="448" 
d="M407 494l5 -6l-333 -466q41 -1 139 -1q70 0 180 2q-4 -18 -4 -25q-76 3 -177 3q-98 0 -173 -3l-5 6l333 467q-44 1 -135 1q-130 0 -173 -1q3 12 3 23q100 -2 172 -2t168 2z" />
    <glyph glyph-name="aacute.sc" horiz-adv-x="513" 
d="M32 0l150 344q54 124 67 158l10 2l171 -391l50 -111l-25 -5l-81 187h-238l-26 -61l-50 -123h-28zM255 459l-110 -254h220zM319 722l38 4l-114 -142l-21 -1z" />
    <glyph glyph-name="abreve.sc" horiz-adv-x="513" 
d="M32 0l150 344q54 124 67 158l10 2l171 -391l50 -111l-25 -5l-81 187h-238l-26 -61l-50 -123h-28zM255 459l-110 -254h220zM365 723l21 2q2 -61 -33.5 -96.5t-100.5 -35.5q-56 0 -92.5 35.5t-36.5 87.5l21 3q0 -46 31.5 -76t78.5 -30q52 0 82.5 30.5t28.5 79.5z" />
    <glyph glyph-name="acircumflex.sc" horiz-adv-x="513" 
d="M32 0l150 344q54 124 67 158l10 2l171 -391l50 -111l-25 -5l-81 187h-238l-26 -61l-50 -123h-28zM255 459l-110 -254h220zM250 726h11l116 -136l-19 -4l-104 110l-103 -105h-23z" />
    <glyph glyph-name="adieresis.sc" horiz-adv-x="513" 
d="M32 0l150 344q54 124 67 158l10 2l171 -391l50 -111l-25 -5l-81 187h-238l-26 -61l-50 -123h-28zM255 459l-110 -254h220zM206 638q0 -11 -7 -18t-19 -7q-10 0 -17 7t-7 17t7 17t19 7q11 0 17.5 -7t6.5 -16zM354 638q0 -11 -7 -18t-19 -7q-10 0 -17 7t-7 17t7 17t19 7
q11 0 17.5 -7t6.5 -16z" />
    <glyph glyph-name="agrave.sc" horiz-adv-x="513" 
d="M32 0l150 344q54 124 67 158l10 2l171 -391l50 -111l-25 -5l-81 187h-238l-26 -61l-50 -123h-28zM255 459l-110 -254h220zM150 723l34 2l97 -140l-18 -2z" />
    <glyph glyph-name="amacron.sc" horiz-adv-x="513" 
d="M32 0l150 344q54 124 67 158l10 2l171 -391l50 -111l-25 -5l-81 187h-238l-26 -61l-50 -123h-28zM255 459l-110 -254h220zM393 668q-2 -6 -4 -24q-20 0 -58 0.5t-56 0.5h-50q-22 0 -57 -0.5t-50 -0.5q2 12 2 24q72 -2 136 -2q91 0 137 2z" />
    <glyph glyph-name="aogonek.sc" horiz-adv-x="513" 
d="M32 0l150 344q54 124 67 158l10 2l171 -391l50 -111l-4 -1l1 -1q-103 -76 -103 -130q0 -12 8 -21t24 -9q36 0 67 27l-2 -24q-30 -24 -68 -24q-25 0 -39 14t-14 35q0 57 103 134l-79 182h-238l-26 -61l-50 -123h-28zM255 459l-110 -254h220z" />
    <glyph glyph-name="aring.sc" horiz-adv-x="513" 
d="M352 590q0 -40 -23.5 -69t-62.5 -35l164 -373l50 -111l-25 -5l-81 187h-238l-26 -61l-50 -123h-28l150 344q54 125 60 141q-38 4 -62.5 31t-24.5 64q0 45 28 74.5t73 29.5q42 0 69 -27.5t27 -66.5zM255 459l-110 -254h220zM331 589q0 32 -20.5 53.5t-54.5 21.5
q-36 0 -58 -23.5t-22 -59.5q0 -31 20.5 -53.5t55.5 -22.5t57 24t22 60z" />
    <glyph glyph-name="aringacute.sc" horiz-adv-x="513" 
d="M352 590q0 -40 -23.5 -69t-62.5 -35l164 -373l50 -111l-25 -5l-81 187h-238l-26 -61l-50 -123h-28l150 344q54 125 60 141q-38 4 -62.5 31t-24.5 64q0 45 28 74.5t73 29.5q42 0 69 -27.5t27 -66.5zM255 459l-110 -254h220zM331 589q0 32 -20.5 53.5t-54.5 21.5
q-36 0 -58 -23.5t-22 -59.5q0 -31 20.5 -53.5t55.5 -22.5t57 24t22 60zM313 903l38 4l-114 -142l-21 -1z" />
    <glyph glyph-name="atilde.sc" horiz-adv-x="513" 
d="M32 0l150 344q54 124 67 158l10 2l171 -391l50 -111l-25 -5l-81 187h-238l-26 -61l-50 -123h-28zM255 459l-110 -254h220zM115 616q19 86 74 86q26 0 75 -32t68 -32q35 0 54 69l19 -4q-19 -86 -74 -86q-26 0 -75 32t-68 32q-35 0 -54 -69z" />
    <glyph glyph-name="cacute.sc" horiz-adv-x="500" 
d="M448 65l-1 -27q-65 -51 -155 -51q-107 0 -173.5 74t-66.5 178q0 112 71 188.5t181 76.5q78 0 139 -39l-8 -20q-57 38 -132 38q-99 0 -163 -70t-64 -169t59.5 -167.5t158.5 -68.5q92 0 154 57zM353 722l38 4l-114 -142l-21 -1z" />
    <glyph glyph-name="ccaron.sc" horiz-adv-x="500" 
d="M448 65l-1 -27q-65 -51 -155 -51q-107 0 -173.5 74t-66.5 178q0 112 71 188.5t181 76.5q78 0 139 -39l-8 -20q-57 38 -132 38q-99 0 -163 -70t-64 -169t59.5 -167.5t158.5 -68.5q92 0 154 57zM292 586h-11l-116 136l19 4l104 -110l103 105h23z" />
    <glyph glyph-name="ccedilla.sc" horiz-adv-x="500" 
d="M448 65l-1 -27q-65 -51 -155 -51q-12 0 -17 1l-18 -60q94 -23 94 -72q0 -24 -19 -39.5t-53 -15.5q-35 0 -78 18l4 21q41 -18 76 -18q49 0 49 33q0 20 -21 33.5t-75 23.5l-3 4q3 10 11 35.5t12 38.5q-92 13 -147 84t-55 165q0 112 71 188.5t181 76.5q78 0 139 -39l-8 -20
q-57 38 -132 38q-99 0 -163 -70t-64 -169t59.5 -167.5t158.5 -68.5q92 0 154 57z" />
    <glyph glyph-name="cdotaccent.sc" horiz-adv-x="500" 
d="M448 65l-1 -27q-65 -51 -155 -51q-107 0 -173.5 74t-66.5 178q0 112 71 188.5t181 76.5q78 0 139 -39l-8 -20q-57 38 -132 38q-99 0 -163 -70t-64 -169t59.5 -167.5t158.5 -68.5q92 0 154 57zM314 638q0 -11 -7 -18t-19 -7q-10 0 -17 7t-7 17t7 17t19 7q11 0 17.5 -7
t6.5 -16z" />
    <glyph glyph-name="dcaron.sc" horiz-adv-x="542" 
d="M490 256q0 -113 -73 -184.5t-199 -71.5h-122q1 34 1 168v155q0 151 -1 168q75 3 126 3q124 0 196 -66.5t72 -171.5zM466 253q0 98 -66 158.5t-180 60.5q-46 0 -100 -3v-445q23 -2 98 -2q117 0 182.5 64.5t65.5 166.5zM272 586h-11l-116 136l19 4l104 -110l103 105h23z
" />
    <glyph glyph-name="dcroat.sc" horiz-adv-x="542" 
d="M490 256q0 -113 -73 -184.5t-199 -71.5h-122q1 34 1 168v72q-10 0 -26.5 -0.5t-24.5 -0.5q2 12 2 24q26 -2 49 -2v62q0 151 -1 168q75 3 126 3q124 0 196 -66.5t72 -171.5zM466 253q0 98 -66 158.5t-180 60.5q-46 0 -100 -3v-208q79 0 119 2q-4 -14 -4 -24
q-17 0 -50.5 0.5t-49.5 0.5h-15v-216q23 -2 98 -2q117 0 182.5 64.5t65.5 166.5z" />
    <glyph glyph-name="eacute.sc" horiz-adv-x="414" 
d="M369 23q-4 -12 -4 -25q-60 3 -138 3q-75 0 -131 -3q1 33 1 170v155q0 138 -2 171q76 -2 129 -2q55 0 135 2q-3 -12 -3 -23q-18 0 -62.5 0.5t-69.5 0.5q-84 0 -103 -1q-1 -23 -1 -79v-124h207q-2 -7 -2 -21h-205v-146q0 -56 1 -79q27 -1 101 -1q55 0 147 2zM291 722l38 4
l-114 -142l-21 -1z" />
    <glyph glyph-name="ebreve.sc" horiz-adv-x="414" 
d="M369 23q-4 -12 -4 -25q-60 3 -138 3q-75 0 -131 -3q1 33 1 170v155q0 138 -2 171q76 -2 129 -2q55 0 135 2q-3 -12 -3 -23q-18 0 -62.5 0.5t-69.5 0.5q-84 0 -103 -1q-1 -23 -1 -79v-124h207q-2 -7 -2 -21h-205v-146q0 -56 1 -79q27 -1 101 -1q55 0 147 2zM337 723l21 2
q2 -61 -33.5 -96.5t-100.5 -35.5q-56 0 -92.5 35.5t-36.5 87.5l21 3q0 -46 31.5 -76t78.5 -30q52 0 82.5 30.5t28.5 79.5z" />
    <glyph glyph-name="ecaron.sc" horiz-adv-x="414" 
d="M369 23q-4 -12 -4 -25q-60 3 -138 3q-75 0 -131 -3q1 33 1 170v155q0 138 -2 171q76 -2 129 -2q55 0 135 2q-3 -12 -3 -23q-18 0 -62.5 0.5t-69.5 0.5q-84 0 -103 -1q-1 -23 -1 -79v-124h207q-2 -7 -2 -21h-205v-146q0 -56 1 -79q27 -1 101 -1q55 0 147 2zM230 586h-11
l-116 136l19 4l104 -110l103 105h23z" />
    <glyph glyph-name="ecircumflex.sc" horiz-adv-x="414" 
d="M369 23q-4 -12 -4 -25q-60 3 -138 3q-75 0 -131 -3q1 33 1 170v155q0 138 -2 171q76 -2 129 -2q55 0 135 2q-3 -12 -3 -23q-18 0 -62.5 0.5t-69.5 0.5q-84 0 -103 -1q-1 -23 -1 -79v-124h207q-2 -7 -2 -21h-205v-146q0 -56 1 -79q27 -1 101 -1q55 0 147 2zM222 726h11
l116 -136l-19 -4l-104 110l-103 -105h-23z" />
    <glyph glyph-name="edieresis.sc" horiz-adv-x="414" 
d="M369 23q-4 -12 -4 -25q-60 3 -138 3q-75 0 -131 -3q1 33 1 170v155q0 138 -2 171q76 -2 129 -2q55 0 135 2q-3 -12 -3 -23q-18 0 -62.5 0.5t-69.5 0.5q-84 0 -103 -1q-1 -23 -1 -79v-124h207q-2 -7 -2 -21h-205v-146q0 -56 1 -79q27 -1 101 -1q55 0 147 2zM178 638
q0 -11 -7 -18t-19 -7q-10 0 -17 7t-7 17t7 17t19 7q11 0 17.5 -7t6.5 -16zM326 638q0 -11 -7 -18t-19 -7q-10 0 -17 7t-7 17t7 17t19 7q11 0 17.5 -7t6.5 -16z" />
    <glyph glyph-name="edotaccent.sc" horiz-adv-x="414" 
d="M369 23q-4 -12 -4 -25q-60 3 -138 3q-75 0 -131 -3q1 33 1 170v155q0 138 -2 171q76 -2 129 -2q55 0 135 2q-3 -12 -3 -23q-18 0 -62.5 0.5t-69.5 0.5q-84 0 -103 -1q-1 -23 -1 -79v-124h207q-2 -7 -2 -21h-205v-146q0 -56 1 -79q27 -1 101 -1q55 0 147 2zM252 638
q0 -11 -7 -18t-19 -7q-10 0 -17 7t-7 17t7 17t19 7q11 0 17.5 -7t6.5 -16z" />
    <glyph glyph-name="egrave.sc" horiz-adv-x="414" 
d="M369 23q-4 -12 -4 -25q-60 3 -138 3q-75 0 -131 -3q1 33 1 170v155q0 138 -2 171q76 -2 129 -2q55 0 135 2q-3 -12 -3 -23q-18 0 -62.5 0.5t-69.5 0.5q-84 0 -103 -1q-1 -23 -1 -79v-124h207q-2 -7 -2 -21h-205v-146q0 -56 1 -79q27 -1 101 -1q55 0 147 2zM122 723l34 2
l97 -140l-18 -2z" />
    <glyph glyph-name="emacron.sc" horiz-adv-x="414" 
d="M369 23q-4 -12 -4 -25q-60 3 -138 3q-75 0 -131 -3q1 33 1 170v155q0 138 -2 171q76 -2 129 -2q55 0 135 2q-3 -12 -3 -23q-18 0 -62.5 0.5t-69.5 0.5q-84 0 -103 -1q-1 -23 -1 -79v-124h207q-2 -7 -2 -21h-205v-146q0 -56 1 -79q27 -1 101 -1q55 0 147 2zM365 668
q-2 -6 -4 -24q-20 0 -58 0.5t-56 0.5h-50q-22 0 -57 -0.5t-50 -0.5q2 12 2 24q72 -2 136 -2q91 0 137 2z" />
    <glyph glyph-name="eogonek.sc" horiz-adv-x="414" 
d="M369 23q-4 -12 -4 -25q-103 -76 -103 -128q0 -12 8 -21t24 -9q36 0 67 27l-2 -24q-30 -24 -68 -24q-25 0 -39 14t-14 35q0 56 102 131q-70 2 -113 2q-75 0 -131 -3q1 33 1 170v155q0 138 -2 171q76 -2 129 -2q55 0 135 2q-3 -12 -3 -23q-18 0 -62.5 0.5t-69.5 0.5
q-84 0 -103 -1q-1 -23 -1 -79v-124h207q-2 -7 -2 -21h-205v-146q0 -56 1 -79q27 -1 101 -1q55 0 147 2z" />
    <glyph glyph-name="gbreve.sc" horiz-adv-x="541" 
d="M453 462l-8 -21q-58 41 -138 41q-100 0 -165.5 -69t-65.5 -169t65.5 -168t166.5 -68q72 0 132 34v187h-72q-55 0 -96 -1q1 8 1 23q37 -1 95 -1q66 0 97 1q-2 -29 -2 -144v-76q-70 -44 -157 -44q-110 0 -182 74t-72 178q0 112 72.5 188.5t185.5 76.5q83 0 143 -42z
M400 723l21 2q2 -61 -33.5 -96.5t-100.5 -35.5q-56 0 -92.5 35.5t-36.5 87.5l21 3q0 -46 31.5 -76t78.5 -30q52 0 82.5 30.5t28.5 79.5z" />
    <glyph glyph-name="Gbreve.alt" horiz-adv-x="742" 
d="M650 163v-115q-97 -64 -222 -64q-158 0 -260.5 105.5t-102.5 253.5q0 160 103 268.5t264 108.5q116 0 203 -60l-8 -22q-86 60 -198 60q-147 0 -243.5 -102t-96.5 -247q0 -144 96 -243.5t246 -99.5q108 0 196 54v171q0 79 -3 112q16 0 27 3q-1 -37 -1 -183zM517 909l21 2
q2 -61 -33.5 -96.5t-100.5 -35.5q-56 0 -92.5 35.5t-36.5 87.5l21 3q0 -46 31.5 -76t78.5 -30q52 0 82.5 30.5t28.5 79.5z" />
    <glyph glyph-name="gbreve.sc_alt" horiz-adv-x="541" 
d="M453 462l-8 -21q-58 41 -138 41q-100 0 -165.5 -69t-65.5 -169t65.5 -168t166.5 -68q72 0 132 34v119q0 67 -1 80q17 0 25 2q-1 -43 -1 -132v-80q-70 -44 -157 -44q-110 0 -182 74t-72 178q0 112 72.5 188.5t185.5 76.5q83 0 143 -42zM403 723l21 2q2 -61 -33.5 -96.5
t-100.5 -35.5q-56 0 -92.5 35.5t-36.5 87.5l21 3q0 -46 31.5 -76t78.5 -30q52 0 82.5 30.5t28.5 79.5z" />
    <glyph glyph-name="gcommaaccent.sc" horiz-adv-x="541" 
d="M453 462l-8 -21q-58 41 -138 41q-100 0 -165.5 -69t-65.5 -169t65.5 -168t166.5 -68q72 0 132 34v187h-72q-55 0 -96 -1q1 8 1 23q37 -1 95 -1q66 0 97 1q-2 -29 -2 -144v-76q-70 -44 -157 -44q-110 0 -182 74t-72 178q0 112 72.5 188.5t185.5 76.5q83 0 143 -42z
M257 -213l9 11q29 36 29 62q0 23 -26 31l-10 3q3 30 29 30q30 0 30 -46q0 -45 -50 -101z" />
    <glyph glyph-name="Gcommaaccent.alt" horiz-adv-x="742" 
d="M650 163v-115q-97 -64 -222 -64q-158 0 -260.5 105.5t-102.5 253.5q0 160 103 268.5t264 108.5q116 0 203 -60l-8 -22q-86 60 -198 60q-147 0 -243.5 -102t-96.5 -247q0 -144 96 -243.5t246 -99.5q108 0 196 54v171q0 79 -3 112q16 0 27 3q-1 -37 -1 -183zM374 -208l9 11
q29 36 29 62q0 23 -26 31l-10 3q3 30 29 30q30 0 30 -46q0 -45 -50 -101z" />
    <glyph glyph-name="gcommaaccent.sc_alt" horiz-adv-x="541" 
d="M453 462l-8 -21q-58 41 -138 41q-100 0 -165.5 -69t-65.5 -169t65.5 -168t166.5 -68q72 0 132 34v119q0 67 -1 80q17 0 25 2q-1 -43 -1 -132v-80q-70 -44 -157 -44q-110 0 -182 74t-72 178q0 112 72.5 188.5t185.5 76.5q83 0 143 -42zM260 -213l9 11q29 36 29 62
q0 23 -26 31l-10 3q3 30 29 30q30 0 30 -46q0 -45 -50 -101z" />
    <glyph glyph-name="gdotaccent.sc" horiz-adv-x="541" 
d="M453 462l-8 -21q-58 41 -138 41q-100 0 -165.5 -69t-65.5 -169t65.5 -168t166.5 -68q72 0 132 34v187h-72q-55 0 -96 -1q1 8 1 23q37 -1 95 -1q66 0 97 1q-2 -29 -2 -144v-76q-70 -44 -157 -44q-110 0 -182 74t-72 178q0 112 72.5 188.5t185.5 76.5q83 0 143 -42z
M315 638q0 -11 -7 -18t-19 -7q-10 0 -17 7t-7 17t7 17t19 7q11 0 17.5 -7t6.5 -16z" />
    <glyph glyph-name="Gdotaccent.alt" horiz-adv-x="742" 
d="M650 163v-115q-97 -64 -222 -64q-158 0 -260.5 105.5t-102.5 253.5q0 160 103 268.5t264 108.5q116 0 203 -60l-8 -22q-86 60 -198 60q-147 0 -243.5 -102t-96.5 -247q0 -144 96 -243.5t246 -99.5q108 0 196 54v171q0 79 -3 112q16 0 27 3q-1 -37 -1 -183zM432 824
q0 -11 -7 -18t-19 -7q-10 0 -17 7t-7 17t7 17t19 7q11 0 17.5 -7t6.5 -16z" />
    <glyph glyph-name="gdotaccent.sc_alt" horiz-adv-x="541" 
d="M453 462l-8 -21q-58 41 -138 41q-100 0 -165.5 -69t-65.5 -169t65.5 -168t166.5 -68q72 0 132 34v119q0 67 -1 80q17 0 25 2q-1 -43 -1 -132v-80q-70 -44 -157 -44q-110 0 -182 74t-72 178q0 112 72.5 188.5t185.5 76.5q83 0 143 -42zM318 638q0 -11 -7 -18t-19 -7
q-10 0 -17 7t-7 17t7 17t19 7q11 0 17.5 -7t6.5 -16z" />
    <glyph glyph-name="hbar.sc" horiz-adv-x="560" 
d="M516 387q-2 -8 -4 -22h-48v-264q0 -81 1 -101h-26q2 34 2 168v77h-322v-144q0 -14 0.5 -53t0.5 -48h-25q1 34 1 168v155v42h-51q2 12 2 22q8 0 24 -0.5t25 -0.5q0 23 -0.5 59.5t-0.5 45.5q15 0 25 3q0 -10 -0.5 -49t-0.5 -54v-5q47 -1 164 -1h158q0 62 -2 106q15 0 26 3
q-1 -21 -1 -103v-6zM441 266v57v42h-322v-99h322z" />
    <glyph glyph-name="iacute.sc" horiz-adv-x="224" 
d="M125 0h-26q2 68 2 168v155q0 102 -2 168q14 0 26 3q-1 -21 -1 -103v-290q0 -81 1 -101zM177 722l38 4l-114 -142l-21 -1z" />
    <glyph glyph-name="ibreve.sc" horiz-adv-x="224" 
d="M125 0h-26q2 68 2 168v155q0 102 -2 168q14 0 26 3q-1 -21 -1 -103v-290q0 -81 1 -101zM223 723l21 2q2 -61 -33.5 -96.5t-100.5 -35.5q-56 0 -92.5 35.5t-36.5 87.5l21 3q0 -46 31.5 -76t78.5 -30q52 0 82.5 30.5t28.5 79.5z" />
    <glyph glyph-name="icircumflex.sc" horiz-adv-x="224" 
d="M125 0h-26q2 68 2 168v155q0 102 -2 168q14 0 26 3q-1 -21 -1 -103v-290q0 -81 1 -101zM108 726h11l116 -136l-19 -4l-104 110l-103 -105h-23z" />
    <glyph glyph-name="idieresis.sc" horiz-adv-x="224" 
d="M125 0h-26q2 68 2 168v155q0 102 -2 168q14 0 26 3q-1 -21 -1 -103v-290q0 -81 1 -101zM64 638q0 -11 -7 -18t-19 -7q-10 0 -17 7t-7 17t7 17t19 7q11 0 17.5 -7t6.5 -16zM212 638q0 -11 -7 -18t-19 -7q-10 0 -17 7t-7 17t7 17t19 7q11 0 17.5 -7t6.5 -16z" />
    <glyph glyph-name="idotaccent.sc" horiz-adv-x="224" 
d="M125 0h-26q2 68 2 168v155q0 102 -2 168q14 0 26 3q-1 -21 -1 -103v-290q0 -81 1 -101zM138 638q0 -11 -7 -18t-19 -7q-10 0 -17 7t-7 17t7 17t19 7q11 0 17.5 -7t6.5 -16z" />
    <glyph glyph-name="dotlessi.sc" horiz-adv-x="224" 
d="M125 0h-26q2 68 2 168v155q0 102 -2 168q14 0 26 3q-1 -21 -1 -103v-290q0 -81 1 -101z" />
    <glyph glyph-name="igrave.sc" horiz-adv-x="224" 
d="M125 0h-26q2 68 2 168v155q0 102 -2 168q14 0 26 3q-1 -21 -1 -103v-290q0 -81 1 -101zM8 723l34 2l97 -140l-18 -2z" />
    <glyph glyph-name="imacron.sc" horiz-adv-x="224" 
d="M125 0h-26q2 68 2 168v155q0 102 -2 168q14 0 26 3q-1 -21 -1 -103v-290q0 -81 1 -101zM251 668q-2 -6 -4 -24q-20 0 -58 0.5t-56 0.5h-50q-22 0 -57 -0.5t-50 -0.5q2 12 2 24q72 -2 136 -2q91 0 137 2z" />
    <glyph glyph-name="iogonek.sc" horiz-adv-x="224" 
d="M125 0q-57 -69 -57 -122q0 -16 8.5 -27t24.5 -11q35 0 66 27l-2 -24q-30 -24 -67 -24q-26 0 -40 15t-14 41q0 55 58 125h-3q2 68 2 168v155q0 102 -2 168q14 0 26 3q-1 -21 -1 -103v-290q0 -81 1 -101z" />
    <glyph glyph-name="kcommaaccent.sc" horiz-adv-x="458" 
d="M422 1l-28 -4l-275 252v-148q0 -14 0.5 -53t0.5 -48h-25q1 34 1 168v155q0 135 -1 168q15 0 25 3q0 -10 -0.5 -49t-0.5 -54v-134l115 103q108 96 146 132h34l-268 -239l126 -114q24 -21 84 -76.5t66 -61.5zM225 -208l9 11q29 36 29 62q0 23 -26 31l-10 3q3 30 29 30
q30 0 30 -46q0 -45 -50 -101z" />
    <glyph glyph-name="lacute.sc" horiz-adv-x="399" 
d="M95 -2q1 34 1 170v155q0 135 -1 168q15 0 25 3q-1 -21 -1 -103v-290q0 -61 1 -79q20 -1 108 -1q27 0 73 0.5t66 0.5q-3 -12 -3 -24q-63 3 -135 3q-75 0 -134 -3zM202 678l38 4l-114 -142l-21 -1z" />
    <glyph glyph-name="lcaron.sc" horiz-adv-x="399" 
d="M95 -2q1 34 1 170v155q0 135 -1 168q15 0 25 3q-1 -21 -1 -103v-290q0 -61 1 -79q20 -1 108 -1q27 0 73 0.5t66 0.5q-3 -12 -3 -24q-63 3 -135 3q-75 0 -134 -3zM206 381l-13 -3q7 76 9 117l28 4q-19 -96 -24 -118z" />
    <glyph glyph-name="lcommaaccent.sc" horiz-adv-x="399" 
d="M95 -2q1 34 1 170v155q0 135 -1 168q15 0 25 3q-1 -21 -1 -103v-290q0 -61 1 -79q20 -1 108 -1q27 0 73 0.5t66 0.5q-3 -12 -3 -24q-63 3 -135 3q-75 0 -134 -3zM185 -208l9 11q29 36 29 62q0 23 -26 31l-10 3q3 30 29 30q30 0 30 -46q0 -45 -50 -101z" />
    <glyph glyph-name="ldot.sc" horiz-adv-x="399" 
d="M95 -2q1 34 1 170v155q0 135 -1 168q15 0 25 3q-1 -21 -1 -103v-290q0 -61 1 -79q20 -1 108 -1q27 0 73 0.5t66 0.5q-3 -12 -3 -24q-63 3 -135 3q-75 0 -134 -3zM333 274q0 -11 -7 -18t-19 -7q-10 0 -17 7t-7 17t7 17t19 7q11 0 17.5 -7t6.5 -16z" />
    <glyph glyph-name="lslash.sc" horiz-adv-x="399" 
d="M95 -2q1 34 1 170v54l-44 -25q-4 12 -10 21q50 27 54 29v76q0 135 -1 168q15 0 25 3q-1 -21 -1 -103v-130q48 28 86 51l9 -22q-15 -9 -47.5 -27.5t-47.5 -27.5v-134q0 -61 1 -79q20 -1 108 -1q27 0 73 0.5t66 0.5q-3 -12 -3 -24q-63 3 -135 3q-75 0 -134 -3z" />
    <glyph glyph-name="nacute.sc" horiz-adv-x="581" 
d="M97 0q1 34 1 168v155q0 145 -1 178l9 2l357 -465v285q0 102 -2 168q15 0 25 3q-1 -21 -1 -103l-1 -291q0 -90 1 -110l-9 -2l-356 463v-350q0 -81 1 -101h-24zM355 722l38 4l-114 -142l-21 -1z" />
    <glyph glyph-name="ncaron.sc" horiz-adv-x="581" 
d="M97 0q1 34 1 168v155q0 145 -1 178l9 2l357 -465v285q0 102 -2 168q15 0 25 3q-1 -21 -1 -103l-1 -291q0 -90 1 -110l-9 -2l-356 463v-350q0 -81 1 -101h-24zM295 577h-11l-116 136l19 4l104 -110l103 105h23z" />
    <glyph glyph-name="ncommaaccent.sc" horiz-adv-x="581" 
d="M97 0q1 34 1 168v155q0 145 -1 178l9 2l357 -465v285q0 102 -2 168q15 0 25 3q-1 -21 -1 -103l-1 -291q0 -90 1 -110l-9 -2l-356 463v-350q0 -81 1 -101h-24zM258 -208l9 11q29 36 29 62q0 23 -26 31l-10 3q3 30 29 30q30 0 30 -46q0 -45 -50 -101z" />
    <glyph glyph-name="ntilde.sc" horiz-adv-x="581" 
d="M97 0q1 34 1 168v155q0 145 -1 178l9 2l357 -465v285q0 102 -2 168q15 0 25 3q-1 -21 -1 -103l-1 -291q0 -90 1 -110l-9 -2l-356 463v-350q0 -81 1 -101h-24zM151 616q19 86 74 86q26 0 75 -32t68 -32q35 0 54 69l19 -4q-19 -86 -74 -86q-26 0 -75 32t-68 32
q-35 0 -54 -69z" />
    <glyph glyph-name="oacute.sc" horiz-adv-x="592" 
d="M303 504q103 0 170 -72t67 -174q0 -115 -70.5 -193t-180.5 -78q-103 0 -170 72t-67 174q0 115 70.5 193t180.5 78zM290 8q99 0 162.5 71.5t63.5 175.5q0 95 -60 161.5t-154 66.5q-99 0 -162.5 -71.5t-63.5 -175.5q0 -95 60 -161.5t154 -66.5zM360 722l38 4l-114 -142
l-21 -1z" />
    <glyph glyph-name="obreve.sc" horiz-adv-x="592" 
d="M303 504q103 0 170 -72t67 -174q0 -115 -70.5 -193t-180.5 -78q-103 0 -170 72t-67 174q0 115 70.5 193t180.5 78zM290 8q99 0 162.5 71.5t63.5 175.5q0 95 -60 161.5t-154 66.5q-99 0 -162.5 -71.5t-63.5 -175.5q0 -95 60 -161.5t154 -66.5zM406 723l21 2
q2 -61 -33.5 -96.5t-100.5 -35.5q-56 0 -92.5 35.5t-36.5 87.5l21 3q0 -46 31.5 -76t78.5 -30q52 0 82.5 30.5t28.5 79.5z" />
    <glyph glyph-name="ocircumflex.sc" horiz-adv-x="592" 
d="M303 504q103 0 170 -72t67 -174q0 -115 -70.5 -193t-180.5 -78q-103 0 -170 72t-67 174q0 115 70.5 193t180.5 78zM290 8q99 0 162.5 71.5t63.5 175.5q0 95 -60 161.5t-154 66.5q-99 0 -162.5 -71.5t-63.5 -175.5q0 -95 60 -161.5t154 -66.5zM291 726h11l116 -136l-19 -4
l-104 110l-103 -105h-23z" />
    <glyph glyph-name="odieresis.sc" horiz-adv-x="592" 
d="M303 504q103 0 170 -72t67 -174q0 -115 -70.5 -193t-180.5 -78q-103 0 -170 72t-67 174q0 115 70.5 193t180.5 78zM290 8q99 0 162.5 71.5t63.5 175.5q0 95 -60 161.5t-154 66.5q-99 0 -162.5 -71.5t-63.5 -175.5q0 -95 60 -161.5t154 -66.5zM247 638q0 -11 -7 -18
t-19 -7q-10 0 -17 7t-7 17t7 17t19 7q11 0 17.5 -7t6.5 -16zM395 638q0 -11 -7 -18t-19 -7q-10 0 -17 7t-7 17t7 17t19 7q11 0 17.5 -7t6.5 -16z" />
    <glyph glyph-name="ograve.sc" horiz-adv-x="592" 
d="M303 504q103 0 170 -72t67 -174q0 -115 -70.5 -193t-180.5 -78q-103 0 -170 72t-67 174q0 115 70.5 193t180.5 78zM290 8q99 0 162.5 71.5t63.5 175.5q0 95 -60 161.5t-154 66.5q-99 0 -162.5 -71.5t-63.5 -175.5q0 -95 60 -161.5t154 -66.5zM191 723l34 2l97 -140
l-18 -2z" />
    <glyph glyph-name="ohungarumlaut.sc" horiz-adv-x="592" 
d="M303 504q103 0 170 -72t67 -174q0 -115 -70.5 -193t-180.5 -78q-103 0 -170 72t-67 174q0 115 70.5 193t180.5 78zM290 8q99 0 162.5 71.5t63.5 175.5q0 95 -60 161.5t-154 66.5q-99 0 -162.5 -71.5t-63.5 -175.5q0 -95 60 -161.5t154 -66.5zM272 730l35 4l-73 -155
l-18 -1zM400 730l35 4l-79 -152l-18 -1z" />
    <glyph glyph-name="omacron.sc" horiz-adv-x="592" 
d="M303 504q103 0 170 -72t67 -174q0 -115 -70.5 -193t-180.5 -78q-103 0 -170 72t-67 174q0 115 70.5 193t180.5 78zM290 8q99 0 162.5 71.5t63.5 175.5q0 95 -60 161.5t-154 66.5q-99 0 -162.5 -71.5t-63.5 -175.5q0 -95 60 -161.5t154 -66.5zM434 668q-2 -6 -4 -24
q-20 0 -58 0.5t-56 0.5h-50q-22 0 -57 -0.5t-50 -0.5q2 12 2 24q72 -2 136 -2q91 0 137 2z" />
    <glyph glyph-name="oslash.sc" horiz-adv-x="592" 
d="M82 -19l-19 12q31 34 57 64q-68 73 -68 176q0 115 70.5 193t180.5 78q86 0 151 -55l48 57q4 -2 10 -6.5t9 -6.5l-51 -59q70 -72 70 -176q0 -115 -70.5 -193t-180.5 -78q-88 0 -153 55q-25 -26 -54 -61zM290 8q99 0 162.5 71.5t63.5 175.5q0 96 -61 162l-304 -357
q59 -52 139 -52zM76 236q0 -97 59 -162l304 358q-57 51 -137 51q-99 0 -162.5 -71.5t-63.5 -175.5z" />
    <glyph glyph-name="oslashacute.sc" horiz-adv-x="592" 
d="M82 -19l-19 12q31 34 57 64q-68 73 -68 176q0 115 70.5 193t180.5 78q86 0 151 -55l48 57q4 -2 10 -6.5t9 -6.5l-51 -59q70 -72 70 -176q0 -115 -70.5 -193t-180.5 -78q-88 0 -153 55q-25 -26 -54 -61zM290 8q99 0 162.5 71.5t63.5 175.5q0 96 -61 162l-304 -357
q59 -52 139 -52zM76 236q0 -97 59 -162l304 358q-57 51 -137 51q-99 0 -162.5 -71.5t-63.5 -175.5zM360 722l38 4l-114 -142l-21 -1z" />
    <glyph glyph-name="otilde.sc" horiz-adv-x="592" 
d="M303 504q103 0 170 -72t67 -174q0 -115 -70.5 -193t-180.5 -78q-103 0 -170 72t-67 174q0 115 70.5 193t180.5 78zM290 8q99 0 162.5 71.5t63.5 175.5q0 95 -60 161.5t-154 66.5q-99 0 -162.5 -71.5t-63.5 -175.5q0 -95 60 -161.5t154 -66.5zM156 616q19 86 74 86
q26 0 75 -32t68 -32q35 0 54 69l19 -4q-19 -86 -74 -86q-26 0 -75 32t-68 32q-35 0 -54 -69z" />
    <glyph glyph-name="racute.sc" horiz-adv-x="459" 
d="M421 0l-27 -6l-151 225q-14 -1 -28 -1h-96v-117q0 -14 0.5 -53t0.5 -48h-25q1 34 1 168v155q0 136 -1 170q17 0 60.5 1t60.5 1q77 0 119.5 -36.5t42.5 -94.5q0 -53 -30 -89t-81 -51l81 -119q35 -53 73 -105zM119 239h105q59 0 95 35.5t36 85.5q0 54 -36.5 83.5
t-107.5 29.5q-68 0 -92 -1v-233zM288 722l38 4l-114 -142l-21 -1z" />
    <glyph glyph-name="rcaron.sc" horiz-adv-x="459" 
d="M421 0l-27 -6l-151 225q-14 -1 -28 -1h-96v-117q0 -14 0.5 -53t0.5 -48h-25q1 34 1 168v155q0 136 -1 170q17 0 60.5 1t60.5 1q77 0 119.5 -36.5t42.5 -94.5q0 -53 -30 -89t-81 -51l81 -119q35 -53 73 -105zM119 239h105q59 0 95 35.5t36 85.5q0 54 -36.5 83.5
t-107.5 29.5q-68 0 -92 -1v-233zM227 586h-11l-116 136l19 4l104 -110l103 105h23z" />
    <glyph glyph-name="rcommaaccent.sc" horiz-adv-x="459" 
d="M421 0l-27 -6l-151 225q-14 -1 -28 -1h-96v-117q0 -14 0.5 -53t0.5 -48h-25q1 34 1 168v155q0 136 -1 170q17 0 60.5 1t60.5 1q77 0 119.5 -36.5t42.5 -94.5q0 -53 -30 -89t-81 -51l81 -119q35 -53 73 -105zM119 239h105q59 0 95 35.5t36 85.5q0 54 -36.5 83.5
t-107.5 29.5q-68 0 -92 -1v-233zM209 -208l9 11q29 36 29 62q0 23 -26 31l-10 3q3 30 29 30q30 0 30 -46q0 -45 -50 -101z" />
    <glyph glyph-name="sacute.sc" horiz-adv-x="395" 
d="M342 122q0 -55 -42.5 -95t-114.5 -40q-76 0 -138 38l3 26q60 -43 136 -43q62 0 97.5 33t35.5 79q0 35 -26 61.5t-63 43.5t-74 35t-63 46.5t-26 67.5q0 55 40.5 92.5t108.5 37.5q61 0 113 -31l-7 -22q-51 32 -107 32q-57 0 -91 -31t-34 -76q0 -35 26 -60.5t63 -42.5
t74 -35t63 -47t26 -69zM273 722l38 4l-114 -142l-21 -1z" />
    <glyph glyph-name="scaron.sc" horiz-adv-x="395" 
d="M342 122q0 -55 -42.5 -95t-114.5 -40q-76 0 -138 38l3 26q60 -43 136 -43q62 0 97.5 33t35.5 79q0 35 -26 61.5t-63 43.5t-74 35t-63 46.5t-26 67.5q0 55 40.5 92.5t108.5 37.5q61 0 113 -31l-7 -22q-51 32 -107 32q-57 0 -91 -31t-34 -76q0 -35 26 -60.5t63 -42.5
t74 -35t63 -47t26 -69zM212 586h-11l-116 136l19 4l104 -110l103 105h23z" />
    <glyph glyph-name="scedilla.sc" horiz-adv-x="395" 
d="M342 122q0 -52 -39 -91t-106 -43l-18 -60q94 -23 94 -72q0 -24 -19 -39.5t-53 -15.5q-35 0 -78 18l4 21q41 -18 76 -18q49 0 49 33q0 20 -21 33.5t-75 23.5l-3 4q2 10 10.5 34.5t11.5 36.5q-72 3 -128 38l3 26q60 -43 136 -43q62 0 97.5 33t35.5 79q0 35 -26 61.5
t-63 43.5t-74 35t-63 46.5t-26 67.5q0 55 40.5 92.5t108.5 37.5q61 0 113 -31l-7 -22q-51 32 -107 32q-57 0 -91 -31t-34 -76q0 -35 26 -60.5t63 -42.5t74 -35t63 -47t26 -69z" />
    <glyph glyph-name="scommaaccent.sc" horiz-adv-x="395" 
d="M342 122q0 -55 -42.5 -95t-114.5 -40q-76 0 -138 38l3 26q60 -43 136 -43q62 0 97.5 33t35.5 79q0 35 -26 61.5t-63 43.5t-74 35t-63 46.5t-26 67.5q0 55 40.5 92.5t108.5 37.5q61 0 113 -31l-7 -22q-51 32 -107 32q-57 0 -91 -31t-34 -76q0 -35 26 -60.5t63 -42.5
t74 -35t63 -47t26 -69zM156 -208l9 11q29 36 29 62q0 23 -26 31l-10 3q3 30 29 30q30 0 30 -46q0 -45 -50 -101z" />
    <glyph glyph-name="tcaron.sc" horiz-adv-x="437" 
d="M414 494q-3 -12 -3 -23q-52 1 -180 1v-371q0 -81 1 -101h-26q2 34 2 168v155q0 115 -2 149q-137 0 -183 -1q3 8 3 23q112 -2 193 -2q85 0 195 2zM222 586h-11l-116 136l19 4l104 -110l103 105h23z" />
    <glyph glyph-name="tcommaaccent.sc" horiz-adv-x="437" 
d="M414 494q-3 -12 -3 -23q-52 1 -180 1v-371q0 -81 1 -101h-26q2 34 2 168v155q0 115 -2 149q-137 0 -183 -1q3 8 3 23q112 -2 193 -2q85 0 195 2zM186 -208l9 11q29 36 29 62q0 23 -26 31l-10 3q3 30 29 30q30 0 30 -46q0 -45 -50 -101z" />
    <glyph glyph-name="uacute.sc" horiz-adv-x="540" 
d="M455 494q-1 -21 -1 -103v-211q0 -96 -52 -145q-50 -48 -133 -48t-133 47t-50 135v154q0 135 -1 168q15 0 25 3q0 -10 -0.5 -49t-0.5 -54v-216q0 -83 43 -125t121 -42q71 0 114.5 43t43.5 122v150q0 135 -2 168q14 0 26 3zM334 722l38 4l-114 -142l-21 -1z" />
    <glyph glyph-name="ubreve.sc" horiz-adv-x="540" 
d="M455 494q-1 -21 -1 -103v-211q0 -96 -52 -145q-50 -48 -133 -48t-133 47t-50 135v154q0 135 -1 168q15 0 25 3q0 -10 -0.5 -49t-0.5 -54v-216q0 -83 43 -125t121 -42q71 0 114.5 43t43.5 122v150q0 135 -2 168q14 0 26 3zM380 723l21 2q2 -61 -33.5 -96.5t-100.5 -35.5
q-56 0 -92.5 35.5t-36.5 87.5l21 3q0 -46 31.5 -76t78.5 -30q52 0 82.5 30.5t28.5 79.5z" />
    <glyph glyph-name="ucircumflex.sc" horiz-adv-x="540" 
d="M455 494q-1 -21 -1 -103v-211q0 -96 -52 -145q-50 -48 -133 -48t-133 47t-50 135v154q0 135 -1 168q15 0 25 3q0 -10 -0.5 -49t-0.5 -54v-216q0 -83 43 -125t121 -42q71 0 114.5 43t43.5 122v150q0 135 -2 168q14 0 26 3zM265 726h11l116 -136l-19 -4l-104 110l-103 -105
h-23z" />
    <glyph glyph-name="udieresis.sc" horiz-adv-x="540" 
d="M455 494q-1 -21 -1 -103v-211q0 -96 -52 -145q-50 -48 -133 -48t-133 47t-50 135v154q0 135 -1 168q15 0 25 3q0 -10 -0.5 -49t-0.5 -54v-216q0 -83 43 -125t121 -42q71 0 114.5 43t43.5 122v150q0 135 -2 168q14 0 26 3zM221 638q0 -11 -7 -18t-19 -7q-10 0 -17 7t-7 17
t7 17t19 7q11 0 17.5 -7t6.5 -16zM369 638q0 -11 -7 -18t-19 -7q-10 0 -17 7t-7 17t7 17t19 7q11 0 17.5 -7t6.5 -16z" />
    <glyph glyph-name="ugrave.sc" horiz-adv-x="540" 
d="M455 494q-1 -21 -1 -103v-211q0 -96 -52 -145q-50 -48 -133 -48t-133 47t-50 135v154q0 135 -1 168q15 0 25 3q0 -10 -0.5 -49t-0.5 -54v-216q0 -83 43 -125t121 -42q71 0 114.5 43t43.5 122v150q0 135 -2 168q14 0 26 3zM165 723l34 2l97 -140l-18 -2z" />
    <glyph glyph-name="uhungarumlaut.sc" horiz-adv-x="540" 
d="M455 494q-1 -21 -1 -103v-211q0 -96 -52 -145q-50 -48 -133 -48t-133 47t-50 135v154q0 135 -1 168q15 0 25 3q0 -10 -0.5 -49t-0.5 -54v-216q0 -83 43 -125t121 -42q71 0 114.5 43t43.5 122v150q0 135 -2 168q14 0 26 3zM246 730l35 4l-73 -155l-18 -1zM374 730l35 4
l-79 -152l-18 -1z" />
    <glyph glyph-name="umacron.sc" horiz-adv-x="540" 
d="M455 494q-1 -21 -1 -103v-211q0 -96 -52 -145q-50 -48 -133 -48t-133 47t-50 135v154q0 135 -1 168q15 0 25 3q0 -10 -0.5 -49t-0.5 -54v-216q0 -83 43 -125t121 -42q71 0 114.5 43t43.5 122v150q0 135 -2 168q14 0 26 3zM408 668q-2 -6 -4 -24q-20 0 -58 0.5t-56 0.5
h-50q-22 0 -57 -0.5t-50 -0.5q2 12 2 24q72 -2 136 -2q91 0 137 2z" />
    <glyph glyph-name="uogonek.sc" horiz-adv-x="540" 
d="M217 -131q0 30 25.5 63.5t70.5 58.5q-19 -4 -44 -4q-83 0 -133 47t-50 135v154q0 135 -1 168q15 0 25 3q0 -10 -0.5 -49t-0.5 -54v-216q0 -83 43 -125t121 -42q71 0 114.5 43t43.5 122v150q0 135 -2 168q14 0 26 3q-1 -21 -1 -103v-211q0 -93 -52 -145q-8 -8 -19.5 -16.5
t-20 -13.5t-23 -14t-21.5 -13q-33 -21 -55 -49.5t-22 -56.5q0 -32 32 -32q36 0 67 27l-2 -24q-30 -24 -68 -24q-26 0 -39.5 13.5t-13.5 36.5z" />
    <glyph glyph-name="uring.sc" horiz-adv-x="540" 
d="M455 494q-1 -21 -1 -103v-211q0 -96 -52 -145q-50 -48 -133 -48t-133 47t-50 135v154q0 135 -1 168q15 0 25 3q0 -10 -0.5 -49t-0.5 -54v-216q0 -83 43 -125t121 -42q71 0 114.5 43t43.5 122v150q0 135 -2 168q14 0 26 3zM369 680q0 -44 -28.5 -74.5t-72.5 -30.5
q-42 0 -69 28t-27 67q0 45 28 74.5t73 29.5q42 0 69 -27.5t27 -66.5zM348 679q0 32 -20.5 53.5t-54.5 21.5q-36 0 -58 -23.5t-22 -59.5q0 -31 20.5 -53.5t55.5 -22.5t57 24t22 60z" />
    <glyph glyph-name="wacute.sc" horiz-adv-x="723" 
d="M689 489l-118 -348q-14 -43 -30 -90t-21 -62l-10 -3l-146 456l-101 -306q-10 -29 -21 -61.5t-18 -52t-11 -35.5h-10l-128 385q-37 110 -41 117l26 4l148 -453l110 328q41 124 42 125l10 3l146 -455l106 324q7 22 17 52.5t16 50t7 21.5h27zM430 722l38 4l-114 -142l-21 -1
z" />
    <glyph glyph-name="wcircumflex.sc" horiz-adv-x="723" 
d="M689 489l-118 -348q-14 -43 -30 -90t-21 -62l-10 -3l-146 456l-101 -306q-10 -29 -21 -61.5t-18 -52t-11 -35.5h-10l-128 385q-37 110 -41 117l26 4l148 -453l110 328q41 124 42 125l10 3l146 -455l106 324q7 22 17 52.5t16 50t7 21.5h27zM361 726h11l116 -136l-19 -4
l-104 110l-103 -105h-23z" />
    <glyph glyph-name="wdieresis.sc" horiz-adv-x="723" 
d="M689 489l-118 -348q-14 -43 -30 -90t-21 -62l-10 -3l-146 456l-101 -306q-10 -29 -21 -61.5t-18 -52t-11 -35.5h-10l-128 385q-37 110 -41 117l26 4l148 -453l110 328q41 124 42 125l10 3l146 -455l106 324q7 22 17 52.5t16 50t7 21.5h27zM465 638q0 -11 -7 -18t-19 -7
q-10 0 -17 7t-7 17t7 17t19 7q11 0 17.5 -7t6.5 -16zM317 638q0 -11 -7 -18t-19 -7q-10 0 -17 7t-7 17t7 17t19 7q11 0 17.5 -7t6.5 -16z" />
    <glyph glyph-name="wgrave.sc" horiz-adv-x="723" 
d="M689 489l-118 -348q-14 -43 -30 -90t-21 -62l-10 -3l-146 456l-101 -306q-10 -29 -21 -61.5t-18 -52t-11 -35.5h-10l-128 385q-37 110 -41 117l26 4l148 -453l110 328q41 124 42 125l10 3l146 -455l106 324q7 22 17 52.5t16 50t7 21.5h27zM261 723l34 2l97 -140l-18 -2z
" />
    <glyph glyph-name="yacute.sc" horiz-adv-x="443" 
d="M28 490l27 4l167 -258l68 104q5 7 50 78t47 75h28l-182 -280v-112q0 -81 1 -101h-27q3 51 3 162v50l-77 119q-3 6 -105 159zM286 722l38 4l-114 -142l-21 -1z" />
    <glyph glyph-name="ycircumflex.sc" horiz-adv-x="443" 
d="M28 490l27 4l167 -258l68 104q5 7 50 78t47 75h28l-182 -280v-112q0 -81 1 -101h-27q3 51 3 162v50l-77 119q-3 6 -105 159zM217 726h11l116 -136l-19 -4l-104 110l-103 -105h-23z" />
    <glyph glyph-name="ydieresis.sc" horiz-adv-x="443" 
d="M28 490l27 4l167 -258l68 104q5 7 50 78t47 75h28l-182 -280v-112q0 -81 1 -101h-27q3 51 3 162v50l-77 119q-3 6 -105 159zM321 638q0 -11 -7 -18t-19 -7q-10 0 -17 7t-7 17t7 17t19 7q11 0 17.5 -7t6.5 -16zM173 638q0 -11 -7 -18t-19 -7q-10 0 -17 7t-7 17t7 17t19 7
q11 0 17.5 -7t6.5 -16z" />
    <glyph glyph-name="ygrave.sc" horiz-adv-x="443" 
d="M28 490l27 4l167 -258l68 104q5 7 50 78t47 75h28l-182 -280v-112q0 -81 1 -101h-27q3 51 3 162v50l-77 119q-3 6 -105 159zM117 723l34 2l97 -140l-18 -2z" />
    <glyph glyph-name="zacute.sc" horiz-adv-x="448" 
d="M407 494l5 -6l-333 -466q41 -1 139 -1q70 0 180 2q-4 -18 -4 -25q-76 3 -177 3q-98 0 -173 -3l-5 6l333 467q-44 1 -135 1q-130 0 -173 -1q3 12 3 23q100 -2 172 -2t168 2zM306 722l38 4l-114 -142l-21 -1z" />
    <glyph glyph-name="zcaron.sc" horiz-adv-x="448" 
d="M407 494l5 -6l-333 -466q41 -1 139 -1q70 0 180 2q-4 -18 -4 -25q-76 3 -177 3q-98 0 -173 -3l-5 6l333 467q-44 1 -135 1q-130 0 -173 -1q3 12 3 23q100 -2 172 -2t168 2zM245 586h-11l-116 136l19 4l104 -110l103 105h23z" />
    <glyph glyph-name="zdotaccent.sc" horiz-adv-x="448" 
d="M407 494l5 -6l-333 -466q41 -1 139 -1q70 0 180 2q-4 -18 -4 -25q-76 3 -177 3q-98 0 -173 -3l-5 6l333 467q-44 1 -135 1q-130 0 -173 -1q3 12 3 23q100 -2 172 -2t168 2zM267 638q0 -11 -7 -18t-19 -7q-10 0 -17 7t-7 17t7 17t19 7q11 0 17.5 -7t6.5 -16z" />
    <glyph glyph-name="ae.sc" horiz-adv-x="657" 
d="M38 0h-28l228 345q88 133 98 149q76 -2 131 -2t135 2q-3 -12 -3 -23q-18 0 -62.5 0.5t-69.5 0.5q-84 0 -103 -1q-1 -23 -1 -79v-124h207q-2 -7 -2 -21h-205v-146q0 -56 1 -79q27 -1 101 -1q55 0 147 2q-4 -12 -4 -25q-60 3 -138 3q-76 0 -131 -3q1 33 1 170v16h-184
l-38 -59zM340 323q0 95 -1 138l-169 -256h170v118z" />
    <glyph glyph-name="aeacute.sc" horiz-adv-x="657" 
d="M38 0h-28l228 345q88 133 98 149q76 -2 131 -2t135 2q-3 -12 -3 -23q-18 0 -62.5 0.5t-69.5 0.5q-84 0 -103 -1q-1 -23 -1 -79v-124h207q-2 -7 -2 -21h-205v-146q0 -56 1 -79q27 -1 101 -1q55 0 147 2q-4 -12 -4 -25q-60 3 -138 3q-76 0 -131 -3q1 33 1 170v16h-184
l-38 -59zM340 323q0 95 -1 138l-169 -256h170v118zM483 722l38 4l-114 -142l-21 -1z" />
    <glyph glyph-name="oe.sc" horiz-adv-x="739" 
d="M324 494q24 0 109 -1t116 -1q55 0 135 2q-3 -12 -3 -23q-18 0 -62.5 0.5t-69.5 0.5q-84 0 -103 -1q-1 -23 -1 -79v-124h207q-2 -7 -2 -21h-205v-146q0 -56 1 -79q27 -1 101 -1q55 0 147 2q-4 -12 -4 -25q-60 3 -138 3q-30 0 -120 -0.5t-112 -0.5q-124 0 -196 66.5
t-72 171.5q0 113 73 184.5t199 71.5zM76 241q0 -98 66 -158.5t180 -60.5q64 0 100 2v446q-23 2 -98 2q-117 0 -182.5 -64.5t-65.5 -166.5z" />
    <glyph glyph-name="eth.sc" horiz-adv-x="542" 
d="M490 256q0 -113 -73 -184.5t-199 -71.5h-122q1 34 1 168v72q-10 0 -26.5 -0.5t-24.5 -0.5q2 12 2 24q26 -2 49 -2v62q0 151 -1 168q75 3 126 3q124 0 196 -66.5t72 -171.5zM466 253q0 98 -66 158.5t-180 60.5q-46 0 -100 -3v-208q79 0 119 2q-4 -14 -4 -24
q-17 0 -50.5 0.5t-49.5 0.5h-15v-216q23 -2 98 -2q117 0 182.5 64.5t65.5 166.5z" />
    <glyph glyph-name="thorn.sc" horiz-adv-x="424" 
d="M119 383q42 3 79 3q90 0 136.5 -37t46.5 -102q0 -70 -52 -109.5t-154 -39.5q-28 0 -56 2q0 -14 0.5 -52.5t0.5 -47.5h-25q1 34 1 168v155q0 102 -2 168q14 0 26 3q-1 -21 -1 -111zM119 361v-240q18 -2 57 -2q92 0 137 32.5t45 90.5q0 122 -161 122q-41 0 -78 -3z" />
    <glyph glyph-name="one.alt" horiz-adv-x="238" 
d="M133 0h-26q2 43 2 170v123q0 89 -4 175q10 0 28 2l-1 -127v-240q0 -19 0.5 -55t0.5 -48z" />
    <glyph glyph-name="zero.lin" horiz-adv-x="594" 
d="M300 704q109 0 171.5 -101.5t62.5 -251.5q0 -163 -65 -266t-175 -103q-108 0 -171 101.5t-63 251.5q0 163 65 266t175 103zM296 4q97 0 155.5 97.5t58.5 246.5q0 145 -56 239.5t-156 94.5q-97 0 -155.5 -97.5t-58.5 -246.5q0 -145 56 -239.5t156 -94.5z" />
    <glyph glyph-name="one.lin" horiz-adv-x="299" 
d="M178 698l6 -2l-1 -129v-427q0 -113 1 -140h-26q2 47 2 234v435l-128 -41l-5 22q91 29 108 34z" />
    <glyph glyph-name="two.lin" horiz-adv-x="509" 
d="M80 22q283 0 376 3q-5 -15 -5 -26q-91 3 -207 3q-118 0 -198 -4l-6 17q211 211 290 317t79 189q0 69 -43.5 113.5t-118.5 44.5q-85 0 -171 -71l-15 18q97 75 186 75q85 0 135.5 -49.5t50.5 -128.5q0 -65 -39.5 -135t-132.5 -174q-63 -71 -181 -192z" />
    <glyph glyph-name="three.lin" horiz-adv-x="493" 
d="M42 15l-2 25q79 -32 158 -32q100 0 160.5 45.5t60.5 124.5q0 81 -74.5 124.5t-203.5 42.5l-6 15q124 16 196 63t72 122q0 56 -44.5 95t-116.5 39q-84 0 -166 -62l-13 21q88 63 181 63q81 0 132 -44t51 -109q0 -75 -55 -122t-139 -65q102 -16 156 -64t54 -119
q0 -87 -67.5 -139.5t-175.5 -52.5q-76 0 -158 29z" />
    <glyph glyph-name="four.lin" horiz-adv-x="515" 
d="M360 0q2 49 2 194v32h-117q-157 0 -222 -3l-9 15l282 366l72 94l17 -3l-1 -150v-297q38 0 114 2q-4 -13 -5 -26l-109 2v-113q0 -21 0.5 -61t0.5 -52h-25zM49 248q63 -1 231 -1q11 0 40.5 0.5t41.5 0.5l-1 405z" />
    <glyph glyph-name="five.lin" horiz-adv-x="485" 
d="M430 194q0 -96 -70 -152t-177 -56q-71 0 -131 21l-2 25q60 -24 132 -24q97 0 160.5 49.5t63.5 135.5q0 175 -241 175q-31 0 -79 -7l-3 4q5 60 7 103l5 87q3 61 3 126l4 3h164q107 0 150 2q-3 -10 -5 -24q-21 0 -68 1t-74 1q-23 0 -72.5 -0.5t-74.5 -0.5l-14 -277
q30 4 56 4q126 0 196 -48.5t70 -147.5z" />
    <glyph glyph-name="six.lin" horiz-adv-x="543" 
d="M438 687q-147 -30 -244 -144.5t-109 -269.5q24 67 79.5 105.5t123.5 38.5q89 0 144.5 -58t55.5 -144q0 -98 -60.5 -165.5t-154.5 -67.5q-95 0 -154 69t-59 186q0 172 105.5 305t267.5 166zM464 213q0 78 -49 130t-130 52q-83 0 -138.5 -61.5t-55.5 -140.5q0 -75 50 -132
t133 -57q84 0 137 60.5t53 148.5z" />
    <glyph glyph-name="seven.lin" horiz-adv-x="460" 
d="M35 687q79 -3 194 -3q109 0 193 3l12 -14q-7 -13 -21 -44t-22 -47l-214 -457q-9 -21 -23.5 -50.5t-22.5 -47.5t-12 -29l-30 4q33 59 90 181l225 480q-23 1 -177 1q-148 0 -197 -1q4 9 5 24z" />
    <glyph glyph-name="eight.lin" horiz-adv-x="526" 
d="M50 160q0 140 182 198q-157 59 -157 173q0 71 54 122t138 51q82 0 135.5 -50t53.5 -122q0 -119 -162 -173q84 -30 133 -78t49 -109q0 -80 -62 -135t-156 -55q-89 0 -148.5 51t-59.5 127zM452 171q0 60 -50.5 105t-138.5 71q-189 -50 -189 -186q0 -66 52.5 -111.5
t132.5 -45.5q85 0 139 48t54 119zM99 532q0 -62 43 -99.5t124 -63.5q166 46 166 162q0 62 -47 106.5t-119 44.5q-74 0 -120.5 -43.5t-46.5 -106.5z" />
    <glyph glyph-name="nine.lin" horiz-adv-x="542" 
d="M105 -2q147 30 243.5 144t108.5 269q-23 -66 -78.5 -104.5t-123.5 -38.5q-89 0 -144.5 58t-55.5 144q0 98 60.5 165.5t154.5 67.5q95 0 154 -69t59 -186q0 -172 -105.5 -305t-267.5 -166zM79 472q0 -78 49 -130t130 -52q83 0 138.5 61.5t55.5 140.5q0 75 -50 132t-133 57
q-84 0 -137 -60.5t-53 -148.5z" />
    <glyph glyph-name="hyphen.lin" horiz-adv-x="351" 
d="M316 344q-2 -6 -4 -24q-20 0 -58 0.5t-56 0.5h-50q-22 0 -57 -0.5t-50 -0.5q2 12 2 24q72 -2 136 -2q91 0 137 2z" />
    <glyph glyph-name="endash.lin" horiz-adv-x="471" 
d="M436 344q-2 -6 -4 -24q-24 0 -72.5 0.5t-71.5 0.5h-110q-28 0 -73 -0.5t-64 -0.5q2 12 2 24q108 -2 196 -2q133 0 197 2z" />
    <glyph glyph-name="emdash.lin" horiz-adv-x="877" 
d="M836 344q-2 -6 -4 -24q-41 0 -128 0.5t-126 0.5h-290q-52 0 -132 -0.5t-115 -0.5q2 12 2 24q228 -2 396 -2q273 0 397 2z" />
    <glyph glyph-name="parenleft.lin" horiz-adv-x="359" 
d="M370 -141q-125 62 -212.5 190.5t-87.5 279.5q0 153 86.5 283t213.5 193l11 -18q-122 -60 -204.5 -184.5t-82.5 -272.5q0 -146 83.5 -270.5t203.5 -182.5z" />
    <glyph glyph-name="parenright.lin" horiz-adv-x="359" 
d="M-9 -141l-11 18q120 58 203.5 182.5t83.5 270.5q0 148 -82.5 272.5t-204.5 184.5l11 18q127 -63 213.5 -193t86.5 -283q0 -151 -87.5 -279.5t-212.5 -190.5z" />
    <glyph glyph-name="bracketleft.lin" horiz-adv-x="329" 
d="M319 -115q-4 -13 -4 -25q-30 1 -96 1h-115l-3 3q3 54 3 182v561q0 138 -3 195l3 3h113q44 0 102 2q-4 -13 -4 -25q-30 1 -96 1h-92v-764q0 -106 1 -136h89q44 0 102 2z" />
    <glyph glyph-name="bracketright.lin" horiz-adv-x="329" 
d="M10 782q4 13 4 25q30 -1 96 -1h115l3 -3q-3 -54 -3 -182v-561q0 -138 3 -195l-3 -3h-113q-44 0 -102 -2q4 13 4 25q30 -1 96 -1h92v764q0 106 -1 136h-89q-44 0 -102 -2z" />
    <glyph glyph-name="braceleft.lin" horiz-adv-x="323" 
d="M67 326v15q84 23 111.5 39t27.5 41q0 15 -34 85.5t-34 117.5q0 140 197 183l6 -19q-97 -21 -139 -64.5t-42 -96.5q0 -42 34 -113.5t34 -91.5q0 -31 -25 -49.5t-95 -38.5q70 -21 95 -39.5t25 -49.5q0 -20 -34 -91.5t-34 -113.5q0 -53 42 -96.5t139 -64.5l-6 -19
q-197 43 -197 183q0 47 34 117.5t34 85.5q0 25 -27.5 41t-111.5 39z" />
    <glyph glyph-name="braceright.lin" horiz-adv-x="323" 
d="M256 341v-15q-84 -23 -111.5 -39t-27.5 -41q0 -15 34 -85.5t34 -117.5q0 -140 -197 -183l-6 19q97 21 139 64.5t42 96.5q0 42 -34 113.5t-34 91.5q0 31 24.5 49t95.5 39q-70 20 -95 39t-25 50q0 20 34 91.5t34 113.5q0 53 -42 96.5t-139 64.5l6 19q197 -43 197 -183
q0 -47 -34 -117.5t-34 -85.5q0 -25 27.5 -41t111.5 -39z" />
    <glyph glyph-name="at.cap" horiz-adv-x="826" 
d="M562 162q-86 0 -49 157q-27 -66 -78.5 -111.5t-93.5 -45.5q-41 0 -62 31.5t-21 83.5q0 93 62.5 176t145.5 83q47 0 76 -23l18 26l7 -3l-40 -252q-8 -54 1.5 -78t37.5 -24q69 0 120.5 76.5t51.5 183.5q0 106 -73 181t-204 75q-69 0 -134 -27t-116 -75t-82 -121t-31 -159
q0 -133 87.5 -222.5t227.5 -89.5q142 0 263 71l11 -18q-128 -75 -278 -75q-146 0 -240 96.5t-94 232.5q0 92 33.5 170.5t88.5 129.5t124.5 80t142.5 29q138 0 217.5 -81.5t79.5 -193.5q0 -116 -59.5 -199.5t-139.5 -83.5zM537 489q-27 25 -73 25q-75 0 -129.5 -75.5
t-54.5 -157.5q0 -97 65 -97q50 0 108 67.5t72 162.5z" />
    <glyph glyph-name="registered.alt" horiz-adv-x="858" 
d="M798 351q0 -153 -108 -261t-261 -108t-261 108t-108 261t108 261t261 108t261 -108t108 -261zM774 351q0 143 -101 245t-244 102t-244 -102t-101 -245t101 -245t244 -102t244 102t101 245zM359 357h69q45 0 71.5 25t26.5 61t-27 56.5t-80 20.5q-44 0 -60 -1v-162z
M335 540q22 1 84 1q63 0 96 -26.5t33 -71.5q0 -35 -22 -63.5t-59 -38.5l63 -91q5 -7 26 -37.5t31 -43.5l-26 -4l-117 172q-8 -1 -26 -1h-59v-82q0 -68 1 -84h-25q2 24 2 121v126q0 99 -2 123z" />
    <glyph glyph-name="dollar.lin" horiz-adv-x="527" 
d="M238 -123h-27q1 15 10 104q-103 9 -181 69l2 25q78 -62 181 -73l7 74l25 267q-44 21 -68.5 35t-55 37t-44.5 51t-14 62q0 73 55 123t151 50h7q3 33 5 89q7 0 27 2q-4 -18 -11 -92q91 -9 165 -65l-9 -22q-62 56 -157 65l-28 -321q47 -22 72 -35.5t57.5 -37.5t47.5 -54
t15 -67q0 -75 -57 -129.5t-161 -54.5h-7q-6 -72 -7 -102zM447 161q0 31 -13 57t-40.5 47t-52.5 35t-65 33q-2 -28 -11.5 -142t-16.5 -190h4q92 0 143.5 48t51.5 112zM96 531q0 -57 41 -92t120 -72l19 218l7 94h-4q-86 0 -134.5 -43t-48.5 -105z" />
    <glyph glyph-name="sterling.lin" horiz-adv-x="530" 
d="M50 317q2 14 2 23h106q-15 35 -21.5 52.5t-14.5 52t-8 68.5q0 81 53 134.5t136 53.5q78 0 142 -43l-6 -22q-62 43 -136 43t-120 -47t-46 -117q0 -73 45 -173q104 1 235 4l-3 -22q-38 0 -113.5 -1.5t-109.5 -1.5q28 -67 28 -115q0 -104 -113 -184q276 0 368 3
q-5 -17 -5 -27q-93 3 -202 3q-129 0 -214 -4l-3 18q68 32 107 81.5t39 108.5q0 48 -28 115z" />
    <glyph glyph-name="Euro.lin" horiz-adv-x="690" 
d="M314 261q140 0 207 2q-3 -9 -5 -23q-33 0 -102 0.5t-101 0.5h-153q25 -107 99.5 -173.5t184.5 -66.5q116 0 196 67l-1 -29q-83 -60 -196 -60q-118 0 -200 73.5t-108 188.5q-21 0 -58.5 -0.5t-54.5 -0.5q2 12 2 23q68 -2 107 -2q-6 35 -6 71q0 47 7 85q-18 0 -53 -0.5
t-51 -0.5q3 10 3 24q78 -2 106 -2q28 118 112.5 190.5t201.5 72.5q99 0 177 -55l-8 -21q-71 54 -172 54q-105 0 -182.5 -67.5t-104.5 -173.5h168q140 0 207 1q-3 -9 -5 -23q-33 0 -102.5 0.5t-100.5 0.5h-172q-7 -35 -7 -78t7 -78h158z" />
    <glyph glyph-name="yen.lin" horiz-adv-x="582" 
d="M265 195h14v29v96l-4 6h-10q-43 0 -107.5 -0.5t-93.5 -0.5q2 12 2 24q116 -2 195 -2l-82 123l-141 209l25 6l228 -344l65 100l160 243h28l-225 -337q134 0 200 2q-2 -8 -4 -24q-34 0 -100.5 0.5t-97.5 0.5h-12l-3 -5v-126h16q134 0 201 2q-2 -7 -4 -23q-34 0 -100.5 0.5
t-97.5 0.5h-15v-34q0 -114 1 -141h-26q1 19 1.5 83t0.5 92h-14q-43 0 -107.5 -0.5t-93.5 -0.5q2 12 2 23q116 -2 199 -2z" />
    <glyph glyph-name="cent.lin" horiz-adv-x="481" 
d="M293 486l-25 -308l-5 -51q8 -1 27 -1q85 0 155 61l-2 -30q-67 -53 -157 -53q-17 0 -26 1q-6 -77 -7 -105h-25q1 11 2.5 28.5t4.5 41t4 38.5q-83 14 -131.5 75t-48.5 148q0 104 58.5 173t160.5 74q0 5 4 45t5 60q5 0 25 2q-6 -55 -11 -106q40 -1 78.5 -15.5t59.5 -30.5
l-9 -24q-52 45 -131 48q-2 -15 -3.5 -39.5t-2.5 -31.5zM83 337q0 -83 42.5 -138t115.5 -69l6 63l23 276q1 15 2 30.5t2.5 32t2.5 24.5q-89 -5 -141.5 -67.5t-52.5 -151.5z" />
    <glyph glyph-name="R_p" horiz-adv-x="1085" 
d="M1005 233q0 -106 -66 -176t-167 -70q-80 0 -132 47v-145q0 -69 4 -104q-10 0 -28 -2q1 107 1 127v358q0 108 -6 173q14 0 24 2l5 -75q88 85 177 85q84 0 136 -61.5t52 -158.5zM546 -1l-26 -7l-213 325q-13 -1 -35 -1h-130v-176q0 -113 1 -140h-26q2 46 2 234v214
q0 189 -2 236q147 3 155 3q103 0 158 -49.5t55 -125.5q0 -72 -42 -122t-111 -67l116 -177q38 -59 98 -147zM982 227q0 92 -46 148t-122 56q-88 0 -174 -92v-275q53 -55 134 -55q90 0 149 63.5t59 154.5zM142 338h137q83 0 133 50.5t50 119.5q0 71 -50.5 113.5t-146.5 42.5
q-89 0 -123 -2v-324z" />
    <glyph glyph-name="numbersign.lin" horiz-adv-x="722" 
d="M527 456h-27l-30 -231h23q143 0 168 1q-4 -13 -5 -24q-5 0 -63 1t-97 1h-28l-5 -39q-7 -51 -18 -165h-26q1 9 11.5 84t15.5 120l-211 1l-5 -40q-2 -15 -6.5 -52.5t-8 -68t-4.5 -44.5h-25l27 205h-20q-37 0 -97 -0.5t-66 -0.5l3 22q24 -1 158 -1h24l30 232h-20
q-38 0 -98 -0.5t-66 -0.5l3 22q24 -1 158 -1h26q18 132 25 207q14 0 25 1q-2 -19 -11.5 -83.5t-11.5 -81.5l-6 -43h211q3 27 8.5 74t9.5 80.5t7 52.5q14 0 24 1q-11 -74 -21 -165l-6 -43h22q143 0 168 1q-4 -18 -5 -23q-5 0 -62.5 0.5t-97.5 0.5zM267 457l-30 -232h211
l29 231z" />
    <glyph glyph-name="paragraph.lin" horiz-adv-x="607" 
d="M311 685h57q-1 -77 -1 -132l1 -394q0 -116 1 -159h-26q2 60 2 228v45q-144 -4 -214.5 55t-70.5 157q0 83 64 141.5t187 58.5zM502 0h-26q2 42 2 166v349q0 86 -4 170q12 0 28 2l-1 -124v-463q0 -18 0.5 -53.5t0.5 -46.5z" />
    <glyph glyph-name="section.lin" horiz-adv-x="465" 
d="M60 285q0 52 43.5 90.5t120.5 54.5q-37 15 -55.5 24.5t-43.5 26.5t-35.5 38.5t-10.5 50.5q0 58 50 96.5t128 38.5q82 0 145 -43l-9 -23q-56 44 -139 44q-68 0 -110 -32.5t-42 -80.5q0 -40 32.5 -68t79 -46t93 -37.5t79 -54t32.5 -84.5q0 -48 -36 -86t-101 -59
q67 -28 102.5 -59.5t35.5 -83.5q0 -63 -56 -107t-143 -44q-89 0 -175 47l3 26q77 -51 173 -51q78 0 126.5 37t48.5 90q0 43 -34.5 74t-84 50t-99 38.5t-84 52.5t-34.5 80zM82 288q0 -22 11 -41t22.5 -31t41.5 -27.5t42.5 -20.5t51.5 -21q67 16 106 51.5t39 79.5
q0 51 -36.5 82t-104.5 58q-79 -13 -126 -49t-47 -81z" />
    <glyph glyph-name="ordfeminine.lin" horiz-adv-x="356" 
d="M172 730q-46 0 -99 -30l-5 19q54 31 105 31q110 0 107 -122l-4 -138q-1 -49 25 -49q11 0 24 9l6 -14q-13 -13 -33 -13q-46 0 -41 73q-14 -35 -44.5 -55.5t-70.5 -20.5q-47 0 -73 25t-26 61q0 43 37.5 71t120.5 28q30 0 57 -3l1 19q1 57 -20 83t-67 26zM145 439
q47 0 79 33.5t33 84.5l1 26q-27 3 -56 3q-137 0 -137 -78q0 -30 20.5 -49.5t59.5 -19.5z" />
    <glyph glyph-name="ordmasculine.lin" horiz-adv-x="391" 
d="M346 592q0 -74 -43 -123.5t-112 -49.5q-65 0 -105.5 46t-40.5 112q0 74 43 123.5t112 49.5q65 0 105.5 -46t40.5 -112zM325 589q0 60 -34.5 100.5t-91.5 40.5q-59 0 -96 -43t-37 -107q0 -60 34.5 -100.5t91.5 -40.5q59 0 96 43t37 107z" />
    <glyph glyph-name="degree.lin" horiz-adv-x="371" 
d="M312 604q0 -60 -36.5 -101.5t-94.5 -41.5q-55 0 -88.5 37.5t-33.5 90.5q0 60 36.5 100.5t93.5 40.5q55 0 89 -36.5t34 -89.5zM291 602q0 46 -28 77t-75 31q-48 0 -78 -34.5t-30 -84.5q0 -47 27.5 -78.5t74.5 -31.5q49 0 79 35t30 86z" />
    <glyph glyph-name="percent.lin" horiz-adv-x="713" 
d="M248 693q47 0 73 -34.5t26 -87.5q0 -87 -59 -167t-131 -80q-48 0 -74 33.5t-26 85.5q0 89 58.5 169.5t132.5 80.5zM159 346q63 0 113.5 73t50.5 152q0 43 -20.5 71.5t-57.5 28.5q-61 0 -112.5 -74.5t-51.5 -153.5q0 -43 20 -70t58 -27zM91 -26l-18 15q87 109 129 165
l285 373q53 70 120 161l22 -12q-20 -24 -93 -121l-368 -481q-12 -16 -36.5 -47.5t-40.5 -52.5zM556 352q48 0 74 -33.5t26 -85.5q0 -89 -58.5 -169t-132.5 -80q-47 0 -73 34.5t-26 87.5q0 87 59 166.5t131 79.5zM468 6q61 0 112.5 74.5t51.5 152.5q0 43 -20 70t-58 27
q-62 0 -113 -73t-51 -151q0 -44 20 -72t58 -28z" />
    <glyph glyph-name="quotedbl.lin" horiz-adv-x="258" 
d="M185 529l-15 -4q17 162 20 206q3 0 38 5q-7 -40 -43 -207zM55 529l-15 -4q17 162 20 206q3 0 38 5q-7 -40 -43 -207z" />
    <glyph glyph-name="quotesingle.lin" horiz-adv-x="123" 
d="M55 529l-15 -4q17 162 20 206q3 0 38 5q-7 -40 -43 -207z" />
    <glyph glyph-name="plus.lin" horiz-adv-x="525" 
d="M442 344q-2 -6 -4 -24q-26 0 -77.5 0.5t-75.5 0.5h-11v-19q0 -31 0.5 -80t0.5 -70h-24q2 90 2 169h-18q-31 0 -81 -0.5t-71 -0.5q2 12 2 24q90 -2 168 -2q0 112 -2 167q16 0 24 1q0 -26 -0.5 -80t-0.5 -78v-10q112 0 168 2z" />
    <glyph glyph-name="minus.lin" horiz-adv-x="525" 
d="M420 344q-2 -6 -4 -24q-23 0 -68 0.5t-66 0.5h-50q-26 0 -67.5 -0.5t-59.5 -0.5q2 12 2 24q84 -2 156 -2q105 0 157 2z" />
    <glyph glyph-name="divide.lin" horiz-adv-x="525" 
d="M442 344q-2 -6 -4 -24q-26 0 -77.5 0.5t-75.5 0.5h-50q-31 0 -81 -0.5t-71 -0.5q2 12 2 24q96 -2 181 -2q118 0 176 2zM289 495q0 -11 -7 -18t-19 -7q-10 0 -17 7t-7 17t7 17t19 7q11 0 17.5 -7t6.5 -16zM289 170q0 -11 -7 -18t-19 -7q-10 0 -17 7t-7 17t7 17t19 7
q11 0 17.5 -7t6.5 -16z" />
    <glyph glyph-name="equal.lin" horiz-adv-x="525" 
d="M430 422q-2 -6 -4 -24q-24 0 -72.5 0.5t-71.5 0.5h-50q-28 0 -73 -0.5t-64 -0.5q2 12 2 24q90 -2 166 -2q112 0 167 2zM430 265q-2 -6 -4 -24q-24 0 -72.5 0.5t-71.5 0.5h-50q-28 0 -73 -0.5t-64 -0.5q2 12 2 24q90 -2 166 -2q112 0 167 2z" />
    <glyph glyph-name="multiply.lin" horiz-adv-x="525" 
d="M418 191l-17 -16q-16 17 -139 142l-141 -142q-6 10 -15 17q78 76 141 139q-110 110 -141 139q11 9 17 17l139 -141q5 5 58.5 59.5t79.5 81.5q2 -3 4.5 -6t5.5 -6.5t5 -5.5l-139 -137z" />
    <glyph glyph-name="less.lin" horiz-adv-x="535" 
d="M373 138q-140 110 -245 189v4q151 115 243 190l15 -19q-64 -46 -127 -96l-97 -77l104 -80q77 -60 121 -91z" />
    <glyph glyph-name="greater.lin" horiz-adv-x="535" 
d="M162 521q140 -110 245 -189v-4q-151 -115 -243 -190l-15 19q64 46 127 96l96 77l-103 80q-77 60 -121 91z" />
    <glyph glyph-name="plusminus.lin" horiz-adv-x="525" 
d="M442 399q-2 -6 -4 -24q-26 0 -77.5 0.5t-75.5 0.5h-11v-19q0 -29 0.5 -75t0.5 -65h-24q2 84 2 159h-18q-31 0 -81 -0.5t-71 -0.5q2 10 2 24q90 -2 168 -2q0 105 -2 157q16 0 24 1q0 -24 -0.5 -74.5t-0.5 -73.5v-10q112 0 168 2zM438 119q-2 -6 -4 -24q-26 0 -78 0.5
t-76 0.5h-50q-31 0 -78.5 -0.5t-68.5 -0.5q2 10 2 24q96 -2 176 -2q119 0 177 2z" />
    <glyph glyph-name="onehalf.alt" horiz-adv-x="934" 
d="M612 302l-12 17q59 54 129 54q52 0 84 -26.5t32 -71.5q0 -34 -19.5 -62.5t-72.5 -78.5q-30 -26 -133 -113q161 0 236 2q0 -1 -1.5 -10t-1.5 -13q-80 2 -133 2q-50 0 -130 -2l-5 15q145 124 157 135q44 41 62 68.5t18 55.5q0 36 -25 57.5t-69 21.5q-59 0 -116 -51z
M226 -10l-16 14q97 124 122 157l294 384q86 113 115 155l20 -11q-18 -22 -89 -117l-372 -486q-10 -14 -21.5 -28.5t-26.5 -34t-26 -33.5zM339 349q0 -18 -1 -22q-11 0 -40.5 0.5t-45.5 0.5h-98q-15 0 -39.5 -0.5t-37.5 -0.5q0 10 -2 22q19 -1 49 -1h78q1 28 1 96v228
l-123 -40l-5 20q15 4 62.5 20t55.5 18l29 9l4 -2q0 -2 -0.5 -33t-0.5 -33v-233v-50h56q42 0 58 1z" />
    <glyph glyph-name="onethird.alt" horiz-adv-x="934" 
d="M602 11l-3 23q53 -21 110 -21q56 0 91.5 23t35.5 59q0 79 -165 84l-4 16q160 21 160 94q0 28 -25 45.5t-69 17.5q-61 0 -117 -33l-9 17q61 36 125 36q54 0 86 -23t32 -60q0 -71 -131 -98q68 -5 104 -30t36 -66q0 -44 -42.5 -73t-107.5 -29q-55 0 -107 18zM225 -10l-16 14
q97 124 122 157l294 384q86 113 115 155l20 -11q-18 -22 -89 -117l-372 -486q-10 -14 -21.5 -28.5t-26.5 -34t-26 -33.5zM339 349q0 -18 -1 -22q-11 0 -40.5 0.5t-45.5 0.5h-98q-15 0 -39.5 -0.5t-37.5 -0.5q0 10 -2 22q19 -1 49 -1h78q1 28 1 96v228l-123 -40l-5 20
q15 4 62.5 20t55.5 18l29 9l4 -2q0 -2 -0.5 -33t-0.5 -33v-233v-50h56q42 0 58 1z" />
    <glyph glyph-name="onequarter.alt" horiz-adv-x="934" 
d="M783 0q2 19 2 79v19h-53q-101 0 -144 -2l-6 15l163 209l41 52l20 -2q0 -1 -0.5 -36.5t-0.5 -37.5v-179q14 0 39 0.5t38 0.5q-3 -11 -4 -21q-11 0 -35.5 0.5t-37.5 0.5v-37q0 -10 0.5 -32.5t0.5 -28.5h-23zM785 341l-175 -224h175v224zM250 -10l-16 14q97 124 122 157
l294 384q86 113 115 155l20 -11q-18 -22 -89 -117l-372 -486q-10 -14 -21.5 -28.5t-26.5 -34t-26 -33.5zM339 349q0 -18 -1 -22q-11 0 -40.5 0.5t-45.5 0.5h-98q-15 0 -39.5 -0.5t-37.5 -0.5q0 10 -2 22q19 -1 49 -1h78q1 28 1 96v228l-123 -40l-5 20q15 4 62.5 20t55.5 18
l29 9l4 -2q0 -2 -0.5 -33t-0.5 -33v-233v-50h56q42 0 58 1z" />
    <glyph glyph-name="onefifth.alt" horiz-adv-x="934" 
d="M605 8l-3 23q46 -18 97 -18q58 0 94.5 25t36.5 66q0 87 -141 87q-25 0 -65 -6l-3 3q4 53 4 58l3 50q2 44 2 65l4 3h109q72 0 107 1q-1 -3 -4 -22q-37 1 -101 1q-68 0 -93 -1l-8 -136q24 3 51 3q74 0 116 -27.5t42 -78.5q0 -50 -42.5 -80.5t-110.5 -30.5q-50 0 -95 15z
M227 -10l-16 14q97 124 122 157l294 384q86 113 115 155l20 -11q-18 -22 -89 -117l-372 -486q-10 -14 -21.5 -28.5t-26.5 -34t-26 -33.5zM339 349q0 -18 -1 -22q-11 0 -40.5 0.5t-45.5 0.5h-98q-15 0 -39.5 -0.5t-37.5 -0.5q0 10 -2 22q19 -1 49 -1h78q1 28 1 96v228
l-123 -40l-5 20q15 4 62.5 20t55.5 18l29 9l4 -2q0 -2 -0.5 -33t-0.5 -33v-233v-50h56q42 0 58 1z" />
    <glyph glyph-name="onesixth.alt" horiz-adv-x="934" 
d="M829 358q-93 -18 -150.5 -74t-65.5 -136q15 33 50 55t79 22q55 0 90 -31t35 -79q0 -51 -40 -87.5t-98 -36.5q-61 0 -98.5 37t-37.5 101q0 92 63.5 160.5t167.5 86.5zM844 115q0 40 -28.5 65.5t-76.5 25.5q-49 0 -84.5 -29.5t-35.5 -70.5q0 -39 31 -67.5t79 -28.5
q49 0 82 31t33 74zM237 -10l-16 14q97 124 122 157l294 384q86 113 115 155l20 -11q-18 -22 -89 -117l-372 -486q-10 -14 -21.5 -28.5t-26.5 -34t-26 -33.5zM339 349q0 -18 -1 -22q-11 0 -40.5 0.5t-45.5 0.5h-98q-15 0 -39.5 -0.5t-37.5 -0.5q0 10 -2 22q19 -1 49 -1h78
q1 28 1 96v228l-123 -40l-5 20q15 4 62.5 20t55.5 18l29 9l4 -2q0 -2 -0.5 -33t-0.5 -33v-233v-50h56q42 0 58 1z" />
    <glyph glyph-name="oneeighth.alt" horiz-adv-x="934" 
d="M729 -9q-58 0 -94.5 26.5t-36.5 69.5q0 69 107 104q-94 29 -94 91q0 38 34.5 65t89.5 27q53 0 87 -26t34 -64q0 -62 -98 -93q108 -35 108 -100q0 -43 -38.5 -71.5t-98.5 -28.5zM843 91q0 60 -114 90q-108 -29 -108 -93q0 -34 30.5 -55.5t78.5 -21.5q50 0 81.5 23t31.5 57
zM634 283q0 -30 24.5 -49.5t76.5 -33.5q98 25 98 83q0 31 -28 51t-71 20q-45 0 -72.5 -20.5t-27.5 -50.5zM230 -10l-16 14q97 124 122 157l294 384q86 113 115 155l20 -11q-18 -22 -89 -117l-372 -486q-10 -14 -21.5 -28.5t-26.5 -34t-26 -33.5zM339 349q0 -18 -1 -22
q-11 0 -40.5 0.5t-45.5 0.5h-98q-15 0 -39.5 -0.5t-37.5 -0.5q0 10 -2 22q19 -1 49 -1h78q1 28 1 96v228l-123 -40l-5 20q15 4 62.5 20t55.5 18l29 9l4 -2q0 -2 -0.5 -33t-0.5 -33v-233v-50h56q42 0 58 1z" />
    <glyph glyph-name="one.sup_alt" 
d="M328 482q0 -18 -1 -22q-11 0 -40.5 0.5t-45.5 0.5h-98q-15 0 -39.5 -0.5t-37.5 -0.5q0 10 -2 22q19 -1 49 -1h78q1 28 1 96v228l-123 -40l-5 20q15 4 62.5 20t55.5 18l29 9l4 -2q0 -2 -0.5 -33t-0.5 -33v-233v-50h56q42 0 58 1z" />
    <glyph glyph-name="one.inf_alt" 
d="M328 -185q0 -18 -1 -22q-11 0 -40.5 0.5t-45.5 0.5h-98q-15 0 -39.5 -0.5t-37.5 -0.5q0 10 -2 22q19 -1 49 -1h78q1 29 1 96v228l-123 -40l-5 20q15 4 62.5 20t55.5 18l29 9l4 -2q0 -2 -0.5 -33t-0.5 -33v-233v-50h56q42 0 58 1z" />
    <glyph glyph-name="zero.tab" horiz-adv-x="560" 
d="M283 704q105 0 164.5 -101.5t59.5 -251.5q0 -163 -62 -266t-168 -103q-104 0 -164 101.5t-60 251.5q0 163 62 266t168 103zM279 4q93 0 148.5 97.5t55.5 246.5q0 145 -53.5 239.5t-148.5 94.5q-93 0 -148.5 -97.5t-55.5 -246.5q0 -145 53.5 -239.5t148.5 -94.5z" />
    <glyph glyph-name="one.tab" horiz-adv-x="560" 
d="M525 24v-26q-44 2 -153 2h-139q-60 0 -154 -2q0 2 -3 26q10 0 43.5 -1.5t65.5 -1.5h114q1 55 1 213v435l-219 -77l-5 22q19 6 100 35t99 34l43 15l6 -2l-1 -129v-427v-119h96q16 0 106 3z" />
    <glyph glyph-name="two.tab" horiz-adv-x="560" 
d="M80 22q321 0 426 3q-5 -15 -5 -26q-102 3 -232 3q-132 0 -223 -4l-6 17q246 216 332.5 320t86.5 186q0 72 -48 115t-129 43q-101 0 -206 -98l-15 18q55 51 107 76.5t114 25.5q91 0 146 -48.5t55 -129.5q0 -64 -39 -128t-139 -164q-58 -58 -225 -209z" />
    <glyph glyph-name="three.tab" horiz-adv-x="560" 
d="M48 20l-2 25q86 -37 192 -37q107 0 172.5 48t65.5 122q0 80 -80.5 122t-217.5 44l-6 17q288 46 288 186q0 57 -49.5 94.5t-131.5 37.5q-98 0 -199 -69l-13 19q102 72 214 72q91 0 147 -43.5t56 -109.5q0 -70 -63 -120.5t-176 -69.5q119 -8 187 -56t68 -124
q0 -84 -73.5 -138t-189.5 -54q-100 0 -189 34z" />
    <glyph glyph-name="four.tab" horiz-adv-x="560" 
d="M380 0q2 36 2 144v37h-102q-173 0 -247 -3l-8 15l290 406l72 99l18 -3l-1 -150v-342q39 0 139 2q-4 -13 -5 -26q-88 2 -134 2v-68q0 -21 0.5 -61t0.5 -52h-25zM315 202q11 0 34 0.5t33 0.5l-1 450l-323 -450q71 -1 257 -1z" />
    <glyph glyph-name="five.tab" horiz-adv-x="560" 
d="M52 17l-2 25q79 -34 169 -34q108 0 179.5 49.5t71.5 135.5q0 175 -268 175q-49 0 -116 -12l-3 4q5 62 7 108l5 87q3 61 3 126l4 3h201q133 0 187 2q-3 -10 -5 -24q-26 0 -86 1t-93 1q-29 0 -91 -0.5t-93 -0.5l-14 -282q56 9 93 9q139 0 216 -48.5t77 -147.5
q0 -96 -78 -152t-196 -56q-91 0 -168 31z" />
    <glyph glyph-name="six.tab" horiz-adv-x="560" 
d="M462 687q-161 -31 -265.5 -149.5t-112.5 -278.5q19 69 76.5 113.5t137.5 44.5q95 0 154.5 -58t59.5 -144q0 -98 -64.5 -165.5t-164.5 -67.5t-161.5 69t-61.5 186q0 173 112 305.5t285 165.5zM488 213q0 78 -53 130t-140 52t-145.5 -61.5t-58.5 -140.5q0 -75 53 -132
t140 -57q90 0 147 60.5t57 148.5z" />
    <glyph glyph-name="seven.tab" horiz-adv-x="560" 
d="M45 687q93 -3 224 -3q136 0 241 3l12 -14l-49 -91l-247 -457q-60 -111 -67 -127l-29 4q43 68 101 181l262 480q-29 1 -226 1q-170 0 -227 -1q4 9 5 24z" />
    <glyph glyph-name="eight.tab" horiz-adv-x="560" 
d="M50 160q0 74 51.5 121.5t147.5 76.5q-174 57 -174 177q0 71 58.5 120t150.5 49q90 0 148 -48.5t58 -119.5q0 -124 -179 -177q92 -29 145.5 -77.5t53.5 -114.5q0 -80 -66.5 -132.5t-168.5 -52.5q-97 0 -161 50.5t-64 127.5zM486 166q0 121 -206 181q-99 -27 -152.5 -71.5
t-53.5 -114.5q0 -67 57.5 -112t144.5 -45q93 0 151.5 46.5t58.5 115.5zM99 536q0 -60 47 -99.5t137 -67.5q183 50 183 166q0 62 -51.5 104.5t-131.5 42.5q-82 0 -133 -42.5t-51 -103.5z" />
    <glyph glyph-name="nine.tab" horiz-adv-x="560" 
d="M98 -2q162 31 266.5 151t111.5 280q-17 -69 -75 -115t-139 -46q-95 0 -154.5 58t-59.5 144q0 98 64.5 165.5t164.5 67.5t161.5 -69t61.5 -186q0 -173 -112 -305.5t-285 -165.5zM72 472q0 -78 53 -130t140 -52t145.5 61.5t58.5 140.5q0 75 -53 132t-140 57
q-90 0 -147 -60.5t-57 -148.5z" />
    </font>
</defs>
</svg>
