<?xml version="1.0" encoding="utf-8"?>
<!-- Generator: Adobe Illustrator 17.0.0, SVG Export Plug-In . SVG Version: 6.00 Build 0)  -->
<!DOCTYPE svg PUBLIC "-//W3C//DTD SVG 1.1//EN" "http://www.w3.org/Graphics/SVG/1.1/DTD/svg11.dtd">
<svg version="1.1" id="Layer_1" xmlns="http://www.w3.org/2000/svg" xmlns:xlink="http://www.w3.org/1999/xlink" x="0px" y="0px"
	 width="600.371px" height="150px" viewBox="0 75 600.371 150" enable-background="new 0 75 600.371 150" xml:space="preserve">
<g>
	<path fill="#FFFFFF" d="M393.357,165.028c0,5.76,3.42,10.8,11.514,10.8c9.12,0,16.53-7.68,16.872-18.119l0.228-5.28
		c-2.736-0.36-5.586-0.48-8.094-0.48C397.917,151.949,393.357,158.428,393.357,165.028z"/>
	<path fill="#FFFFFF" d="M322.564,158.189c8.55,0,15.048-6.6,15.048-14.64c0-9.24-6.726-14.879-14.592-14.879
		c-8.436,0-15.048,7.08-15.048,14.999C307.972,153.029,314.584,158.189,322.564,158.189z"/>
	<path fill="#FFFFFF" d="M328.264,178.948l-7.068-0.24c-1.596,0-3.42-0.12-4.788-0.24c-9.462,4.08-13.338,8.04-13.338,12.599
		c0,5.28,5.928,9.6,16.416,9.6c12.312,0,22.23-6.6,22.23-13.56C341.716,182.188,337.498,179.188,328.264,178.948z"/>
	<path fill="#FFFFFF" d="M252.682,165.028c0,5.76,3.42,10.8,11.514,10.8c9.12,0,16.53-7.68,16.872-18.119l0.228-5.28
		c-2.736-0.36-5.586-0.48-8.094-0.48C257.242,151.949,252.682,158.428,252.682,165.028z"/>
	<path fill="#FFFFFF" d="M-49.815-47.727v395.455h700V-47.727H-49.815z M86.586,178.948h-5.928
		c0.342-5.76,0.456-21.119,0.456-28.919V123.51c0-7.68-0.114-23.159-0.456-28.919c1.938,0,4.218-0.12,5.928-0.48
		c-0.228,3.48-0.228,12.96-0.228,17.639v49.918C86.358,166.228,86.358,175.588,86.586,178.948z M145.751,178.948
		c0.228-5.16,0.456-13.44,0.456-20.399v-14.639c0-11.04-5.13-15.359-12.654-15.359c-9.804,0-20.064,11.88-20.064,17.639v20.399
		c0,4.2,0.114,8.4,0.228,12.36h-5.586c0.228-5.16,0.456-13.44,0.456-20.399v-12.839c0-6.96-0.228-15.359-0.57-20.519
		c1.824,0,3.306-0.12,5.016-0.36l0.342,13.32c3.306-5.64,11.514-14.279,21.66-14.279c9.006,0,16.074,5.52,16.074,18.359v24.359
		c0,4.2,0.228,9.24,0.228,12.36H145.751z M181.66,180.628c-6.042,0-12.198-1.8-16.188-4.32l0.456-5.76c4.218,3,9.69,5.28,15.96,5.28
		c6.954,0,13.224-3.84,13.224-10.92c0-13.079-27.816-9.84-27.816-26.519c0-8.4,7.296-14.519,16.872-14.519
		c6.27,0,10.944,2.04,14.022,3.96l-1.71,4.92c-3.306-2.4-7.296-4.08-12.426-4.08c-6.498,0-11.742,3.6-11.742,9.48
		c0,12.479,27.93,9.72,27.93,26.159C200.242,174.748,191.236,180.628,181.66,180.628z M238.545,177.748
		c-2.052,1.56-5.016,2.76-8.892,2.76c-7.866,0-11.742-4.8-11.742-12.96V129.63h-8.664l1.482-4.56h7.296l0.684-12.24l4.218-1.08
		v13.319h14.82c-0.228,1.44-0.342,2.52-0.342,4.56h-14.478v37.078c0,6.36,2.964,9,7.866,9c3.306,0,5.928-1.32,7.98-2.64
		L238.545,177.748z M293.608,178.108c-1.368,0.96-3.192,1.68-5.358,1.68c-3.762,0-7.296-2.16-6.84-11.999
		c-2.736,7.2-9.918,12.479-18.24,12.479c-10.146,0-15.504-6.6-15.504-14.879c0-9.24,6.84-17.279,25.65-17.279
		c3.078,0,5.586,0.24,8.094,0.48l0.114-2.88c0.228-11.519-4.332-17.159-13.452-17.159c-5.472,0-10.944,2.4-15.048,5.28l-1.254-4.8
		c5.358-3.24,10.83-5.16,16.872-5.16c11.058,0,18.126,6.84,17.784,20.759l-0.684,23.759c-0.114,5.64,1.254,7.2,3.876,7.2
		c1.482,0,3.078-0.72,4.332-1.44L293.608,178.108z M319.03,205.107c-13.338,0-20.748-6-20.748-13.439
		c0-5.88,4.104-10.32,12.654-14.4c-4.446-1.56-7.296-4.32-7.296-7.92c0-3.72,2.622-6.72,7.752-9.72
		c-5.13-3.24-8.322-8.88-8.322-15.359c0-11.04,9.006-20.039,20.292-20.039c3.762,0,7.182,1.08,9.918,2.76
		c2.28-7.32,6.156-11.52,13.11-9.96l-0.456,4.68c-5.244-1.08-7.752,1.92-9.462,7.68c3.762,3.6,5.928,8.52,5.928,13.679
		c0,11.16-9.006,19.559-20.178,19.559c-2.736,0-5.244-0.48-7.524-1.32c-4.674,2.64-6.612,4.92-6.612,7.32
		c0,2.88,3.306,5.16,11.97,5.4l7.752,0.24c13.452,0.36,18.696,4.92,18.696,12.36C346.504,196.467,333.964,205.107,319.03,205.107z
		 M381.274,129.87c-9.918-0.36-17.67,9.72-17.67,18.599v18.119c0,4.2,0.114,8.4,0.228,12.36h-5.586
		c0.342-5.16,0.456-13.44,0.456-20.399v-13.679c0-6.96-0.342-14.279-0.912-19.319c1.596-0.12,3.534-0.6,5.016-0.96l0.684,14.039
		c2.736-6.6,8.55-13.919,18.468-14.759L381.274,129.87z M434.283,178.108c-1.368,0.96-3.192,1.68-5.358,1.68
		c-3.762,0-7.296-2.16-6.84-11.999c-2.736,7.2-9.918,12.479-18.24,12.479c-10.146,0-15.504-6.6-15.504-14.879
		c0-9.24,6.84-17.279,25.65-17.279c3.078,0,5.586,0.24,8.094,0.48l0.114-2.88c0.228-11.519-4.332-17.159-13.452-17.159
		c-5.472,0-10.944,2.4-15.048,5.28l-1.254-4.8c5.358-3.24,10.83-5.16,16.872-5.16c11.058,0,18.126,6.84,17.784,20.759l-0.684,23.759
		c-0.114,5.64,1.254,7.2,3.876,7.2c1.482,0,3.078-0.72,4.332-1.44L434.283,178.108z M517.389,178.948
		c0.228-5.16,0.342-13.44,0.342-20.399v-14.639c0-11.04-4.56-15.359-11.628-15.359c-9.462,0-18.81,11.4-18.81,17.159v20.879
		c0,4.2,0.114,9.24,0.228,12.36h-5.586c0.228-5.16,0.456-13.44,0.456-20.399v-14.639c0-11.04-4.56-15.359-11.628-15.359
		c-9.462,0-18.81,11.4-18.81,17.159v20.879c0,4.2,0.114,8.4,0.228,12.36h-5.586c0.228-5.16,0.456-13.44,0.456-20.399v-12.839
		c0-6.96-0.228-15.359-0.57-20.519c1.824,0,3.192-0.12,5.016-0.36l0.342,12.84c3.192-5.4,10.716-13.799,20.292-13.799
		c7.524,0,13.68,4.2,14.82,14.039c2.964-5.28,10.374-14.039,20.52-14.039c8.664,0,15.276,5.52,15.276,18.359v24.359
		c0,4.2,0.114,9.24,0.228,12.36H517.389z"/>
</g>
</svg>
