<?xml version="1.0" encoding="utf-8"?>
<!-- Generator: Adobe Illustrator 18.0.0, SVG Export Plug-In . SVG Version: 6.00 Build 0)  -->
<!DOCTYPE svg PUBLIC "-//W3C//DTD SVG 1.1//EN" "http://www.w3.org/Graphics/SVG/1.1/DTD/svg11.dtd">
<svg version="1.1" id="Layer_1" xmlns="http://www.w3.org/2000/svg" xmlns:xlink="http://www.w3.org/1999/xlink" x="0px" y="0px"
	 viewBox="0 0 139.4 46" enable-background="new 0 0 139.4 46" xml:space="preserve">
<g>
	<path fill="#FFFFFF" d="M38.2,45.3c-0.2-1.2-0.7-3.3-1.5-5.7l-7.4-25.6c-0.7-2.6-1.2-4.6-1.6-6.8c-0.1,0.4-0.2,0.8-0.2,1
		c-0.4,1.5-1.1,4.6-1.5,5.8l-7.4,25.6c-1,3.2-1.2,4.2-1.5,5.7h-4.3c-0.2-1.1-0.2-1.1-1.5-5.9L2.3,6.9C1.4,3.7,0.9,2.1,0,0.2h5.7
		C5.8,2,6.1,3.9,6.8,6.3l6.7,25.8c0.4,1.4,0.7,3.1,1.5,6.7c0.6-2.4,1.2-5.2,1.7-6.8L24.2,6c0.6-2.1,1.1-4.5,1.3-5.8h4.2
		C30,2,30.4,3.7,31.1,6l7.6,26c0.3,1.3,0.6,2.2,1.7,6.8l1.5-6.8l6.7-25.6c0.6-2.3,1-4.5,1.1-6.2h5.6c-0.8,2-1.3,3.4-2.2,6.8l-9,32.5
		c-1.2,4.5-1.2,4.6-1.5,5.9H38.2z"/>
	<path fill="#FFFFFF" d="M88.1,0.2c-0.3,2.2-0.5,3.7-0.5,6.6v26.5c0,4-0.7,6.8-2.3,9c-1.9,2.5-5,3.7-9.1,3.7c-3.9,0-7.2-1.2-9.3-3.6
		c-1.1-1.1-1.7-2.1-2.8-4.5l4.5-2c0.7,1.8,1.2,2.7,2,3.6c1.4,1.5,3.3,2.3,5.8,2.3c4.8,0,6.9-2.6,6.9-8.5V6.8c0-2.8-0.1-4.6-0.5-6.6
		H88.1z"/>
	<path fill="#FFFFFF" d="M108.1,45.3c0.3-2.1,0.5-3.9,0.5-6.6V6.8c0-2.4-0.1-4.3-0.5-6.8c2,0.1,3.6,0.2,6.2,0.2h11.5
		c8.7,0,13.6,4.7,13.6,12.9c0,8.7-5.1,13.8-13.9,13.8h-12.6v11.7c0,2.8,0.1,4.7,0.5,6.7H108.1z M125.5,22.8c6,0,9.4-3.4,9.4-9.4
		c0-5.9-3.3-9.1-9.4-9.1h-12.6v18.5H125.5z"/>
</g>
</svg>
