<?xml version="1.0" encoding="utf-8"?>
<!-- Generator: Adobe Illustrator 18.0.0, SVG Export Plug-In . SVG Version: 6.00 Build 0)  -->
<!DOCTYPE svg PUBLIC "-//W3C//DTD SVG 1.1//EN" "http://www.w3.org/Graphics/SVG/1.1/DTD/svg11.dtd">
<svg version="1.1" id="Layer_1" xmlns="http://www.w3.org/2000/svg" xmlns:xlink="http://www.w3.org/1999/xlink" x="0px" y="0px"
	 viewBox="0 0 496.1 535.8" enable-background="new 0 0 496.1 535.8" xml:space="preserve">
<g>
	<path fill="#f8ddf1" d="M135.9,332.5c-0.7-3.5-2.5-9.6-5.3-16.5l-26.3-74.1c-2.5-7.5-4.3-13.3-5.7-19.7c-0.4,1.2-0.7,2.3-0.7,2.9
		c-1.4,4.3-3.9,13.3-5.3,16.8L66.2,316c-3.6,9.3-4.3,12.2-5.3,16.5H45.5c-0.7-3.2-0.7-3.2-5.3-17.1l-32-94.1
		C5,212,3.2,207.3,0,201.8h20.3c0.4,5.2,1.4,10.7,3.9,17.7L48,294.2c1.4,4.1,2.5,9,5.3,19.4c2.1-7,4.3-15.1,6-19.7l26.7-75.3
		c2.1-6.1,3.9-13,4.6-16.8h14.9c1.1,5.2,2.5,10.1,5,16.8l27,75.3c1.1,3.8,2.1,6.4,6,19.7l5.3-19.7l23.8-74.1c2.1-6.7,3.6-13,3.9-18
		h19.9c-2.8,5.8-4.6,9.8-7.8,19.7l-32,94.1c-4.3,13-4.3,13.3-5.3,17.1h-15.7V332.5z"/>
	<path fill="#f8ddf1" d="M313.5,201.8c-1.1,6.4-1.8,10.7-1.8,19.1v76.8c0,11.6-2.5,19.7-8.2,26.1c-6.8,7.2-17.8,10.7-32.4,10.7
		c-13.9,0-25.6-3.5-33.1-10.4c-3.9-3.2-6-6.1-10-13l16-5.8c2.5,5.2,4.3,7.8,7.1,10.4c5,4.3,11.7,6.7,20.6,6.7
		c17.1,0,24.6-7.5,24.6-24.6V221c0-8.1-0.4-13.3-1.8-19.1C294.6,201.8,313.5,201.8,313.5,201.8z"/>
	<path fill="#f8ddf1" d="M384.7,332.5c1.1-6.1,1.8-11.3,1.8-19.1V221c0-7-0.4-12.5-1.8-19.7c7.1,0.3,12.8,0.6,22.1,0.6h40.9
		c31,0,48.4,13.6,48.4,37.4c0,25.2-18.1,40-49.5,40h-44.8v33.9c0,8.1,0.4,13.6,1.8,19.4H384.7z M446.6,267.3
		c21.4,0,33.5-9.8,33.5-27.2c0-17.1-11.7-26.4-33.5-26.4h-44.8v53.6H446.6z"/>
</g>
</svg>
