<?xml version="1.0" encoding="utf-8"?>
<!-- Generator: Adobe Illustrator 17.0.0, SVG Export Plug-In . SVG Version: 6.00 Build 0)  -->
<!DOCTYPE svg PUBLIC "-//W3C//DTD SVG 1.1//EN" "http://www.w3.org/Graphics/SVG/1.1/DTD/svg11.dtd">
<svg version="1.1" id="Layer_1" xmlns="http://www.w3.org/2000/svg" xmlns:xlink="http://www.w3.org/1999/xlink" x="0px" y="0px"
	 width="600.371px" height="300px" viewBox="0 0 600.371 300" enable-background="new 0 0 600.371 300" xml:space="preserve">
<g>
	<path fill="#FFFFFF" d="M329.995,129.841c-12.426,0-20.862,10.92-20.862,24.119c0,14.519,8.436,23.279,20.292,23.279
		c12.654,0,20.976-10.8,20.976-24.239C350.401,138.24,341.395,129.841,329.995,129.841z"/>
	<path fill="#FFFFFF" d="M393.72,129.841c-7.638,0-13.68,4.92-18.012,10.2v30.959c3.42,3.72,8.094,6.24,14.706,6.24
		c12.54,0,21.318-11.16,21.318-24.599C411.732,138.36,404.208,129.841,393.72,129.841z"/>
	<path fill="#FFFFFF" d="M-49.815-47.727v395.455h700V-47.727H-49.815z M205.625,182.399c-7.98,0-16.416-2.88-22.002-6.72l0.456-6
		c5.13,4.08,13.566,7.68,21.774,7.68c12.768,0,19.722-8.4,19.722-17.999c0-20.399-38.76-19.679-38.76-42.718
		c0-12.359,9.12-22.799,23.94-22.799c6.954,0,12.882,2.16,18.012,5.52l-1.71,5.04c-4.902-3.36-10.374-5.52-16.416-5.52
		c-11.856,0-18.696,7.68-18.696,17.159c0,19.679,38.874,18.719,38.874,42.598C230.819,170.999,221.699,182.399,205.625,182.399z
		 M283.827,180.239c0.228-5.16,0.456-13.44,0.456-20.399V145.2c0-11.04-5.13-15.359-12.654-15.359
		c-9.804,0-20.064,11.88-20.064,17.639v20.639c0,4.2,0.114,8.16,0.228,12.12h-5.586c0.228-5.16,0.456-13.2,0.456-20.159v-44.518
		c0-9.36-0.114-14.639-0.456-20.639c1.71-0.12,3.99-0.36,5.586-0.6c-0.114,0.96-0.228,8.88-0.228,14.639v30.359
		c3.306-5.64,11.4-14.159,21.546-14.159c9.006,0,16.074,5.52,16.074,18.359v24.359c0,4.2,0.228,9.24,0.228,12.36H283.827z
		 M328.969,182.039c-14.82,0-24.738-11.76-24.738-27.119c0-16.799,10.26-29.759,26.22-29.759c14.934,0,24.852,11.64,24.852,26.999
		C355.303,168.959,345.043,182.039,328.969,182.039z M390.3,182.039c-6.156,0-11.4-2.4-14.592-5.4v16.919
		c0,4.08,0.114,9,0.456,12.12c-0.57,0-5.016,0.36-5.7,0.48c0.114-1.56,0.342-12.96,0.342-16.799V147.24
		c0-6.96-0.228-15.479-0.798-20.639c1.824,0,3.648-0.12,5.016-0.24l0.57,8.52c3.534-3.96,10.146-9.72,19.152-9.72
		c13.338,0,22.002,11.4,22.002,26.639C416.748,169.559,404.664,182.039,390.3,182.039z"/>
</g>
</svg>
