<?xml version="1.0" encoding="utf-8"?>
<!-- Generator: Adobe Illustrator 17.0.0, SVG Export Plug-In . SVG Version: 6.00 Build 0)  -->
<!DOCTYPE svg PUBLIC "-//W3C//DTD SVG 1.1//EN" "http://www.w3.org/Graphics/SVG/1.1/DTD/svg11.dtd">
<svg version="1.1" id="Layer_1" xmlns="http://www.w3.org/2000/svg" xmlns:xlink="http://www.w3.org/1999/xlink" x="0px" y="0px"
	 width="600.371px" height="300px" viewBox="0 0 600.371 300" enable-background="new 0 0 600.371 300" xml:space="preserve">
<g>
	<path fill="#FFFFFF" d="M120.696,112.141c-2.85,0-6.384,0.12-9.576,0.24v38.999c2.052,0.24,4.788,0.36,6.612,0.36
		c18.582,0,26.904-8.52,26.904-20.039C144.636,118.621,136.542,112.141,120.696,112.141z"/>
	<path fill="#FFFFFF" d="M469.529,141.66c-12.426,0-20.862,10.92-20.862,24.119c0,14.519,8.436,23.279,20.292,23.279
		c12.654,0,20.976-10.8,20.976-24.239C489.935,150.06,480.929,141.66,469.529,141.66z"/>
	<path fill="#FFFFFF" d="M370.35,141.66c-12.426,0-20.862,10.92-20.862,24.119c0,14.519,8.436,23.279,20.292,23.279
		c12.654,0,20.976-10.8,20.976-24.239C390.756,150.06,381.749,141.66,370.35,141.66z"/>
	<path fill="#FFFFFF" d="M-49.815-47.727v395.455h700V-47.727H-49.815z M117.39,156.42c-1.824,0-4.218,0-6.27-0.12v18.479
		c0,4.56,0.114,13.919,0.228,17.279h-5.814c0.342-5.76,0.456-21.119,0.456-28.919V136.62c0-7.68-0.114-23.279-0.456-29.039
		c3.762-0.12,10.602-0.48,16.188-0.48c18.582,0,28.158,9.6,28.158,23.639C149.88,145.26,140.418,156.42,117.39,156.42z
		 M200.837,192.058c0.228-5.16,0.456-13.439,0.456-20.399V157.02c0-11.04-5.13-15.359-12.654-15.359
		c-9.804,0-20.064,11.88-20.064,17.639v20.639c0,4.2,0.114,8.16,0.228,12.12h-5.586c0.228-5.16,0.456-13.199,0.456-20.159v-44.518
		c0-9.36-0.114-14.639-0.456-20.639c1.71-0.12,3.99-0.36,5.586-0.6c-0.114,0.96-0.228,8.88-0.228,14.639v30.359
		c3.306-5.64,11.4-14.159,21.546-14.159c9.006,0,16.074,5.52,16.074,18.359v24.359c0,4.2,0.228,9.24,0.228,12.36H200.837z
		 M262.509,192.058c0.228-5.16,0.456-13.439,0.456-20.399V157.02c0-11.04-5.13-15.359-12.654-15.359
		c-9.804,0-20.064,11.88-20.064,17.639v20.639c0,4.2,0.114,8.16,0.228,12.12h-5.586c0.228-5.16,0.456-13.199,0.456-20.159v-44.518
		c0-9.36-0.114-14.639-0.456-20.639c1.71-0.12,3.99-0.36,5.586-0.6c-0.114,0.96-0.228,8.88-0.228,14.639v30.359
		c3.306-5.64,11.4-14.159,21.546-14.159c9.006,0,16.074,5.52,16.074,18.359v24.359c0,4.2,0.228,9.24,0.228,12.36H262.509z
		 M324.181,192.058c0.228-5.16,0.456-13.439,0.456-20.399V157.02c0-11.04-5.13-15.359-12.654-15.359
		c-9.804,0-20.064,11.88-20.064,17.639v20.639c0,4.2,0.114,8.16,0.228,12.12h-5.586c0.228-5.16,0.456-13.199,0.456-20.159v-44.518
		c0-9.36-0.114-14.639-0.456-20.639c1.71-0.12,3.99-0.36,5.586-0.6c-0.114,0.96-0.228,8.88-0.228,14.639v30.359
		c3.306-5.64,11.4-14.159,21.546-14.159c9.006,0,16.074,5.52,16.074,18.359v24.359c0,4.2,0.228,9.24,0.228,12.36H324.181z
		 M369.324,193.858c-14.82,0-24.738-11.76-24.738-27.119c0-16.799,10.26-29.759,26.22-29.759c14.934,0,24.852,11.64,24.852,26.999
		C395.657,180.779,385.397,193.858,369.324,193.858z M434.074,190.858c-2.052,1.56-5.016,2.76-8.892,2.76
		c-7.866,0-11.742-4.8-11.742-12.96V142.74h-8.664l1.482-4.56h7.296l0.684-12.24l4.218-1.08v13.32h14.82
		c-0.228,1.44-0.342,2.52-0.342,4.56h-14.478v37.078c0,6.36,2.964,9,7.866,9c3.306,0,5.928-1.32,7.98-2.64L434.074,190.858z
		 M468.503,193.858c-14.82,0-24.738-11.76-24.738-27.119c0-16.799,10.26-29.759,26.22-29.759c14.934,0,24.852,11.64,24.852,26.999
		C494.837,180.779,484.577,193.858,468.503,193.858z"/>
</g>
</svg>
