<?xml version="1.0" encoding="utf-8"?>
<!-- Generator: Adobe Illustrator 17.0.0, SVG Export Plug-In . SVG Version: 6.00 Build 0)  -->
<!DOCTYPE svg PUBLIC "-//W3C//DTD SVG 1.1//EN" "http://www.w3.org/Graphics/SVG/1.1/DTD/svg11.dtd">
<svg version="1.1" id="Layer_1" xmlns="http://www.w3.org/2000/svg" xmlns:xlink="http://www.w3.org/1999/xlink" x="0px" y="0px"
	 width="177.016px" height="227.82px" viewBox="0 0 177.016 227.82" enable-background="new 0 0 177.016 227.82"
	 xml:space="preserve">
<g>
	<defs>
		<rect id="SVGID_1_" width="177.016" height="227.82"/>
	</defs>
	<clipPath id="SVGID_2_">
		<use xlink:href="#SVGID_1_"  overflow="visible"/>
	</clipPath>
	<path clip-path="url(#SVGID_2_)" fill="#B2B2B3" d="M93.865,0C31.462,0,0,44.577,0,81.746c0,22.506,8.551,42.527,26.894,49.994
		c3.008,1.222,5.704,0.043,6.577-3.278c0.605-2.296,2.04-8.088,2.682-10.499c0.879-3.283,0.537-4.433-1.889-7.294
		c-5.289-6.217-8.671-14.266-8.671-25.663c0-33.069,24.835-62.673,64.667-62.673c35.27,0,54.648,21.472,54.648,50.147
		c0,37.732-16.759,69.573-41.639,69.573c-13.74,0-24.026-11.318-20.729-25.203c3.948-16.577,11.595-34.47,11.595-46.435
		c0-10.711-5.772-19.644-17.714-19.644c-14.047,0-25.33,14.475-25.33,33.871c0,12.349,4.189,20.706,4.189,20.706
		s-14.374,60.679-16.893,71.303c-5.019,21.165-0.755,47.11-0.394,49.732c0.212,1.551,2.215,1.92,3.121,0.744
		c1.295-1.683,18.024-22.259,23.712-42.82c1.609-5.822,9.239-35.97,9.239-35.97c4.563,8.672,17.902,16.313,32.084,16.313
		c42.221,0,70.867-38.352,70.867-89.684C177.016,36.149,144.016,0,93.865,0"/>
</g>
</svg>
