<?xml version="1.0" encoding="utf-8"?>
<!-- Generator: Adobe Illustrator 18.0.0, SVG Export Plug-In . SVG Version: 6.00 Build 0)  -->
<!DOCTYPE svg PUBLIC "-//W3C//DTD SVG 1.1//EN" "http://www.w3.org/Graphics/SVG/1.1/DTD/svg11.dtd">
<svg version="1.1" id="Calque_2" xmlns="http://www.w3.org/2000/svg" xmlns:xlink="http://www.w3.org/1999/xlink" x="0px" y="0px"
	 viewBox="1 5.3 98 89.7" enable-background="new 1 5.3 98 89.7" xml:space="preserve">
<g>
	<path fill="#FFFFFF" d="M74.5,60.2c-1.2,0.8-2.7,1.3-4.3,1.3c-4.3,0-7.8-3.5-7.8-7.8c0-2.6,1.3-5.1,3.5-6.5
		c-0.1-2.6-0.4-5.3-0.9-8.1c0-0.1,0-0.1-0.1-0.1H35.5c0,0,0,0-0.1,0.1c-0.4,2.8-0.8,5.6-0.9,8.1c2.2,1.4,3.5,3.8,3.5,6.5
		c0,4.3-3.5,7.8-7.8,7.8c-2.6,0-5-1.3-6.5-3.5c-0.3-0.4-0.6-0.9-0.8-1.4c-0.4-0.9-0.6-1.9-0.6-3c0-2.9,1.6-5.3,4-6.6
		c0.2-3,0.5-6,0.8-8H1.7c-0.5,0-0.8,0.1-0.7,0.7C1,39.7,14.9,95,32.5,95c16.6,0,17.5,0,17.6,0c0.1,0,1.3,0,17.4,0
		C85,95,99,39.7,99,39.7c0.1-0.6-0.2-0.7-0.7-0.7H73.2c0.3,2,0.6,5,0.8,8c2.4,1.4,4,3.9,4,6.7c0,0.4,0,0.7-0.1,1l0,0
		C77.6,57,76.3,59,74.5,60.2"/>
	<path fill="#FFFFFF" d="M24.3,53.8c0,0.8,0.2,1.5,0.5,2.2c0.1,0.4,0.3,0.6,0.5,0.9c1,1.6,2.8,2.6,4.9,2.6c3.2,0,5.8-2.6,5.8-5.8
		c0-2.4-1.5-4.3-3.5-5.2c0.1-2.9,0.4-6.5,1-9.5c2.2-14,7.8-29.6,16.7-29.6c9,0,14.6,15.6,16.7,29.6c0.5,3,0.9,6.6,1,9.5
		c-2.1,0.9-3.5,2.8-3.5,5.2c0,3.2,2.6,5.8,5.8,5.8c0.6,0,1.2-0.1,1.8-0.3c1.3-0.4,2.3-1.2,3.1-2.3c0.6-0.9,1-2.1,1-3.3
		c0-2.6-1.6-4.5-3.9-5.3c-0.2-2.9-0.5-6.4-0.9-9.4c-1.9-16-6.7-33.7-21-33.7C35.8,6,31,23,29.1,39c-0.4,3-0.7,6.4-0.9,9.4
		C26,49.2,24.3,51.2,24.3,53.8z"/>
</g>
</svg>
