<?xml version="1.0" encoding="utf-8"?>
<!-- Generator: Adobe Illustrator 17.0.0, SVG Export Plug-In . SVG Version: 6.00 Build 0)  -->
<!DOCTYPE svg PUBLIC "-//W3C//DTD SVG 1.1//EN" "http://www.w3.org/Graphics/SVG/1.1/DTD/svg11.dtd">
<svg version="1.1" id="Layer_1" xmlns="http://www.w3.org/2000/svg" xmlns:xlink="http://www.w3.org/1999/xlink" x="0px" y="0px"
	 width="514.232px" height="514.231px" viewBox="0 0 514.232 514.231" enable-background="new 0 0 514.232 514.231"
	 xml:space="preserve">
<g>
	<defs>
		<rect id="SVGID_1_" width="514.232" height="514.231"/>
	</defs>
	<clipPath id="SVGID_2_">
		<use xlink:href="#SVGID_1_"  overflow="visible"/>
	</clipPath>
	<path clip-path="url(#SVGID_2_)" fill="#B2B2B2" d="M259.448,434.045c-1.069,0-2.087-0.04-2.863-0.076
		c-0.615,0.052-1.25,0.076-1.885,0.076c-22.437,0-37.441-10.608-50.678-19.972c-9.489-6.705-18.438-13.032-28.922-14.777
		c-5.15-0.853-10.271-1.286-15.22-1.286c-8.916,0-15.964,1.383-21.109,2.388c-3.166,0.618-5.896,1.149-8.007,1.149
		c-2.21,0-4.893-0.49-6.013-4.31c-0.886-3.014-1.524-5.933-2.137-8.747c-1.535-7.027-2.651-11.316-5.282-11.722
		c-28.14-4.341-44.767-10.739-48.079-18.484c-0.346-0.816-0.541-1.632-0.585-2.445c-0.129-2.307,1.501-4.333,3.778-4.711
		c22.348-3.678,42.218-15.492,59.064-35.119c13.049-15.194,19.457-29.712,20.145-31.316c0.03-0.073,0.066-0.149,0.1-0.216
		c3.247-6.589,3.893-12.282,1.926-16.916c-3.626-8.552-15.634-12.362-23.58-14.883c-1.975-0.625-3.844-1.217-5.334-1.808
		c-7.043-2.781-18.626-8.66-17.083-16.773c1.124-5.916,8.949-10.035,15.273-10.035c1.756,0,3.312,0.307,4.622,0.923
		c7.146,3.348,13.575,5.044,19.103,5.044c6.876,0,10.197-2.617,11-3.362c-0.198-3.668-0.44-7.546-0.674-11.214
		c0-0.005-0.005-0.049-0.005-0.049c-1.614-25.675-3.627-57.627,4.546-75.95c24.462-54.846,76.339-59.112,91.652-59.112
		c0.408,0,6.673-0.062,6.673-0.062c0.284-0.004,0.591-0.008,0.909-0.008c15.352,0,67.338,4.269,91.816,59.15
		c8.173,18.335,6.158,50.315,4.539,76.015l-0.076,1.231c-0.221,3.49-0.427,6.793-0.599,9.994c0.755,0.697,3.794,3.096,9.977,3.34
		c5.271-0.202,11.328-1.891,17.998-5.015c2.063-0.967,4.345-1.169,5.894-1.169c2.342,0,4.726,0.456,6.714,1.285l0.107,0.041
		c5.66,2.008,9.367,6.024,9.447,10.241c0.072,3.933-2.85,9.809-17.222,15.485c-1.471,0.583-3.349,1.179-5.334,1.808
		c-7.953,2.524-19.952,6.331-23.578,14.878c-1.969,4.636-1.322,10.327,1.926,16.912c0.036,0.073,0.068,0.144,0.101,0.222
		c1,2.342,25.205,57.535,79.209,66.43c2.276,0.378,3.909,2.407,3.779,4.711c-0.048,0.828-0.248,1.656-0.598,2.465
		c-3.289,7.702-19.915,14.09-48.064,18.439c-2.642,0.408-3.755,4.676-5.278,11.667c-0.63,2.886-1.271,5.716-2.147,8.691
		c-0.819,2.798-2.64,4.165-5.567,4.165h-0.443c-1.905,0-4.602-0.347-8.007-1.013c-5.951-1.158-12.623-2.235-21.11-2.235
		c-4.948,0-10.069,0.433-15.223,1.286c-10.472,1.745-19.421,8.064-28.892,14.758C296.89,423.437,281.882,434.045,259.448,434.045"/>
	<path clip-path="url(#SVGID_2_)" fill="#B2B2B2" d="M260.783,84.792c14.455,0,64.232,3.883,87.688,56.471
		c7.723,17.318,5.744,48.686,4.156,73.885c-0.248,3.999-0.494,7.875-0.694,11.576l-0.084,1.591l1.061,1.185
		c0.429,0.476,4.445,4.672,13.374,5.017l0.144,0.007l0.15-0.002c5.905-0.226,12.554-2.059,19.777-5.442
		c1.065-0.498,2.481-0.741,3.977-0.741c1.707,0,3.521,0.321,5.016,0.95l0.225,0.09c3.787,1.328,6.464,3.83,6.505,6.093
		c0.023,1.28-0.934,5.891-14.359,11.194c-1.312,0.518-3.039,1.069-5.041,1.7c-8.737,2.774-21.934,6.96-26.376,17.426
		c-2.501,5.898-1.817,12.854,2.034,20.678c1.584,3.698,26.519,59.866,82.631,69.112c-0.011,0.264-0.08,0.555-0.23,0.9
		c-0.952,2.24-6.997,9.977-44.613,15.783c-5.885,0.903-7.328,7.501-9,15.171c-0.603,2.746-1.218,5.516-2.063,8.381
		c-0.257,0.865-0.305,0.914-1.234,0.914h-0.442c-1.668,0-4.201-0.347-7.135-0.922c-5.344-1.041-12.648-2.319-21.983-2.319
		c-5.209,0-10.577,0.454-15.961,1.351c-11.511,1.913-20.873,8.535-30.787,15.542c-13.315,9.41-27.076,19.143-48.071,19.143
		c-0.917,0-1.813-0.031-2.709-0.077l-0.238-0.008l-0.237,0.016c-0.515,0.046-1.034,0.069-1.564,0.069
		c-20.994,0-34.76-9.733-48.069-19.143c-9.916-7.007-19.282-13.629-30.791-15.542c-5.381-0.897-10.752-1.351-15.96-1.351
		c-9.333,0-16.643,1.427-21.977,2.469c-2.934,0.575-5.476,1.068-7.138,1.068c-1.363,0-1.388-0.079-1.676-1.065
		c-0.844-2.866-1.461-5.704-2.063-8.446c-1.676-7.677-3.119-14.311-9.002-15.215c-37.614-5.808-43.659-13.56-44.614-15.794
		c-0.149-0.35-0.215-0.653-0.231-0.918c56.11-9.238,81.041-65.409,82.63-69.119c3.857-7.819,4.541-14.776,2.033-20.678
		c-4.443-10.461-17.638-14.652-26.368-17.421c-2.008-0.636-3.736-1.187-5.049-1.705c-11.336-4.478-14.823-8.991-14.305-11.724
		c0.601-3.154,6.068-6.36,10.837-6.36c1.073,0,2.012,0.173,2.706,0.498c7.748,3.63,14.82,5.471,21.024,5.471
		c9.751,0,14.091-4.536,14.556-5.054l1.057-1.182l-0.086-1.583c-0.197-3.699-0.44-7.574-0.696-11.565
		c-1.583-25.206-3.564-56.554,4.158-73.871c23.37-52.396,72.903-56.434,87.525-56.434c0.361,0,6.717-0.066,6.717-0.066
		C260.191,84.796,260.48,84.792,260.783,84.792 M260.783,75.753h-0.017c-0.333,0-0.646,0-0.944,0.004
		c-2.376,0.024-6.284,0.062-6.633,0.066c-8.567,0-25.705,1.21-44.115,9.336c-10.528,4.643-19.995,10.921-28.141,18.66
		c-9.712,9.221-17.623,20.59-23.511,33.796c-8.623,19.336-6.576,51.905-4.931,78.078l0.004,0.04
		c0.177,2.804,0.362,5.731,0.531,8.582c-1.264,0.582-3.317,1.195-6.339,1.195c-4.864,0-10.649-1.555-17.187-4.619
		c-1.923-0.896-4.12-1.349-6.543-1.349c-3.892,0-7.997,1.147-11.556,3.239c-4.479,2.631-7.373,6.347-8.159,10.468
		c-0.518,2.726-0.494,8.114,5.492,13.578c3.292,3.008,8.128,5.782,14.369,8.248c1.638,0.645,3.582,1.261,5.64,1.914
		c7.145,2.269,17.96,5.702,20.78,12.338c1.429,3.366,0.815,7.793-1.823,13.146c-0.07,0.146-0.138,0.289-0.202,0.44
		c-0.658,1.539-6.805,15.464-19.418,30.153c-7.166,8.35-15.058,15.332-23.447,20.752c-10.239,6.617-21.316,10.942-32.924,12.854
		c-4.556,0.748-7.813,4.809-7.557,9.424c0.078,1.33,0.389,2.657,0.93,3.941c0.004,0.008,0.009,0.015,0.013,0.023
		c1.842,4.31,6.115,7.972,13.064,11.204c8.489,3.944,21.184,7.259,37.732,9.854c0.836,1.591,1.705,5.587,2.305,8.324
		c0.63,2.907,1.285,5.897,2.219,9.073c1.01,3.442,3.626,7.554,10.35,7.554c2.547,0,5.477-0.575,8.871-1.234
		c4.968-0.974,11.763-2.304,20.244-2.304c4.702,0,9.575,0.414,14.482,1.227c9.455,1.576,17.606,7.332,27.036,14
		c13.804,9.758,29.43,20.804,53.302,20.804c0.651,0,1.303-0.023,1.949-0.067c0.789,0.036,1.766,0.067,2.799,0.067
		c23.879,0,39.5-11.05,53.289-20.799l0.024-0.02c9.431-6.66,17.575-12.409,27.027-13.985c4.904-0.813,9.776-1.227,14.479-1.227
		c8.101,0,14.516,1.034,20.245,2.151c3.739,0.736,6.642,1.09,8.873,1.09l0.217,0.003h0.225c4.917,0,8.53-2.7,9.909-7.421
		c0.916-3.111,1.572-6.03,2.215-8.988c0.564-2.565,1.46-6.673,2.296-8.282c16.558-2.597,29.249-5.91,37.739-9.849
		c6.931-3.216,11.2-6.873,13.053-11.167c0.556-1.286,0.881-2.621,0.954-3.979c0.261-4.608-2.999-8.676-7.559-9.424
		c-51.585-8.501-74.825-61.506-75.785-63.757c-0.063-0.149-0.132-0.294-0.206-0.439c-2.635-5.354-3.246-9.776-1.816-13.147
		c2.814-6.631,13.621-10.064,20.771-12.333c2.071-0.653,4.02-1.272,5.645-1.914c7.039-2.78,12.071-5.796,15.388-9.221
		c3.964-4.083,4.737-7.995,4.688-10.555c-0.121-6.194-4.857-11.698-12.387-14.393c-2.544-1.051-5.446-1.607-8.4-1.607
		c-2.011,0-4.989,0.276-7.807,1.592c-6.035,2.824-11.442,4.367-16.082,4.588c-2.468-0.125-4.2-0.661-5.321-1.171
		c0.14-2.416,0.297-4.898,0.458-7.487l0.068-1.108c1.654-26.19,3.707-58.784-4.92-78.134c-5.913-13.253-13.852-24.651-23.605-33.891
		c-8.177-7.745-17.677-14.022-28.242-18.661C286.499,76.959,269.361,75.753,260.783,75.753"/>
</g>
</svg>
