<?xml version="1.0" encoding="utf-8"?>
<!-- Generator: Adobe Illustrator 18.0.0, SVG Export Plug-In . SVG Version: 6.00 Build 0)  -->
<!DOCTYPE svg PUBLIC "-//W3C//DTD SVG 1.1//EN" "http://www.w3.org/Graphics/SVG/1.1/DTD/svg11.dtd">
<svg version="1.1" id="Isolation_Mode" xmlns="http://www.w3.org/2000/svg" xmlns:xlink="http://www.w3.org/1999/xlink" x="0px"
	 y="0px" viewBox="0 0 126.1 108.7" enable-background="new 0 0 126.1 108.7" xml:space="preserve">
<path fill-rule="evenodd" clip-rule="evenodd" fill="#B3B3B3" d="M125.5,20.2c0.9-5.3,0.9-10.7-2.3-14.8c-4.5-5.8-14.2-6-20.9-5
	c-5.4,0.8-23.6,8.9-29.9,28.2c11-0.8,16.8,0.8,15.7,12.9c-0.4,5.1-3,10.6-5.9,15.9C79,63.6,72.8,75.7,64.7,67
	c-7.3-7.8-6.8-22.8-8.4-32.7c-0.9-5.6-1.9-12.5-3.7-18.3C51,11,47.3,5.1,42.9,3.8c-4.8-1.4-10.6,0.8-14.1,2.8
	C17.9,13,9.5,22.2,0,29.8v0.7c1.9,1.8,2.4,4.8,5.2,5.2c6.5,1,12.8-6.1,17.1,1.2c2.6,4.5,3.5,9.4,5.2,14.2c2.3,6.4,4,13.5,5.9,20.9
	c3.1,12.5,7,31.3,17.8,35.9c5.5,2.3,13.9-0.8,18.1-3.3c11.4-6.8,20.3-16.5,27.9-26.5C114.5,54.6,124.1,27.9,125.5,20.2z"/>
</svg>
