<?xml version="1.0" encoding="utf-8"?>
<!-- Generator: Adobe Illustrator 18.0.0, SVG Export Plug-In . SVG Version: 6.00 Build 0)  -->
<!DOCTYPE svg PUBLIC "-//W3C//DTD SVG 1.1//EN" "http://www.w3.org/Graphics/SVG/1.1/DTD/svg11.dtd">
<svg version="1.1" id="Layer_1" xmlns="http://www.w3.org/2000/svg" xmlns:xlink="http://www.w3.org/1999/xlink" x="0px" y="0px"
	 viewBox="21.4 261.4 474.8 18.4" enable-background="new 21.4 261.4 474.8 18.4" xml:space="preserve">
<g>
	<path fill="#A1A3A7" d="M40.8,279.5c-0.1-0.5-0.4-1.3-0.7-2.2l-3.8-10.1c-0.4-1-0.6-1.8-0.8-2.7c0,0.2-0.1,0.3-0.1,0.4
		c-0.2,0.6-0.6,1.8-0.7,2.3l-3.8,10.1c-0.5,1.3-0.6,1.7-0.7,2.2h-2.3c-0.1-0.5-0.1-0.5-0.8-2.3l-4.4-12.7c-0.5-1.3-0.7-1.9-1.2-2.7
		h2.9c0,0.7,0.2,1.5,0.6,2.4l3.4,10.1c0.2,0.6,0.4,1.2,0.8,2.7c0.2-0.9,0.6-2,0.8-2.7l3.8-10.3c0.2-0.7,0.5-1.6,0.6-2.2h2.1
		c0.1,0.7,0.4,1.4,0.7,2.3l3.8,10.2c0.1,0.6,0.2,0.8,0.8,2.7l0.8-2.7l3.4-10.1c0.2-0.9,0.5-1.7,0.6-2.4h2.9
		c-0.5,0.8-0.7,1.4-1.1,2.7L44,277.2c-0.6,1.7-0.6,1.8-0.7,2.3H40.8z"/>
	<path fill="#A1A3A7" d="M72.6,279.6c-1-0.1-1.7-0.2-3.2-0.2H61c-1.4,0-2.1,0-3.2,0.1c0.1-0.9,0.2-1.6,0.2-2.8v-12.5
		c0-1,0-1.6-0.2-2.7c1,0.1,1.8,0.1,3.2,0.1h8.2c1.3,0,2.3-0.1,3.2-0.2v1.9c-1-0.1-1.8-0.2-3.2-0.2h-8.8v6H68c1.3,0,2.1-0.1,3.2-0.2
		v1.9c-1-0.1-1.7-0.2-3.2-0.2h-7.6v6.9h9.2c1.3,0,2.1-0.1,3.2-0.2v2.1H72.6z"/>
	<path fill="#A1A3A7" d="M94.6,266.3c-0.2-0.9-0.5-1.4-1-1.9c-1-0.9-2.4-1.4-4.3-1.4c-3,0-5,1.3-5,3.2c0,1.2,0.8,2.1,2.5,2.7
		c0.8,0.3,0.8,0.3,4.2,0.8c4.6,0.8,6.4,2.2,6.4,5c0,3.3-2.7,5.1-7.7,5.1c-3.2,0-5.6-0.7-6.9-2.2c-0.7-0.8-1.1-1.6-1.3-3.1l2.5-0.3
		c0.1,1.1,0.2,1.7,0.8,2.3c1,1,2.6,1.7,4.8,1.7c3.4,0,5.5-1.3,5.5-3.5c0-1.1-0.6-2-1.7-2.5c-1-0.5-1.3-0.5-4.8-1.1
		c-1.8-0.3-3-0.6-3.9-1.1c-1.8-0.8-2.6-2-2.6-3.7c0-2.9,2.9-4.9,7.4-4.9c2.9,0,5.1,0.7,6.3,2.1c0.7,0.7,1,1.3,1.3,2.5L94.6,266.3z"
		/>
	<path fill="#A1A3A7" d="M115.2,276.8c0,1.1,0,1.8,0.2,2.7h-2.7c0.2-0.7,0.2-1.6,0.2-2.7v-13.4h-4.5c-1.4,0-2.4,0.1-3.3,0.2v-2
		c1,0.1,1.8,0.2,3.3,0.2h11.2c1.7,0,2.5-0.1,3.4-0.2v1.9c-1-0.1-1.8-0.2-3.4-0.2h-4.4V276.8z"/>
	<path fill="#A1A3A7" d="M150.5,270.6c0,5.6-3.9,9.2-10,9.2s-9.9-3.6-9.9-9.2c0-5.6,3.9-9.2,10-9.2
		C146.7,261.4,150.5,265,150.5,270.6z M145.6,276.6c1.7-1.3,2.5-3.5,2.5-6c0-2.6-0.8-4.6-2.5-6c-1.3-1-3.1-1.7-5-1.7
		c-4.6,0-7.6,3-7.6,7.5c0,4.6,3.1,7.6,7.6,7.6C142.6,278.2,144.3,277.6,145.6,276.6z"/>
	<path fill="#A1A3A7" d="M162.9,261.8c0.2,0.6,0.6,1,1.4,2.1l9,11c0.4,0.4,1.2,1.6,1.9,2.6c-0.1-1.8-0.1-2.9-0.1-3.1v-9.9
		c0-1.1,0-1.8-0.2-2.7h2.6c-0.1,0.8-0.2,1.5-0.2,2.7v12.5c0,1.2,0,1.8,0.2,2.6h-3.1c-0.4-0.6-0.7-1.1-1.5-2.1l-9.3-11.3
		c-0.2-0.3-1.2-1.7-1.5-2.2c0.1,1.1,0.1,2.2,0.1,2.8v10c0,1.2,0,2,0.2,2.8h-2.6c0.1-0.7,0.2-1.6,0.2-2.8v-12.4c0-1.1,0-1.7-0.2-2.6
		C159.8,261.8,162.9,261.8,162.9,261.8z"/>
	<path fill="#A1A3A7" d="M213.3,261.8c-0.1,0.8-0.2,1.5-0.2,2.6v10.4c0,1.6-0.4,2.7-1.2,3.5c-1,1-2.5,1.5-4.6,1.5
		c-2,0-3.7-0.5-4.8-1.4c-0.6-0.5-0.8-0.8-1.4-1.7l2.3-0.7c0.4,0.7,0.6,1,1,1.4c0.7,0.6,1.7,0.9,3,0.9c2.5,0,3.6-1,3.6-3.4v-10.4
		c0-1.1,0-1.8-0.2-2.6C210.6,261.8,213.3,261.8,213.3,261.8z"/>
	<path fill="#A1A3A7" d="M239.5,279.5c-0.2-0.8-0.6-1.7-0.8-2.4l-1.5-3h-10l-1.5,3c-0.5,0.9-0.7,1.6-0.8,2.4h-3
		c0.6-0.7,0.8-1.1,1.5-2.7l6.4-12.8c0.6-1.1,0.8-1.6,1-2.2h2.9c0.1,0.5,0.2,0.7,1,2.2l6.4,12.8c0.7,1.4,1.1,2.1,1.5,2.7H239.5z
		 M232.7,264.8c-0.1-0.2-0.1-0.2-0.6-1.5c-0.1,0.4-0.2,0.6-0.4,0.7c-0.1,0.4-0.2,0.6-0.4,0.7l-3.7,7.7h8.7L232.7,264.8z"/>
	<path fill="#A1A3A7" d="M254.2,266.6c-0.5-0.7-0.7-1.5-1.3-2.9c0.1,1,0.2,2.5,0.2,3v10c0,1.2,0,1.9,0.2,2.8h-2.6
		c0.1-0.8,0.2-1.6,0.2-2.8v-12.2c0-1.2,0-1.9-0.2-2.8h3.3c0.1,0.7,0.5,1.6,1,2.3l7.1,12.8l7-12.8c0.5-0.9,0.8-1.7,1-2.3h3.3
		c-0.1,0.9-0.2,1.6-0.2,2.8v12.2c0,1.3,0,1.9,0.2,2.8h-2.6c0.1-0.8,0.2-1.7,0.2-2.8v-10.1c0-0.6,0.1-1.9,0.2-2.8
		c-0.2,0.9-0.7,1.9-1.2,2.8l-5.8,10.5c-0.6,1-0.8,1.7-1.1,2.4h-2c-0.1-0.6-0.5-1.4-1.1-2.5L254.2,266.6z"/>
	<path fill="#A1A3A7" d="M298.4,279.6c-1-0.1-1.7-0.2-3.2-0.2h-8.4c-1.4,0-2.1,0-3.2,0.1c0.1-0.9,0.2-1.6,0.2-2.8v-12.5
		c0-1,0-1.6-0.2-2.7c1,0.1,1.8,0.1,3.2,0.1h8.2c1.3,0,2.3-0.1,3.2-0.2v1.9c-1-0.1-1.8-0.2-3.2-0.2h-8.8v6h7.6c1.3,0,2.1-0.1,3.2-0.2
		v1.9c-1-0.1-1.7-0.2-3.2-0.2h-7.6v6.9h9.2c1.3,0,2.1-0.1,3.2-0.2v2.1H298.4z"/>
	<path fill="#A1A3A7" d="M320.5,266.3c-0.2-0.9-0.5-1.4-1-1.9c-1-0.9-2.4-1.4-4.3-1.4c-3,0-5,1.3-5,3.2c0,1.2,0.8,2.1,2.5,2.7
		c0.8,0.3,0.8,0.3,4.2,0.8c4.6,0.8,6.4,2.2,6.4,5c0,3.3-2.7,5.1-7.7,5.1c-3.2,0-5.6-0.7-6.9-2.2c-0.7-0.8-1.1-1.6-1.3-3.1l2.5-0.3
		c0.1,1.1,0.2,1.7,0.8,2.3c1,1,2.6,1.7,4.8,1.7c3.4,0,5.5-1.3,5.5-3.5c0-1.1-0.6-2-1.7-2.5c-1-0.5-1.3-0.5-4.8-1.1
		c-1.8-0.3-3-0.6-3.9-1.1c-1.8-0.8-2.6-2-2.6-3.7c0-2.9,2.9-4.9,7.4-4.9c2.9,0,5.1,0.7,6.3,2.1c0.7,0.7,1,1.3,1.3,2.5L320.5,266.3z"
		/>
	<path fill="#A1A3A7" d="M348.1,279.5c0.1-0.8,0.2-1.6,0.2-2.6v-12.6c0-0.9,0-1.6-0.2-2.7c1.1,0.1,1.8,0.1,3.2,0.1h5.8
		c4.4,0,6.9,1.8,6.9,5c0,3.4-2.6,5.4-7,5.4h-6.4v4.6c0,1.1,0,1.8,0.2,2.7C350.8,279.5,348.1,279.5,348.1,279.5z M357,270.7
		c3.1,0,4.8-1.3,4.8-3.7c0-2.3-1.7-3.6-4.8-3.6h-6.4v7.2H357z"/>
	<path fill="#A1A3A7" d="M387.1,279.5c-0.2-0.8-0.6-1.7-0.8-2.4l-1.5-3h-10l-1.5,3c-0.5,0.9-0.7,1.6-0.8,2.4h-3
		c0.6-0.7,0.8-1.1,1.5-2.7l6.4-12.8c0.6-1.1,0.8-1.6,1-2.2h2.9c0.1,0.5,0.2,0.7,1,2.2l6.4,12.8c0.7,1.4,1.1,2.1,1.5,2.7H387.1z
		 M380.3,264.8c-0.1-0.2-0.1-0.2-0.6-1.5c-0.1,0.4-0.2,0.6-0.4,0.7c-0.1,0.4-0.2,0.6-0.4,0.7l-3.7,7.7h8.7L380.3,264.8z"/>
	<path fill="#A1A3A7" d="M401.6,279.5c-1.3,0-2.1,0-3.1,0.1c0.1-0.9,0.2-1.7,0.2-2.8v-12.3c0-1.2,0-1.9-0.2-2.8h2.7
		c-0.1,0.8-0.2,1.5-0.2,2.8v13.3h9c1.4,0,2.3-0.1,3.3-0.2v2c-1-0.1-1.7-0.2-3.3-0.2C410,279.5,401.6,279.5,401.6,279.5z"/>
	<path fill="#A1A3A7" d="M425,266.6c-0.5-0.7-0.7-1.5-1.3-2.9c0.1,1,0.2,2.5,0.2,3v10c0,1.2,0,1.9,0.2,2.8h-2.6
		c0.1-0.8,0.2-1.6,0.2-2.8v-12.2c0-1.2,0-1.9-0.2-2.8h3.3c0.1,0.7,0.5,1.6,1,2.3l7.1,12.8l7-12.8c0.5-0.9,0.8-1.7,1-2.3h3.3
		c-0.1,0.9-0.2,1.6-0.2,2.8v12.2c0,1.3,0,1.9,0.2,2.8h-2.6c0.1-0.8,0.2-1.7,0.2-2.8v-10.1c0-0.6,0.1-1.9,0.2-2.8
		c-0.2,0.9-0.7,1.9-1.2,2.8l-5.8,10.5c-0.6,1-0.8,1.7-1.1,2.4h-2c-0.1-0.6-0.5-1.4-1.1-2.5L425,266.6z"/>
	<path fill="#A1A3A7" d="M469.1,279.6c-1-0.1-1.7-0.2-3.2-0.2h-8.3c-1.4,0-2.1,0-3.2,0.1c0.1-0.9,0.2-1.6,0.2-2.8v-12.5
		c0-1,0-1.6-0.2-2.7c1,0.1,1.8,0.1,3.2,0.1h8.2c1.3,0,2.3-0.1,3.2-0.2v1.9c-1-0.1-1.8-0.2-3.2-0.2H457v6h7.6c1.3,0,2.1-0.1,3.2-0.2
		v1.9c-1-0.1-1.7-0.2-3.2-0.2H457v6.9h9.2c1.3,0,2.1-0.1,3.2-0.2v2.1H469.1z"/>
	<path fill="#A1A3A7" d="M493.1,279.5c-0.1-0.7-0.5-1.7-1.7-3.9c-1.7-3.2-2.7-4.1-5.1-4.1H481v5.5c0,1.2,0,1.8,0.2,2.7h-2.6
		c0.1-0.8,0.2-1.5,0.2-2.6v-12.7c0-1,0-1.7-0.2-2.7c1,0.1,1.8,0.1,3.1,0.1h6.3c4.2,0,6.4,1.6,6.4,4.5c0,1.5-0.6,2.6-1.7,3.4
		c-0.8,0.6-1.5,0.9-3.1,1.2c1.2,0.3,1.9,0.9,3,2.6c0.7,1.1,1.4,2.3,2.3,3.9c0.5,0.9,0.8,1.7,1.3,2.2L493.1,279.5L493.1,279.5z
		 M487.7,269.7c1.3,0,2.5-0.4,3.2-1c0.7-0.5,1.1-1.4,1.1-2.4c0-2-1.4-3-4.2-3h-7v6.4H487.7z"/>
</g>
</svg>
