<?xml version="1.0" encoding="utf-8"?>
<!-- Generator: Adobe Illustrator 18.0.0, SVG Export Plug-In . SVG Version: 6.00 Build 0)  -->
<!DOCTYPE svg PUBLIC "-//W3C//DTD SVG 1.1//EN" "http://www.w3.org/Graphics/SVG/1.1/DTD/svg11.dtd">
<svg version="1.1" id="YouTube_Logo" xmlns="http://www.w3.org/2000/svg" xmlns:xlink="http://www.w3.org/1999/xlink" x="0px"
	 y="0px" viewBox="0 0 471.2 334" enable-background="new 0 0 471.2 334" xml:space="preserve">
<g id="Tube">
	<path fill="#B3B3B3" d="M464,60.8C455,24.8,438.2,11,407.2,6c-17.9-2.6-103.7-6-171.8-6l0.3,0C167.7,0,81.9,3.4,64,6
		C33,11,16.2,24.8,7.2,60.8C4.2,72.8,0,139,0,164.3v5.5c0,25.3,4.2,91.4,7.2,103.5C16.2,309.2,33,323,64,328
		c17.9,2.6,103.7,6,171.8,6l-0.3,0c68.1,0,153.9-3.4,171.8-6c31-5,47.8-18.8,56.8-54.8c3-12.1,7.2-78.2,7.2-103.5v-5.5
		C471.2,139,467,72.8,464,60.8z"/>
</g>
<polygon id="Play" fill="#FFFFFF" points="186.7,99.3 311.8,164.7 186.7,233.2 "/>
</svg>
